<svg id="Layer_1" data-name="Layer 1" xmlns="http://www.w3.org/2000/svg" viewBox="0 0 991.7 258.71"><defs><style>.cls-1{fill:#4c301c;}.cls-2{fill:#996844;}.cls-3,.cls-4{opacity:0.1;}.cls-4{fill:#fff;}</style></defs><title>backText</title><path class="cls-1" d="M546.15,292.5H546a3.72,3.72,0,0,1-.93-.17l-15-4.89-16.29.81h-.18a3.43,3.43,0,0,1-1.52-.35l-175,4.6H42.3a3.5,3.5,0,0,1-3.5-3.5V254.77a2.92,2.92,0,0,1,0-.51l5.81-39.7,2.17.32.08-3.32h0a3.2,3.2,0,0,0-2.76,1.4,33.29,33.29,0,0,0,1.41-4.57l5.57-38-11-8.65A3.48,3.48,0,0,1,38.8,159V47.69a3.5,3.5,0,0,1,3.5-3.5H189.41l277.88,4.24,16.2-7.33a3.7,3.7,0,0,1,1.44-.31l294.27,3.4H1020a3.5,3.5,0,0,1,3.5,3.5V102c0,.14,0,.27,0,.4l-6.36,55.72,5.75,8.27a3.47,3.47,0,0,1,.63,2V289a3.5,3.5,0,0,1-3.5,3.5Z" transform="translate(-35.3 -37.29)"/><path class="cls-1" d="M485,44.29l294.18,3.4H1020V102l-5.22,45.73L1013.49,159l6.51,9.35V289H546.12l-15.57-5.08h-.48l-16.49.82,1.55-.43L337,289H42.3V254.77l5.81-39.71H46.82c.69,0,2.17-6,2.17-6l5.88-40.16L42.3,159V47.69H189.41L468,51.94l16.91-7.65v0l.05,0M46.81,215.06h0M485,37.29l-.44,0a6.65,6.65,0,0,0-2.49.61l-15.49,7-277-4.23H42.3a7,7,0,0,0-7,7V159A7,7,0,0,0,38,164.5l9.39,7.4-5.24,35.8c-.3,1.15-.67,2.43-.93,3.19a7,7,0,0,0-.62,7.35l-5.19,35.51a7,7,0,0,0-.08,1V289a7,7,0,0,0,7,7H337.16l174.29-4.58a6.81,6.81,0,0,0,2.12.33h.36l15.64-.78L544,295.65a6.75,6.75,0,0,0,2.17.35H1020a7,7,0,0,0,7-7V168.35a7,7,0,0,0-1.26-4l-5-7.18,1-8.68,5.21-45.73a7.16,7.16,0,0,0,0-.8V47.69a7,7,0,0,0-7-7H779.2l-294.14-3.4Z" transform="translate(-35.3 -37.29)"/><polygon class="cls-2" points="984.7 251.71 630.24 251.71 510.85 251.71 495.85 246.61 301.67 251.71 7 251.71 7 217.47 19.57 131.61 7 121.71 7 67.64 7 10.4 154.11 10.4 432.9 14.65 449.67 7 743.85 10.4 984.7 10.4 984.7 64.67 978.19 121.71 984.7 131.05 984.7 180.58 984.7 251.71"/><polygon class="cls-3" points="440.52 41.84 449.63 7 432.71 14.65 440.52 41.84"/><polygon class="cls-3" points="536.86 231.31 510.82 251.71 495.2 246.61 536.86 231.31"/><polygon class="cls-3" points="936.53 127.65 978.19 121.71 984.7 131.05 936.53 127.65"/><path class="cls-4" d="M513.58,284.75l58.58-16.14s-41.28,15.29-41.47,15.29Z" transform="translate(-35.3 -37.29)"/><polygon class="cls-3" points="60.38 126.8 7 121.71 20.02 131.9 60.38 126.8"/><polygon class="cls-4" points="18.13 141.49 60.38 126.8 20.02 131.9 18.13 141.49"/><polygon class="cls-4" points="414.16 14.36 440.31 41.1 432.71 14.65 414.16 14.36"/><polygon class="cls-4" points="978.19 121.71 936.53 127.65 979.48 110.4 978.19 121.71"/><ellipse class="cls-4" cx="158.02" cy="68.18" rx="40.36" ry="14.44"/><ellipse class="cls-4" cx="740.6" cy="185.01" rx="31.9" ry="20.82"/><ellipse class="cls-4" cx="891.61" cy="38.01" rx="44.91" ry="10.62"/><ellipse class="cls-4" cx="588.28" cy="30.37" rx="14.97" ry="9.77"/><ellipse class="cls-4" cx="58.42" cy="212.62" rx="8.46" ry="14.44"/><path class="cls-3" d="M49,209.06s288.18-9.83,394.94,0c-112.61,6.24-395.12,6-397.12,6C47.51,215.08,49,209.06,49,209.06Z" transform="translate(-35.3 -37.29)"/><path class="cls-3" d="M1016.75,124.88s-171.47,9.83-235,0c67-6.24,235.1-6,236.29-6C1017.63,118.86,1016.75,124.88,1016.75,124.88Z" transform="translate(-35.3 -37.29)"/><path d="M258.41,210" transform="translate(-35.3 -37.29)"/></svg>