<svg id="Layer_1" data-name="Layer 1" xmlns="http://www.w3.org/2000/svg" viewBox="0 0 813 821"><title>setting</title><path d="M434.15,928.5a5.49,5.49,0,0,1-3.36-1.15l-10.27-7.93-266,9.08H59a5.5,5.5,0,0,1-5.5-5.5V851.7l4.4-206.51-3.35-4.6a5.52,5.52,0,0,1-1-3.24V483.06a5.55,5.55,0,0,1,.39-2.27l7-17.6a5.32,5.32,0,0,1,0-.69L61,438.71S53.5,182.26,53.5,182.2V161.61a5.44,5.44,0,0,1,.1-1.06L61,122.94a5.5,5.5,0,0,1,5.4-4.44H842.6a5.5,5.5,0,0,1,5.4,4.44l7.39,37.59a6,6,0,0,1,.09.61v.06a3.1,3.1,0,0,1,0,.43V923a5.5,5.5,0,0,1-5.5,5.5Z" transform="translate(-48 -113)" style="fill:#4c301c"/><path d="M842.6,124l7.4,37.61h-3.8l.12.61,3.68-.61V923H434.34l-.18-.14V923l-11.84-9.15-17.44.6L154.36,923H59V851.82l1.36-64h0l3.08-144.35L59,637.35V483.27l.11-.28-.11-.15,7.75-19.35-.35-1,0-23.87L59,182.2V161.61L66.4,124H842.6m0-11H66.4a11,11,0,0,0-10.79,8.88l-7.4,37.61a10.81,10.81,0,0,0-.21,2.12v20.91l7.45,256.27-.05,23.44-6.61,16.52a10.9,10.9,0,0,0-.79,4.31V637.35a11,11,0,0,0,2.11,6.48l2.25,3.1-3,140.64-1.37,64V923a11,11,0,0,0,11,11h95.73l250.51-8.55,13.48-.46,8.71,6.72a11,11,0,0,0,6.72,2.3H850a11,11,0,0,0,11-11V161.66q0-.61-.06-1.23h0v0h0v0h0c0-.31-.08-.62-.14-.93l-7.4-37.57A11,11,0,0,0,842.6,113Z" transform="translate(-48 -113)" style="fill:#4c301c"/><polygon points="802 48.61 794.6 11 18.4 11 11 48.61 14.8 48.61 11 67.93 802 67.93 798.2 48.61 802 48.61" style="fill:#af7b58"/><polygon points="802 810 608.13 810 386.34 810 374.31 800.85 106.36 810 11 810 11 738.82 15.44 530.45 11 524.35 11 370.27 19.14 349.51 11 69.2 11 48.61 53.08 48.61 311.42 57.76 328.44 42.51 487.52 48.61 491.22 42.51 746.8 57.76 802 48.61 802 810" style="fill:#996844"/><path d="M327.33,291.58v2A16.31,16.31,0,0,1,327.33,291.58Z" transform="translate(-48 -113)"/><path d="M321.07,288.08a16.68,16.68,0,0,0,0-2Z" transform="translate(-48 -113)"/><polygon points="342.5 85.21 328.44 42.51 311.42 57.76 342.5 85.21" style="opacity:0.1"/><polygon points="285.45 56.84 342.5 85.21 311.42 56.74 285.45 56.84" style="fill:#fff;opacity:0.1"/><polygon points="11 369.84 38.38 406.43 19.14 349.51 11 369.84" style="opacity:0.1"/><polygon points="18.45 325.64 38.38 406.43 18.4 349.51 18.45 325.64" style="fill:#fff;opacity:0.1"/><polygon points="30.98 522.32 11 524.35 15.44 530.45 30.98 522.32" style="opacity:0.1"/><polygon points="15.25 539.48 30.98 522.32 15.44 530.45 15.25 539.48" style="fill:#fff;opacity:0.1"/><polygon points="497.88 59.79 491.22 42.51 487.52 48.61 497.88 59.79" style="opacity:0.1"/><polygon points="479.67 48.31 497.88 59.79 487.52 48.61 479.67 48.31" style="fill:#fff;opacity:0.1"/><polygon points="388.37 754.09 386.15 810 374.31 800.85 388.37 754.09" style="opacity:0.1"/><polygon points="356.87 801.45 388.37 754.09 374.31 800.85 356.87 801.45" style="fill:#fff;opacity:0.1"/><ellipse cx="105.34" cy="169.58" rx="18.87" ry="17.28" style="fill:#fff;opacity:0.1"/><ellipse cx="461.26" cy="657.52" rx="18.87" ry="17.28" style="fill:#fff;opacity:0.1"/><ellipse cx="789.69" cy="507.91" rx="24.27" ry="37.32" transform="translate(-196.9 369.89) rotate(-31.22)" style="fill:#fff;opacity:0.1"/><ellipse cx="474.2" cy="289.53" rx="13.32" ry="36.6" style="fill:#fff;opacity:0.1"/><path d="M165.37,681.06a26.44,26.44,0,0,0-14.46,4.23,19.88,19.88,0,0,0-12.37-4.23c-10.42,0-18.86,7.74-18.86,17.28s8.44,17.29,18.86,17.29a20.34,20.34,0,0,0,5-.62,25.38,25.38,0,0,0,21.85,11.8c13.79,0,25-10.24,25-22.87S179.16,681.06,165.37,681.06Z" transform="translate(-48 -113)" style="fill:#fff;opacity:0.1"/><path d="M780.65,224.64c-2,0-3.91,3.94-5.45,10.62-1.25-6.61-2.88-10.62-4.66-10.62-3.93,0-7.11,19.43-7.11,43.39s3.18,43.4,7.11,43.4c.65,0,1.28-.54,1.87-1.54,1.61,17.66,4.7,29.62,8.24,29.62,5.2,0,9.41-25.72,9.41-57.44S785.85,224.64,780.65,224.64Z" transform="translate(-48 -113)" style="fill:#fff;opacity:0.1"/><path d="M60.36,787.8s111.85,12.2,278.34,0C318,777.63,125,771.37,60.57,778.06,60.48,787.8,60.36,787.8,60.36,787.8Z" transform="translate(-48 -113)" style="opacity:0.1"/><path d="M774.66,622.72,776.44,473l-74.79-7.69A254.81,254.81,0,0,0,688,431.19L736.83,374,632.17,266.78l-58.32,47.45a255.53,255.53,0,0,0-33.65-14.45l-6.05-75-78.71-.94V394.29c.6,0,1.19-.08,1.8-.07a149.75,149.75,0,0,1-1.8,299.49V864.15l71.06.85,7.7-74.78a256,256,0,0,0,34-13.63l57.25,48.8L732.67,720.73,685.22,662.4a258.34,258.34,0,0,0,14.47-33.71Z" transform="translate(-48 -113)" style="fill:#fb971f"/><path d="M453.64,693.77a149.75,149.75,0,0,1,1.8-299.48V223.85L384.38,223l-7.76,74.8a255,255,0,0,0-33.9,13.59l-57.34-48.77L178.21,367.27l47.41,58.39a256.28,256.28,0,0,0-14.4,33.58l-75,6.05-1.77,149.77,74.82,7.77a253.19,253.19,0,0,0,13.57,33.91l-48.76,57.32L278.72,821.22,337.1,773.8a254.77,254.77,0,0,0,33.65,14.45l6,75,78.72.94V693.71C454.83,693.71,454.26,693.78,453.64,693.77Z" transform="translate(-48 -113)" style="fill:#fdc00f"/><path d="M457.24,394.22a149.75,149.75,0,0,1-1.8,299.49v27.95a178.09,178.09,0,0,0,0-356.17v28.8C456,394.29,456.63,394.21,457.24,394.22Z" transform="translate(-48 -113)" style="fill:#fdc00f"/><path d="M453.64,693.77a149.75,149.75,0,0,1,1.8-299.48v-28.8a178.09,178.09,0,1,0,0,356.17V693.71C454.83,693.71,454.26,693.78,453.64,693.77Z" transform="translate(-48 -113)" style="fill:#fb971f"/></svg>