<svg xmlns="http://www.w3.org/2000/svg" xmlns:xlink="http://www.w3.org/1999/xlink" viewBox="0 0 30.15 41.07"><defs><linearGradient id="a33254e8-8344-4d01-8d59-0f21655b988a" x1="14.91" y1="22.1" x2="14.91" y2="40.7" gradientUnits="userSpaceOnUse"><stop offset="0" stop-color="#db1a1f"/><stop offset="0.55" stop-color="#df1f24"/><stop offset="0.58" stop-color="#df1f24"/><stop offset="0.69" stop-color="#d0181d"/><stop offset="0.88" stop-color="#bb0e13"/><stop offset="1" stop-color="#b30b10"/></linearGradient><linearGradient id="f6a1457a-95b2-464d-be9d-5e4c778cbdb9" x1="14.91" y1="22.09" x2="14.91" y2="40.09" gradientUnits="userSpaceOnUse"><stop offset="0" stop-color="#f0e8e5"/><stop offset="0.44" stop-color="#ede3df"/><stop offset="1" stop-color="#e3d5cf"/></linearGradient><linearGradient id="b4a4bceb-9085-4d6b-bbc4-ddbc0fb1a3a4" x1="-16.52" y1="332.49" x2="-12.58" y2="332.49" gradientTransform="translate(-150.1 115.72) rotate(-90)" gradientUnits="userSpaceOnUse"><stop offset="0" stop-color="#db1a1f"/><stop offset="0.03" stop-color="#e01a1f"/><stop offset="0.06" stop-color="#ed1b1f"/><stop offset="0.07" stop-color="#f21b1f"/><stop offset="0.19" stop-color="#ed1c20"/><stop offset="0.33" stop-color="#df1f24"/><stop offset="0.5" stop-color="#d0181d"/><stop offset="0.8" stop-color="#bb0e13"/><stop offset="1" stop-color="#b30b10"/></linearGradient><linearGradient id="b5b1d0e6-fe97-4890-9277-5d911c0f3609" x1="-16.52" y1="332.7" x2="-12.58" y2="332.7" gradientTransform="translate(-150.1 115.72) rotate(-90)" gradientUnits="userSpaceOnUse"><stop offset="0" stop-color="#db1a1f"/><stop offset="0.02" stop-color="#d61a1f"/><stop offset="0.04" stop-color="#c91a1f"/><stop offset="0.07" stop-color="#b31b1f"/><stop offset="0.07" stop-color="#af1b1f"/><stop offset="0.14" stop-color="#b41b20"/><stop offset="0.23" stop-color="#c31d21"/><stop offset="0.32" stop-color="#dc1f24"/><stop offset="0.33" stop-color="#df1f24"/><stop offset="0.5" stop-color="#d0181d"/><stop offset="0.8" stop-color="#bb0e13"/><stop offset="1" stop-color="#b30b10"/></linearGradient><linearGradient id="f9180380-ffd9-48e0-a54c-e2d45cfa55cb" x1="55.52" y1="311.3" x2="59.46" y2="311.3" gradientTransform="translate(-130.88 84.9) rotate(-72)" xlink:href="#b4a4bceb-9085-4d6b-bbc4-ddbc0fb1a3a4"/><linearGradient id="e230c97d-d430-4036-8c70-ed79da039d55" x1="55.52" y1="311.51" x2="59.46" y2="311.51" gradientTransform="translate(-130.88 84.9) rotate(-72)" xlink:href="#b5b1d0e6-fe97-4890-9277-5d911c0f3609"/><linearGradient id="b889a896-4d20-441b-9f2f-3a4b0bfb07ae" x1="118.79" y1="268.7" x2="122.73" y2="268.7" gradientTransform="translate(-103.66 62.67) rotate(-54)" xlink:href="#b4a4bceb-9085-4d6b-bbc4-ddbc0fb1a3a4"/><linearGradient id="a2686d9c-e8a8-4070-856f-c1f10a1e60ac" x1="118.79" y1="268.92" x2="122.73" y2="268.92" gradientTransform="translate(-103.66 62.67) rotate(-54)" xlink:href="#b5b1d0e6-fe97-4890-9277-5d911c0f3609"/><linearGradient id="b0a4e4d7-2a80-43f4-9495-89a5c8fa10de" x1="-258.85" y1="32" x2="-254.91" y2="32" gradientTransform="translate(13.29 317.05) rotate(144)" xlink:href="#b4a4bceb-9085-4d6b-bbc4-ddbc0fb1a3a4"/><linearGradient id="a1f1e337-b6f8-47c1-8fb2-6dfec22ab4f5" x1="-258.85" y1="32.22" x2="-254.91" y2="32.22" gradientTransform="translate(13.29 317.05) rotate(144)" xlink:href="#b5b1d0e6-fe97-4890-9277-5d911c0f3609"/><linearGradient id="f6dbf5b1-5ddc-4917-b995-5b63ee7c2a2d" x1="164.72" y1="209.31" x2="168.67" y2="209.31" gradientTransform="translate(-70.45 48.79) rotate(-36)" xlink:href="#b4a4bceb-9085-4d6b-bbc4-ddbc0fb1a3a4"/><linearGradient id="b09c412e-fdb4-4db6-92a5-5e348ba34bff" x1="164.72" y1="209.52" x2="168.67" y2="209.52" gradientTransform="translate(-70.45 48.79) rotate(-36)" xlink:href="#b5b1d0e6-fe97-4890-9277-5d911c0f3609"/><linearGradient id="b987822b-ee7f-4b38-8053-64ffe722f230" x1="-284.32" y1="102.4" x2="-280.38" y2="102.4" gradientTransform="translate(-38.07 326.62) rotate(162)" xlink:href="#b4a4bceb-9085-4d6b-bbc4-ddbc0fb1a3a4"/><linearGradient id="b25484d1-e270-43f5-b647-222d3165a670" x1="-284.32" y1="102.62" x2="-280.38" y2="102.62" gradientTransform="translate(-38.07 326.62) rotate(162)" xlink:href="#b5b1d0e6-fe97-4890-9277-5d911c0f3609"/><linearGradient id="f0857a5a-6ef3-4b86-9bd6-b9a3ff4cc291" x1="190.38" y1="137.4" x2="194.32" y2="137.4" gradientTransform="translate(-34.51 47.08) rotate(-18)" xlink:href="#b4a4bceb-9085-4d6b-bbc4-ddbc0fb1a3a4"/><linearGradient id="bbcdab25-0896-40f1-9f13-80241ee4f449" x1="190.38" y1="137.62" x2="194.32" y2="137.62" gradientTransform="translate(-34.51 47.08) rotate(-18)" xlink:href="#b5b1d0e6-fe97-4890-9277-5d911c0f3609"/><linearGradient id="b51b0b48-c302-4807-bed0-2fce0625dfe7" x1="-286.62" y1="178.48" x2="-282.68" y2="178.48" gradientTransform="translate(-89.66 321.11) rotate(180)" xlink:href="#b4a4bceb-9085-4d6b-bbc4-ddbc0fb1a3a4"/><linearGradient id="b990c3a3-33ff-44a8-8b74-dee6d824aa00" x1="-286.62" y1="178.7" x2="-282.68" y2="178.7" gradientTransform="translate(-89.66 321.11) rotate(180)" xlink:href="#b5b1d0e6-fe97-4890-9277-5d911c0f3609"/><linearGradient id="ae4db5a9-2568-4aa3-9b7d-71774810fbdc" x1="192.77" y1="62.39" x2="196.72" y2="62.39" gradientTransform="translate(0 55.29)" xlink:href="#b4a4bceb-9085-4d6b-bbc4-ddbc0fb1a3a4"/><linearGradient id="aa1a0438-08cf-432d-99f9-c6f8c9a109b3" x1="192.77" y1="62.61" x2="196.72" y2="62.61" gradientTransform="translate(0 55.29)" xlink:href="#b5b1d0e6-fe97-4890-9277-5d911c0f3609"/><linearGradient id="e2a95e01-636d-4686-89ec-f6c9ef7cfc5d" x1="-266.02" y1="250.99" x2="-262.08" y2="250.99" gradientTransform="translate(-137.57 299.18) rotate(-162)" xlink:href="#b4a4bceb-9085-4d6b-bbc4-ddbc0fb1a3a4"/><linearGradient id="ac4ccc8f-48a4-49fd-8c2d-1f302f9b4823" x1="-266.02" y1="251.21" x2="-262.08" y2="251.21" gradientTransform="translate(-137.57 299.18) rotate(-162)" xlink:href="#b5b1d0e6-fe97-4890-9277-5d911c0f3609"/><linearGradient id="b77986ce-65a8-4404-bd35-30b66bc42938" x1="171.11" y1="-10.24" x2="175.05" y2="-10.24" gradientTransform="translate(30.82 74.51) rotate(18)" xlink:href="#b4a4bceb-9085-4d6b-bbc4-ddbc0fb1a3a4"/><linearGradient id="a6769059-dad4-4cbb-9766-92a3175742f2" x1="171.11" y1="-10.02" x2="175.05" y2="-10.02" gradientTransform="translate(30.82 74.51) rotate(18)" xlink:href="#b5b1d0e6-fe97-4890-9277-5d911c0f3609"/><linearGradient id="b7300ba0-77b2-4413-9c7d-0f76e0085b01" x1="-222.75" y1="313.44" x2="-218.8" y2="313.44" gradientTransform="translate(-175.22 264.11) rotate(-144)" xlink:href="#b4a4bceb-9085-4d6b-bbc4-ddbc0fb1a3a4"/><linearGradient id="a392391e-10b3-44b3-99a6-306bf021af87" x1="-222.75" y1="313.65" x2="-218.8" y2="313.65" gradientTransform="translate(-175.22 264.11) rotate(-144)" xlink:href="#b5b1d0e6-fe97-4890-9277-5d911c0f3609"/><linearGradient id="b00054a5-080f-4d9f-801d-cebf69049e36" x1="129.34" y1="-72.84" x2="133.28" y2="-72.84" gradientTransform="translate(53.05 101.73) rotate(36)" xlink:href="#b4a4bceb-9085-4d6b-bbc4-ddbc0fb1a3a4"/><linearGradient id="ee1bb789-1935-403e-a114-a7419fe8a673" x1="129.34" y1="-72.62" x2="133.28" y2="-72.62" gradientTransform="translate(53.05 101.73) rotate(36)" xlink:href="#b5b1d0e6-fe97-4890-9277-5d911c0f3609"/><linearGradient id="a6af695c-5e1f-49d1-bafe-753d2906305f" x1="-1.83" y1="-145.1" x2="2.12" y2="-145.1" gradientTransform="translate(68.65 170.88) rotate(72)" xlink:href="#b4a4bceb-9085-4d6b-bbc4-ddbc0fb1a3a4"/><linearGradient id="bf79d6ef-3f78-4fb8-8156-734b1cb4ac14" x1="-1.83" y1="-144.88" x2="2.12" y2="-144.88" gradientTransform="translate(68.65 170.88) rotate(72)" xlink:href="#b5b1d0e6-fe97-4890-9277-5d911c0f3609"/><linearGradient id="fca20672-8ed8-4460-ba8f-f81de1ec3500" x1="-163.36" y1="360.08" x2="-159.42" y2="360.08" gradientTransform="translate(-201.33 218.67) rotate(-126)" xlink:href="#b4a4bceb-9085-4d6b-bbc4-ddbc0fb1a3a4"/><linearGradient id="e85f25f8-9cf0-420e-97e5-4f27dbc313d8" x1="-163.36" y1="360.3" x2="-159.42" y2="360.3" gradientTransform="translate(-201.33 218.67) rotate(-126)" xlink:href="#b5b1d0e6-fe97-4890-9277-5d911c0f3609"/><linearGradient id="a4a0cb47-24f4-4330-9155-873d194b70a2" x1="-77.33" y1="-91.62" x2="-73.38" y2="-91.62" gradientTransform="translate(115.72 205.39) rotate(90)" xlink:href="#b4a4bceb-9085-4d6b-bbc4-ddbc0fb1a3a4"/><linearGradient id="f85c07f6-cfa6-4db0-bbe8-6a2988a54b3a" x1="-77.33" y1="-91.4" x2="-73.38" y2="-91.4" gradientTransform="translate(115.72 205.39) rotate(90)" xlink:href="#b5b1d0e6-fe97-4890-9277-5d911c0f3609"/><linearGradient id="ba08c2be-9679-40cc-9636-10d0a2f93adf" x1="69.24" y1="-118.78" x2="73.18" y2="-118.78" gradientTransform="translate(66.94 134.93) rotate(54)" xlink:href="#b4a4bceb-9085-4d6b-bbc4-ddbc0fb1a3a4"/><linearGradient id="aa406969-3e41-43e2-a67b-2fbedfd2b60c" x1="69.24" y1="-118.56" x2="73.18" y2="-118.56" gradientTransform="translate(66.94 134.93) rotate(54)" xlink:href="#b5b1d0e6-fe97-4890-9277-5d911c0f3609"/><linearGradient id="eb2f973d-d2d0-4054-b679-229439b3eec8" x1="-150.43" y1="-70.54" x2="-146.49" y2="-70.54" gradientTransform="translate(93.8 253.29) rotate(108)" xlink:href="#b4a4bceb-9085-4d6b-bbc4-ddbc0fb1a3a4"/><linearGradient id="b1faa03c-01f4-435d-b6fa-9feaddb03299" x1="-150.43" y1="-70.33" x2="-146.49" y2="-70.33" gradientTransform="translate(93.8 253.29) rotate(108)" xlink:href="#b5b1d0e6-fe97-4890-9277-5d911c0f3609"/><linearGradient id="a32f9d24-6271-47e8-b6ca-65e931476e1d" x1="-92.12" y1="384.9" x2="-88.17" y2="384.9" gradientTransform="translate(-210.89 167.32) rotate(-108)" xlink:href="#b4a4bceb-9085-4d6b-bbc4-ddbc0fb1a3a4"/><linearGradient id="bbfb44ca-4d3a-4f1f-9fcf-56aa12e87735" x1="-92.12" y1="385.11" x2="-88.17" y2="385.11" gradientTransform="translate(-210.89 167.32) rotate(-108)" xlink:href="#b5b1d0e6-fe97-4890-9277-5d911c0f3609"/><linearGradient id="bb3e92b8-e0a3-4722-a884-4cb577361593" x1="-212.19" y1="-28.1" x2="-208.25" y2="-28.1" gradientTransform="translate(58.73 290.94) rotate(126)" xlink:href="#b4a4bceb-9085-4d6b-bbc4-ddbc0fb1a3a4"/><linearGradient id="b737d971-b990-43a3-b923-532282eedfe1" x1="-212.19" y1="-27.88" x2="-208.25" y2="-27.88" gradientTransform="translate(58.73 290.94) rotate(126)" xlink:href="#b5b1d0e6-fe97-4890-9277-5d911c0f3609"/><clipPath id="ab1cdf7b-f51d-43d3-b0c8-7330bdd70753" transform="translate(-179.79 -115.08)"><circle cx="194.7" cy="130.32" r="11.05" style="fill:none"/></clipPath><radialGradient id="bbe7ef07-8338-43e1-af04-3aef2d730124" cx="262.02" cy="164.02" r="42.94" gradientTransform="translate(-123.79 -59.08) scale(0.5)" gradientUnits="userSpaceOnUse"><stop offset="0.01" stop-color="#f6c054"/><stop offset="0.3" stop-color="#f2a942"/><stop offset="0.54" stop-color="#ffea72"/><stop offset="0.58" stop-color="#fff071"/><stop offset="0.59" stop-color="#fff171"/><stop offset="0.76" stop-color="#fada61"/><stop offset="0.96" stop-color="#f3b94a"/></radialGradient><radialGradient id="a7c27585-bb9a-409e-b73c-2b423cf81c96" cx="262.02" cy="164.02" r="42.94" gradientTransform="translate(56 56) scale(0.5)" gradientUnits="userSpaceOnUse"><stop offset="0" stop-color="#ffffc3"/><stop offset="0.95" stop-color="#ffea72"/></radialGradient><linearGradient id="a927bf8c-3d76-4faf-a1c8-e82904c7ff7e" x1="201.44" y1="124.88" x2="187.94" y2="135.78" gradientTransform="translate(292.06 -82.78) rotate(80.76)" gradientUnits="userSpaceOnUse"><stop offset="0.48" stop-color="#cc9434"/><stop offset="0.68" stop-color="#ffea72"/><stop offset="0.76" stop-color="#ffe76c"/><stop offset="0.87" stop-color="#ffde5c"/><stop offset="0.96" stop-color="#ffd44a"/></linearGradient><linearGradient id="ebdd11fc-316f-4743-816f-b995d446edae" x1="190.71" y1="122.32" x2="198.67" y2="138.29" xlink:href="#a927bf8c-3d76-4faf-a1c8-e82904c7ff7e"/><linearGradient id="fd69203b-6e09-4802-bf1c-d45e242c409e" x1="9.43" y1="9.25" x2="20.52" y2="21.39" gradientUnits="userSpaceOnUse"><stop offset="0.01" stop-color="#f6c054"/><stop offset="0.54" stop-color="#ffea72"/><stop offset="0.58" stop-color="#fff071"/><stop offset="0.59" stop-color="#fff171"/><stop offset="0.82" stop-color="#ffe05a"/><stop offset="0.96" stop-color="#ffd44a"/></linearGradient><linearGradient id="ab15d89c-24a8-4935-a50f-58172782340b" x1="201.37" y1="131.09" x2="201.88" y2="131.09" gradientUnits="userSpaceOnUse"><stop offset="0" stop-color="#f3ce5e"/><stop offset="1" stop-color="#f2be4a"/></linearGradient><linearGradient id="e1c4acbd-c40c-4629-8f6f-b1ecaf67a87c" x1="201.18" y1="132.09" x2="201.69" y2="132.09" xlink:href="#ab15d89c-24a8-4935-a50f-58172782340b"/><linearGradient id="f8122382-7a67-496b-9c23-8961fbee66b8" x1="200.85" y1="133.05" x2="201.36" y2="133.05" xlink:href="#ab15d89c-24a8-4935-a50f-58172782340b"/><linearGradient id="b59757f5-170d-4e8b-8dc2-d7c4f2358aea" x1="200.39" y1="133.95" x2="200.9" y2="133.95" xlink:href="#ab15d89c-24a8-4935-a50f-58172782340b"/><linearGradient id="ee06913e-9cdb-41c9-bb6c-0f673cc0d39f" x1="199.8" y1="134.78" x2="200.31" y2="134.78" xlink:href="#ab15d89c-24a8-4935-a50f-58172782340b"/><linearGradient id="fb2a4a8e-68a8-4c35-b887-9ff2d898949f" x1="199.09" y1="135.51" x2="199.6" y2="135.51" xlink:href="#ab15d89c-24a8-4935-a50f-58172782340b"/><linearGradient id="ad0a52a3-a561-4adb-8fe7-64ef9a9a676b" x1="198.29" y1="136.13" x2="198.8" y2="136.13" xlink:href="#ab15d89c-24a8-4935-a50f-58172782340b"/><linearGradient id="aa9fb80c-63b7-4058-a2b3-467594ee15a8" x1="197.4" y1="136.63" x2="197.91" y2="136.63" xlink:href="#ab15d89c-24a8-4935-a50f-58172782340b"/><linearGradient id="f1b6058a-bbef-4e8d-b52c-7f78f9d24bf1" x1="196.45" y1="137" x2="196.96" y2="137" xlink:href="#ab15d89c-24a8-4935-a50f-58172782340b"/><linearGradient id="e59a8917-ab9b-49db-9e82-e24317d364de" x1="195.46" y1="137.21" x2="195.97" y2="137.21" xlink:href="#ab15d89c-24a8-4935-a50f-58172782340b"/><linearGradient id="a838e9e6-c53c-4e5e-9035-e4767dcb6193" x1="194.44" y1="137.29" x2="194.95" y2="137.29" xlink:href="#ab15d89c-24a8-4935-a50f-58172782340b"/><linearGradient id="ac86bf9d-7cf5-4468-9936-0b8fa6a0c819" x1="193.43" y1="137.21" x2="193.94" y2="137.21" xlink:href="#ab15d89c-24a8-4935-a50f-58172782340b"/><linearGradient id="f60d71f7-2e6b-469f-bb2a-b565498bb07f" x1="192.44" y1="137" x2="192.95" y2="137" xlink:href="#ab15d89c-24a8-4935-a50f-58172782340b"/><linearGradient id="b48aca1a-062b-4956-b671-abeee8bedfa1" x1="191.49" y1="136.63" x2="191.99" y2="136.63" xlink:href="#ab15d89c-24a8-4935-a50f-58172782340b"/><linearGradient id="bf535370-4b80-46ec-b775-529e673fd80b" x1="190.6" y1="136.13" x2="191.11" y2="136.13" xlink:href="#ab15d89c-24a8-4935-a50f-58172782340b"/><linearGradient id="ea43e815-5bc5-4a1e-8502-f9aa13389204" x1="189.8" y1="135.51" x2="190.31" y2="135.51" xlink:href="#ab15d89c-24a8-4935-a50f-58172782340b"/><linearGradient id="b76e93ce-8f1c-4df5-bc7e-c49655394d10" x1="189.09" y1="134.78" x2="189.6" y2="134.78" xlink:href="#ab15d89c-24a8-4935-a50f-58172782340b"/><linearGradient id="b11b5b63-646c-49a0-a1ed-e5fb16806023" x1="188.5" y1="133.95" x2="189.01" y2="133.95" xlink:href="#ab15d89c-24a8-4935-a50f-58172782340b"/><linearGradient id="b08fd158-4bd2-4913-9c1d-8e640ad2724e" x1="188.03" y1="133.05" x2="188.54" y2="133.05" xlink:href="#ab15d89c-24a8-4935-a50f-58172782340b"/><linearGradient id="be418e36-bcd4-4e5d-9721-d59065c083b2" x1="187.71" y1="132.09" x2="188.22" y2="132.09" xlink:href="#ab15d89c-24a8-4935-a50f-58172782340b"/><linearGradient id="a6b33dac-783d-4b6a-8216-9ba814be6b33" x1="187.52" y1="131.09" x2="188.03" y2="131.09" xlink:href="#ab15d89c-24a8-4935-a50f-58172782340b"/><linearGradient id="be871184-2c7b-4b0e-a538-618d22e07ddb" x1="187.49" y1="130.07" x2="188" y2="130.07" xlink:href="#ab15d89c-24a8-4935-a50f-58172782340b"/><linearGradient id="aa5e25a0-8b2e-4e04-91cf-5cb9413e2ff8" x1="187.6" y1="129.06" x2="188.1" y2="129.06" xlink:href="#ab15d89c-24a8-4935-a50f-58172782340b"/><linearGradient id="bd43e1b4-7ccc-44c2-99c8-f041c194f594" x1="187.85" y1="128.08" x2="188.36" y2="128.08" xlink:href="#ab15d89c-24a8-4935-a50f-58172782340b"/><linearGradient id="a778e788-9393-46e3-9c17-edd9902de9ad" x1="188.25" y1="127.14" x2="188.76" y2="127.14" xlink:href="#ab15d89c-24a8-4935-a50f-58172782340b"/><linearGradient id="a7938018-e74d-4c0a-b623-3b6b1a68a4ab" x1="188.78" y1="126.27" x2="189.29" y2="126.27" xlink:href="#ab15d89c-24a8-4935-a50f-58172782340b"/><linearGradient id="fa7cb031-53ce-4e07-870d-310fbef58238" x1="189.43" y1="125.49" x2="189.94" y2="125.49" xlink:href="#ab15d89c-24a8-4935-a50f-58172782340b"/><linearGradient id="f4d9e4aa-d9dd-400b-89fb-f205d94b4874" x1="190.19" y1="124.81" x2="190.7" y2="124.81" xlink:href="#ab15d89c-24a8-4935-a50f-58172782340b"/><linearGradient id="efa2563a-e7e3-472e-bc21-3e819c2e4676" x1="191.04" y1="124.25" x2="191.54" y2="124.25" xlink:href="#ab15d89c-24a8-4935-a50f-58172782340b"/><linearGradient id="e50cc45f-8702-42f3-8645-fb92bc16145d" x1="191.95" y1="123.82" x2="192.46" y2="123.82" xlink:href="#ab15d89c-24a8-4935-a50f-58172782340b"/><linearGradient id="b7f99c21-dad1-4e86-99ea-180cf10708ef" x1="192.93" y1="123.53" x2="193.44" y2="123.53" xlink:href="#ab15d89c-24a8-4935-a50f-58172782340b"/><linearGradient id="ba44eb48-4af0-4edd-82e3-e5ee7430e4a7" x1="193.94" y1="123.38" x2="194.44" y2="123.38" xlink:href="#ab15d89c-24a8-4935-a50f-58172782340b"/><linearGradient id="fbe04bdd-1864-4177-9dca-b6cc55cea2f8" x1="194.95" y1="123.38" x2="195.46" y2="123.38" xlink:href="#ab15d89c-24a8-4935-a50f-58172782340b"/><linearGradient id="fb3af894-02d4-4167-865a-2c1b0e789b30" x1="195.96" y1="123.53" x2="196.47" y2="123.53" xlink:href="#ab15d89c-24a8-4935-a50f-58172782340b"/><linearGradient id="e67b5b62-ce21-4eb5-a67c-b89b0eb7c6dd" x1="196.93" y1="123.82" x2="197.44" y2="123.82" xlink:href="#ab15d89c-24a8-4935-a50f-58172782340b"/><linearGradient id="a63cc6e8-1af3-479c-a479-4d1c5dbd07d6" x1="197.85" y1="124.25" x2="198.36" y2="124.25" xlink:href="#ab15d89c-24a8-4935-a50f-58172782340b"/><linearGradient id="f5601bfb-759e-48c1-a4aa-8ed2b2d96898" x1="198.7" y1="124.81" x2="199.21" y2="124.81" xlink:href="#ab15d89c-24a8-4935-a50f-58172782340b"/><linearGradient id="ee443067-ff5e-4283-8880-0658ad1e5742" x1="199.46" y1="125.49" x2="199.96" y2="125.49" xlink:href="#ab15d89c-24a8-4935-a50f-58172782340b"/><linearGradient id="e0ad997e-8ddb-44af-b814-f0fe84688346" x1="200.11" y1="126.27" x2="200.62" y2="126.27" xlink:href="#ab15d89c-24a8-4935-a50f-58172782340b"/><linearGradient id="ad63cb4a-ce7f-4a41-be44-045aead84a51" x1="200.64" y1="127.14" x2="201.15" y2="127.14" xlink:href="#ab15d89c-24a8-4935-a50f-58172782340b"/><linearGradient id="e748123a-4151-4ff3-a6a2-98db2fb26695" x1="201.03" y1="128.08" x2="201.55" y2="128.08" xlink:href="#ab15d89c-24a8-4935-a50f-58172782340b"/><linearGradient id="a6f1c073-05b7-45a2-8156-0ec76c04089e" x1="201.29" y1="129.06" x2="201.8" y2="129.06" xlink:href="#ab15d89c-24a8-4935-a50f-58172782340b"/><linearGradient id="b2bb8a94-ba56-4bae-aff4-1d40ece3bfe3" x1="201.4" y1="130.07" x2="201.91" y2="130.07" xlink:href="#ab15d89c-24a8-4935-a50f-58172782340b"/><linearGradient id="b2821af6-b3d6-41c8-b084-b7ef31b793fd" x1="200.46" y1="124.62" x2="189.27" y2="135.7" gradientUnits="userSpaceOnUse"><stop offset="0" stop-color="#aa7238"/><stop offset="0.25" stop-color="#c08443"/><stop offset="0.35" stop-color="#be8242"/><stop offset="0.39" stop-color="#b87b3d"/><stop offset="0.42" stop-color="#ad7036"/><stop offset="0.44" stop-color="#9d5f2b"/><stop offset="0.46" stop-color="#88491d"/><stop offset="0.47" stop-color="#7a3a14"/><stop offset="0.64" stop-color="#7c3c15"/><stop offset="0.72" stop-color="#83441a"/><stop offset="0.79" stop-color="#8e5123"/><stop offset="0.85" stop-color="#9e642f"/><stop offset="0.9" stop-color="#b37c3e"/><stop offset="0.95" stop-color="#cd9b52"/><stop offset="0.99" stop-color="#ebbe68"/><stop offset="1" stop-color="#f0c46c"/></linearGradient><linearGradient id="b7b7adac-0107-4579-b3f3-1e561ad6a9cc" x1="191.79" y1="133.31" x2="197.35" y2="126.96" gradientUnits="userSpaceOnUse"><stop offset="0" stop-color="#f1c848"/><stop offset="0.19" stop-color="#f0c94f"/><stop offset="0.45" stop-color="#ebcc62"/><stop offset="0.48" stop-color="#ebcc64"/><stop offset="0.75" stop-color="#f5e579"/><stop offset="1" stop-color="#ffff8e"/></linearGradient><linearGradient id="acb96c17-51a1-4f9d-b6ce-49982a2e763d" x1="194.7" y1="126.91" x2="194.7" y2="133.04" gradientUnits="userSpaceOnUse"><stop offset="0" stop-color="#ffee7b"/><stop offset="0.15" stop-color="#ffc757"/><stop offset="0.27" stop-color="#e1a11b"/><stop offset="0.28" stop-color="#e3a622"/><stop offset="0.31" stop-color="#edc044"/><stop offset="0.34" stop-color="#f4d35f"/><stop offset="0.37" stop-color="#fae272"/><stop offset="0.41" stop-color="#fdea7d"/><stop offset="0.44" stop-color="#feed81"/><stop offset="0.47" stop-color="#f8e37b"/><stop offset="0.51" stop-color="#e8c76b"/><stop offset="0.57" stop-color="#ce9b51"/><stop offset="0.63" stop-color="#ab5e2d"/><stop offset="0.65" stop-color="#a24f24"/><stop offset="0.76" stop-color="#e0b439"/><stop offset="0.86" stop-color="#f1c848"/><stop offset="1" stop-color="#ffff8e"/></linearGradient><radialGradient id="b54097da-233b-4252-8d20-ecbb97ec19e6" cx="277.73" cy="159.23" r="36.03" gradientTransform="translate(56 56) scale(0.5)" gradientUnits="userSpaceOnUse"><stop offset="0" stop-color="#ececbb"/><stop offset="1" stop-color="#784f58"/></radialGradient></defs><g style="isolation:isolate"><g id="ff992f81-d9f6-442f-b1c1-ea8741bf2dda" data-name="Layer 1"><polygon points="7.89 21.91 7.89 41.07 14.91 36.51 21.92 41.07 21.92 21.91 7.89 21.91" style="fill:url(#a33254e8-8344-4d01-8d59-0f21655b988a)"/><polygon points="18.96 21.91 14.85 21.91 14.83 21.91 13.96 21.91 13.75 21.91 10.85 21.91 10.85 39.15 14.91 36.51 18.96 39.15 18.96 21.91" style="fill:url(#f6a1457a-95b2-464d-be9d-5e4c778cbdb9)"/><path d="M201.72,138h-14V146h0a11.73,11.73,0,0,0,1.51-1.89,3.32,3.32,0,0,0,0,1.47,3.21,3.21,0,0,0,.12.33l.12.22.05.09a2.4,2.4,0,0,0,.18.26h0a2.85,2.85,0,0,0,.23.26h0a4.61,4.61,0,0,0,1.25.85.8.8,0,0,0,.88,0,11.61,11.61,0,0,0,.86-2.26,1.1,1.1,0,0,0,0,.18c0,.11,0,.21.07.32a2.72,2.72,0,0,0,.39.89,1.93,1.93,0,0,0,.22.28,1,1,0,0,0,.18.17l.07.07a2.48,2.48,0,0,0,.26.19h0a1.69,1.69,0,0,0,.29.17h0a4.62,4.62,0,0,0,1.46.42.81.81,0,0,0,.82-.3,11.91,11.91,0,0,0,.12-2.42,3.21,3.21,0,0,0,.24.45,3,3,0,0,0,.65.73l.29.2.22.11.09,0,.31.1h0a4.28,4.28,0,0,0,1.85,0,.82.82,0,0,0,.69-.55,11.53,11.53,0,0,0-.64-2.33,3.31,3.31,0,0,0,1.17.82Z" transform="translate(-179.79 -115.08)" style="fill:#751b18;opacity:0.5;mix-blend-mode:multiply"/><path d="M185,128.48a6,6,0,0,0-1.35-.27,3.88,3.88,0,0,0-2.52.48,3.42,3.42,0,0,0-1.32,2.49.82.82,0,0,0,.3.83,27.33,27.33,0,0,0,3.93.1h.54Z" transform="translate(-179.79 -115.08)" style="fill:url(#b4a4bceb-9085-4d6b-bbc4-ddbc0fb1a3a4)"/><path d="M181.12,128.69a2.7,2.7,0,0,0-.89,1,8.84,8.84,0,0,1,4.58.31c.09-.81.18-1.55.18-1.55a5.47,5.47,0,0,0-1.35-.28A3.88,3.88,0,0,0,181.12,128.69Z" transform="translate(-179.79 -115.08)" style="mix-blend-mode:multiply;fill:url(#b5b1d0e6-fe97-4890-9277-5d911c0f3609)"/><path d="M186,125.51a7.13,7.13,0,0,0-1.2-.68,3.88,3.88,0,0,0-2.55-.31,3.4,3.4,0,0,0-2,2,.84.84,0,0,0,0,.88,27.1,27.1,0,0,0,3.7,1.3s.51.18.52.17Z" transform="translate(-179.79 -115.08)" style="fill:url(#f9180380-ffd9-48e0-a54c-e2d45cfa55cb)"/><path d="M182.24,124.52a2.72,2.72,0,0,0-1.17.71,8.81,8.81,0,0,1,4.26,1.71c.34-.75.66-1.43.66-1.43a7.13,7.13,0,0,0-1.2-.68A3.88,3.88,0,0,0,182.24,124.52Z" transform="translate(-179.79 -115.08)" style="mix-blend-mode:multiply;fill:url(#e230c97d-d430-4036-8c70-ed79da039d55)"/><path d="M187.85,123c.07-.07-.86-1-.92-1a3.86,3.86,0,0,0-2.33-1.08,3.36,3.36,0,0,0-2.53,1.23.84.84,0,0,0-.24.85,26.59,26.59,0,0,0,3.12,2.38l.43.32Z" transform="translate(-179.79 -115.08)" style="fill:url(#b889a896-4d20-441b-9f2f-3a4b0bfb07ae)"/><path d="M184.6,120.9a2.66,2.66,0,0,0-1.33.31,8.76,8.76,0,0,1,3.52,2.94l1.06-1.15c.07-.07-.86-1-.92-1A3.86,3.86,0,0,0,184.6,120.9Z" transform="translate(-179.79 -115.08)" style="mix-blend-mode:multiply;fill:url(#a2686d9c-e8a8-4070-856f-c1f10a1e60ac)"/><path d="M199.32,139.12a6,6,0,0,0,.57,1.26,3.88,3.88,0,0,0,1.87,1.75,3.44,3.44,0,0,0,2.79-.4.83.83,0,0,0,.5-.73,28.35,28.35,0,0,0-2.23-3.23s-.31-.44-.32-.44Z" transform="translate(-179.79 -115.08)" style="fill:url(#b0a4e4d7-2a80-43f4-9495-89a5c8fa10de)"/><path d="M201.76,142.13a2.78,2.78,0,0,0,1.37.11,8.75,8.75,0,0,1-2.44-3.89l-1.37.77a6,6,0,0,0,.57,1.26A3.88,3.88,0,0,0,201.76,142.13Z" transform="translate(-179.79 -115.08)" style="mix-blend-mode:multiply;fill:url(#a1f1e337-b6f8-47c1-8fb2-6dfec22ab4f5)"/><path d="M190.41,121.18a6.51,6.51,0,0,0-.57-1.25,3.83,3.83,0,0,0-1.87-1.75,3.42,3.42,0,0,0-2.8.39.84.84,0,0,0-.49.73,27.5,27.5,0,0,0,2.23,3.23s.31.45.32.44Z" transform="translate(-179.79 -115.08)" style="fill:url(#f6dbf5b1-5ddc-4917-b995-5b63ee7c2a2d)"/><path d="M188,118.18a2.68,2.68,0,0,0-1.37-.12A8.75,8.75,0,0,1,189,122l1.37-.77a6.51,6.51,0,0,0-.57-1.25A3.83,3.83,0,0,0,188,118.18Z" transform="translate(-179.79 -115.08)" style="mix-blend-mode:multiply;fill:url(#b09c412e-fdb4-4db6-92a5-5e348ba34bff)"/><path d="M196.33,140.06a6.17,6.17,0,0,0,.15,1.37,3.85,3.85,0,0,0,1.25,2.24,3.38,3.38,0,0,0,2.77.49.82.82,0,0,0,.69-.54,26.91,26.91,0,0,0-1.12-3.76s-.15-.52-.16-.52Z" transform="translate(-179.79 -115.08)" style="fill:url(#b987822b-ee7f-4b38-8053-64ffe722f230)"/><path d="M197.73,143.67a2.57,2.57,0,0,0,1.26.53,8.64,8.64,0,0,1-1.12-4.45l-1.54.31a6.17,6.17,0,0,0,.15,1.37A3.85,3.85,0,0,0,197.73,143.67Z" transform="translate(-179.79 -115.08)" style="mix-blend-mode:multiply;fill:url(#b25484d1-e270-43f5-b647-222d3165a670)"/><path d="M193.4,120.24a6.9,6.9,0,0,0-.15-1.37,3.9,3.9,0,0,0-1.25-2.24,3.38,3.38,0,0,0-2.77-.48.8.8,0,0,0-.7.54,26.51,26.51,0,0,0,1.13,3.76,5.14,5.14,0,0,0,.16.51Z" transform="translate(-179.79 -115.08)" style="fill:url(#f0857a5a-6ef3-4b86-9bd6-b9a3ff4cc291)"/><path d="M192,116.63a2.71,2.71,0,0,0-1.26-.53,8.76,8.76,0,0,1,1.12,4.45l1.54-.31a6.9,6.9,0,0,0-.15-1.37A3.9,3.9,0,0,0,192,116.63Z" transform="translate(-179.79 -115.08)" style="mix-blend-mode:multiply;fill:url(#bbcdab25-0896-40f1-9f13-80241ee4f449)"/><path d="M193.2,140a5.85,5.85,0,0,0-.28,1.35,3.79,3.79,0,0,0,.49,2.51,3.35,3.35,0,0,0,2.49,1.32.83.83,0,0,0,.82-.29,27.33,27.33,0,0,0,.1-3.93s0-.54,0-.54Z" transform="translate(-179.79 -115.08)" style="fill:url(#b51b0b48-c302-4807-bed0-2fce0625dfe7)"/><path d="M193.41,143.89a2.62,2.62,0,0,0,1,.9,8.84,8.84,0,0,1,.31-4.58L193.2,140a5.85,5.85,0,0,0-.28,1.35A3.79,3.79,0,0,0,193.41,143.89Z" transform="translate(-179.79 -115.08)" style="mix-blend-mode:multiply;fill:url(#b990c3a3-33ff-44a8-8b74-dee6d824aa00)"/><path d="M196.53,120.27a6.33,6.33,0,0,0,.28-1.34,3.87,3.87,0,0,0-.49-2.52,3.38,3.38,0,0,0-2.49-1.32.82.82,0,0,0-.83.3,28.83,28.83,0,0,0-.09,3.92s0,.54,0,.54Z" transform="translate(-179.79 -115.08)" style="fill:url(#ae4db5a9-2568-4aa3-9b7d-71774810fbdc)"/><path d="M196.32,116.41a2.55,2.55,0,0,0-1-.89,8.8,8.8,0,0,1-.3,4.57l1.55.18a6.33,6.33,0,0,0,.28-1.34A3.87,3.87,0,0,0,196.32,116.41Z" transform="translate(-179.79 -115.08)" style="mix-blend-mode:multiply;fill:url(#aa1a0438-08cf-432d-99f9-c6f8c9a109b3)"/><path d="M190.23,139a6.2,6.2,0,0,0-.69,1.2,3.85,3.85,0,0,0-.31,2.54,3.44,3.44,0,0,0,2,2,.84.84,0,0,0,.88,0,27.76,27.76,0,0,0,1.3-3.71s.18-.51.17-.51Z" transform="translate(-179.79 -115.08)" style="fill:url(#e2a95e01-636d-4686-89ec-f6c9ef7cfc5d)"/><path d="M189.23,142.77a2.7,2.7,0,0,0,.71,1.17,8.85,8.85,0,0,1,1.71-4.26l-1.42-.65a6.2,6.2,0,0,0-.69,1.2A3.85,3.85,0,0,0,189.23,142.77Z" transform="translate(-179.79 -115.08)" style="mix-blend-mode:multiply;fill:url(#ac4ccc8f-48a4-49fd-8c2d-1f302f9b4823)"/><path d="M199.5,121.27a5.62,5.62,0,0,0,.68-1.19,3.89,3.89,0,0,0,.32-2.55,3.4,3.4,0,0,0-2-2,.8.8,0,0,0-.88,0,27,27,0,0,0-1.31,3.7s-.17.51-.16.51Z" transform="translate(-179.79 -115.08)" style="fill:url(#b77986ce-65a8-4404-bd35-30b66bc42938)"/><path d="M200.5,117.53a2.76,2.76,0,0,0-.71-1.17,8.81,8.81,0,0,1-1.71,4.26l1.42.65a5.62,5.62,0,0,0,.68-1.19A3.89,3.89,0,0,0,200.5,117.53Z" transform="translate(-179.79 -115.08)" style="mix-blend-mode:multiply;fill:url(#a6769059-dad4-4cbb-9766-92a3175742f2)"/><path d="M187.71,137.16c-.07-.06-1,.87-1,.93a3.81,3.81,0,0,0-1.08,2.32,3.37,3.37,0,0,0,1.24,2.53.8.8,0,0,0,.84.25,28.66,28.66,0,0,0,2.39-3.12s.32-.43.31-.44Z" transform="translate(-179.79 -115.08)" style="fill:url(#b7300ba0-77b2-4413-9c7d-0f76e0085b01)"/><path d="M185.61,140.41a2.67,2.67,0,0,0,.31,1.34,8.8,8.8,0,0,1,2.94-3.53l-1.15-1.06c-.07-.06-1,.87-1,.93A3.81,3.81,0,0,0,185.61,140.41Z" transform="translate(-179.79 -115.08)" style="mix-blend-mode:multiply;fill:url(#a392391e-10b3-44b3-99a6-306bf021af87)"/><path d="M202,123.14c.07.06,1-.86,1-.93a3.86,3.86,0,0,0,1.08-2.32,3.4,3.4,0,0,0-1.24-2.53.83.83,0,0,0-.84-.25,28.66,28.66,0,0,0-2.39,3.12s-.32.44-.32.44Z" transform="translate(-179.79 -115.08)" style="fill:url(#b00054a5-080f-4d9f-801d-cebf69049e36)"/><path d="M204.12,119.89a2.64,2.64,0,0,0-.31-1.33,8.84,8.84,0,0,1-2.94,3.52l1.15,1.06c.07.06,1-.86,1-.93A3.86,3.86,0,0,0,204.12,119.89Z" transform="translate(-179.79 -115.08)" style="mix-blend-mode:multiply;fill:url(#ee1bb789-1935-403e-a114-a7419fe8a673)"/><path d="M204.77,128.69a6.21,6.21,0,0,0,1.37-.16,3.81,3.81,0,0,0,2.24-1.24,3.39,3.39,0,0,0,.49-2.77.84.84,0,0,0-.54-.7,27.31,27.31,0,0,0-3.76,1.12s-.52.16-.52.17Z" transform="translate(-179.79 -115.08)" style="fill:url(#a6af695c-5e1f-49d1-bafe-753d2906305f)"/><path d="M208.38,127.29a2.61,2.61,0,0,0,.53-1.26,8.84,8.84,0,0,1-4.45,1.12l.31,1.54a6.21,6.21,0,0,0,1.37-.16A3.81,3.81,0,0,0,208.38,127.29Z" transform="translate(-179.79 -115.08)" style="mix-blend-mode:multiply;fill:url(#bf79d6ef-3f78-4fb8-8156-734b1cb4ac14)"/><path d="M185.89,134.61a6,6,0,0,0-1.25.57,3.83,3.83,0,0,0-1.75,1.87,3.39,3.39,0,0,0,.39,2.79.82.82,0,0,0,.73.49,25.26,25.26,0,0,0,3.23-2.23,4.19,4.19,0,0,0,.44-.31Z" transform="translate(-179.79 -115.08)" style="fill:url(#fca20672-8ed8-4460-ba8f-f81de1ec3500)"/><path d="M182.89,137.05a2.57,2.57,0,0,0-.11,1.37,8.77,8.77,0,0,1,3.88-2.45l-.77-1.36a6,6,0,0,0-1.25.57A3.83,3.83,0,0,0,182.89,137.05Z" transform="translate(-179.79 -115.08)" style="mix-blend-mode:multiply;fill:url(#e85f25f8-9cf0-420e-97e5-4f27dbc313d8)"/><path d="M204.74,131.82a6.43,6.43,0,0,0,1.35.28,3.88,3.88,0,0,0,2.52-.49,3.42,3.42,0,0,0,1.32-2.49.84.84,0,0,0-.3-.83,27.44,27.44,0,0,0-3.93-.09h-.54Z" transform="translate(-179.79 -115.08)" style="fill:url(#a4a0cb47-24f4-4330-9155-873d194b70a2)"/><path d="M208.61,131.61a2.78,2.78,0,0,0,.89-1,8.73,8.73,0,0,1-4.58-.31c-.09.82-.18,1.56-.18,1.56a6.43,6.43,0,0,0,1.35.28A3.88,3.88,0,0,0,208.61,131.61Z" transform="translate(-179.79 -115.08)" style="mix-blend-mode:multiply;fill:url(#f85c07f6-cfa6-4db0-bbe8-6a2988a54b3a)"/><path d="M203.83,125.7a6.32,6.32,0,0,0,1.26-.57,3.9,3.9,0,0,0,1.75-1.88,3.37,3.37,0,0,0-.4-2.79.82.82,0,0,0-.73-.49,28.35,28.35,0,0,0-3.23,2.23s-.44.31-.43.32Z" transform="translate(-179.79 -115.08)" style="fill:url(#ba08c2be-9679-40cc-9636-10d0a2f93adf)"/><path d="M206.84,123.25a2.74,2.74,0,0,0,.11-1.36,8.81,8.81,0,0,1-3.88,2.44l.76,1.36a5.74,5.74,0,0,0,1.26-.56A3.9,3.9,0,0,0,206.84,123.25Z" transform="translate(-179.79 -115.08)" style="mix-blend-mode:multiply;fill:url(#aa406969-3e41-43e2-a67b-2fbedfd2b60c)"/><path d="M203.74,134.79a5.71,5.71,0,0,0,1.2.68,3.79,3.79,0,0,0,2.54.31,3.36,3.36,0,0,0,2-2,.82.82,0,0,0,0-.87,26.66,26.66,0,0,0-3.7-1.31l-.52-.17Z" transform="translate(-179.79 -115.08)" style="fill:url(#eb2f973d-d2d0-4054-b679-229439b3eec8)"/><path d="M207.48,135.78a2.52,2.52,0,0,0,1.17-.71,8.73,8.73,0,0,1-4.26-1.7l-.65,1.42a5.71,5.71,0,0,0,1.2.68A3.79,3.79,0,0,0,207.48,135.78Z" transform="translate(-179.79 -115.08)" style="mix-blend-mode:multiply;fill:url(#b1faa03c-01f4-435d-b6fa-9feaddb03299)"/><path d="M185,131.62a6.17,6.17,0,0,0-1.37.15,3.86,3.86,0,0,0-2.25,1.24,3.41,3.41,0,0,0-.48,2.78.82.82,0,0,0,.54.69,27.73,27.73,0,0,0,3.76-1.12s.52-.16.51-.17Z" transform="translate(-179.79 -115.08)" style="fill:url(#a32f9d24-6271-47e8-b6ca-65e931476e1d)"/><path d="M181.34,133a2.85,2.85,0,0,0-.53,1.27,8.8,8.8,0,0,1,4.45-1.13c-.16-.8-.3-1.53-.3-1.53a6.17,6.17,0,0,0-1.37.15A3.86,3.86,0,0,0,181.34,133Z" transform="translate(-179.79 -115.08)" style="mix-blend-mode:multiply;fill:url(#bbfb44ca-4d3a-4f1f-9fcf-56aa12e87735)"/><path d="M201.87,137.31c-.06.07.87,1,.93,1a3.84,3.84,0,0,0,2.33,1.09,3.42,3.42,0,0,0,2.53-1.24.84.84,0,0,0,.24-.85,27.73,27.73,0,0,0-3.12-2.38l-.44-.32Z" transform="translate(-179.79 -115.08)" style="fill:url(#bb3e92b8-e0a3-4722-a884-4cb577361593)"/><path d="M205.13,139.41a2.67,2.67,0,0,0,1.33-.32,8.63,8.63,0,0,1-3.52-2.94l-1.06,1.16c-.07.07.86,1,.92,1A3.84,3.84,0,0,0,205.13,139.41Z" transform="translate(-179.79 -115.08)" style="mix-blend-mode:multiply;fill:url(#b737d971-b990-43a3-b923-532282eedfe1)"/><g style="opacity:0.55;mix-blend-mode:multiply"><path d="M206.79,127.2a12.49,12.49,0,1,0-5.17,13.52,12.59,12.59,0,0,0,5.17-13.52Z" transform="translate(-179.79 -115.08)" style="fill:#fff;opacity:0"/><path d="M206.79,127.21a12.49,12.49,0,1,0-5.18,13.5,12.6,12.6,0,0,0,5.18-13.5C206.68,126.81,207,128.2,206.79,127.21Z" transform="translate(-179.79 -115.08)" style="fill:#fefefe;opacity:0.004587"/><path d="M206.78,127.21a12.47,12.47,0,1,0-5.17,13.5,12.59,12.59,0,0,0,5.17-13.5C206.68,126.81,207,128.2,206.78,127.21Z" transform="translate(-179.79 -115.08)" style="fill:#fdfdfd;opacity:0.009174"/><path d="M206.77,127.21a12.47,12.47,0,1,0-5.16,13.49,12.56,12.56,0,0,0,5.16-13.49C206.67,126.81,207,128.21,206.77,127.21Z" transform="translate(-179.79 -115.08)" style="fill:#fbfbfb;opacity:0.013760999999999999"/><path d="M206.77,127.21a12.47,12.47,0,1,0-5.17,13.48,12.59,12.59,0,0,0,5.17-13.48C206.66,126.81,207,128.21,206.77,127.21Z" transform="translate(-179.79 -115.08)" style="fill:#fafafa;opacity:0.018349"/><path d="M206.76,127.21a12.46,12.46,0,1,0-5.16,13.48,12.56,12.56,0,0,0,5.16-13.48Z" transform="translate(-179.79 -115.08)" style="fill:#f9f9f9;opacity:0.022935999999999998"/><path d="M206.75,127.21a12.45,12.45,0,1,0-5.16,13.47,12.53,12.53,0,0,0,5.16-13.47Z" transform="translate(-179.79 -115.08)" style="fill:#f8f8f8;opacity:0.027523"/><path d="M206.75,127.22a12.45,12.45,0,1,0-5.16,13.46,12.57,12.57,0,0,0,5.16-13.46C206.64,126.82,207,128.21,206.75,127.22Z" transform="translate(-179.79 -115.08)" style="fill:#f7f7f7;opacity:0.03211"/><path d="M206.74,127.22a12.43,12.43,0,1,0-5.15,13.45,12.54,12.54,0,0,0,5.15-13.45C206.64,126.82,207,128.21,206.74,127.22Z" transform="translate(-179.79 -115.08)" style="fill:#f6f6f6;opacity:0.036697"/><path d="M206.73,127.22a12.43,12.43,0,1,0-5.15,13.45,12.52,12.52,0,0,0,5.15-13.45C206.63,126.82,207,128.21,206.73,127.22Z" transform="translate(-179.79 -115.08)" style="fill:#f4f4f4;opacity:0.041284"/><path d="M206.73,127.22a12.43,12.43,0,1,0-5.15,13.44,12.54,12.54,0,0,0,5.15-13.44Z" transform="translate(-179.79 -115.08)" style="fill:#f3f3f3;opacity:0.045871999999999996"/><path d="M206.72,127.22a12.42,12.42,0,1,0-5.14,13.44,12.51,12.51,0,0,0,5.14-13.44Z" transform="translate(-179.79 -115.08)" style="fill:#f2f2f2;opacity:0.050459"/><path d="M206.72,127.22a12.42,12.42,0,1,0-5.15,13.43,12.54,12.54,0,0,0,5.15-13.43C206.61,126.83,207,128.22,206.72,127.22Z" transform="translate(-179.79 -115.08)" style="fill:#f1f1f1;opacity:0.055046"/><path d="M206.71,127.23a12.4,12.4,0,1,0-5.14,13.42,12.51,12.51,0,0,0,5.14-13.42Z" transform="translate(-179.79 -115.08)" style="fill:#f0f0f0;opacity:0.059633"/><path d="M206.7,127.23a12.39,12.39,0,1,0-5.13,13.41,12.49,12.49,0,0,0,5.13-13.41C206.6,126.83,207,128.22,206.7,127.23Z" transform="translate(-179.79 -115.08)" style="fill:#efefef;opacity:0.06422"/><path d="M206.7,127.23a12.39,12.39,0,1,0-5.14,13.41,12.52,12.52,0,0,0,5.14-13.41C206.59,126.83,207,128.22,206.7,127.23Z" transform="translate(-179.79 -115.08)" style="fill:#ededed;opacity:0.068807"/><path d="M206.69,127.23a12.38,12.38,0,1,0-5.13,13.4,12.51,12.51,0,0,0,5.13-13.4Z" transform="translate(-179.79 -115.08)" style="fill:#ececec;opacity:0.073394"/><path d="M206.68,127.23a12.38,12.38,0,1,0-5.12,13.39,12.46,12.46,0,0,0,5.12-13.39Z" transform="translate(-179.79 -115.08)" style="fill:#ebebeb;opacity:0.077982"/><path d="M206.68,127.23a12.37,12.37,0,1,0-5.13,13.39,12.5,12.5,0,0,0,5.13-13.39Z" transform="translate(-179.79 -115.08)" style="fill:#eaeaea;opacity:0.08256899999999999"/><path d="M206.67,127.24a12.37,12.37,0,1,0-5.12,13.37,12.46,12.46,0,0,0,5.12-13.37C206.57,126.84,206.93,128.22,206.67,127.24Z" transform="translate(-179.79 -115.08)" style="fill:#e9e9e9;opacity:0.087156"/><path d="M206.66,127.24a12.35,12.35,0,1,0-5.12,13.37,12.44,12.44,0,0,0,5.12-13.37C206.56,126.84,206.92,128.22,206.66,127.24Z" transform="translate(-179.79 -115.08)" style="fill:#e8e8e8;opacity:0.09174299999999999"/><path d="M206.66,127.24a12.36,12.36,0,1,0-5.12,13.36,12.49,12.49,0,0,0,5.12-13.36Z" transform="translate(-179.79 -115.08)" style="fill:#e6e6e6;opacity:0.09633000000000001"/><path d="M206.65,127.24a12.34,12.34,0,1,0-5.11,13.36,12.44,12.44,0,0,0,5.11-13.36Z" transform="translate(-179.79 -115.08)" style="fill:#e5e5e5;opacity:0.10091699999999999"/><path d="M206.65,127.24a12.34,12.34,0,1,0-5.12,13.35,12.45,12.45,0,0,0,5.12-13.35C206.54,126.85,206.9,128.23,206.65,127.24Z" transform="translate(-179.79 -115.08)" style="fill:#e4e4e4;opacity:0.105505"/><path d="M206.64,127.24a12.33,12.33,0,1,0-5.11,13.35,12.44,12.44,0,0,0,5.11-13.35Z" transform="translate(-179.79 -115.08)" style="fill:#e3e3e3;opacity:0.110092"/><path d="M206.63,127.25a12.32,12.32,0,1,0-5.1,13.33,12.41,12.41,0,0,0,5.1-13.33C206.53,126.85,206.89,128.23,206.63,127.25Z" transform="translate(-179.79 -115.08)" style="fill:#e2e2e2;opacity:0.11467899999999999"/><path d="M206.63,127.25a12.32,12.32,0,1,0-5.11,13.33,12.42,12.42,0,0,0,5.11-13.33Z" transform="translate(-179.79 -115.08)" style="fill:#e1e1e1;opacity:0.119266"/><path d="M206.62,127.25a12.31,12.31,0,1,0-5.1,13.32,12.42,12.42,0,0,0,5.1-13.32Z" transform="translate(-179.79 -115.08)" style="fill:#dfdfdf;opacity:0.12385299999999999"/><path d="M206.61,127.25a12.3,12.3,0,1,0-5.09,13.31,12.4,12.4,0,0,0,5.09-13.31C206.51,126.86,206.87,128.23,206.61,127.25Z" transform="translate(-179.79 -115.08)" style="fill:#dedede;opacity:0.12844"/><path d="M206.61,127.25a12.31,12.31,0,1,0-5.1,13.31,12.4,12.4,0,0,0,5.1-13.31Z" transform="translate(-179.79 -115.08)" style="fill:#ddd;opacity:0.133028"/><path d="M206.6,127.25a12.29,12.29,0,1,0-5.09,13.3,12.41,12.41,0,0,0,5.09-13.3Z" transform="translate(-179.79 -115.08)" style="fill:#dcdcdc;opacity:0.137615"/><path d="M206.6,127.26a12.29,12.29,0,1,0-5.1,13.29,12.4,12.4,0,0,0,5.1-13.29C206.49,126.86,206.85,128.24,206.6,127.26Z" transform="translate(-179.79 -115.08)" style="fill:#dbdbdb;opacity:0.142202"/><path d="M206.59,127.26a12.28,12.28,0,1,0-5.09,13.28,12.38,12.38,0,0,0,5.09-13.28Z" transform="translate(-179.79 -115.08)" style="fill:#dadada;opacity:0.146789"/><path d="M206.58,127.26a12.27,12.27,0,1,0-5.08,13.28,12.38,12.38,0,0,0,5.08-13.28Z" transform="translate(-179.79 -115.08)" style="fill:#d8d8d8;opacity:0.15137599999999998"/><path d="M206.58,127.26a12.27,12.27,0,1,0-5.09,13.27,12.38,12.38,0,0,0,5.09-13.27Z" transform="translate(-179.79 -115.08)" style="fill:#d7d7d7;opacity:0.155963"/><path d="M206.57,127.26a12.26,12.26,0,1,0-5.08,13.27,12.37,12.37,0,0,0,5.08-13.27Z" transform="translate(-179.79 -115.08)" style="fill:#d6d6d6;opacity:0.16055000000000003"/><path d="M206.56,127.26a12.25,12.25,0,1,0-5.07,13.26,12.36,12.36,0,0,0,5.07-13.26C206.46,126.87,206.82,128.24,206.56,127.26Z" transform="translate(-179.79 -115.08)" style="fill:#d5d5d5;opacity:0.16513799999999998"/><path d="M206.56,127.26a12.25,12.25,0,1,0-5.08,13.26,12.36,12.36,0,0,0,5.08-13.26Z" transform="translate(-179.79 -115.08)" style="fill:#d4d4d4;opacity:0.169725"/><path d="M206.55,127.27a12.24,12.24,0,1,0-5.07,13.24,12.34,12.34,0,0,0,5.07-13.24Z" transform="translate(-179.79 -115.08)" style="fill:#d3d3d3;opacity:0.174312"/><path d="M206.54,127.27a12.23,12.23,0,1,0-5.06,13.23,12.33,12.33,0,0,0,5.06-13.23C206.44,126.88,206.8,128.25,206.54,127.27Z" transform="translate(-179.79 -115.08)" style="fill:#d1d1d1;opacity:0.178899"/><path d="M206.54,127.27a12.23,12.23,0,1,0-5.07,13.23,12.32,12.32,0,0,0,5.07-13.23Z" transform="translate(-179.79 -115.08)" style="fill:#d0d0d0;opacity:0.18348599999999998"/><path d="M206.53,127.27a12.22,12.22,0,1,0-5.06,13.22,12.33,12.33,0,0,0,5.06-13.22Z" transform="translate(-179.79 -115.08)" style="fill:#cfcfcf;opacity:0.188073"/><path d="M206.53,127.27a12.22,12.22,0,1,0-5.07,13.22,12.34,12.34,0,0,0,5.07-13.22Z" transform="translate(-179.79 -115.08)" style="fill:#cecece;opacity:0.192661"/><path d="M206.52,127.27a12.21,12.21,0,1,0-5.06,13.21,12.3,12.3,0,0,0,5.06-13.21Z" transform="translate(-179.79 -115.08)" style="fill:#cdcdcd;opacity:0.19724799999999998"/><path d="M206.51,127.28a12.2,12.2,0,1,0-5,13.2,12.31,12.31,0,0,0,5-13.2Z" transform="translate(-179.79 -115.08)" style="fill:#ccc;opacity:0.201835"/><path d="M206.51,127.28a12.2,12.2,0,1,0-5.06,13.19,12.3,12.3,0,0,0,5.06-13.19Z" transform="translate(-179.79 -115.08)" style="fill:#cacaca;opacity:0.206422"/><path d="M206.5,127.28a12.18,12.18,0,1,0-5.05,13.19,12.28,12.28,0,0,0,5.05-13.19Z" transform="translate(-179.79 -115.08)" style="fill:#c9c9c9;opacity:0.211009"/><path d="M206.49,127.28a12.18,12.18,0,1,0-5,13.18,12.29,12.29,0,0,0,5-13.18Z" transform="translate(-179.79 -115.08)" style="fill:#c8c8c8;opacity:0.21559599999999998"/><path d="M206.49,127.28a12.17,12.17,0,1,0-5.05,13.18,12.28,12.28,0,0,0,5.05-13.18Z" transform="translate(-179.79 -115.08)" style="fill:#c7c7c7;opacity:0.220183"/><path d="M206.48,127.28a12.17,12.17,0,1,0-5,13.17,12.26,12.26,0,0,0,5-13.17C206.38,126.9,206.73,128.26,206.48,127.28Z" transform="translate(-179.79 -115.08)" style="fill:#c6c6c6;opacity:0.224771"/><path d="M206.47,127.29a12.16,12.16,0,1,0-5,13.15,12.27,12.27,0,0,0,5-13.15Z" transform="translate(-179.79 -115.08)" style="fill:#c5c5c5;opacity:0.22935799999999998"/><path d="M206.47,127.29a12.16,12.16,0,1,0-5,13.15,12.26,12.26,0,0,0,5-13.15Z" transform="translate(-179.79 -115.08)" style="fill:#c3c3c3;opacity:0.233945"/><path d="M206.46,127.29a12.15,12.15,0,1,0-5,13.14,12.26,12.26,0,0,0,5-13.14Z" transform="translate(-179.79 -115.08)" style="fill:#c2c2c2;opacity:0.238532"/><path d="M206.46,127.29a12.15,12.15,0,1,0-5,13.14,12.26,12.26,0,0,0,5-13.14Z" transform="translate(-179.79 -115.08)" style="fill:#c1c1c1;opacity:0.243119"/><path d="M206.45,127.29a12.14,12.14,0,1,0-5,13.13,12.24,12.24,0,0,0,5-13.13Z" transform="translate(-179.79 -115.08)" style="fill:silver;opacity:0.24770599999999998"/><path d="M206.44,127.29a12.13,12.13,0,1,0-5,13.13,12.24,12.24,0,0,0,5-13.13Z" transform="translate(-179.79 -115.08)" style="fill:#bfbfbf;opacity:0.25229399999999996"/><path d="M206.44,127.3a12.12,12.12,0,1,0-5,13.11,12.22,12.22,0,0,0,5-13.11Z" transform="translate(-179.79 -115.08)" style="fill:#bdbdbd;opacity:0.25688099999999997"/><path d="M206.43,127.3a12.12,12.12,0,1,0-5,13.11,12.21,12.21,0,0,0,5-13.11Z" transform="translate(-179.79 -115.08)" style="fill:#bcbcbc;opacity:0.261468"/><path d="M206.42,127.3a12.1,12.1,0,1,0-5,13.1,12.2,12.2,0,0,0,5-13.1Z" transform="translate(-179.79 -115.08)" style="fill:#bbb;opacity:0.266055"/><path d="M206.42,127.3a12.11,12.11,0,1,0-5,13.1,12.22,12.22,0,0,0,5-13.1Z" transform="translate(-179.79 -115.08)" style="fill:#bababa;opacity:0.270642"/><path d="M206.41,127.3a12.09,12.09,0,1,0-5,13.09,12.19,12.19,0,0,0,5-13.09Z" transform="translate(-179.79 -115.08)" style="fill:#b9b9b9;opacity:0.275229"/><path d="M206.41,127.3a12.1,12.1,0,1,0-5,13.08,12.21,12.21,0,0,0,5-13.08C206.31,126.92,206.65,128.27,206.41,127.3Z" transform="translate(-179.79 -115.08)" style="fill:#b8b8b8;opacity:0.279817"/><path d="M206.4,127.31a12.08,12.08,0,1,0-5,13.07,12.19,12.19,0,0,0,5-13.07Z" transform="translate(-179.79 -115.08)" style="fill:#b6b6b6;opacity:0.284404"/><path d="M206.39,127.31a12.08,12.08,0,1,0-5,13.06,12.16,12.16,0,0,0,5-13.06Z" transform="translate(-179.79 -115.08)" style="fill:#b5b5b5;opacity:0.288991"/><path d="M206.39,127.31a12.07,12.07,0,1,0-5,13.06,12.18,12.18,0,0,0,5-13.06Z" transform="translate(-179.79 -115.08)" style="fill:#b4b4b4;opacity:0.293578"/><path d="M206.38,127.31a12.07,12.07,0,1,0-5,13.05,12.16,12.16,0,0,0,5-13.05Z" transform="translate(-179.79 -115.08)" style="fill:#b3b3b3;opacity:0.298165"/><path d="M206.37,127.31a12.05,12.05,0,1,0-5,13.05,12.14,12.14,0,0,0,5-13.05Z" transform="translate(-179.79 -115.08)" style="fill:#b2b2b2;opacity:0.30275199999999997"/><path d="M206.37,127.31a12.05,12.05,0,1,0-5,13,12.16,12.16,0,0,0,5-13C206.27,126.93,206.61,128.28,206.37,127.31Z" transform="translate(-179.79 -115.08)" style="fill:#b1b1b1;opacity:0.307339"/><path d="M206.36,127.32a12,12,0,1,0-5,13,12.15,12.15,0,0,0,5-13Z" transform="translate(-179.79 -115.08)" style="fill:#afafaf;opacity:0.311927"/><path d="M206.35,127.32a12,12,0,1,0-5,13,12.14,12.14,0,0,0,5-13C206.26,126.93,206.6,128.28,206.35,127.32Z" transform="translate(-179.79 -115.08)" style="fill:#aeaeae;opacity:0.31651399999999996"/><path d="M206.35,127.32a12,12,0,1,0-5,13,12.13,12.13,0,0,0,5-13Z" transform="translate(-179.79 -115.08)" style="fill:#adadad;opacity:0.32110099999999997"/><path d="M206.34,127.32a12,12,0,1,0-5,13,12.13,12.13,0,0,0,5-13Z" transform="translate(-179.79 -115.08)" style="fill:#acacac;opacity:0.325688"/><path d="M206.34,127.32a12,12,0,1,0-5,13,12.13,12.13,0,0,0,5-13C206.24,126.94,206.58,128.28,206.34,127.32Z" transform="translate(-179.79 -115.08)" style="fill:#ababab;opacity:0.330275"/><path d="M206.33,127.32a12,12,0,1,0-5,13,12.12,12.12,0,0,0,5-13Z" transform="translate(-179.79 -115.08)" style="fill:#aaa;opacity:0.334862"/><path d="M206.32,127.33a12,12,0,1,0-5,13,12.09,12.09,0,0,0,5-13C206.22,126.94,206.57,128.28,206.32,127.33Z" transform="translate(-179.79 -115.08)" style="fill:#a8a8a8;opacity:0.33945000000000003"/><path d="M206.32,127.33a12,12,0,1,0-5,13,12.11,12.11,0,0,0,5-13Z" transform="translate(-179.79 -115.08)" style="fill:#a7a7a7;opacity:0.344037"/><path d="M206.31,127.33a12,12,0,1,0-5,13,12.1,12.1,0,0,0,5-13Z" transform="translate(-179.79 -115.08)" style="fill:#a6a6a6;opacity:0.348624"/><path d="M206.3,127.33a12,12,0,1,0-5,13,12.06,12.06,0,0,0,5-13C206.21,127,206.55,128.29,206.3,127.33Z" transform="translate(-179.79 -115.08)" style="fill:#a5a5a5;opacity:0.353211"/><path d="M206.3,127.33a12,12,0,1,0-5,13,12.1,12.1,0,0,0,5-13C206.2,127,206.54,128.29,206.3,127.33Z" transform="translate(-179.79 -115.08)" style="fill:#a4a4a4;opacity:0.357798"/><path d="M206.29,127.33a12,12,0,1,0-5,13,12.05,12.05,0,0,0,5-13Z" transform="translate(-179.79 -115.08)" style="fill:#a3a3a3;opacity:0.36238499999999996"/><path d="M206.28,127.34a12,12,0,1,0-4.95,12.94,12.05,12.05,0,0,0,4.95-12.94C206.19,127,206.53,128.29,206.28,127.34Z" transform="translate(-179.79 -115.08)" style="fill:#a1a1a1;opacity:0.36697199999999996"/><path d="M206.28,127.34a12,12,0,1,0-5,12.94,12.08,12.08,0,0,0,5-12.94Z" transform="translate(-179.79 -115.08)" style="fill:#a0a0a0;opacity:0.37156000000000006"/><path d="M206.27,127.34a11.95,11.95,0,1,0-5,12.93,12,12,0,0,0,5-12.93Z" transform="translate(-179.79 -115.08)" style="fill:#9f9f9f;opacity:0.376147"/><path d="M206.27,127.34a12,12,0,1,0-5,12.92,12.06,12.06,0,0,0,5-12.92C206.17,127,206.51,128.29,206.27,127.34Z" transform="translate(-179.79 -115.08)" style="fill:#9e9e9e;opacity:0.38073399999999996"/><path d="M206.26,127.34a11.94,11.94,0,1,0-4.95,12.92,12,12,0,0,0,4.95-12.92C206.16,127,206.5,128.3,206.26,127.34Z" transform="translate(-179.79 -115.08)" style="fill:#9d9d9d;opacity:0.38532099999999997"/><path d="M206.25,127.34a11.93,11.93,0,1,0-4.94,12.91,12,12,0,0,0,4.94-12.91C206.16,127,206.5,128.3,206.25,127.34Z" transform="translate(-179.79 -115.08)" style="fill:#9c9c9c;opacity:0.389908"/><path d="M206.25,127.34a11.92,11.92,0,1,0-4.94,12.91,12,12,0,0,0,4.94-12.91C206.15,127,206.49,128.3,206.25,127.34Z" transform="translate(-179.79 -115.08)" style="fill:#9a9a9a;opacity:0.394495"/><path d="M206.24,127.35a11.92,11.92,0,1,0-4.94,12.89,12,12,0,0,0,4.94-12.89Z" transform="translate(-179.79 -115.08)" style="fill:#999;opacity:0.39908299999999997"/><path d="M206.23,127.35a11.9,11.9,0,1,0-4.93,12.89,12,12,0,0,0,4.93-12.89C206.14,127,206.48,128.3,206.23,127.35Z" transform="translate(-179.79 -115.08)" style="fill:#989898;opacity:0.40367000000000003"/><path d="M206.23,127.35a11.91,11.91,0,1,0-4.94,12.88,12,12,0,0,0,4.94-12.88C206.13,127,206.47,128.3,206.23,127.35Z" transform="translate(-179.79 -115.08)" style="fill:#979797;opacity:0.408257"/><path d="M206.22,127.35a11.9,11.9,0,1,0-4.93,12.88,12,12,0,0,0,4.93-12.88Z" transform="translate(-179.79 -115.08)" style="fill:#969696;opacity:0.412844"/><path d="M206.22,127.35a11.9,11.9,0,1,0-4.93,12.87,12,12,0,0,0,4.93-12.87C206.12,127,206.46,128.3,206.22,127.35Z" transform="translate(-179.79 -115.08)" style="fill:#959595;opacity:0.417431"/><path d="M206.21,127.35a11.89,11.89,0,1,0-4.93,12.87,12,12,0,0,0,4.93-12.87C206.11,127,206.45,128.3,206.21,127.35Z" transform="translate(-179.79 -115.08)" style="fill:#939393;opacity:0.422018"/><path d="M206.2,127.36a11.88,11.88,0,1,0-4.92,12.85,12,12,0,0,0,4.92-12.85Z" transform="translate(-179.79 -115.08)" style="fill:#929292;opacity:0.426606"/><path d="M206.2,127.36a11.88,11.88,0,1,0-4.92,12.84,12,12,0,0,0,4.92-12.84C206.1,127,206.44,128.31,206.2,127.36Z" transform="translate(-179.79 -115.08)" style="fill:#919191;opacity:0.431193"/><path d="M206.19,127.36a11.87,11.87,0,1,0-4.92,12.84,12,12,0,0,0,4.92-12.84C206.09,127,206.43,128.31,206.19,127.36Z" transform="translate(-179.79 -115.08)" style="fill:#909090;opacity:0.43578000000000006"/><path d="M206.18,127.36a11.86,11.86,0,1,0-4.91,12.83,11.95,11.95,0,0,0,4.91-12.83C206.09,127,206.43,128.31,206.18,127.36Z" transform="translate(-179.79 -115.08)" style="fill:#8f8f8f;opacity:0.44036699999999995"/><path d="M206.18,127.36a11.86,11.86,0,1,0-4.91,12.83,12,12,0,0,0,4.91-12.83C206.08,127,206.42,128.31,206.18,127.36Z" transform="translate(-179.79 -115.08)" style="fill:#8e8e8e;opacity:0.44495399999999996"/><path d="M206.17,127.36a11.85,11.85,0,1,0-4.91,12.82,11.95,11.95,0,0,0,4.91-12.82C206.07,127,206.41,128.31,206.17,127.36Z" transform="translate(-179.79 -115.08)" style="fill:#8c8c8c;opacity:0.44954099999999997"/><path d="M206.16,127.37a11.84,11.84,0,1,0-4.9,12.81,11.94,11.94,0,0,0,4.9-12.81C206.07,127,206.41,128.31,206.16,127.37Z" transform="translate(-179.79 -115.08)" style="fill:#8b8b8b;opacity:0.454128"/><path d="M206.16,127.37a11.83,11.83,0,1,0-4.91,12.8,11.92,11.92,0,0,0,4.91-12.8C206.06,127,206.4,128.31,206.16,127.37Z" transform="translate(-179.79 -115.08)" style="fill:#8a8a8a;opacity:0.45871599999999996"/><path d="M206.15,127.37a11.83,11.83,0,1,0-4.9,12.8,11.93,11.93,0,0,0,4.9-12.8Z" transform="translate(-179.79 -115.08)" style="fill:#898989;opacity:0.46330299999999996"/><path d="M206.15,127.37a11.82,11.82,0,1,0-4.9,12.79,11.93,11.93,0,0,0,4.9-12.79C206.05,127,206.39,128.32,206.15,127.37Z" transform="translate(-179.79 -115.08)" style="fill:#888;opacity:0.46789000000000003"/><path d="M206.14,127.37a11.82,11.82,0,1,0-4.9,12.79,11.9,11.9,0,0,0,4.9-12.79C206,127,206.38,128.32,206.14,127.37Z" transform="translate(-179.79 -115.08)" style="fill:#878787;opacity:0.472477"/><path d="M206.13,127.37a11.81,11.81,0,1,0-4.89,12.78,11.92,11.92,0,0,0,4.89-12.78C206,127,206.38,128.32,206.13,127.37Z" transform="translate(-179.79 -115.08)" style="fill:#858585;opacity:0.477064"/><path d="M206.13,127.38a11.8,11.8,0,1,0-4.89,12.76,11.9,11.9,0,0,0,4.89-12.76C206,127,206.37,128.32,206.13,127.38Z" transform="translate(-179.79 -115.08)" style="fill:#848484;opacity:0.481651"/><path d="M206.12,127.38a11.79,11.79,0,1,0-4.89,12.76,11.92,11.92,0,0,0,4.89-12.76C206,127,206.36,128.32,206.12,127.38Z" transform="translate(-179.79 -115.08)" style="fill:#838383;opacity:0.486239"/><path d="M206.11,127.38a11.79,11.79,0,1,0-4.88,12.75,11.88,11.88,0,0,0,4.88-12.75C206,127,206.36,128.32,206.11,127.38Z" transform="translate(-179.79 -115.08)" style="fill:#828282;opacity:0.490826"/><path d="M206.11,127.38a11.78,11.78,0,1,0-4.88,12.75,11.87,11.87,0,0,0,4.88-12.75C206,127,206.35,128.32,206.11,127.38Z" transform="translate(-179.79 -115.08)" style="fill:#818181;opacity:0.495413"/><path d="M206.1,127.38a11.78,11.78,0,1,0-4.88,12.74,11.89,11.89,0,0,0,4.88-12.74C206,127,206.34,128.32,206.1,127.38Z" transform="translate(-179.79 -115.08)" style="fill:gray;opacity:0.5"/><path d="M206.09,127.38a11.76,11.76,0,1,0-4.87,12.74,11.86,11.86,0,0,0,4.87-12.74C206,127,206.34,128.32,206.09,127.38Z" transform="translate(-179.79 -115.08)" style="fill:#7e7e7e;opacity:0.504587"/><path d="M206.09,127.39a11.77,11.77,0,1,0-4.88,12.72,11.86,11.86,0,0,0,4.88-12.72Z" transform="translate(-179.79 -115.08)" style="fill:#7d7d7d;opacity:0.509174"/><path d="M206.08,127.39a11.75,11.75,0,1,0-4.87,12.72,11.86,11.86,0,0,0,4.87-12.72C206,127,206.32,128.33,206.08,127.39Z" transform="translate(-179.79 -115.08)" style="fill:#7c7c7c;opacity:0.513761"/><path d="M206.08,127.39a11.75,11.75,0,1,0-4.87,12.71,11.85,11.85,0,0,0,4.87-12.71C206,127,206.32,128.33,206.08,127.39Z" transform="translate(-179.79 -115.08)" style="fill:#7b7b7b;opacity:0.518349"/><path d="M206.07,127.39a11.74,11.74,0,1,0-4.87,12.71,11.83,11.83,0,0,0,4.87-12.71C206,127,206.31,128.33,206.07,127.39Z" transform="translate(-179.79 -115.08)" style="fill:#7a7a7a;opacity:0.522936"/><path d="M206.06,127.39a11.74,11.74,0,1,0-4.86,12.7,11.84,11.84,0,0,0,4.86-12.7C206,127,206.3,128.33,206.06,127.39Z" transform="translate(-179.79 -115.08)" style="fill:#787878;opacity:0.527523"/><path d="M206.06,127.39a11.73,11.73,0,1,0-4.86,12.69,11.83,11.83,0,0,0,4.86-12.69C206,127,206.3,128.33,206.06,127.39Z" transform="translate(-179.79 -115.08)" style="fill:#777;opacity:0.5321100000000001"/><path d="M206.05,127.4a11.72,11.72,0,1,0-4.86,12.68,11.82,11.82,0,0,0,4.86-12.68Z" transform="translate(-179.79 -115.08)" style="fill:#767676;opacity:0.536697"/><path d="M206,127.4a11.71,11.71,0,1,0-4.85,12.67A11.83,11.83,0,0,0,206,127.4C206,127,206.28,128.33,206,127.4Z" transform="translate(-179.79 -115.08)" style="fill:#757575;opacity:0.541284"/><path d="M206,127.4a11.71,11.71,0,1,0-4.85,12.67A11.81,11.81,0,0,0,206,127.4Z" transform="translate(-179.79 -115.08)" style="fill:#747474;opacity:0.545872"/><path d="M206,127.4a11.7,11.7,0,1,0-4.85,12.66A11.8,11.8,0,0,0,206,127.4C205.94,127,206.27,128.33,206,127.4Z" transform="translate(-179.79 -115.08)" style="fill:#737373;opacity:0.5504589999999999"/><path d="M206,127.4a11.7,11.7,0,1,0-4.85,12.66A11.81,11.81,0,0,0,206,127.4C205.93,127,206.27,128.34,206,127.4Z" transform="translate(-179.79 -115.08)" style="fill:#717171;opacity:0.5550459999999999"/><path d="M206,127.4a11.69,11.69,0,1,0-4.85,12.65A11.79,11.79,0,0,0,206,127.4C205.92,127,206.26,128.34,206,127.4Z" transform="translate(-179.79 -115.08)" style="fill:#707070;opacity:0.5596329999999999"/><path d="M206,127.41a11.68,11.68,0,1,0-4.84,12.64A11.78,11.78,0,0,0,206,127.41C205.92,127,206.25,128.34,206,127.41Z" transform="translate(-179.79 -115.08)" style="fill:#6f6f6f;opacity:0.56422"/><path d="M206,127.41A11.68,11.68,0,1,0,201.17,140,11.79,11.79,0,0,0,206,127.41Z" transform="translate(-179.79 -115.08)" style="fill:#6e6e6e;opacity:0.568807"/><path d="M206,127.41A11.67,11.67,0,1,0,201.16,140,11.77,11.77,0,0,0,206,127.41C205.9,127,206.24,128.34,206,127.41Z" transform="translate(-179.79 -115.08)" style="fill:#6d6d6d;opacity:0.573394"/><path d="M206,127.41A11.66,11.66,0,1,0,201.16,140,11.77,11.77,0,0,0,206,127.41C205.9,127,206.23,128.34,206,127.41Z" transform="translate(-179.79 -115.08)" style="fill:#6c6c6c;opacity:0.577982"/><path d="M206,127.41A11.66,11.66,0,1,0,201.16,140,11.77,11.77,0,0,0,206,127.41C205.89,127,206.23,128.34,206,127.41Z" transform="translate(-179.79 -115.08)" style="fill:#6a6a6a;opacity:0.582569"/><path d="M206,127.41A11.65,11.65,0,1,0,201.15,140,11.75,11.75,0,0,0,206,127.41C205.89,127,206.22,128.34,206,127.41Z" transform="translate(-179.79 -115.08)" style="fill:#696969;opacity:0.587156"/><path d="M206,127.41a11.64,11.64,0,1,0-4.82,12.6,11.75,11.75,0,0,0,4.82-12.6C205.88,127,206.21,128.34,206,127.41Z" transform="translate(-179.79 -115.08)" style="fill:#686868;opacity:0.591743"/><path d="M206,127.42A11.64,11.64,0,1,0,201.15,140,11.75,11.75,0,0,0,206,127.42Z" transform="translate(-179.79 -115.08)" style="fill:#676767;opacity:0.59633"/><path d="M206,127.42A11.63,11.63,0,1,0,201.14,140,11.72,11.72,0,0,0,206,127.42C205.87,127.05,206.2,128.35,206,127.42Z" transform="translate(-179.79 -115.08)" style="fill:#666;opacity:0.6009169999999999"/><path d="M206,127.42A11.63,11.63,0,1,0,201.14,140,11.73,11.73,0,0,0,206,127.42C205.86,127.05,206.19,128.35,206,127.42Z" transform="translate(-179.79 -115.08)" style="fill:#656565;opacity:0.605505"/><path d="M206,127.42A11.62,11.62,0,1,0,201.14,140,11.73,11.73,0,0,0,206,127.42C205.85,127.05,206.19,128.35,206,127.42Z" transform="translate(-179.79 -115.08)" style="fill:#636363;opacity:0.610092"/><path d="M205.94,127.42A11.61,11.61,0,1,0,201.13,140a11.69,11.69,0,0,0,4.81-12.57C205.85,127.05,206.18,128.35,205.94,127.42Z" transform="translate(-179.79 -115.08)" style="fill:#626262;opacity:0.614679"/><path d="M205.94,127.42A11.61,11.61,0,1,0,201.13,140a11.73,11.73,0,0,0,4.81-12.56C205.84,127.05,206.18,128.35,205.94,127.42Z" transform="translate(-179.79 -115.08)" style="fill:#616161;opacity:0.619266"/><path d="M205.93,127.43A11.6,11.6,0,1,0,201.12,140a11.7,11.7,0,0,0,4.81-12.55C205.83,127.06,206.17,128.35,205.93,127.43Z" transform="translate(-179.79 -115.08)" style="fill:#606060;opacity:0.623853"/><path d="M205.92,127.43a11.59,11.59,0,1,0-4.8,12.54,11.67,11.67,0,0,0,4.8-12.54C205.83,127.06,206.16,128.35,205.92,127.43Z" transform="translate(-179.79 -115.08)" style="fill:#5f5f5f;opacity:0.62844"/><path d="M205.92,127.43a11.59,11.59,0,1,0-4.8,12.53,11.7,11.7,0,0,0,4.8-12.53C205.82,127.06,206.16,128.35,205.92,127.43Z" transform="translate(-179.79 -115.08)" style="fill:#5e5e5e;opacity:0.6330279999999999"/><path d="M205.91,127.43a11.58,11.58,0,1,0-4.8,12.53,11.67,11.67,0,0,0,4.8-12.53C205.82,127.06,206.15,128.36,205.91,127.43Z" transform="translate(-179.79 -115.08)" style="fill:#5c5c5c;opacity:0.6376149999999999"/><path d="M205.91,127.43a11.57,11.57,0,1,0-4.8,12.52,11.67,11.67,0,0,0,4.8-12.52C205.81,127.06,206.14,128.36,205.91,127.43Z" transform="translate(-179.79 -115.08)" style="fill:#5b5b5b;opacity:0.6422019999999999"/><path d="M205.9,127.43A11.57,11.57,0,1,0,201.11,140a11.68,11.68,0,0,0,4.79-12.52C205.8,127.06,206.14,128.36,205.9,127.43Z" transform="translate(-179.79 -115.08)" style="fill:#5a5a5a;opacity:0.646789"/><path d="M205.89,127.44a11.55,11.55,0,1,0-4.79,12.5,11.65,11.65,0,0,0,4.79-12.5C205.8,127.07,206.13,128.36,205.89,127.44Z" transform="translate(-179.79 -115.08)" style="fill:#595959;opacity:0.651376"/><path d="M205.89,127.44a11.55,11.55,0,1,0-4.79,12.5,11.67,11.67,0,0,0,4.79-12.5C205.79,127.07,206.12,128.36,205.89,127.44Z" transform="translate(-179.79 -115.08)" style="fill:#585858;opacity:0.655963"/><path d="M205.88,127.44a11.55,11.55,0,1,0-4.78,12.49,11.66,11.66,0,0,0,4.78-12.49C205.78,127.07,206.12,128.36,205.88,127.44Z" transform="translate(-179.79 -115.08)" style="fill:#575757;opacity:0.6605500000000001"/><path d="M205.87,127.44a11.54,11.54,0,1,0-4.78,12.49,11.63,11.63,0,0,0,4.78-12.49C205.78,127.07,206.11,128.36,205.87,127.44Z" transform="translate(-179.79 -115.08)" style="fill:#555;opacity:0.665138"/><path d="M205.87,127.44a11.54,11.54,0,1,0-4.78,12.48,11.64,11.64,0,0,0,4.78-12.48C205.77,127.07,206.1,128.36,205.87,127.44Z" transform="translate(-179.79 -115.08)" style="fill:#545454;opacity:0.669725"/><path d="M205.86,127.44a11.53,11.53,0,1,0-4.78,12.48,11.63,11.63,0,0,0,4.78-12.48C205.77,127.08,206.1,128.36,205.86,127.44Z" transform="translate(-179.79 -115.08)" style="fill:#535353;opacity:0.674312"/><path d="M205.85,127.45a11.52,11.52,0,1,0-4.77,12.46,11.6,11.6,0,0,0,4.77-12.46C205.76,127.08,206.09,128.37,205.85,127.45Z" transform="translate(-179.79 -115.08)" style="fill:#525252;opacity:0.6788989999999999"/><path d="M205.85,127.45a11.51,11.51,0,1,0-4.77,12.45,11.63,11.63,0,0,0,4.77-12.45C205.75,127.08,206.08,128.37,205.85,127.45Z" transform="translate(-179.79 -115.08)" style="fill:#515151;opacity:0.6834859999999999"/><path d="M205.84,127.45a11.5,11.5,0,1,0-4.77,12.45,11.6,11.6,0,0,0,4.77-12.45C205.75,127.08,206.08,128.37,205.84,127.45Z" transform="translate(-179.79 -115.08)" style="fill:#505050;opacity:0.6880729999999999"/><path d="M205.84,127.45a11.51,11.51,0,1,0-4.77,12.44,11.59,11.59,0,0,0,4.77-12.44C205.74,127.08,206.07,128.37,205.84,127.45Z" transform="translate(-179.79 -115.08)" style="fill:#4e4e4e;opacity:0.692661"/><path d="M205.83,127.45a11.49,11.49,0,1,0-4.76,12.44,11.61,11.61,0,0,0,4.76-12.44C205.73,127.09,206.07,128.37,205.83,127.45Z" transform="translate(-179.79 -115.08)" style="fill:#4d4d4d;opacity:0.697248"/><path d="M205.82,127.45a11.49,11.49,0,1,0-4.76,12.43,11.57,11.57,0,0,0,4.76-12.43C205.73,127.09,206.06,128.37,205.82,127.45Z" transform="translate(-179.79 -115.08)" style="fill:#4c4c4c;opacity:0.701835"/><path d="M205.82,127.46a11.48,11.48,0,1,0-4.76,12.42,11.58,11.58,0,0,0,4.76-12.42C205.72,127.09,206.05,128.37,205.82,127.46Z" transform="translate(-179.79 -115.08)" style="fill:#4b4b4b;opacity:0.706422"/><path d="M205.81,127.46a11.47,11.47,0,1,0-4.75,12.41,11.57,11.57,0,0,0,4.75-12.41C205.72,127.09,206.05,128.37,205.81,127.46Z" transform="translate(-179.79 -115.08)" style="fill:#4a4a4a;opacity:0.711009"/><path d="M205.8,127.46a11.46,11.46,0,1,0-4.75,12.41,11.56,11.56,0,0,0,4.75-12.41C205.71,127.09,206,128.37,205.8,127.46Z" transform="translate(-179.79 -115.08)" style="fill:#494949;opacity:0.715596"/><path d="M205.8,127.46a11.46,11.46,0,1,0-4.75,12.4,11.56,11.56,0,0,0,4.75-12.4C205.7,127.09,206,128.38,205.8,127.46Z" transform="translate(-179.79 -115.08)" style="fill:#474747;opacity:0.720183"/><path d="M205.79,127.46a11.45,11.45,0,1,0-4.75,12.4,11.55,11.55,0,0,0,4.75-12.4C205.7,127.1,206,128.38,205.79,127.46Z" transform="translate(-179.79 -115.08)" style="fill:#464646;opacity:0.7247709999999999"/><path d="M205.78,127.46A11.45,11.45,0,1,0,201,139.85a11.54,11.54,0,0,0,4.74-12.39C205.69,127.1,206,128.38,205.78,127.46Z" transform="translate(-179.79 -115.08)" style="fill:#454545;opacity:0.729358"/><path d="M205.78,127.47A11.44,11.44,0,1,0,201,139.84a11.52,11.52,0,0,0,4.74-12.37C205.68,127.1,206,128.38,205.78,127.47Z" transform="translate(-179.79 -115.08)" style="fill:#444;opacity:0.733945"/><path d="M205.77,127.47A11.43,11.43,0,1,0,201,139.84a11.54,11.54,0,0,0,4.74-12.37C205.68,127.1,206,128.38,205.77,127.47Z" transform="translate(-179.79 -115.08)" style="fill:#434343;opacity:0.738532"/><path d="M205.77,127.47A11.43,11.43,0,1,0,201,139.83a11.53,11.53,0,0,0,4.74-12.36C205.67,127.1,206,128.38,205.77,127.47Z" transform="translate(-179.79 -115.08)" style="fill:#424242;opacity:0.743119"/><path d="M205.76,127.47A11.42,11.42,0,1,0,201,139.83a11.53,11.53,0,0,0,4.73-12.36Z" transform="translate(-179.79 -115.08)" style="fill:#404040;opacity:0.747706"/><path d="M205.75,127.47A11.41,11.41,0,1,0,201,139.82a11.52,11.52,0,0,0,4.73-12.35C205.66,127.11,206,128.38,205.75,127.47Z" transform="translate(-179.79 -115.08)" style="fill:#3f3f3f;opacity:0.752294"/><path d="M205.75,127.47A11.41,11.41,0,1,0,201,139.82a11.51,11.51,0,0,0,4.73-12.35C205.65,127.11,206,128.38,205.75,127.47Z" transform="translate(-179.79 -115.08)" style="fill:#3e3e3e;opacity:0.7568809999999999"/><path d="M205.74,127.48A11.4,11.4,0,1,0,201,139.81a11.51,11.51,0,0,0,4.72-12.33C205.65,127.11,206,128.39,205.74,127.48Z" transform="translate(-179.79 -115.08)" style="fill:#3d3d3d;opacity:0.7614679999999999"/><path d="M205.73,127.48A11.39,11.39,0,1,0,201,139.81a11.49,11.49,0,0,0,4.72-12.33C205.64,127.11,206,128.39,205.73,127.48Z" transform="translate(-179.79 -115.08)" style="fill:#3c3c3c;opacity:0.7660549999999999"/><path d="M205.73,127.48A11.39,11.39,0,1,0,201,139.8a11.49,11.49,0,0,0,4.72-12.32C205.63,127.11,206,128.39,205.73,127.48Z" transform="translate(-179.79 -115.08)" style="fill:#3a3a3a;opacity:0.7706419999999999"/><path d="M205.72,127.48A11.38,11.38,0,1,0,201,139.8a11.48,11.48,0,0,0,4.72-12.32C205.63,127.12,206,128.39,205.72,127.48Z" transform="translate(-179.79 -115.08)" style="fill:#393939;opacity:0.775229"/><path d="M205.72,127.48A11.38,11.38,0,1,0,201,139.79a11.49,11.49,0,0,0,4.72-12.31C205.62,127.12,206,128.39,205.72,127.48Z" transform="translate(-179.79 -115.08)" style="fill:#383838;opacity:0.779817"/><path d="M205.71,127.48a11.37,11.37,0,1,0-4.71,12.3,11.47,11.47,0,0,0,4.71-12.3Z" transform="translate(-179.79 -115.08)" style="fill:#373737;opacity:0.784404"/><path d="M205.7,127.48a11.36,11.36,0,1,0-4.71,12.3,11.46,11.46,0,0,0,4.71-12.3C205.61,127.12,205.94,128.39,205.7,127.48Z" transform="translate(-179.79 -115.08)" style="fill:#363636;opacity:0.788991"/><path d="M205.7,127.49A11.36,11.36,0,1,0,201,139.77a11.48,11.48,0,0,0,4.71-12.28C205.6,127.12,205.93,128.39,205.7,127.49Z" transform="translate(-179.79 -115.08)" style="fill:#353535;opacity:0.793578"/><path d="M205.69,127.49a11.35,11.35,0,1,0-4.7,12.28,11.43,11.43,0,0,0,4.7-12.28Z" transform="translate(-179.79 -115.08)" style="fill:#333;opacity:0.798165"/><path d="M205.68,127.49a11.34,11.34,0,1,0-4.7,12.27,11.45,11.45,0,0,0,4.7-12.27C205.59,127.13,205.92,128.4,205.68,127.49Z" transform="translate(-179.79 -115.08)" style="fill:#323232;opacity:0.8027519999999999"/><path d="M205.68,127.49a11.34,11.34,0,1,0-4.7,12.27,11.43,11.43,0,0,0,4.7-12.27C205.58,127.13,205.91,128.4,205.68,127.49Z" transform="translate(-179.79 -115.08)" style="fill:#313131;opacity:0.8073389999999999"/><path d="M205.67,127.49A11.33,11.33,0,1,0,201,139.75a11.41,11.41,0,0,0,4.69-12.26Z" transform="translate(-179.79 -115.08)" style="fill:#303030;opacity:0.811927"/><path d="M205.66,127.49A11.32,11.32,0,1,0,201,139.75a11.43,11.43,0,0,0,4.69-12.26C205.57,127.13,205.9,128.4,205.66,127.49Z" transform="translate(-179.79 -115.08)" style="fill:#2f2f2f;opacity:0.816514"/><path d="M205.66,127.5A11.32,11.32,0,1,0,201,139.74a11.41,11.41,0,0,0,4.69-12.24C205.57,127.13,205.89,128.4,205.66,127.5Z" transform="translate(-179.79 -115.08)" style="fill:#2e2e2e;opacity:0.821101"/><path d="M205.65,127.5A11.3,11.3,0,1,0,201,139.74a11.4,11.4,0,0,0,4.68-12.24Z" transform="translate(-179.79 -115.08)" style="fill:#2c2c2c;opacity:0.825688"/><path d="M205.65,127.5A11.31,11.31,0,1,0,201,139.73a11.4,11.4,0,0,0,4.69-12.23C205.55,127.14,205.88,128.4,205.65,127.5Z" transform="translate(-179.79 -115.08)" style="fill:#2b2b2b;opacity:0.830275"/><path d="M205.64,127.5A11.3,11.3,0,1,0,201,139.72a11.4,11.4,0,0,0,4.68-12.22Z" transform="translate(-179.79 -115.08)" style="fill:#2a2a2a;opacity:0.834862"/><path d="M205.63,127.5A11.29,11.29,0,1,0,201,139.72a11.39,11.39,0,0,0,4.68-12.22Z" transform="translate(-179.79 -115.08)" style="fill:#292929;opacity:0.83945"/><path d="M205.63,127.5A11.29,11.29,0,1,0,201,139.71a11.38,11.38,0,0,0,4.68-12.21C205.53,127.14,205.86,128.41,205.63,127.5Z" transform="translate(-179.79 -115.08)" style="fill:#282828;opacity:0.8440369999999999"/><path d="M205.62,127.51a11.28,11.28,0,1,0-4.67,12.2,11.37,11.37,0,0,0,4.67-12.2Z" transform="translate(-179.79 -115.08)" style="fill:#272727;opacity:0.8486239999999999"/><path d="M205.61,127.51a11.27,11.27,0,1,0-4.67,12.19,11.37,11.37,0,0,0,4.67-12.19C205.52,127.15,205.85,128.41,205.61,127.51Z" transform="translate(-179.79 -115.08)" style="fill:#252525;opacity:0.8532109999999999"/><path d="M205.61,127.51a11.26,11.26,0,1,0-4.67,12.19,11.37,11.37,0,0,0,4.67-12.19C205.51,127.15,205.84,128.41,205.61,127.51Z" transform="translate(-179.79 -115.08)" style="fill:#242424;opacity:0.857798"/><path d="M205.6,127.51a11.26,11.26,0,1,0-4.66,12.18,11.35,11.35,0,0,0,4.66-12.18Z" transform="translate(-179.79 -115.08)" style="fill:#232323;opacity:0.862385"/><path d="M205.59,127.51a11.25,11.25,0,1,0-4.66,12.18,11.34,11.34,0,0,0,4.66-12.18C205.5,127.15,205.83,128.41,205.59,127.51Z" transform="translate(-179.79 -115.08)" style="fill:#222;opacity:0.866972"/><path d="M205.59,127.51a11.25,11.25,0,1,0-4.66,12.17,11.34,11.34,0,0,0,4.66-12.17Z" transform="translate(-179.79 -115.08)" style="fill:#212121;opacity:0.8715600000000001"/><path d="M205.58,127.52a11.24,11.24,0,1,0-4.65,12.16,11.33,11.33,0,0,0,4.65-12.16C205.49,127.16,205.81,128.41,205.58,127.52Z" transform="translate(-179.79 -115.08)" style="fill:#202020;opacity:0.876147"/><path d="M205.58,127.52a11.24,11.24,0,1,0-4.66,12.15,11.34,11.34,0,0,0,4.66-12.15C205.48,127.16,205.81,128.41,205.58,127.52Z" transform="translate(-179.79 -115.08)" style="fill:#1e1e1e;opacity:0.8807339999999999"/><path d="M205.57,127.52a11.23,11.23,0,1,0-4.65,12.14,11.32,11.32,0,0,0,4.65-12.14Z" transform="translate(-179.79 -115.08)" style="fill:#1d1d1d;opacity:0.8853209999999999"/><path d="M205.56,127.52a11.22,11.22,0,1,0-4.65,12.14,11.3,11.3,0,0,0,4.65-12.14Z" transform="translate(-179.79 -115.08)" style="fill:#1c1c1c;opacity:0.8899079999999999"/><path d="M205.56,127.52a11.22,11.22,0,1,0-4.65,12.13,11.32,11.32,0,0,0,4.65-12.13C205.46,127.16,205.79,128.42,205.56,127.52Z" transform="translate(-179.79 -115.08)" style="fill:#1b1b1b;opacity:0.8944949999999999"/><path d="M205.55,127.52a11.21,11.21,0,1,0-4.64,12.13,11.31,11.31,0,0,0,4.64-12.13Z" transform="translate(-179.79 -115.08)" style="fill:#1a1a1a;opacity:0.899083"/><path d="M205.54,127.53a11.2,11.2,0,1,0-4.64,12.11,11.27,11.27,0,0,0,4.64-12.11C205.45,127.17,205.77,128.42,205.54,127.53Z" transform="translate(-179.79 -115.08)" style="fill:#191919;opacity:0.9036700000000001"/><path d="M205.54,127.53a11.2,11.2,0,1,0-4.64,12.11,11.3,11.3,0,0,0,4.64-12.11C205.45,127.17,205.77,128.42,205.54,127.53Z" transform="translate(-179.79 -115.08)" style="fill:#171717;opacity:0.908257"/><path d="M205.53,127.53a11.18,11.18,0,1,0-4.63,12.1,11.29,11.29,0,0,0,4.63-12.1C205.44,127.17,205.76,128.42,205.53,127.53Z" transform="translate(-179.79 -115.08)" style="fill:#161616;opacity:0.912844"/><path d="M205.53,127.53a11.19,11.19,0,1,0-4.64,12.1,11.3,11.3,0,0,0,4.64-12.1C205.43,127.17,205.75,128.42,205.53,127.53Z" transform="translate(-179.79 -115.08)" style="fill:#151515;opacity:0.917431"/><path d="M205.52,127.53a11.17,11.17,0,1,0-4.63,12.09,11.28,11.28,0,0,0,4.63-12.09Z" transform="translate(-179.79 -115.08)" style="fill:#141414;opacity:0.922018"/><path d="M205.51,127.53a11.17,11.17,0,1,0-4.62,12.09,11.25,11.25,0,0,0,4.62-12.09Z" transform="translate(-179.79 -115.08)" style="fill:#131313;opacity:0.9266059999999999"/><path d="M205.51,127.54a11.17,11.17,0,1,0-4.63,12.07,11.27,11.27,0,0,0,4.63-12.07C205.41,127.18,205.74,128.43,205.51,127.54Z" transform="translate(-179.79 -115.08)" style="fill:#121212;opacity:0.9311929999999999"/><path d="M205.5,127.54a11.16,11.16,0,1,0-4.62,12.06,11.25,11.25,0,0,0,4.62-12.06C205.41,127.18,205.73,128.43,205.5,127.54Z" transform="translate(-179.79 -115.08)" style="fill:#101010;opacity:0.9357800000000001"/><path d="M205.49,127.54a11.15,11.15,0,1,0-4.62,12.06,11.23,11.23,0,0,0,4.62-12.06C205.4,127.18,205.72,128.43,205.49,127.54Z" transform="translate(-179.79 -115.08)" style="fill:#0f0f0f;opacity:0.940367"/><path d="M205.49,127.54a11.15,11.15,0,1,0-4.62,12,11.26,11.26,0,0,0,4.62-12C205.4,127.18,205.72,128.43,205.49,127.54Z" transform="translate(-179.79 -115.08)" style="fill:#0e0e0e;opacity:0.944954"/><path d="M205.48,127.54a11.13,11.13,0,1,0-4.61,12,11.23,11.23,0,0,0,4.61-12Z" transform="translate(-179.79 -115.08)" style="fill:#0d0d0d;opacity:0.949541"/><path d="M205.47,127.54a11.13,11.13,0,1,0-4.61,12,11.21,11.21,0,0,0,4.61-12Z" transform="translate(-179.79 -115.08)" style="fill:#0c0c0c;opacity:0.954128"/><path d="M205.47,127.55a11.12,11.12,0,1,0-4.61,12,11.23,11.23,0,0,0,4.61-12C205.38,127.19,205.7,128.43,205.47,127.55Z" transform="translate(-179.79 -115.08)" style="fill:#0b0b0b;opacity:0.9587159999999999"/><path d="M205.46,127.55a11.12,11.12,0,1,0-4.6,12,11.2,11.2,0,0,0,4.6-12C205.37,127.19,205.69,128.43,205.46,127.55Z" transform="translate(-179.79 -115.08)" style="fill:#090909;opacity:0.9633029999999999"/><path d="M205.46,127.55a11.11,11.11,0,1,0-4.61,12,11.21,11.21,0,0,0,4.61-12C205.36,127.19,205.68,128.44,205.46,127.55Z" transform="translate(-179.79 -115.08)" style="fill:#080808;opacity:0.96789"/><path d="M205.45,127.55a11.11,11.11,0,1,0-4.6,12,11.21,11.21,0,0,0,4.6-12Z" transform="translate(-179.79 -115.08)" style="fill:#070707;opacity:0.9724769999999999"/><path d="M205.44,127.55a11.09,11.09,0,1,0-4.59,12,11.18,11.18,0,0,0,4.59-12Z" transform="translate(-179.79 -115.08)" style="fill:#060606;opacity:0.9770639999999999"/><path d="M205.44,127.55a11.1,11.1,0,1,0-4.6,12,11.19,11.19,0,0,0,4.6-12C205.35,127.2,205.66,128.44,205.44,127.55Z" transform="translate(-179.79 -115.08)" style="fill:#050505;opacity:0.9816509999999999"/><path d="M205.43,127.55a11.08,11.08,0,1,0-4.59,12,11.17,11.17,0,0,0,4.59-12Z" transform="translate(-179.79 -115.08)" style="fill:#040404;opacity:0.986239"/><path d="M205.42,127.56a11.08,11.08,0,1,0-4.59,12,11.15,11.15,0,0,0,4.59-12C205.33,127.2,205.65,128.44,205.42,127.56Z" transform="translate(-179.79 -115.08)" style="fill:#020202;opacity:0.990826"/><path d="M205.42,127.56a11.07,11.07,0,1,0-4.59,12,11.17,11.17,0,0,0,4.59-12Z" transform="translate(-179.79 -115.08)" style="fill:#010101;opacity:0.995413"/><path d="M205.41,127.56a11.06,11.06,0,1,0-4.58,12,11.16,11.16,0,0,0,4.58-12Z" transform="translate(-179.79 -115.08)"/></g><g style="clip-path:url(#ab1cdf7b-f51d-43d3-b0c8-7330bdd70753)"><circle cx="14.91" cy="15.25" r="11.05" style="fill:url(#bbe7ef07-8338-43e1-af04-3aef2d730124)"/><path d="M194.7,119.27a11.06,11.06,0,1,0,11.05,11A11,11,0,0,0,194.7,119.27Zm0,21.8a10.75,10.75,0,1,1,10.75-10.75A10.75,10.75,0,0,1,194.7,141.07Z" transform="translate(-179.79 -115.08)" style="opacity:0.75;mix-blend-mode:overlay;fill:url(#a7c27585-bb9a-409e-b73c-2b423cf81c96)"/><circle cx="194.7" cy="130.32" r="8.73" transform="translate(-145 186.48) rotate(-80.76)" style="opacity:0.75;mix-blend-mode:screen;fill:url(#a927bf8c-3d76-4faf-a1c8-e82904c7ff7e)"/><circle cx="194.7" cy="130.32" r="8.73" transform="translate(-145 186.48) rotate(-80.76)" style="opacity:0.32;mix-blend-mode:screen;fill:url(#ebdd11fc-316f-4743-816f-b995d446edae)"/><circle cx="14.91" cy="15.25" r="8.44" style="fill:url(#fd69203b-6e09-4802-bf1c-d45e242c409e)"/><g style="opacity:0.75"><g style="opacity:0.85;mix-blend-mode:multiply"><path d="M201.58,131.34a.25.25,0,0,1-.21-.28.26.26,0,0,1,.27-.23.27.27,0,0,1,.24.28A.27.27,0,0,1,201.58,131.34Z" transform="translate(-179.79 -115.08)" style="fill:url(#ab15d89c-24a8-4935-a50f-58172782340b)"/><path d="M201.37,132.33a.25.25,0,0,1,.13-.49.25.25,0,1,1-.13.49Z" transform="translate(-179.79 -115.08)" style="fill:url(#e1c4acbd-c40c-4629-8f6f-b1ecaf67a87c)"/><path d="M201,133.28a.24.24,0,0,1-.12-.33.25.25,0,0,1,.32-.14.27.27,0,0,1,.15.34A.27.27,0,0,1,201,133.28Z" transform="translate(-179.79 -115.08)" style="fill:url(#f8122382-7a67-496b-9c23-8961fbee66b8)"/><path d="M200.51,134.17a.26.26,0,0,1-.09-.35.27.27,0,0,1,.35-.09.25.25,0,0,1,.09.35A.25.25,0,0,1,200.51,134.17Z" transform="translate(-179.79 -115.08)" style="fill:url(#b59757f5-170d-4e8b-8dc2-d7c4f2358aea)"/><path d="M199.88,135a.25.25,0,0,1,0-.35.24.24,0,0,1,.35,0,.25.25,0,0,1,0,.36A.27.27,0,0,1,199.88,135Z" transform="translate(-179.79 -115.08)" style="fill:url(#ee06913e-9cdb-41c9-bb6c-0f673cc0d39f)"/><path d="M199.15,135.68a.27.27,0,0,1,0-.36.26.26,0,0,1,.36,0,.25.25,0,1,1-.38.34Z" transform="translate(-179.79 -115.08)" style="fill:url(#fb2a4a8e-68a8-4c35-b887-9ff2d898949f)"/><path d="M198.32,136.27a.27.27,0,0,1,.08-.35.26.26,0,0,1,.35.07.25.25,0,0,1-.07.36A.27.27,0,0,1,198.32,136.27Z" transform="translate(-179.79 -115.08)" style="fill:url(#ad0a52a3-a561-4adb-8fe7-64ef9a9a676b)"/><path d="M197.42,136.74a.26.26,0,0,1,.13-.34.24.24,0,0,1,.33.12.25.25,0,0,1-.12.34A.25.25,0,0,1,197.42,136.74Z" transform="translate(-179.79 -115.08)" style="fill:url(#aa9fb80c-63b7-4058-a2b3-467594ee15a8)"/><path d="M196.46,137.06a.25.25,0,0,1,.17-.31.27.27,0,0,1,.32.17.26.26,0,0,1-.17.32A.25.25,0,0,1,196.46,137.06Z" transform="translate(-179.79 -115.08)" style="fill:url(#f1b6058a-bbef-4e8d-b52c-7f78f9d24bf1)"/><path d="M195.46,137.25a.27.27,0,0,1,.22-.29.25.25,0,0,1,.07.5A.24.24,0,0,1,195.46,137.25Z" transform="translate(-179.79 -115.08)" style="fill:url(#e59a8917-ab9b-49db-9e82-e24317d364de)"/><path d="M194.44,137.28a.25.25,0,0,1,.26-.24.24.24,0,0,1,.25.24.26.26,0,0,1-.25.27A.27.27,0,0,1,194.44,137.28Z" transform="translate(-179.79 -115.08)" style="fill:url(#a838e9e6-c53c-4e5e-9035-e4767dcb6193)"/><path d="M193.43,137.17a.26.26,0,0,1,.29-.21.27.27,0,0,1,.22.29.24.24,0,0,1-.29.21A.25.25,0,0,1,193.43,137.17Z" transform="translate(-179.79 -115.08)" style="fill:url(#ac86bf9d-7cf5-4468-9936-0b8fa6a0c819)"/><path d="M192.45,136.92a.27.27,0,0,1,.32-.17.26.26,0,1,1-.32.17Z" transform="translate(-179.79 -115.08)" style="fill:url(#f60d71f7-2e6b-469f-bb2a-b565498bb07f)"/><path d="M191.52,136.52a.24.24,0,0,1,.33-.12.26.26,0,0,1,.12.34.25.25,0,1,1-.45-.22Z" transform="translate(-179.79 -115.08)" style="fill:url(#b48aca1a-062b-4956-b671-abeee8bedfa1)"/><path d="M190.65,136a.25.25,0,0,1,.42.28.27.27,0,0,1-.36.08A.26.26,0,0,1,190.65,136Z" transform="translate(-179.79 -115.08)" style="fill:url(#bf535370-4b80-46ec-b775-529e673fd80b)"/><path d="M189.87,135.34a.25.25,0,0,1,.35,0,.26.26,0,0,1,0,.36.25.25,0,0,1-.36,0A.25.25,0,0,1,189.87,135.34Z" transform="translate(-179.79 -115.08)" style="fill:url(#ea43e815-5bc5-4a1e-8502-f9aa13389204)"/><path d="M189.19,134.58a.24.24,0,0,1,.35,0,.25.25,0,0,1,0,.35.27.27,0,0,1-.37,0A.25.25,0,0,1,189.19,134.58Z" transform="translate(-179.79 -115.08)" style="fill:url(#b76e93ce-8f1c-4df5-bc7e-c49655394d10)"/><path d="M188.63,133.73a.27.27,0,0,1,.35.09.27.27,0,0,1-.09.35.26.26,0,1,1-.26-.44Z" transform="translate(-179.79 -115.08)" style="fill:url(#b11b5b63-646c-49a0-a1ed-e5fb16806023)"/><path d="M188.2,132.81a.26.26,0,0,1,.2.47.26.26,0,1,1-.2-.47Z" transform="translate(-179.79 -115.08)" style="fill:url(#b08fd158-4bd2-4913-9c1d-8e640ad2724e)"/><path d="M187.9,131.84a.26.26,0,0,1,.31.18.27.27,0,0,1-.18.31.25.25,0,1,1-.13-.49Z" transform="translate(-179.79 -115.08)" style="fill:url(#be418e36-bcd4-4e5d-9721-d59065c083b2)"/><path d="M187.76,130.83a.26.26,0,0,1,.27.23.25.25,0,0,1-.22.28.26.26,0,1,1-.05-.51Z" transform="translate(-179.79 -115.08)" style="fill:url(#a6b33dac-783d-4b6a-8216-9ba814be6b33)"/><path d="M187.76,129.82a.25.25,0,0,1,.24.26.29.29,0,0,1-.27.25.25.25,0,0,1-.24-.27A.26.26,0,0,1,187.76,129.82Z" transform="translate(-179.79 -115.08)" style="fill:url(#be871184-2c7b-4b0e-a538-618d22e07ddb)"/><path d="M187.9,128.81a.26.26,0,0,1,.2.3.25.25,0,0,1-.29.2.26.26,0,0,1-.21-.3A.25.25,0,0,1,187.9,128.81Z" transform="translate(-179.79 -115.08)" style="fill:url(#aa5e25a0-8b2e-4e04-91cf-5cb9413e2ff8)"/><path d="M188.2,127.84a.25.25,0,0,1,.15.32.27.27,0,0,1-.32.16.24.24,0,0,1-.16-.32A.26.26,0,0,1,188.2,127.84Z" transform="translate(-179.79 -115.08)" style="fill:url(#bd43e1b4-7ccc-44c2-99c8-f041c194f594)"/><path d="M188.63,126.92a.26.26,0,0,1,.1.34.25.25,0,0,1-.33.11.25.25,0,0,1-.12-.34A.24.24,0,0,1,188.63,126.92Z" transform="translate(-179.79 -115.08)" style="fill:url(#a778e788-9393-46e3-9c17-edd9902de9ad)"/><path d="M189.19,126.07a.25.25,0,0,1,.05.35.25.25,0,0,1-.35.06.24.24,0,0,1-.06-.35A.25.25,0,0,1,189.19,126.07Z" transform="translate(-179.79 -115.08)" style="fill:url(#a7938018-e74d-4c0a-b623-3b6b1a68a4ab)"/><path d="M189.87,125.31a.27.27,0,0,1,0,.36.25.25,0,0,1-.35,0,.25.25,0,0,1,0-.36A.25.25,0,0,1,189.87,125.31Z" transform="translate(-179.79 -115.08)" style="fill:url(#fa7cb031-53ce-4e07-870d-310fbef58238)"/><path d="M190.65,124.66a.26.26,0,0,1-.05.36.27.27,0,0,1-.36,0,.25.25,0,0,1,0-.36A.26.26,0,0,1,190.65,124.66Z" transform="translate(-179.79 -115.08)" style="fill:url(#f4d9e4aa-d9dd-400b-89fb-f205d94b4874)"/><path d="M191.52,124.13a.27.27,0,0,1-.1.34.26.26,0,0,1-.35-.09.26.26,0,1,1,.45-.25Z" transform="translate(-179.79 -115.08)" style="fill:url(#efa2563a-e7e3-472e-bc21-3e819c2e4676)"/><path d="M192.45,123.74a.24.24,0,0,1-.15.32.27.27,0,0,1-.33-.15.24.24,0,0,1,.15-.32A.24.24,0,0,1,192.45,123.74Z" transform="translate(-179.79 -115.08)" style="fill:url(#e50cc45f-8702-42f3-8645-fb92bc16145d)"/><path d="M193.43,123.48a.26.26,0,0,1-.19.3.25.25,0,0,1-.3-.19.26.26,0,0,1,.19-.31A.24.24,0,0,1,193.43,123.48Z" transform="translate(-179.79 -115.08)" style="fill:url(#b7f99c21-dad1-4e86-99ea-180cf10708ef)"/><path d="M194.44,123.37a.26.26,0,0,1-.23.27.26.26,0,0,1-.27-.24.24.24,0,0,1,.23-.27A.25.25,0,0,1,194.44,123.37Z" transform="translate(-179.79 -115.08)" style="fill:url(#ba44eb48-4af0-4edd-82e3-e5ee7430e4a7)"/><path d="M195.46,123.4a.28.28,0,0,1-.27.24.26.26,0,0,1-.24-.27.26.26,0,0,1,.28-.24A.24.24,0,0,1,195.46,123.4Z" transform="translate(-179.79 -115.08)" style="fill:url(#fbe04bdd-1864-4177-9dca-b6cc55cea2f8)"/><path d="M196.46,123.59a.25.25,0,0,1-.3.19.27.27,0,0,1-.2-.3.26.26,0,1,1,.5.11Z" transform="translate(-179.79 -115.08)" style="fill:url(#fb3af894-02d4-4167-865a-2c1b0e789b30)"/><path d="M197.42,123.91a.26.26,0,0,1-.33.15.25.25,0,0,1-.14-.32.25.25,0,1,1,.47.17Z" transform="translate(-179.79 -115.08)" style="fill:url(#e67b5b62-ce21-4eb5-a67c-b89b0eb7c6dd)"/><path d="M198.32,124.38a.25.25,0,0,1-.34.09.27.27,0,0,1-.1-.34.25.25,0,0,1,.35-.1A.24.24,0,0,1,198.32,124.38Z" transform="translate(-179.79 -115.08)" style="fill:url(#a63cc6e8-1af3-479c-a479-4d1c5dbd07d6)"/><path d="M199.15,125a.25.25,0,0,1-.35,0,.26.26,0,0,1,.31-.41A.24.24,0,0,1,199.15,125Z" transform="translate(-179.79 -115.08)" style="fill:url(#f5601bfb-759e-48c1-a4aa-8ed2b2d96898)"/><path d="M199.88,125.68a.25.25,0,0,1-.35,0,.26.26,0,0,1,0-.36.24.24,0,0,1,.36,0A.25.25,0,0,1,199.88,125.68Z" transform="translate(-179.79 -115.08)" style="fill:url(#ee443067-ff5e-4283-8880-0658ad1e5742)"/><path d="M200.51,126.48a.27.27,0,0,1-.36-.06.26.26,0,0,1,.06-.35.25.25,0,0,1,.36.06A.24.24,0,0,1,200.51,126.48Z" transform="translate(-179.79 -115.08)" style="fill:url(#e0ad997e-8ddb-44af-b814-f0fe84688346)"/><path d="M201,127.37a.26.26,0,0,1-.34-.11.27.27,0,0,1,.11-.34.25.25,0,0,1,.35.11A.25.25,0,0,1,201,127.37Z" transform="translate(-179.79 -115.08)" style="fill:url(#ad63cb4a-ce7f-4a41-be44-045aead84a51)"/><path d="M201.37,128.32a.27.27,0,0,1-.32-.16.25.25,0,0,1,.15-.32.26.26,0,0,1,.33.16A.24.24,0,0,1,201.37,128.32Z" transform="translate(-179.79 -115.08)" style="fill:url(#e748123a-4151-4ff3-a6a2-98db2fb26695)"/><path d="M201.58,129.31a.24.24,0,0,1-.28-.2.26.26,0,0,1,.2-.3.25.25,0,0,1,.3.2A.26.26,0,0,1,201.58,129.31Z" transform="translate(-179.79 -115.08)" style="fill:url(#a6f1c073-05b7-45a2-8156-0ec76c04089e)"/><path d="M201.67,130.33a.29.29,0,0,1-.27-.25.25.25,0,0,1,.24-.26.26.26,0,0,1,.27.24A.25.25,0,0,1,201.67,130.33Z" transform="translate(-179.79 -115.08)" style="fill:url(#b2bb8a94-ba56-4bae-aff4-1d40ece3bfe3)"/></g><g style="opacity:0.85;mix-blend-mode:multiply"><path d="M201.58,131.34a.25.25,0,0,1-.21-.28.26.26,0,0,1,.27-.23.27.27,0,0,1,.24.28A.27.27,0,0,1,201.58,131.34Z" transform="translate(-179.79 -115.08)" style="fill:url(#ab15d89c-24a8-4935-a50f-58172782340b)"/><path d="M201.37,132.33a.25.25,0,0,1,.13-.49.25.25,0,1,1-.13.49Z" transform="translate(-179.79 -115.08)" style="fill:url(#e1c4acbd-c40c-4629-8f6f-b1ecaf67a87c)"/><path d="M201,133.28a.24.24,0,0,1-.12-.33.25.25,0,0,1,.32-.14.27.27,0,0,1,.15.34A.27.27,0,0,1,201,133.28Z" transform="translate(-179.79 -115.08)" style="fill:url(#f8122382-7a67-496b-9c23-8961fbee66b8)"/><path d="M200.51,134.17a.26.26,0,0,1-.09-.35.27.27,0,0,1,.35-.09.25.25,0,0,1,.09.35A.25.25,0,0,1,200.51,134.17Z" transform="translate(-179.79 -115.08)" style="fill:url(#b59757f5-170d-4e8b-8dc2-d7c4f2358aea)"/><path d="M199.88,135a.25.25,0,0,1,0-.35.24.24,0,0,1,.35,0,.25.25,0,0,1,0,.36A.27.27,0,0,1,199.88,135Z" transform="translate(-179.79 -115.08)" style="fill:url(#ee06913e-9cdb-41c9-bb6c-0f673cc0d39f)"/><path d="M199.15,135.68a.27.27,0,0,1,0-.36.26.26,0,0,1,.36,0,.25.25,0,1,1-.38.34Z" transform="translate(-179.79 -115.08)" style="fill:url(#fb2a4a8e-68a8-4c35-b887-9ff2d898949f)"/><path d="M198.32,136.27a.27.27,0,0,1,.08-.35.26.26,0,0,1,.35.07.25.25,0,0,1-.07.36A.27.27,0,0,1,198.32,136.27Z" transform="translate(-179.79 -115.08)" style="fill:url(#ad0a52a3-a561-4adb-8fe7-64ef9a9a676b)"/><path d="M197.42,136.74a.26.26,0,0,1,.13-.34.24.24,0,0,1,.33.12.25.25,0,0,1-.12.34A.25.25,0,0,1,197.42,136.74Z" transform="translate(-179.79 -115.08)" style="fill:url(#aa9fb80c-63b7-4058-a2b3-467594ee15a8)"/><path d="M196.46,137.06a.25.25,0,0,1,.17-.31.27.27,0,0,1,.32.17.26.26,0,0,1-.17.32A.25.25,0,0,1,196.46,137.06Z" transform="translate(-179.79 -115.08)" style="fill:url(#f1b6058a-bbef-4e8d-b52c-7f78f9d24bf1)"/><path d="M195.46,137.25a.27.27,0,0,1,.22-.29.25.25,0,0,1,.07.5A.24.24,0,0,1,195.46,137.25Z" transform="translate(-179.79 -115.08)" style="fill:url(#e59a8917-ab9b-49db-9e82-e24317d364de)"/><path d="M194.44,137.28a.25.25,0,0,1,.26-.24.24.24,0,0,1,.25.24.26.26,0,0,1-.25.27A.27.27,0,0,1,194.44,137.28Z" transform="translate(-179.79 -115.08)" style="fill:url(#a838e9e6-c53c-4e5e-9035-e4767dcb6193)"/><path d="M193.43,137.17a.26.26,0,0,1,.29-.21.27.27,0,0,1,.22.29.24.24,0,0,1-.29.21A.25.25,0,0,1,193.43,137.17Z" transform="translate(-179.79 -115.08)" style="fill:url(#ac86bf9d-7cf5-4468-9936-0b8fa6a0c819)"/><path d="M192.45,136.92a.27.27,0,0,1,.32-.17.26.26,0,1,1-.32.17Z" transform="translate(-179.79 -115.08)" style="fill:url(#f60d71f7-2e6b-469f-bb2a-b565498bb07f)"/><path d="M191.52,136.52a.24.24,0,0,1,.33-.12.26.26,0,0,1,.12.34.25.25,0,1,1-.45-.22Z" transform="translate(-179.79 -115.08)" style="fill:url(#b48aca1a-062b-4956-b671-abeee8bedfa1)"/><path d="M190.65,136a.25.25,0,0,1,.42.28.27.27,0,0,1-.36.08A.26.26,0,0,1,190.65,136Z" transform="translate(-179.79 -115.08)" style="fill:url(#bf535370-4b80-46ec-b775-529e673fd80b)"/><path d="M189.87,135.34a.25.25,0,0,1,.35,0,.26.26,0,0,1,0,.36.25.25,0,0,1-.36,0A.25.25,0,0,1,189.87,135.34Z" transform="translate(-179.79 -115.08)" style="fill:url(#ea43e815-5bc5-4a1e-8502-f9aa13389204)"/><path d="M189.19,134.58a.24.24,0,0,1,.35,0,.25.25,0,0,1,0,.35.27.27,0,0,1-.37,0A.25.25,0,0,1,189.19,134.58Z" transform="translate(-179.79 -115.08)" style="fill:url(#b76e93ce-8f1c-4df5-bc7e-c49655394d10)"/><path d="M188.63,133.73a.27.27,0,0,1,.35.09.27.27,0,0,1-.09.35.26.26,0,1,1-.26-.44Z" transform="translate(-179.79 -115.08)" style="fill:url(#b11b5b63-646c-49a0-a1ed-e5fb16806023)"/><path d="M188.2,132.81a.26.26,0,0,1,.2.47.26.26,0,1,1-.2-.47Z" transform="translate(-179.79 -115.08)" style="fill:url(#b08fd158-4bd2-4913-9c1d-8e640ad2724e)"/><path d="M187.9,131.84a.26.26,0,0,1,.31.18.27.27,0,0,1-.18.31.25.25,0,1,1-.13-.49Z" transform="translate(-179.79 -115.08)" style="fill:url(#be418e36-bcd4-4e5d-9721-d59065c083b2)"/><path d="M187.76,130.83a.26.26,0,0,1,.27.23.25.25,0,0,1-.22.28.26.26,0,1,1-.05-.51Z" transform="translate(-179.79 -115.08)" style="fill:url(#a6b33dac-783d-4b6a-8216-9ba814be6b33)"/><path d="M187.76,129.82a.25.25,0,0,1,.24.26.29.29,0,0,1-.27.25.25.25,0,0,1-.24-.27A.26.26,0,0,1,187.76,129.82Z" transform="translate(-179.79 -115.08)" style="fill:url(#be871184-2c7b-4b0e-a538-618d22e07ddb)"/><path d="M187.9,128.81a.26.26,0,0,1,.2.3.25.25,0,0,1-.29.2.26.26,0,0,1-.21-.3A.25.25,0,0,1,187.9,128.81Z" transform="translate(-179.79 -115.08)" style="fill:url(#aa5e25a0-8b2e-4e04-91cf-5cb9413e2ff8)"/><path d="M188.2,127.84a.25.25,0,0,1,.15.32.27.27,0,0,1-.32.16.24.24,0,0,1-.16-.32A.26.26,0,0,1,188.2,127.84Z" transform="translate(-179.79 -115.08)" style="fill:url(#bd43e1b4-7ccc-44c2-99c8-f041c194f594)"/><path d="M188.63,126.92a.26.26,0,0,1,.1.34.25.25,0,0,1-.33.11.25.25,0,0,1-.12-.34A.24.24,0,0,1,188.63,126.92Z" transform="translate(-179.79 -115.08)" style="fill:url(#a778e788-9393-46e3-9c17-edd9902de9ad)"/><path d="M189.19,126.07a.25.25,0,0,1,.05.35.25.25,0,0,1-.35.06.24.24,0,0,1-.06-.35A.25.25,0,0,1,189.19,126.07Z" transform="translate(-179.79 -115.08)" style="fill:url(#a7938018-e74d-4c0a-b623-3b6b1a68a4ab)"/><path d="M189.87,125.31a.27.27,0,0,1,0,.36.25.25,0,0,1-.35,0,.25.25,0,0,1,0-.36A.25.25,0,0,1,189.87,125.31Z" transform="translate(-179.79 -115.08)" style="fill:url(#fa7cb031-53ce-4e07-870d-310fbef58238)"/><path d="M190.65,124.66a.26.26,0,0,1-.05.36.27.27,0,0,1-.36,0,.25.25,0,0,1,0-.36A.26.26,0,0,1,190.65,124.66Z" transform="translate(-179.79 -115.08)" style="fill:url(#f4d9e4aa-d9dd-400b-89fb-f205d94b4874)"/><path d="M191.52,124.13a.27.27,0,0,1-.1.34.26.26,0,0,1-.35-.09.26.26,0,1,1,.45-.25Z" transform="translate(-179.79 -115.08)" style="fill:url(#efa2563a-e7e3-472e-bc21-3e819c2e4676)"/><path d="M192.45,123.74a.24.24,0,0,1-.15.32.27.27,0,0,1-.33-.15.24.24,0,0,1,.15-.32A.24.24,0,0,1,192.45,123.74Z" transform="translate(-179.79 -115.08)" style="fill:url(#e50cc45f-8702-42f3-8645-fb92bc16145d)"/><path d="M193.43,123.48a.26.26,0,0,1-.19.3.25.25,0,0,1-.3-.19.26.26,0,0,1,.19-.31A.24.24,0,0,1,193.43,123.48Z" transform="translate(-179.79 -115.08)" style="fill:url(#b7f99c21-dad1-4e86-99ea-180cf10708ef)"/><path d="M194.44,123.37a.26.26,0,0,1-.23.27.26.26,0,0,1-.27-.24.24.24,0,0,1,.23-.27A.25.25,0,0,1,194.44,123.37Z" transform="translate(-179.79 -115.08)" style="fill:url(#ba44eb48-4af0-4edd-82e3-e5ee7430e4a7)"/><path d="M195.46,123.4a.28.28,0,0,1-.27.24.26.26,0,0,1-.24-.27.26.26,0,0,1,.28-.24A.24.24,0,0,1,195.46,123.4Z" transform="translate(-179.79 -115.08)" style="fill:url(#fbe04bdd-1864-4177-9dca-b6cc55cea2f8)"/><path d="M196.46,123.59a.25.25,0,0,1-.3.19.27.27,0,0,1-.2-.3.26.26,0,1,1,.5.11Z" transform="translate(-179.79 -115.08)" style="fill:url(#fb3af894-02d4-4167-865a-2c1b0e789b30)"/><path d="M197.42,123.91a.26.26,0,0,1-.33.15.25.25,0,0,1-.14-.32.25.25,0,1,1,.47.17Z" transform="translate(-179.79 -115.08)" style="fill:url(#e67b5b62-ce21-4eb5-a67c-b89b0eb7c6dd)"/><path d="M198.32,124.38a.25.25,0,0,1-.34.09.27.27,0,0,1-.1-.34.25.25,0,0,1,.35-.1A.24.24,0,0,1,198.32,124.38Z" transform="translate(-179.79 -115.08)" style="fill:url(#a63cc6e8-1af3-479c-a479-4d1c5dbd07d6)"/><path d="M199.15,125a.25.25,0,0,1-.35,0,.26.26,0,0,1,.31-.41A.24.24,0,0,1,199.15,125Z" transform="translate(-179.79 -115.08)" style="fill:url(#f5601bfb-759e-48c1-a4aa-8ed2b2d96898)"/><path d="M199.88,125.68a.25.25,0,0,1-.35,0,.26.26,0,0,1,0-.36.24.24,0,0,1,.36,0A.25.25,0,0,1,199.88,125.68Z" transform="translate(-179.79 -115.08)" style="fill:url(#ee443067-ff5e-4283-8880-0658ad1e5742)"/><path d="M200.51,126.48a.27.27,0,0,1-.36-.06.26.26,0,0,1,.06-.35.25.25,0,0,1,.36.06A.24.24,0,0,1,200.51,126.48Z" transform="translate(-179.79 -115.08)" style="fill:url(#e0ad997e-8ddb-44af-b814-f0fe84688346)"/><path d="M201,127.37a.26.26,0,0,1-.34-.11.27.27,0,0,1,.11-.34.25.25,0,0,1,.35.11A.25.25,0,0,1,201,127.37Z" transform="translate(-179.79 -115.08)" style="fill:url(#ad63cb4a-ce7f-4a41-be44-045aead84a51)"/><path d="M201.37,128.32a.27.27,0,0,1-.32-.16.25.25,0,0,1,.15-.32.26.26,0,0,1,.33.16A.24.24,0,0,1,201.37,128.32Z" transform="translate(-179.79 -115.08)" style="fill:url(#e748123a-4151-4ff3-a6a2-98db2fb26695)"/><path d="M201.58,129.31a.24.24,0,0,1-.28-.2.26.26,0,0,1,.2-.3.25.25,0,0,1,.3.2A.26.26,0,0,1,201.58,129.31Z" transform="translate(-179.79 -115.08)" style="fill:url(#a6f1c073-05b7-45a2-8156-0ec76c04089e)"/><path d="M201.67,130.33a.29.29,0,0,1-.27-.25.25.25,0,0,1,.24-.26.26.26,0,0,1,.27.24A.25.25,0,0,1,201.67,130.33Z" transform="translate(-179.79 -115.08)" style="fill:url(#b2bb8a94-ba56-4bae-aff4-1d40ece3bfe3)"/></g></g><path d="M194.7,121.88a8.45,8.45,0,1,0,8.44,8.44A8.44,8.44,0,0,0,194.7,121.88Zm0,16.34a7.9,7.9,0,1,1,7.89-7.9A7.9,7.9,0,0,1,194.7,138.22Z" transform="translate(-179.79 -115.08)" style="fill:url(#b2821af6-b3d6-41c8-b084-b7ef31b793fd)"/><path d="M199.44,128.34a1.82,1.82,0,0,0-1.13-.16c-.38,0-.75.15-1.13.22a3.23,3.23,0,0,1-.62,0,1.72,1.72,0,0,1-1.16-.65.59.59,0,0,0,0-.19.83.83,0,1,0-1.59.22,1.62,1.62,0,0,1-1,.49,2.09,2.09,0,0,1-.61,0c-.38-.06-.75-.17-1.14-.22a1.83,1.83,0,0,0-1.13.17,1.37,1.37,0,0,0-.6,1.59,2.22,2.22,0,0,0,.59.83,6.19,6.19,0,0,1,.72.73,3.08,3.08,0,0,1,.21.3,1,1,0,0,0-.2.09l.39,1.35s2.27-.15,3.64-.1,3.64.1,3.64.1l.39-1.35-.14,0a1.4,1.4,0,0,1,.15-.23,5,5,0,0,1,.72-.73,2.37,2.37,0,0,0,.59-.84A1.37,1.37,0,0,0,199.44,128.34Zm-1.52.67a.48.48,0,0,1,.17.23.5.5,0,0,1-.08.44,1.26,1.26,0,0,1-.33.32l-.06.05a3.83,3.83,0,0,0-2.7-1v-.75l.11,0a1.35,1.35,0,0,0,.72.61l.09,0a1.41,1.41,0,0,0,.29.18,2,2,0,0,0,1.5-.13l0,0A1.15,1.15,0,0,1,197.92,129Zm-6.21.86a1.35,1.35,0,0,1-.32-.31.5.5,0,0,1-.08-.44.44.44,0,0,1,.17-.23.58.58,0,0,1,.25-.12l.05,0a2,2,0,0,0,1.5.13,1.22,1.22,0,0,0,.29-.17l.09,0a1.36,1.36,0,0,0,.63-.46l.08,0V129a3.5,3.5,0,0,0-2.62.88Zm-1.66.17a1,1,0,0,1,.08-1.11,1.12,1.12,0,0,1,.53-.27,1.27,1.27,0,0,1,.34,0,.84.84,0,0,0-.2.4.88.88,0,0,0,0,.51,1.17,1.17,0,0,0,.43.58l.25.18a1.57,1.57,0,0,0-.14.25,1,1,0,0,1-.46.36h0A2.56,2.56,0,0,1,190.05,130Zm9.3.12a2.63,2.63,0,0,1-.75.81,1,1,0,0,1-.64-.53l-.05,0v0a3.15,3.15,0,0,0,.29-.22,1.21,1.21,0,0,0,.43-.57,1,1,0,0,0,0-.52,1.25,1.25,0,0,0-.2-.4,2,2,0,0,1,.34.05,1.05,1.05,0,0,1,.53.28A1,1,0,0,1,199.35,130.16Z" transform="translate(-179.79 -115.08)" style="fill:url(#b7b7adac-0107-4579-b3f3-1e561ad6a9cc)"/><path d="M199.28,128.42a1.85,1.85,0,0,0-1.09-.15c-.37,0-.73.15-1.1.21a2.93,2.93,0,0,1-.59,0,1.64,1.64,0,0,1-1.12-.61,1.05,1.05,0,0,0,.05-.19.81.81,0,0,0-1.6-.19.89.89,0,0,0,.06.4,1.67,1.67,0,0,1-1,.47,2.88,2.88,0,0,1-.59,0c-.37-.06-.73-.17-1.1-.21a1.85,1.85,0,0,0-1.09.16,1.29,1.29,0,0,0-.58,1.5,2,2,0,0,0,.57.79,5.7,5.7,0,0,1,.7.69,1.86,1.86,0,0,1,.25.46l-.25,0,.38,1.15s2.19-.14,3.51-.1,3.51.1,3.51.1l.37-1.15-.19,0a1.33,1.33,0,0,1,.2-.35,5.7,5.7,0,0,1,.7-.69,2.22,2.22,0,0,0,.57-.79A1.3,1.3,0,0,0,199.28,128.42Zm-1.48.64a.46.46,0,0,1,.17.22.44.44,0,0,1-.08.41,1.27,1.27,0,0,1-.31.3l-.07,0a3.73,3.73,0,0,0-2.6-1v-.7l.09,0a1.29,1.29,0,0,0,.7.58l.09,0a1.28,1.28,0,0,0,.28.16,2,2,0,0,0,1.44-.12l.05,0A.66.66,0,0,1,197.8,129.06Zm-6,.81a1.52,1.52,0,0,1-.32-.3.5.5,0,0,1-.08-.41.52.52,0,0,1,.17-.22.74.74,0,0,1,.24-.11l0,0a2,2,0,0,0,1.45.12,1.56,1.56,0,0,0,.28-.16l.09,0a1.38,1.38,0,0,0,.6-.44l.08,0v.67a3.4,3.4,0,0,0-2.52.84Zm-1.61.16a.93.93,0,0,1,.08-1.05,1.13,1.13,0,0,1,.51-.26,1.86,1.86,0,0,1,.33,0,1.11,1.11,0,0,0-.2.37.91.91,0,0,0,0,.49,1.12,1.12,0,0,0,.41.55l.24.17c0,.08-.09.16-.13.24a1,1,0,0,1-.45.33h0A2.42,2.42,0,0,1,190.21,130Zm9,.12a2.64,2.64,0,0,1-.73.76,2.78,2.78,0,0,1-.66-.48v0a2.78,2.78,0,0,0,.27-.21,1.06,1.06,0,0,0,.42-.54,1.09,1.09,0,0,0-.21-.87,1.88,1.88,0,0,1,.33.05,1.08,1.08,0,0,1,.51.26A.93.93,0,0,1,199.19,130.15Z" transform="translate(-179.79 -115.08)" style="fill:url(#acb96c17-51a1-4f9d-b6ce-49982a2e763d)"/></g><path d="M208.32,131.77l.29-.16.28-.22.17-.18a.46.46,0,0,0,.07-.07,2.48,2.48,0,0,0,.19-.26h0a4.2,4.2,0,0,0,.6-1.75.84.84,0,0,0-.3-.83,11.48,11.48,0,0,0-2.42-.11,4,4,0,0,0,.71-.43,2.5,2.5,0,0,0,.46-.46h0a1.81,1.81,0,0,0,.19-.29,2.12,2.12,0,0,0,.11-.21s0-.06,0-.1a1.82,1.82,0,0,0,.11-.3v0a1.94,1.94,0,0,0,.07-.33h0a4.5,4.5,0,0,0,0-1.51.84.84,0,0,0-.54-.7,11.19,11.19,0,0,0-2.33.64l.13-.12a4.12,4.12,0,0,0,.33-.4,3.29,3.29,0,0,0,.38-.69h0c0-.11.07-.23.1-.34l0-.25s0-.06,0-.09,0-.22,0-.33h0a4.16,4.16,0,0,0-.55-1.77.82.82,0,0,0-.73-.49,11.75,11.75,0,0,0-2,1.33,3.18,3.18,0,0,0,.43-1.41,2.17,2.17,0,0,0,0-.36c0-.08,0-.16,0-.24s0-.06,0-.1-.06-.2-.1-.3v0a2.92,2.92,0,0,0-.14-.31h0a4.35,4.35,0,0,0-.93-1.2.83.83,0,0,0-.84-.25,11.92,11.92,0,0,0-1.52,1.9,3.38,3.38,0,0,0,.08-.83,2.84,2.84,0,0,0-.1-.65,3.24,3.24,0,0,0-.13-.33,1.51,1.51,0,0,0-.11-.22l0-.09a1.57,1.57,0,0,0-.19-.26h0c-.08-.09-.15-.18-.23-.26h0a4.61,4.61,0,0,0-1.25-.85.8.8,0,0,0-.88,0,11.61,11.61,0,0,0-.86,2.26,3.17,3.17,0,0,0-.48-1.39,3,3,0,0,0-.22-.28,1.45,1.45,0,0,0-.18-.17.23.23,0,0,0-.07-.07l-.26-.2h0a1.46,1.46,0,0,0-.3-.17h0a4.27,4.27,0,0,0-1.45-.43.82.82,0,0,0-.83.3,11.43,11.43,0,0,0-.11,2.42,3.21,3.21,0,0,0-.24-.45,3,3,0,0,0-.65-.73h0a2.51,2.51,0,0,0-.29-.2l-.23-.11-.08,0-.31-.1h0a4.13,4.13,0,0,0-1.85,0,.8.8,0,0,0-.7.54,11.53,11.53,0,0,0,.64,2.33,3.15,3.15,0,0,0-1.2-.84,2.3,2.3,0,0,0-.35-.1l-.24,0h-.1a1.71,1.71,0,0,0-.32,0h0a4.34,4.34,0,0,0-1.77.54.84.84,0,0,0-.49.73,11.75,11.75,0,0,0,1.33,2l-.25-.12a2.35,2.35,0,0,0-.44-.17,2.79,2.79,0,0,0-.39-.1,1.84,1.84,0,0,0-.33,0,2,2,0,0,0-.35,0l-.25,0-.09,0a1.6,1.6,0,0,0-.31.1h0a4.27,4.27,0,0,0-1.51,1.06.84.84,0,0,0-.24.85,11.91,11.91,0,0,0,1.89,1.51,3.42,3.42,0,0,0-1.15,0l-.33.07a2.19,2.19,0,0,0-.33.12l-.22.12-.09,0a2.48,2.48,0,0,0-.26.19h0a4.07,4.07,0,0,0-1.11,1.48.84.84,0,0,0,0,.88,11.42,11.42,0,0,0,2.26.85,3.3,3.3,0,0,0-1.39.48l-.28.22-.17.18a.46.46,0,0,1-.07.07l-.19.26v0a2.75,2.75,0,0,0-.17.29h0a4.58,4.58,0,0,0-.43,1.45.82.82,0,0,0,.3.83,11.48,11.48,0,0,0,2.42.11l-.16.08a3.92,3.92,0,0,0-.67.45c-.11.11-.22.22-.32.34l0,0-.2.3a1.47,1.47,0,0,0-.1.22l0,.09a2.81,2.81,0,0,0-.1.31h0a3.38,3.38,0,0,0-.08.34h0a4.52,4.52,0,0,0,.05,1.51.82.82,0,0,0,.54.69,11.53,11.53,0,0,0,2.33-.64,3.18,3.18,0,0,0-.84,1.21h0c0,.12-.07.23-.1.34a2.42,2.42,0,0,0,0,.25s0,.06,0,.1v.32h0a4.25,4.25,0,0,0,.54,1.77.82.82,0,0,0,.73.49,11.09,11.09,0,0,0,2-1.33,3.09,3.09,0,0,0-.43,1.41,2.17,2.17,0,0,0,0,.36c0,.08,0,.16,0,.25s0,.06,0,.09a2.81,2.81,0,0,0,.1.31h0c0,.11.09.21.14.32h0a4.46,4.46,0,0,0,.93,1.19.81.81,0,0,0,.83.25v13l3-1.92h0l4.06-2.64,7,4.56V142.1l0,0a2.25,2.25,0,0,0,.35.09l.24,0h.44a4.12,4.12,0,0,0,1.76-.55.83.83,0,0,0,.5-.73,11.75,11.75,0,0,0-1.33-2l.15.09a3.47,3.47,0,0,0,.61.23,2.85,2.85,0,0,0,.65.11h.35l.24-.05h.1l.31-.1h0a4.15,4.15,0,0,0,1.51-1.06.84.84,0,0,0,.24-.85,11.91,11.91,0,0,0-1.89-1.51,4.29,4.29,0,0,0,.5.07,2.86,2.86,0,0,0,1-.1,2,2,0,0,0,.34-.12l.22-.11.08-.05a2.61,2.61,0,0,0,.27-.19h0a1.79,1.79,0,0,0,.25-.23h0a4.35,4.35,0,0,0,.86-1.25.82.82,0,0,0,0-.87,11.8,11.8,0,0,0-2.27-.86,3.19,3.19,0,0,0,.81-.19A1.36,1.36,0,0,0,208.32,131.77Z" transform="translate(-179.79 -115.08)" style="opacity:0.32;mix-blend-mode:overlay;fill:url(#b54097da-233b-4252-8d20-ecbb97ec19e6)"/></g></g></svg>