<svg xmlns="http://www.w3.org/2000/svg" xmlns:xlink="http://www.w3.org/1999/xlink" viewBox="0 0 34 36.94"><defs><linearGradient id="b76718ef-1e65-44cb-beb3-59d0c6295025" x1="128.4" y1="113.06" x2="121.58" y2="124.14" gradientTransform="translate(23.15 9.38) rotate(7.33)" gradientUnits="userSpaceOnUse"><stop offset="0" stop-color="#04a852"/><stop offset="0.29" stop-color="#029e4f"/><stop offset="0.61" stop-color="#01994e"/><stop offset="1" stop-color="#056839"/></linearGradient><linearGradient id="b751830a-1b5a-4ab6-8e88-9bf6dc953da6" x1="135.06" y1="138.63" x2="129.04" y2="146.52" gradientUnits="userSpaceOnUse"><stop offset="0" stop-color="#f0e8e5"/><stop offset="0.44" stop-color="#ede3df"/><stop offset="1" stop-color="#e3d5cf"/></linearGradient><linearGradient id="efdddea7-06b0-4ef2-8ec3-02cd80f2fb05" x1="-276.96" y1="165.17" x2="-283.78" y2="176.25" gradientTransform="matrix(-0.99, 0.13, 0.13, 0.99, -151.47, 9.38)" xlink:href="#b76718ef-1e65-44cb-beb3-59d0c6295025"/><linearGradient id="bf511afb-9f4c-4aaa-9fdc-1ccada37d9b3" x1="-273.62" y1="138.63" x2="-279.64" y2="146.52" gradientTransform="matrix(-1, 0, 0, 1, -128.32, 0)" xlink:href="#b751830a-1b5a-4ab6-8e88-9bf6dc953da6"/><linearGradient id="b8191f1b-408d-4f02-a83e-399806c52113" x1="-16.52" y1="278.02" x2="-12.58" y2="278.02" gradientTransform="translate(-150.1 115.72) rotate(-90)" gradientUnits="userSpaceOnUse"><stop offset="0" stop-color="#37d775"/><stop offset="0.07" stop-color="#24c167"/><stop offset="0.15" stop-color="#11ab59"/><stop offset="0.24" stop-color="#059e51"/><stop offset="0.32" stop-color="#01994e"/><stop offset="1" stop-color="#056839"/></linearGradient><linearGradient id="e80a1e10-08e5-44a8-9067-9d250ecbb164" x1="38.69" y1="259.5" x2="42.63" y2="259.5" gradientTransform="translate(-130.88 84.9) rotate(-72)" xlink:href="#b8191f1b-408d-4f02-a83e-399806c52113"/><linearGradient id="a57fc423-550c-4126-bee2-9fc93d0f3ef2" x1="86.77" y1="224.64" x2="90.72" y2="224.64" gradientTransform="translate(-103.66 62.67) rotate(-54)" xlink:href="#b8191f1b-408d-4f02-a83e-399806c52113"/><linearGradient id="af0d1236-2622-4edd-8be8-1ddc6f68e523" x1="-214.79" y1="64.01" x2="-210.85" y2="64.01" gradientTransform="translate(13.29 317.05) rotate(144)" xlink:href="#b8191f1b-408d-4f02-a83e-399806c52113"/><linearGradient id="ac57152c-5b60-41c7-8925-5fa6dbad558f" x1="120.66" y1="177.29" x2="124.61" y2="177.29" gradientTransform="translate(-70.45 48.79) rotate(-36)" xlink:href="#b8191f1b-408d-4f02-a83e-399806c52113"/><linearGradient id="b79a859a-e970-4173-b908-98fe69c3ac94" x1="-232.53" y1="119.23" x2="-228.58" y2="119.23" gradientTransform="translate(-38.07 326.62) rotate(162)" xlink:href="#b8191f1b-408d-4f02-a83e-399806c52113"/><linearGradient id="a764f4a5-8476-478d-93de-5fdf1a7f6e01" x1="138.58" y1="120.58" x2="142.53" y2="120.58" gradientTransform="translate(-34.51 47.08) rotate(-18)" xlink:href="#b8191f1b-408d-4f02-a83e-399806c52113"/><linearGradient id="f5b5ba5d-038e-4c3c-bdca-37df7678f911" x1="-232.16" y1="178.48" x2="-228.21" y2="178.48" gradientTransform="translate(-89.66 321.11) rotate(180)" xlink:href="#b8191f1b-408d-4f02-a83e-399806c52113"/><linearGradient id="eac7e20d-2cdc-4124-80e8-d866bdd07c47" x1="138.31" y1="62.39" x2="142.25" y2="62.39" gradientTransform="translate(0 55.29)" xlink:href="#b8191f1b-408d-4f02-a83e-399806c52113"/><linearGradient id="fa9d10f9-84c5-4a78-86ab-1b5568f9c52b" x1="-214.23" y1="234.17" x2="-210.28" y2="234.17" gradientTransform="translate(-137.57 299.18) rotate(-162)" xlink:href="#b8191f1b-408d-4f02-a83e-399806c52113"/><linearGradient id="b89f9365-5bab-47d5-b3df-131d8f1917f9" x1="119.31" y1="6.59" x2="123.26" y2="6.59" gradientTransform="translate(30.82 74.51) rotate(18)" xlink:href="#b8191f1b-408d-4f02-a83e-399806c52113"/><linearGradient id="a316946e-80c0-4a62-8f41-cf1ceaa9ebfb" x1="-178.69" y1="281.42" x2="-174.74" y2="281.42" gradientTransform="translate(-175.22 264.11) rotate(-144)" xlink:href="#b8191f1b-408d-4f02-a83e-399806c52113"/><linearGradient id="e02320c3-b24c-4f40-8ba7-49eabf9b06c3" x1="85.28" y1="-40.82" x2="89.22" y2="-40.82" gradientTransform="translate(53.05 101.73) rotate(36)" xlink:href="#b8191f1b-408d-4f02-a83e-399806c52113"/><linearGradient id="b838ec98-4a08-41c0-944b-07da594bf6c7" x1="-18.65" y1="-93.3" x2="-14.71" y2="-93.3" gradientTransform="translate(68.65 170.88) rotate(72)" xlink:href="#b8191f1b-408d-4f02-a83e-399806c52113"/><linearGradient id="b933bfa7-461c-4acf-a9b9-86eabff48189" x1="-131.35" y1="316.02" x2="-127.41" y2="316.02" gradientTransform="translate(-201.33 218.67) rotate(-126)" xlink:href="#b8191f1b-408d-4f02-a83e-399806c52113"/><linearGradient id="ae3c5d63-f266-4bed-80e2-f302a5f21386" x1="-77.33" y1="-37.15" x2="-73.38" y2="-37.15" gradientTransform="translate(115.72 205.39) rotate(90)" xlink:href="#b8191f1b-408d-4f02-a83e-399806c52113"/><linearGradient id="b8164f02-2aaa-4bbe-b208-66c751ccc305" x1="37.22" y1="-74.72" x2="41.17" y2="-74.72" gradientTransform="translate(66.94 134.93) rotate(54)" xlink:href="#b8191f1b-408d-4f02-a83e-399806c52113"/><linearGradient id="a18e4280-caec-4710-9a93-a5da8063c522" x1="-133.6" y1="-18.75" x2="-129.66" y2="-18.75" gradientTransform="translate(93.8 253.29) rotate(108)" xlink:href="#b8191f1b-408d-4f02-a83e-399806c52113"/><linearGradient id="efefb12c-1780-4648-b8ec-f0d99f5bef2b" x1="-75.29" y1="333.1" x2="-71.35" y2="333.1" gradientTransform="translate(-210.89 167.32) rotate(-108)" xlink:href="#b8191f1b-408d-4f02-a83e-399806c52113"/><linearGradient id="aa0940b0-c607-41b3-a2f6-704f63f4a232" x1="-180.18" y1="15.96" x2="-176.24" y2="15.96" gradientTransform="translate(58.73 290.94) rotate(126)" xlink:href="#b8191f1b-408d-4f02-a83e-399806c52113"/><clipPath id="b2e439ff-ca05-4636-96d7-afdb112a639c" transform="translate(-123.18 -115.08)"><circle cx="140.18" cy="130.32" r="11.05" style="fill:none"/></clipPath><linearGradient id="a1b8f38d-2259-461b-9710-3c0f9f577005" x1="25.42" y1="8.59" x2="8.82" y2="21.72" gradientUnits="userSpaceOnUse"><stop offset="0.01" stop-color="#c37948"/><stop offset="0.39" stop-color="#d69249"/><stop offset="0.73" stop-color="#b46d43"/><stop offset="0.96" stop-color="#b98457"/></linearGradient><radialGradient id="a149f7fb-5ed6-4871-82c9-0a71cfe68c07" cx="152.98" cy="164.02" r="42.94" gradientTransform="translate(56 56) scale(0.5)" gradientUnits="userSpaceOnUse"><stop offset="0" stop-color="#d59f81"/><stop offset="1" stop-color="#e5bc84"/></radialGradient><radialGradient id="bd17a116-668e-4f68-ae39-c6c97bd6613a" cx="168.36" cy="148.65" r="17.47" gradientTransform="translate(136.42 18.09) rotate(46.64) scale(0.5)" gradientUnits="userSpaceOnUse"><stop offset="0" stop-color="#c05f43"/><stop offset="1" stop-color="#d99d4b"/></radialGradient><linearGradient id="f4865b06-544d-4032-a824-318ef2f3d3a7" x1="22.55" y1="10.34" x2="10.74" y2="20.78" gradientUnits="userSpaceOnUse"><stop offset="0.01" stop-color="#c37948"/><stop offset="0.39" stop-color="#db9e5d"/><stop offset="0.73" stop-color="#b46d43"/></linearGradient><linearGradient id="e3999aa4-dd7e-403a-a072-cd665183bafe" x1="146.85" y1="131.09" x2="147.36" y2="131.09" gradientUnits="userSpaceOnUse"><stop offset="0" stop-color="#c97e5e"/><stop offset="1" stop-color="#f2be4a"/></linearGradient><linearGradient id="a4e10267-1795-4e9e-96e8-d2052d5a089b" x1="146.66" y1="132.09" x2="147.17" y2="132.09" xlink:href="#e3999aa4-dd7e-403a-a072-cd665183bafe"/><linearGradient id="b097f3ba-c135-4a25-b551-bdbbe93f3b6c" x1="146.34" y1="133.05" x2="146.85" y2="133.05" xlink:href="#e3999aa4-dd7e-403a-a072-cd665183bafe"/><linearGradient id="b35c1b42-1b72-4842-849e-5dcf5e3e8c3e" x1="145.87" y1="133.95" x2="146.38" y2="133.95" xlink:href="#e3999aa4-dd7e-403a-a072-cd665183bafe"/><linearGradient id="f24cb305-7865-48b9-97dc-d8163d8d8748" x1="145.28" y1="134.78" x2="145.79" y2="134.78" xlink:href="#e3999aa4-dd7e-403a-a072-cd665183bafe"/><linearGradient id="f0fa3955-c381-4b9d-94ef-c53beb3a45c2" x1="144.57" y1="135.51" x2="145.08" y2="135.51" xlink:href="#e3999aa4-dd7e-403a-a072-cd665183bafe"/><linearGradient id="a400f949-7e06-4a50-a420-9db004de6be7" x1="143.77" y1="136.13" x2="144.28" y2="136.13" xlink:href="#e3999aa4-dd7e-403a-a072-cd665183bafe"/><linearGradient id="a6785235-9666-4c61-bc9b-710ee7a726fd" x1="142.88" y1="136.63" x2="143.39" y2="136.63" xlink:href="#e3999aa4-dd7e-403a-a072-cd665183bafe"/><linearGradient id="bef1f82b-dcf4-4fca-b9a8-d0d82d40e16a" x1="141.93" y1="137" x2="142.44" y2="137" xlink:href="#e3999aa4-dd7e-403a-a072-cd665183bafe"/><linearGradient id="b4956aec-d091-4036-b218-a17831d7d285" x1="140.94" y1="137.21" x2="141.45" y2="137.21" xlink:href="#e3999aa4-dd7e-403a-a072-cd665183bafe"/><linearGradient id="b5e1435c-c7cc-4c85-8314-f4b4cfc76f2e" x1="139.93" y1="137.29" x2="140.43" y2="137.29" xlink:href="#e3999aa4-dd7e-403a-a072-cd665183bafe"/><linearGradient id="aeda7533-d5b1-42f4-aea9-94cd8b7eb4e0" x1="138.91" y1="137.21" x2="139.42" y2="137.21" xlink:href="#e3999aa4-dd7e-403a-a072-cd665183bafe"/><linearGradient id="eff348a9-3bee-4ce9-a008-de2d9bbd0524" x1="137.92" y1="137" x2="138.43" y2="137" xlink:href="#e3999aa4-dd7e-403a-a072-cd665183bafe"/><linearGradient id="ba9801e0-c26e-4289-85d1-8025b4d43cdb" x1="136.97" y1="136.63" x2="137.48" y2="136.63" xlink:href="#e3999aa4-dd7e-403a-a072-cd665183bafe"/><linearGradient id="a48ecc3c-9c2c-4d2c-9666-2f4562565e1b" x1="136.08" y1="136.13" x2="136.59" y2="136.13" xlink:href="#e3999aa4-dd7e-403a-a072-cd665183bafe"/><linearGradient id="b354e7e4-1eaa-45d5-9490-0622c9d80287" x1="135.28" y1="135.51" x2="135.79" y2="135.51" xlink:href="#e3999aa4-dd7e-403a-a072-cd665183bafe"/><linearGradient id="bafc5894-8a58-436e-a272-5475398717b5" x1="134.57" y1="134.78" x2="135.08" y2="134.78" xlink:href="#e3999aa4-dd7e-403a-a072-cd665183bafe"/><linearGradient id="e6411b94-3c99-4dd6-8a0d-9a08267cfc4f" x1="133.98" y1="133.95" x2="134.49" y2="133.95" xlink:href="#e3999aa4-dd7e-403a-a072-cd665183bafe"/><linearGradient id="fed2269a-c9a5-4fb8-8dee-00b1082efb6e" x1="133.51" y1="133.05" x2="134.02" y2="133.05" xlink:href="#e3999aa4-dd7e-403a-a072-cd665183bafe"/><linearGradient id="e945649f-a03d-434f-b65c-ca39a528c90c" x1="133.19" y1="132.09" x2="133.7" y2="132.09" xlink:href="#e3999aa4-dd7e-403a-a072-cd665183bafe"/><linearGradient id="a7e08c9d-557f-4393-80f0-0659887e7aad" x1="133" y1="131.09" x2="133.51" y2="131.09" xlink:href="#e3999aa4-dd7e-403a-a072-cd665183bafe"/><linearGradient id="e26339e5-d814-43f5-a5e8-bd3ed8cc8dcc" x1="132.97" y1="130.07" x2="133.48" y2="130.07" xlink:href="#e3999aa4-dd7e-403a-a072-cd665183bafe"/><linearGradient id="ee71d1c7-daff-4673-8ab3-c2134c8216d2" x1="133.08" y1="129.06" x2="133.59" y2="129.06" xlink:href="#e3999aa4-dd7e-403a-a072-cd665183bafe"/><linearGradient id="a4daa99c-f1e5-4145-b2a5-76713393f656" x1="133.33" y1="128.08" x2="133.85" y2="128.08" xlink:href="#e3999aa4-dd7e-403a-a072-cd665183bafe"/><linearGradient id="a6c9777e-5cfa-440e-a0d2-e3cbea6f41a5" x1="133.73" y1="127.14" x2="134.24" y2="127.14" xlink:href="#e3999aa4-dd7e-403a-a072-cd665183bafe"/><linearGradient id="ba1454ef-a49c-4bdc-a043-2ff7fefa21ae" x1="134.26" y1="126.27" x2="134.77" y2="126.27" xlink:href="#e3999aa4-dd7e-403a-a072-cd665183bafe"/><linearGradient id="f7c4a0a7-3073-440d-88c3-f1bf84fb3e65" x1="134.91" y1="125.49" x2="135.42" y2="125.49" xlink:href="#e3999aa4-dd7e-403a-a072-cd665183bafe"/><linearGradient id="b1df830d-d8ff-4006-bdd9-e12428c495e8" x1="135.67" y1="124.81" x2="136.18" y2="124.81" xlink:href="#e3999aa4-dd7e-403a-a072-cd665183bafe"/><linearGradient id="a861eb03-6bfa-4ac2-87d7-d2b31b364faf" x1="136.52" y1="124.25" x2="137.03" y2="124.25" xlink:href="#e3999aa4-dd7e-403a-a072-cd665183bafe"/><linearGradient id="a14f4113-717f-4950-9e7a-e436b6a0f9ab" x1="137.43" y1="123.82" x2="137.95" y2="123.82" xlink:href="#e3999aa4-dd7e-403a-a072-cd665183bafe"/><linearGradient id="a2a603f8-7677-498f-9826-14e1a102eaff" x1="138.41" y1="123.53" x2="138.92" y2="123.53" xlink:href="#e3999aa4-dd7e-403a-a072-cd665183bafe"/><linearGradient id="b71f0b0c-05f5-4a76-a53f-93847597431d" x1="139.42" y1="123.38" x2="139.93" y2="123.38" xlink:href="#e3999aa4-dd7e-403a-a072-cd665183bafe"/><linearGradient id="a298f486-d4d5-4b65-b755-ef3305158388" x1="140.43" y1="123.38" x2="140.94" y2="123.38" xlink:href="#e3999aa4-dd7e-403a-a072-cd665183bafe"/><linearGradient id="ff19b555-60bb-4112-9e00-cc43f6e24dd2" x1="141.44" y1="123.53" x2="141.95" y2="123.53" xlink:href="#e3999aa4-dd7e-403a-a072-cd665183bafe"/><linearGradient id="bfea92ef-d974-48fd-9fc4-c1a8e36a5e45" x1="142.41" y1="123.82" x2="142.93" y2="123.82" xlink:href="#e3999aa4-dd7e-403a-a072-cd665183bafe"/><linearGradient id="e1ff7ab1-9a8f-4328-83e3-77b22d3f975c" x1="143.34" y1="124.25" x2="143.84" y2="124.25" xlink:href="#e3999aa4-dd7e-403a-a072-cd665183bafe"/><linearGradient id="ef9af78d-9e7b-40d9-a3f7-77890174e5c4" x1="144.18" y1="124.81" x2="144.69" y2="124.81" xlink:href="#e3999aa4-dd7e-403a-a072-cd665183bafe"/><linearGradient id="a9cbf6b2-e5c2-463b-9096-eb67afbb0476" x1="144.94" y1="125.49" x2="145.45" y2="125.49" xlink:href="#e3999aa4-dd7e-403a-a072-cd665183bafe"/><linearGradient id="b2d10811-38eb-45fd-bb42-9a67e2227e31" x1="145.59" y1="126.27" x2="146.1" y2="126.27" xlink:href="#e3999aa4-dd7e-403a-a072-cd665183bafe"/><linearGradient id="a898bec4-511a-4544-94f9-454fd48472e6" x1="146.12" y1="127.14" x2="146.63" y2="127.14" xlink:href="#e3999aa4-dd7e-403a-a072-cd665183bafe"/><linearGradient id="e7c3e5ab-b6f3-4d10-ae3d-19652d38d30a" x1="146.51" y1="128.08" x2="147.03" y2="128.08" xlink:href="#e3999aa4-dd7e-403a-a072-cd665183bafe"/><linearGradient id="a60e86f9-f6eb-4cec-aa15-2034a5d57dc9" x1="146.77" y1="129.06" x2="147.28" y2="129.06" xlink:href="#e3999aa4-dd7e-403a-a072-cd665183bafe"/><linearGradient id="bf536dd3-44a4-470b-914d-23277e8b61b4" x1="146.88" y1="130.07" x2="147.39" y2="130.07" xlink:href="#e3999aa4-dd7e-403a-a072-cd665183bafe"/><linearGradient id="a047216d-551f-4bbe-b004-9325c575d936" x1="145.94" y1="124.62" x2="134.75" y2="135.7" gradientUnits="userSpaceOnUse"><stop offset="0" stop-color="#aa7238"/><stop offset="0.25" stop-color="#c08443"/><stop offset="0.35" stop-color="#be8242"/><stop offset="0.39" stop-color="#b87b3d"/><stop offset="0.42" stop-color="#ad7036"/><stop offset="0.44" stop-color="#9d5f2b"/><stop offset="0.46" stop-color="#88491d"/><stop offset="0.47" stop-color="#7a3a14"/><stop offset="0.64" stop-color="#7c3c15"/><stop offset="0.72" stop-color="#83441a"/><stop offset="0.79" stop-color="#8e5123"/><stop offset="0.85" stop-color="#9e642f"/><stop offset="0.9" stop-color="#b37c3e"/><stop offset="0.95" stop-color="#cd9b52"/><stop offset="0.99" stop-color="#ebbe68"/><stop offset="1" stop-color="#f0c46c"/></linearGradient><linearGradient id="f4f77419-14aa-4e38-8d44-fd3ed22c7bbf" x1="137.67" y1="131.54" x2="143.25" y2="128.28" gradientUnits="userSpaceOnUse"><stop offset="0.39" stop-color="#864a25"/><stop offset="1" stop-color="#e8b175"/></linearGradient><linearGradient id="ecd17923-bcc3-46fa-a44c-f847809d6591" x1="140.45" y1="127.04" x2="140.45" y2="132.99" gradientUnits="userSpaceOnUse"><stop offset="0" stop-color="#e59f69"/><stop offset="0.21" stop-color="#c37948"/><stop offset="0.32" stop-color="#b46d43"/><stop offset="0.45" stop-color="#984c28"/><stop offset="0.57" stop-color="#873718"/><stop offset="0.65" stop-color="#813012"/><stop offset="0.7" stop-color="#974824"/><stop offset="0.77" stop-color="#af6339"/><stop offset="0.84" stop-color="#c07647"/><stop offset="0.92" stop-color="#cb8150"/><stop offset="1" stop-color="#ce8553"/></linearGradient><radialGradient id="a61fd62a-b2f4-4cfe-afb8-b5cc824df7dd" cx="168.36" cy="155.1" r="35.5" gradientTransform="translate(56 56) scale(0.5)" gradientUnits="userSpaceOnUse"><stop offset="0" stop-color="#ececbb"/><stop offset="1" stop-color="#784f58"/></radialGradient></defs><g style="isolation:isolate"><g id="e4ed5e90-e597-4f68-bcc8-529223ca6212" data-name="Layer 1"><path d="M131,135.78s-6.71,5.2-7.77,11.66c0,0,5-.67,5.94-.66,0,0,1.46,3.66,3.14,5.24,0,0,4.09-9.26,7.7-11.69C140,140.33,131.33,135.48,131,135.78Z" transform="translate(-123.18 -115.08)" style="fill:url(#b76718ef-1e65-44cb-beb3-59d0c6295025)"/><path d="M125.8,147.1c1.43-.17,2.81-.33,3.32-.32a26.3,26.3,0,0,0,1.45,3,48.29,48.29,0,0,1,2.16-4.32,38.32,38.32,0,0,1,4.31-5.6c-1.14-.86-3.13-1.94-4.28-2.71a22.22,22.22,0,0,0-2.77,3A23.8,23.8,0,0,0,125.8,147.1Z" transform="translate(-123.18 -115.08)" style="fill:url(#b751830a-1b5a-4ab6-8e88-9bf6dc953da6)"/><path d="M149.41,135.78s6.71,5.2,7.77,11.66c0,0-5-.67-5.94-.66,0,0-1.46,3.66-3.14,5.24,0,0-4.09-9.26-7.7-11.69C140.4,140.33,149,135.48,149.41,135.78Z" transform="translate(-123.18 -115.08)" style="fill:url(#efdddea7-06b0-4ef2-8ec3-02cd80f2fb05)"/><path d="M154.56,147.1c-1.43-.17-2.81-.33-3.32-.32a26.3,26.3,0,0,1-1.45,3,48.29,48.29,0,0,0-2.16-4.32,37.6,37.6,0,0,0-4.31-5.6c1.15-.86,3.13-1.94,4.28-2.71a21.59,21.59,0,0,1,2.77,3A23.8,23.8,0,0,1,154.56,147.1Z" transform="translate(-123.18 -115.08)" style="fill:url(#bf511afb-9f4c-4aaa-9fdc-1ccada37d9b3)"/><path d="M135.71,141.56l-.85-.39c-.25-.12-.27,0-.42.25L132.89,140a10.63,10.63,0,0,1-1.3-1.2h0c-.06,0-.31.21-.34.23l-1.33-2.36c-.46.41-.9.84-1.33,1.29h0a26.14,26.14,0,0,0-2,2.25c.25.59.71,1.51,1.45,1.11a18.85,18.85,0,0,0,2.24-1.53,3.81,3.81,0,0,0-.53,1.74h0a3.35,3.35,0,0,0,.38,1.64h0c.28.53,1.44,2.37,2.25,1.73a10.77,10.77,0,0,0,1.8-2.28,3.69,3.69,0,0,0,.08,1.95,2.68,2.68,0,0,0,.83,1.3c.06.07.14.13.21.2.29-.49.6-1,.91-1.47s.65-1.06,1-1.57h0c.12-.2.26-.38.39-.57Z" transform="translate(-123.18 -115.08)" style="fill:#226336;opacity:0.5;mix-blend-mode:multiply"/><path d="M144.67,141.56l.85-.39c.25-.12.27,0,.42.25l1.55-1.43a10.63,10.63,0,0,0,1.3-1.2h0c.06,0,.31.21.34.23l1.33-2.36c.46.41.9.84,1.33,1.29h0a28,28,0,0,1,2,2.25c-.25.59-.71,1.51-1.45,1.11a18.85,18.85,0,0,1-2.24-1.53,3.81,3.81,0,0,1,.53,1.74h0a3.47,3.47,0,0,1-.38,1.64h0c-.28.53-1.44,2.37-2.25,1.73a10.77,10.77,0,0,1-1.8-2.28,3.69,3.69,0,0,1-.08,1.95,2.68,2.68,0,0,1-.83,1.3l-.21.2c-.29-.49-.6-1-.91-1.47s-.65-1.06-1-1.57h0c-.12-.2-.26-.38-.39-.57Z" transform="translate(-123.18 -115.08)" style="fill:#226336;opacity:0.5;mix-blend-mode:multiply"/><path d="M130.52,128.48a5.89,5.89,0,0,0-1.34-.27,3.86,3.86,0,0,0-2.52.48,3.42,3.42,0,0,0-1.32,2.49.82.82,0,0,0,.3.83,27.14,27.14,0,0,0,3.92.1h.54Z" transform="translate(-123.18 -115.08)" style="fill:url(#b8191f1b-408d-4f02-a83e-399806c52113)"/><path d="M126.66,128.69a2.72,2.72,0,0,0-.9,1,8.84,8.84,0,0,1,4.58.31c.1-.81.18-1.55.18-1.55a5.39,5.39,0,0,0-1.34-.28A3.86,3.86,0,0,0,126.66,128.69Z" transform="translate(-123.18 -115.08)" style="fill:#267e5e;opacity:0.75;mix-blend-mode:multiply"/><path d="M131.52,125.51a6.65,6.65,0,0,0-1.19-.68,3.88,3.88,0,0,0-2.55-.31,3.4,3.4,0,0,0-2,2,.8.8,0,0,0,0,.88,27.1,27.1,0,0,0,3.7,1.3l.51.17Z" transform="translate(-123.18 -115.08)" style="fill:url(#e80a1e10-08e5-44a8-9067-9d250ecbb164)"/><path d="M127.78,124.52a2.66,2.66,0,0,0-1.17.71,8.81,8.81,0,0,1,4.26,1.71l.65-1.43a6.65,6.65,0,0,0-1.19-.68A3.88,3.88,0,0,0,127.78,124.52Z" transform="translate(-123.18 -115.08)" style="fill:#267e5e;opacity:0.75;mix-blend-mode:multiply"/><path d="M133.39,123c.06-.07-.86-1-.93-1a3.81,3.81,0,0,0-2.32-1.08,3.36,3.36,0,0,0-2.53,1.23.83.83,0,0,0-.25.85,27.46,27.46,0,0,0,3.12,2.38s.43.33.44.32Z" transform="translate(-123.18 -115.08)" style="fill:url(#a57fc423-550c-4126-bee2-9fc93d0f3ef2)"/><path d="M130.14,120.9a2.64,2.64,0,0,0-1.33.31,8.76,8.76,0,0,1,3.52,2.94l1.06-1.15c.06-.07-.86-1-.93-1A3.81,3.81,0,0,0,130.14,120.9Z" transform="translate(-123.18 -115.08)" style="fill:#267e5e;opacity:0.75;mix-blend-mode:multiply"/><path d="M144.86,139.12a6.51,6.51,0,0,0,.56,1.26,3.9,3.9,0,0,0,1.88,1.75,3.44,3.44,0,0,0,2.79-.4.82.82,0,0,0,.49-.73,27.12,27.12,0,0,0-2.23-3.23l-.31-.44Z" transform="translate(-123.18 -115.08)" style="fill:url(#af0d1236-2622-4edd-8be8-1ddc6f68e523)"/><path d="M147.3,142.13a2.75,2.75,0,0,0,1.36.11,8.84,8.84,0,0,1-2.44-3.89l-1.36.77a6.51,6.51,0,0,0,.56,1.26A3.9,3.9,0,0,0,147.3,142.13Z" transform="translate(-123.18 -115.08)" style="fill:#267e5e;opacity:0.75;mix-blend-mode:multiply"/><path d="M135.94,121.18a5.89,5.89,0,0,0-.56-1.25,3.81,3.81,0,0,0-1.88-1.75,3.41,3.41,0,0,0-2.79.39.82.82,0,0,0-.49.73,27.5,27.5,0,0,0,2.23,3.23s.31.45.32.44Z" transform="translate(-123.18 -115.08)" style="fill:url(#ac57152c-5b60-41c7-8925-5fa6dbad558f)"/><path d="M133.5,118.18a2.64,2.64,0,0,0-1.36-.12,8.84,8.84,0,0,1,2.44,3.89l1.36-.77a5.89,5.89,0,0,0-.56-1.25A3.81,3.81,0,0,0,133.5,118.18Z" transform="translate(-123.18 -115.08)" style="fill:#267e5e;opacity:0.75;mix-blend-mode:multiply"/><path d="M141.87,140.06a6.17,6.17,0,0,0,.15,1.37,3.83,3.83,0,0,0,1.24,2.24,3.41,3.41,0,0,0,2.78.49.84.84,0,0,0,.69-.54,26.91,26.91,0,0,0-1.12-3.76s-.16-.52-.17-.52Z" transform="translate(-123.18 -115.08)" style="fill:url(#b79a859a-e970-4173-b908-98fe69c3ac94)"/><path d="M143.26,143.67a2.65,2.65,0,0,0,1.26.53,8.84,8.84,0,0,1-1.12-4.45l-1.53.31a6.17,6.17,0,0,0,.15,1.37A3.83,3.83,0,0,0,143.26,143.67Z" transform="translate(-123.18 -115.08)" style="fill:#267e5e;opacity:0.75;mix-blend-mode:multiply"/><path d="M138.93,120.24a5.68,5.68,0,0,0-.15-1.37,3.83,3.83,0,0,0-1.24-2.24,3.4,3.4,0,0,0-2.78-.48.8.8,0,0,0-.69.54,27.73,27.73,0,0,0,1.12,3.76s.16.51.17.51Z" transform="translate(-123.18 -115.08)" style="fill:url(#a764f4a5-8476-478d-93de-5fdf1a7f6e01)"/><path d="M137.54,116.63a2.71,2.71,0,0,0-1.26-.53,8.87,8.87,0,0,1,1.12,4.45l1.53-.31a5.68,5.68,0,0,0-.15-1.37A3.83,3.83,0,0,0,137.54,116.63Z" transform="translate(-123.18 -115.08)" style="fill:#267e5e;opacity:0.75;mix-blend-mode:multiply"/><path d="M138.73,140a6.43,6.43,0,0,0-.28,1.35,3.91,3.91,0,0,0,.49,2.51,3.39,3.39,0,0,0,2.49,1.32.84.84,0,0,0,.83-.29,27.33,27.33,0,0,0,.1-3.93s0-.54,0-.54Z" transform="translate(-123.18 -115.08)" style="fill:url(#f5b5ba5d-038e-4c3c-bdca-37df7678f911)"/><path d="M138.94,143.89a2.72,2.72,0,0,0,1,.9,8.73,8.73,0,0,1,.31-4.58l-1.56-.18a6.43,6.43,0,0,0-.28,1.35A3.91,3.91,0,0,0,138.94,143.89Z" transform="translate(-123.18 -115.08)" style="fill:#267e5e;opacity:0.75;mix-blend-mode:multiply"/><path d="M142.07,120.27a6.33,6.33,0,0,0,.28-1.34,3.87,3.87,0,0,0-.49-2.52,3.42,3.42,0,0,0-2.49-1.32.82.82,0,0,0-.83.3,27.3,27.3,0,0,0-.09,3.92s0,.54,0,.54Z" transform="translate(-123.18 -115.08)" style="fill:url(#eac7e20d-2cdc-4124-80e8-d866bdd07c47)"/><path d="M141.86,116.41a2.62,2.62,0,0,0-1-.89,8.7,8.7,0,0,1-.31,4.57l1.56.18a6.33,6.33,0,0,0,.28-1.34A3.87,3.87,0,0,0,141.86,116.41Z" transform="translate(-123.18 -115.08)" style="fill:#267e5e;opacity:0.75;mix-blend-mode:multiply"/><path d="M135.76,139a6.75,6.75,0,0,0-.68,1.2,3.85,3.85,0,0,0-.31,2.54,3.44,3.44,0,0,0,2,2,.84.84,0,0,0,.88,0,27.76,27.76,0,0,0,1.3-3.71s.18-.51.17-.51Z" transform="translate(-123.18 -115.08)" style="fill:url(#fa9d10f9-84c5-4a78-86ab-1b5568f9c52b)"/><path d="M134.77,142.77a2.61,2.61,0,0,0,.71,1.17,8.85,8.85,0,0,1,1.71-4.26l-1.43-.65a6.75,6.75,0,0,0-.68,1.2A3.85,3.85,0,0,0,134.77,142.77Z" transform="translate(-123.18 -115.08)" style="fill:#267e5e;opacity:0.75;mix-blend-mode:multiply"/><path d="M145,121.27a6.09,6.09,0,0,0,.68-1.19,3.82,3.82,0,0,0,.31-2.55,3.4,3.4,0,0,0-2-2,.8.8,0,0,0-.88,0,27.1,27.1,0,0,0-1.3,3.7s-.18.51-.17.51Z" transform="translate(-123.18 -115.08)" style="fill:url(#b89f9365-5bab-47d5-b3df-131d8f1917f9)"/><path d="M146,117.53a2.66,2.66,0,0,0-.71-1.17,8.71,8.71,0,0,1-1.71,4.26l1.43.65a6.09,6.09,0,0,0,.68-1.19A3.82,3.82,0,0,0,146,117.53Z" transform="translate(-123.18 -115.08)" style="fill:#267e5e;opacity:0.75;mix-blend-mode:multiply"/><path d="M133.25,137.16c-.07-.06-1,.87-1,.93a3.87,3.87,0,0,0-1.09,2.32,3.4,3.4,0,0,0,1.24,2.53.83.83,0,0,0,.85.25,27.46,27.46,0,0,0,2.38-3.12,5.36,5.36,0,0,0,.32-.44Z" transform="translate(-123.18 -115.08)" style="fill:url(#a316946e-80c0-4a62-8f41-cf1ceaa9ebfb)"/><path d="M131.14,140.41a2.79,2.79,0,0,0,.32,1.34,8.72,8.72,0,0,1,2.94-3.53l-1.15-1.06c-.07-.06-1,.87-1,.93A3.87,3.87,0,0,0,131.14,140.41Z" transform="translate(-123.18 -115.08)" style="fill:#267e5e;opacity:0.75;mix-blend-mode:multiply"/><path d="M147.56,123.14c.06.06,1-.86,1-.93a3.82,3.82,0,0,0,1.09-2.32,3.4,3.4,0,0,0-1.24-2.53.85.85,0,0,0-.85-.25,28.67,28.67,0,0,0-2.38,3.12s-.33.44-.32.44Z" transform="translate(-123.18 -115.08)" style="fill:url(#e02320c3-b24c-4f40-8ba7-49eabf9b06c3)"/><path d="M149.66,119.89a2.64,2.64,0,0,0-.32-1.33,8.76,8.76,0,0,1-2.94,3.52l1.15,1.06c.07.06,1-.86,1-.93A3.82,3.82,0,0,0,149.66,119.89Z" transform="translate(-123.18 -115.08)" style="fill:#267e5e;opacity:0.75;mix-blend-mode:multiply"/><path d="M150.31,128.69a6.28,6.28,0,0,0,1.37-.16,3.83,3.83,0,0,0,2.24-1.24,3.39,3.39,0,0,0,.49-2.77.84.84,0,0,0-.54-.7,27.41,27.41,0,0,0-3.77,1.12s-.51.16-.51.17Z" transform="translate(-123.18 -115.08)" style="fill:url(#b838ec98-4a08-41c0-944b-07da594bf6c7)"/><path d="M153.92,127.29a2.61,2.61,0,0,0,.53-1.26,8.84,8.84,0,0,1-4.45,1.12c.16.8.31,1.53.31,1.53a5.68,5.68,0,0,0,1.37-.15A3.83,3.83,0,0,0,153.92,127.29Z" transform="translate(-123.18 -115.08)" style="fill:#267e5e;opacity:0.75;mix-blend-mode:multiply"/><path d="M131.43,134.61a5.73,5.73,0,0,0-1.25.57,3.75,3.75,0,0,0-1.75,1.87,3.39,3.39,0,0,0,.39,2.79.82.82,0,0,0,.73.49,26,26,0,0,0,3.23-2.23s.44-.3.44-.31Z" transform="translate(-123.18 -115.08)" style="fill:url(#b933bfa7-461c-4acf-a9b9-86eabff48189)"/><path d="M128.43,137.05a2.67,2.67,0,0,0-.12,1.37A8.86,8.86,0,0,1,132.2,136l-.77-1.36a5.73,5.73,0,0,0-1.25.57A3.75,3.75,0,0,0,128.43,137.05Z" transform="translate(-123.18 -115.08)" style="fill:#267e5e;opacity:0.75;mix-blend-mode:multiply"/><path d="M150.28,131.82a6.43,6.43,0,0,0,1.35.28,3.85,3.85,0,0,0,2.51-.49,3.35,3.35,0,0,0,1.32-2.49.82.82,0,0,0-.3-.83,27.26,27.26,0,0,0-3.92-.09h-.54Z" transform="translate(-123.18 -115.08)" style="fill:url(#ae3c5d63-f266-4bed-80e2-f302a5f21386)"/><path d="M154.14,131.61a2.72,2.72,0,0,0,.9-1,8.73,8.73,0,0,1-4.58-.31l-.18,1.56a6.43,6.43,0,0,0,1.35.28A3.85,3.85,0,0,0,154.14,131.61Z" transform="translate(-123.18 -115.08)" style="fill:#267e5e;opacity:0.75;mix-blend-mode:multiply"/><path d="M149.37,125.7a6.58,6.58,0,0,0,1.26-.57,3.83,3.83,0,0,0,1.74-1.88,3.41,3.41,0,0,0-.39-2.79.82.82,0,0,0-.73-.49A28.35,28.35,0,0,0,148,122.2l-.44.32Z" transform="translate(-123.18 -115.08)" style="fill:url(#b8164f02-2aaa-4bbe-b208-66c751ccc305)"/><path d="M152.37,123.25a2.63,2.63,0,0,0,.12-1.36,8.84,8.84,0,0,1-3.89,2.44l.77,1.36a6,6,0,0,0,1.26-.56A3.83,3.83,0,0,0,152.37,123.25Z" transform="translate(-123.18 -115.08)" style="fill:#267e5e;opacity:0.75;mix-blend-mode:multiply"/><path d="M149.28,134.79a5.71,5.71,0,0,0,1.2.68,3.78,3.78,0,0,0,2.54.31,3.41,3.41,0,0,0,2-2,.82.82,0,0,0,0-.87,26.36,26.36,0,0,0-3.71-1.31l-.51-.17Z" transform="translate(-123.18 -115.08)" style="fill:url(#a18e4280-caec-4710-9a93-a5da8063c522)"/><path d="M153,135.78a2.52,2.52,0,0,0,1.17-.71,8.7,8.7,0,0,1-4.26-1.7l-.65,1.42a5.71,5.71,0,0,0,1.2.68A3.78,3.78,0,0,0,153,135.78Z" transform="translate(-123.18 -115.08)" style="fill:#267e5e;opacity:0.75;mix-blend-mode:multiply"/><path d="M130.49,131.62a6.23,6.23,0,0,0-1.37.15,3.83,3.83,0,0,0-2.24,1.24,3.45,3.45,0,0,0-.49,2.78.84.84,0,0,0,.54.69,27.41,27.41,0,0,0,3.77-1.12l.51-.17Z" transform="translate(-123.18 -115.08)" style="fill:url(#efefb12c-1780-4648-b8ec-f0d99f5bef2b)"/><path d="M126.88,133a2.74,2.74,0,0,0-.53,1.27,8.77,8.77,0,0,1,4.45-1.13c-.16-.8-.31-1.53-.31-1.53a6.23,6.23,0,0,0-1.37.15A3.83,3.83,0,0,0,126.88,133Z" transform="translate(-123.18 -115.08)" style="fill:#267e5e;opacity:0.75;mix-blend-mode:multiply"/><path d="M147.41,137.31c-.06.07.86,1,.93,1a3.82,3.82,0,0,0,2.32,1.09,3.4,3.4,0,0,0,2.53-1.24.83.83,0,0,0,.25-.85,28.67,28.67,0,0,0-3.12-2.38l-.44-.32Z" transform="translate(-123.18 -115.08)" style="fill:url(#aa0940b0-c607-41b3-a2f6-704f63f4a232)"/><path d="M150.66,139.41a2.68,2.68,0,0,0,1.34-.32,8.72,8.72,0,0,1-3.53-2.94l-1.06,1.16c-.06.07.86,1,.93,1A3.82,3.82,0,0,0,150.66,139.41Z" transform="translate(-123.18 -115.08)" style="fill:#267e5e;opacity:0.75;mix-blend-mode:multiply"/><g style="opacity:0.55;mix-blend-mode:multiply"><path d="M152.27,127.22a12.49,12.49,0,1,0-5.18,13.51,12.6,12.6,0,0,0,5.18-13.51C152.16,126.82,152.52,128.21,152.27,127.22Z" transform="translate(-123.18 -115.08)" style="fill:#fff;opacity:0"/><path d="M152.26,127.22a12.48,12.48,0,1,0-5.17,13.5,12.58,12.58,0,0,0,5.17-13.5C152.16,126.82,152.52,128.22,152.26,127.22Z" transform="translate(-123.18 -115.08)" style="fill:#fefefe;opacity:0.004587"/><path d="M152.25,127.22a12.47,12.47,0,1,0-5.17,13.5,12.58,12.58,0,0,0,5.17-13.5C152.15,126.82,152.51,128.22,152.25,127.22Z" transform="translate(-123.18 -115.08)" style="fill:#fdfdfd;opacity:0.009174"/><path d="M152.25,127.22a12.47,12.47,0,1,0-5.17,13.49,12.58,12.58,0,0,0,5.17-13.49C152.14,126.82,152.5,128.22,152.25,127.22Z" transform="translate(-123.18 -115.08)" style="fill:#fbfbfb;opacity:0.013760999999999999"/><path d="M152.24,127.22a12.46,12.46,0,1,0-5.16,13.49,12.57,12.57,0,0,0,5.16-13.49Z" transform="translate(-123.18 -115.08)" style="fill:#fafafa;opacity:0.018349"/><path d="M152.23,127.22a12.46,12.46,0,1,0-5.16,13.48,12.56,12.56,0,0,0,5.16-13.48Z" transform="translate(-123.18 -115.08)" style="fill:#f9f9f9;opacity:0.022935999999999998"/><path d="M152.23,127.23a12.45,12.45,0,1,0-5.16,13.47,12.57,12.57,0,0,0,5.16-13.47Z" transform="translate(-123.18 -115.08)" style="fill:#f8f8f8;opacity:0.027523"/><path d="M152.22,127.23a12.44,12.44,0,1,0-5.15,13.46,12.55,12.55,0,0,0,5.15-13.46C152.12,126.83,152.48,128.22,152.22,127.23Z" transform="translate(-123.18 -115.08)" style="fill:#f7f7f7;opacity:0.03211"/><path d="M152.22,127.23a12.44,12.44,0,1,0-5.16,13.46,12.56,12.56,0,0,0,5.16-13.46C152.11,126.83,152.47,128.22,152.22,127.23Z" transform="translate(-123.18 -115.08)" style="fill:#f6f6f6;opacity:0.036697"/><path d="M152.21,127.23a12.43,12.43,0,1,0-5.15,13.45,12.52,12.52,0,0,0,5.15-13.45Z" transform="translate(-123.18 -115.08)" style="fill:#f4f4f4;opacity:0.041284"/><path d="M152.2,127.23a12.42,12.42,0,1,0-5.14,13.44,12.53,12.53,0,0,0,5.14-13.44Z" transform="translate(-123.18 -115.08)" style="fill:#f3f3f3;opacity:0.045871999999999996"/><path d="M152.2,127.23a12.42,12.42,0,1,0-5.15,13.44,12.54,12.54,0,0,0,5.15-13.44C152.09,126.84,152.45,128.23,152.2,127.23Z" transform="translate(-123.18 -115.08)" style="fill:#f2f2f2;opacity:0.050459"/><path d="M152.19,127.24a12.41,12.41,0,1,0-5.14,13.42,12.5,12.5,0,0,0,5.14-13.42Z" transform="translate(-123.18 -115.08)" style="fill:#f1f1f1;opacity:0.055046"/><path d="M152.18,127.24A12.4,12.4,0,1,0,147,140.66a12.52,12.52,0,0,0,5.14-13.42C152.08,126.84,152.44,128.23,152.18,127.24Z" transform="translate(-123.18 -115.08)" style="fill:#f0f0f0;opacity:0.059633"/><path d="M152.18,127.24A12.4,12.4,0,1,0,147,140.65a12.52,12.52,0,0,0,5.14-13.41Z" transform="translate(-123.18 -115.08)" style="fill:#efefef;opacity:0.06422"/><path d="M152.17,127.24A12.39,12.39,0,1,0,147,140.65a12.48,12.48,0,0,0,5.13-13.41Z" transform="translate(-123.18 -115.08)" style="fill:#ededed;opacity:0.068807"/><path d="M152.16,127.24a12.38,12.38,0,1,0-5.13,13.4,12.48,12.48,0,0,0,5.13-13.4Z" transform="translate(-123.18 -115.08)" style="fill:#ececec;opacity:0.073394"/><path d="M152.16,127.24a12.38,12.38,0,1,0-5.13,13.4,12.48,12.48,0,0,0,5.13-13.4Z" transform="translate(-123.18 -115.08)" style="fill:#ebebeb;opacity:0.077982"/><path d="M152.15,127.25A12.37,12.37,0,1,0,147,140.63a12.46,12.46,0,0,0,5.12-13.38C152.05,126.85,152.41,128.23,152.15,127.25Z" transform="translate(-123.18 -115.08)" style="fill:#eaeaea;opacity:0.08256899999999999"/><path d="M152.15,127.25A12.37,12.37,0,1,0,147,140.63a12.5,12.5,0,0,0,5.13-13.38C152,126.85,152.4,128.24,152.15,127.25Z" transform="translate(-123.18 -115.08)" style="fill:#e9e9e9;opacity:0.087156"/><path d="M152.14,127.25A12.36,12.36,0,1,0,147,140.62a12.47,12.47,0,0,0,5.12-13.37Z" transform="translate(-123.18 -115.08)" style="fill:#e8e8e8;opacity:0.09174299999999999"/><path d="M152.13,127.25A12.35,12.35,0,1,0,147,140.61a12.44,12.44,0,0,0,5.11-13.36Z" transform="translate(-123.18 -115.08)" style="fill:#e6e6e6;opacity:0.09633000000000001"/><path d="M152.13,127.25A12.35,12.35,0,1,0,147,140.61a12.46,12.46,0,0,0,5.12-13.36Z" transform="translate(-123.18 -115.08)" style="fill:#e5e5e5;opacity:0.10091699999999999"/><path d="M152.12,127.25A12.34,12.34,0,1,0,147,140.6a12.44,12.44,0,0,0,5.11-13.35Z" transform="translate(-123.18 -115.08)" style="fill:#e4e4e4;opacity:0.105505"/><path d="M152.11,127.26A12.33,12.33,0,1,0,147,140.6a12.44,12.44,0,0,0,5.11-13.34C152,126.86,152.37,128.24,152.11,127.26Z" transform="translate(-123.18 -115.08)" style="fill:#e3e3e3;opacity:0.110092"/><path d="M152.11,127.26A12.33,12.33,0,1,0,147,140.59a12.44,12.44,0,0,0,5.11-13.33Z" transform="translate(-123.18 -115.08)" style="fill:#e2e2e2;opacity:0.11467899999999999"/><path d="M152.1,127.26a12.31,12.31,0,1,0-5.1,13.33,12.42,12.42,0,0,0,5.1-13.33Z" transform="translate(-123.18 -115.08)" style="fill:#e1e1e1;opacity:0.119266"/><path d="M152.09,127.26a12.31,12.31,0,1,0-5.1,13.32,12.41,12.41,0,0,0,5.1-13.32C152,126.87,152.35,128.24,152.09,127.26Z" transform="translate(-123.18 -115.08)" style="fill:#dfdfdf;opacity:0.12385299999999999"/><path d="M152.09,127.26a12.3,12.3,0,1,0-5.1,13.32,12.42,12.42,0,0,0,5.1-13.32Z" transform="translate(-123.18 -115.08)" style="fill:#dedede;opacity:0.12844"/><path d="M152.08,127.26A12.3,12.3,0,1,0,147,140.57a12.4,12.4,0,0,0,5.09-13.31Z" transform="translate(-123.18 -115.08)" style="fill:#ddd;opacity:0.133028"/><path d="M152.08,127.27a12.29,12.29,0,1,0-5.1,13.3,12.41,12.41,0,0,0,5.1-13.3C152,126.87,152.33,128.25,152.08,127.27Z" transform="translate(-123.18 -115.08)" style="fill:#dcdcdc;opacity:0.137615"/><path d="M152.07,127.27A12.29,12.29,0,1,0,147,140.56a12.4,12.4,0,0,0,5.09-13.29Z" transform="translate(-123.18 -115.08)" style="fill:#dbdbdb;opacity:0.142202"/><path d="M152.06,127.27A12.28,12.28,0,1,0,147,140.55a12.38,12.38,0,0,0,5.08-13.28C152,126.88,152.32,128.25,152.06,127.27Z" transform="translate(-123.18 -115.08)" style="fill:#dadada;opacity:0.146789"/><path d="M152.06,127.27A12.27,12.27,0,1,0,147,140.55a12.39,12.39,0,0,0,5.09-13.28Z" transform="translate(-123.18 -115.08)" style="fill:#d8d8d8;opacity:0.15137599999999998"/><path d="M152.05,127.27A12.27,12.27,0,1,0,147,140.54a12.36,12.36,0,0,0,5.08-13.27Z" transform="translate(-123.18 -115.08)" style="fill:#d7d7d7;opacity:0.155963"/><path d="M152,127.27A12.26,12.26,0,1,0,147,140.54,12.34,12.34,0,0,0,152,127.27C151.94,126.88,152.3,128.25,152,127.27Z" transform="translate(-123.18 -115.08)" style="fill:#d6d6d6;opacity:0.16055000000000003"/><path d="M152,127.28A12.25,12.25,0,1,0,147,140.53,12.36,12.36,0,0,0,152,127.28C151.94,126.88,152.29,128.25,152,127.28Z" transform="translate(-123.18 -115.08)" style="fill:#d5d5d5;opacity:0.16513799999999998"/><path d="M152,127.28A12.25,12.25,0,1,0,147,140.53,12.36,12.36,0,0,0,152,127.28Z" transform="translate(-123.18 -115.08)" style="fill:#d4d4d4;opacity:0.169725"/><path d="M152,127.28A12.24,12.24,0,1,0,147,140.52,12.34,12.34,0,0,0,152,127.28C151.92,126.89,152.28,128.26,152,127.28Z" transform="translate(-123.18 -115.08)" style="fill:#d3d3d3;opacity:0.174312"/><path d="M152,127.28A12.23,12.23,0,1,0,147,140.52,12.33,12.33,0,0,0,152,127.28Z" transform="translate(-123.18 -115.08)" style="fill:#d1d1d1;opacity:0.178899"/><path d="M152,127.28A12.22,12.22,0,1,0,147,140.51,12.33,12.33,0,0,0,152,127.28Z" transform="translate(-123.18 -115.08)" style="fill:#d0d0d0;opacity:0.18348599999999998"/><path d="M152,127.28a12.22,12.22,0,1,0-5.07,13.23A12.33,12.33,0,0,0,152,127.28Z" transform="translate(-123.18 -115.08)" style="fill:#cfcfcf;opacity:0.188073"/><path d="M152,127.29a12.21,12.21,0,1,0-5.06,13.21A12.32,12.32,0,0,0,152,127.29C151.9,126.89,152.25,128.26,152,127.29Z" transform="translate(-123.18 -115.08)" style="fill:#cecece;opacity:0.192661"/><path d="M152,127.29a12.21,12.21,0,1,0-5.05,13.2,12.3,12.3,0,0,0,5.05-13.2Z" transform="translate(-123.18 -115.08)" style="fill:#cdcdcd;opacity:0.19724799999999998"/><path d="M152,127.29a12.2,12.2,0,1,0-5.06,13.2,12.32,12.32,0,0,0,5.06-13.2Z" transform="translate(-123.18 -115.08)" style="fill:#ccc;opacity:0.201835"/><path d="M152,127.29a12.19,12.19,0,1,0-5,13.19,12.3,12.3,0,0,0,5-13.19Z" transform="translate(-123.18 -115.08)" style="fill:#cacaca;opacity:0.206422"/><path d="M152,127.29a12.18,12.18,0,1,0-5.05,13.19A12.27,12.27,0,0,0,152,127.29C151.87,126.9,152.23,128.26,152,127.29Z" transform="translate(-123.18 -115.08)" style="fill:#c9c9c9;opacity:0.211009"/><path d="M152,127.29a12.18,12.18,0,1,0-5.05,13.18A12.3,12.3,0,0,0,152,127.29Z" transform="translate(-123.18 -115.08)" style="fill:#c8c8c8;opacity:0.21559599999999998"/><path d="M152,127.29a12.17,12.17,0,1,0-5,13.18,12.27,12.27,0,0,0,5-13.18C151.86,126.91,152.21,128.27,152,127.29Z" transform="translate(-123.18 -115.08)" style="fill:#c7c7c7;opacity:0.220183"/><path d="M152,127.3a12.17,12.17,0,1,0-5.05,13.16A12.28,12.28,0,0,0,152,127.3Z" transform="translate(-123.18 -115.08)" style="fill:#c6c6c6;opacity:0.224771"/><path d="M152,127.3a12.16,12.16,0,1,0-5,13.16,12.28,12.28,0,0,0,5-13.16Z" transform="translate(-123.18 -115.08)" style="fill:#c5c5c5;opacity:0.22935799999999998"/><path d="M151.94,127.3a12.15,12.15,0,1,0-5,13.15,12.25,12.25,0,0,0,5-13.15Z" transform="translate(-123.18 -115.08)" style="fill:#c3c3c3;opacity:0.233945"/><path d="M151.94,127.3a12.15,12.15,0,1,0-5,13.15,12.26,12.26,0,0,0,5-13.15Z" transform="translate(-123.18 -115.08)" style="fill:#c2c2c2;opacity:0.238532"/><path d="M151.93,127.3a12.14,12.14,0,1,0-5,13.14,12.25,12.25,0,0,0,5-13.14Z" transform="translate(-123.18 -115.08)" style="fill:#c1c1c1;opacity:0.243119"/><path d="M151.92,127.3a12.13,12.13,0,1,0-5,13.13,12.24,12.24,0,0,0,5-13.13Z" transform="translate(-123.18 -115.08)" style="fill:silver;opacity:0.24770599999999998"/><path d="M151.92,127.31a12.13,12.13,0,1,0-5,13.12,12.22,12.22,0,0,0,5-13.12Z" transform="translate(-123.18 -115.08)" style="fill:#bfbfbf;opacity:0.25229399999999996"/><path d="M151.91,127.31a12.12,12.12,0,1,0-5,13.11,12.23,12.23,0,0,0,5-13.11Z" transform="translate(-123.18 -115.08)" style="fill:#bdbdbd;opacity:0.25688099999999997"/><path d="M151.91,127.31a12.12,12.12,0,1,0-5,13.11,12.23,12.23,0,0,0,5-13.11C151.81,126.92,152.15,128.28,151.91,127.31Z" transform="translate(-123.18 -115.08)" style="fill:#bcbcbc;opacity:0.261468"/><path d="M151.9,127.31a12.11,12.11,0,1,0-5,13.1,12.2,12.2,0,0,0,5-13.1Z" transform="translate(-123.18 -115.08)" style="fill:#bbb;opacity:0.266055"/><path d="M151.89,127.31a12.1,12.1,0,1,0-5,13.1,12.2,12.2,0,0,0,5-13.1Z" transform="translate(-123.18 -115.08)" style="fill:#bababa;opacity:0.270642"/><path d="M151.89,127.31a12.1,12.1,0,1,0-5,13.09,12.21,12.21,0,0,0,5-13.09C151.79,126.93,152.13,128.28,151.89,127.31Z" transform="translate(-123.18 -115.08)" style="fill:#b9b9b9;opacity:0.275229"/><path d="M151.88,127.32a12.09,12.09,0,1,0-5,13.08,12.22,12.22,0,0,0,5-13.08Z" transform="translate(-123.18 -115.08)" style="fill:#b8b8b8;opacity:0.279817"/><path d="M151.87,127.32a12.08,12.08,0,1,0-5,13.07,12.17,12.17,0,0,0,5-13.07Z" transform="translate(-123.18 -115.08)" style="fill:#b6b6b6;opacity:0.284404"/><path d="M151.87,127.32a12.08,12.08,0,1,0-5,13.07,12.2,12.2,0,0,0,5-13.07Z" transform="translate(-123.18 -115.08)" style="fill:#b5b5b5;opacity:0.288991"/><path d="M151.86,127.32a12.07,12.07,0,1,0-5,13.06,12.17,12.17,0,0,0,5-13.06Z" transform="translate(-123.18 -115.08)" style="fill:#b4b4b4;opacity:0.293578"/><path d="M151.85,127.32a12.06,12.06,0,1,0-5,13.05,12.15,12.15,0,0,0,5-13.05C151.76,126.94,152.1,128.29,151.85,127.32Z" transform="translate(-123.18 -115.08)" style="fill:#b3b3b3;opacity:0.298165"/><path d="M151.85,127.32a12.06,12.06,0,1,0-5,13.05,12.18,12.18,0,0,0,5-13.05Z" transform="translate(-123.18 -115.08)" style="fill:#b2b2b2;opacity:0.30275199999999997"/><path d="M151.84,127.33a12.05,12.05,0,1,0-5,13,12.15,12.15,0,0,0,5-13Z" transform="translate(-123.18 -115.08)" style="fill:#b1b1b1;opacity:0.307339"/><path d="M151.84,127.33a12,12,0,1,0-5,13,12.16,12.16,0,0,0,5-13Z" transform="translate(-123.18 -115.08)" style="fill:#afafaf;opacity:0.311927"/><path d="M151.83,127.33a12,12,0,1,0-5,13,12.13,12.13,0,0,0,5-13Z" transform="translate(-123.18 -115.08)" style="fill:#aeaeae;opacity:0.31651399999999996"/><path d="M151.82,127.33a12,12,0,1,0-5,13,12.14,12.14,0,0,0,5-13Z" transform="translate(-123.18 -115.08)" style="fill:#adadad;opacity:0.32110099999999997"/><path d="M151.82,127.33a12,12,0,1,0-5,13,12.13,12.13,0,0,0,5-13C151.72,127,152.06,128.29,151.82,127.33Z" transform="translate(-123.18 -115.08)" style="fill:#acacac;opacity:0.325688"/><path d="M151.81,127.33a12,12,0,1,0-5,13,12.11,12.11,0,0,0,5-13Z" transform="translate(-123.18 -115.08)" style="fill:#ababab;opacity:0.330275"/><path d="M151.8,127.34a12,12,0,1,0-5,13,12.12,12.12,0,0,0,5-13Z" transform="translate(-123.18 -115.08)" style="fill:#aaa;opacity:0.334862"/><path d="M151.8,127.34a12,12,0,1,0-5,13,12.11,12.11,0,0,0,5-13C151.7,127,152,128.3,151.8,127.34Z" transform="translate(-123.18 -115.08)" style="fill:#a8a8a8;opacity:0.33945000000000003"/><path d="M151.79,127.34a12,12,0,1,0-5,13,12.1,12.1,0,0,0,5-13Z" transform="translate(-123.18 -115.08)" style="fill:#a7a7a7;opacity:0.344037"/><path d="M151.78,127.34a12,12,0,1,0-5,13,12.09,12.09,0,0,0,5-13C151.69,127,152,128.3,151.78,127.34Z" transform="translate(-123.18 -115.08)" style="fill:#a6a6a6;opacity:0.348624"/><path d="M151.78,127.34a12,12,0,1,0-5,13,12.07,12.07,0,0,0,5-13C151.68,127,152,128.3,151.78,127.34Z" transform="translate(-123.18 -115.08)" style="fill:#a5a5a5;opacity:0.353211"/><path d="M151.77,127.34a12,12,0,1,0-5,13,12.06,12.06,0,0,0,5-13Z" transform="translate(-123.18 -115.08)" style="fill:#a4a4a4;opacity:0.357798"/><path d="M151.77,127.35a12,12,0,1,0-5,13,12.09,12.09,0,0,0,5-13Z" transform="translate(-123.18 -115.08)" style="fill:#a3a3a3;opacity:0.36238499999999996"/><path d="M151.76,127.35a12,12,0,1,0-5,12.94,12.06,12.06,0,0,0,5-12.94C151.66,127,152,128.3,151.76,127.35Z" transform="translate(-123.18 -115.08)" style="fill:#a1a1a1;opacity:0.36697199999999996"/><path d="M151.75,127.35a12,12,0,1,0-4.95,12.94,12.07,12.07,0,0,0,4.95-12.94Z" transform="translate(-123.18 -115.08)" style="fill:#a0a0a0;opacity:0.37156000000000006"/><path d="M151.75,127.35a12,12,0,1,0-5,12.93,12.08,12.08,0,0,0,5-12.93C151.65,127,152,128.3,151.75,127.35Z" transform="translate(-123.18 -115.08)" style="fill:#9f9f9f;opacity:0.376147"/><path d="M151.74,127.35a11.94,11.94,0,1,0-5,12.93,12,12,0,0,0,5-12.93Z" transform="translate(-123.18 -115.08)" style="fill:#9e9e9e;opacity:0.38073399999999996"/><path d="M151.73,127.35a11.94,11.94,0,1,0-4.94,12.92,12,12,0,0,0,4.94-12.92C151.64,127,152,128.31,151.73,127.35Z" transform="translate(-123.18 -115.08)" style="fill:#9d9d9d;opacity:0.38532099999999997"/><path d="M151.73,127.36a11.93,11.93,0,1,0-4.95,12.91,12,12,0,0,0,4.95-12.91Z" transform="translate(-123.18 -115.08)" style="fill:#9c9c9c;opacity:0.389908"/><path d="M151.72,127.36a11.93,11.93,0,1,0-4.94,12.9,12,12,0,0,0,4.94-12.9Z" transform="translate(-123.18 -115.08)" style="fill:#9a9a9a;opacity:0.394495"/><path d="M151.72,127.36a11.92,11.92,0,1,0-4.94,12.89,12,12,0,0,0,4.94-12.89C151.62,127,152,128.31,151.72,127.36Z" transform="translate(-123.18 -115.08)" style="fill:#999;opacity:0.39908299999999997"/><path d="M151.71,127.36a11.92,11.92,0,1,0-4.94,12.89,12,12,0,0,0,4.94-12.89C151.61,127,152,128.31,151.71,127.36Z" transform="translate(-123.18 -115.08)" style="fill:#989898;opacity:0.40367000000000003"/><path d="M151.7,127.36a11.91,11.91,0,1,0-4.93,12.88,12,12,0,0,0,4.93-12.88Z" transform="translate(-123.18 -115.08)" style="fill:#979797;opacity:0.408257"/><path d="M151.7,127.36a11.9,11.9,0,1,0-4.93,12.88,12,12,0,0,0,4.93-12.88C151.6,127,151.94,128.31,151.7,127.36Z" transform="translate(-123.18 -115.08)" style="fill:#969696;opacity:0.412844"/><path d="M151.69,127.36a11.9,11.9,0,1,0-4.93,12.87,12,12,0,0,0,4.93-12.87C151.59,127,151.93,128.31,151.69,127.36Z" transform="translate(-123.18 -115.08)" style="fill:#959595;opacity:0.417431"/><path d="M151.68,127.37a11.88,11.88,0,1,0-4.92,12.86,12,12,0,0,0,4.92-12.86C151.59,127,151.93,128.32,151.68,127.37Z" transform="translate(-123.18 -115.08)" style="fill:#939393;opacity:0.422018"/><path d="M151.68,127.37a11.88,11.88,0,1,0-4.93,12.85,12,12,0,0,0,4.93-12.85C151.58,127,151.92,128.32,151.68,127.37Z" transform="translate(-123.18 -115.08)" style="fill:#929292;opacity:0.426606"/><path d="M151.67,127.37a11.87,11.87,0,1,0-4.92,12.85,12,12,0,0,0,4.92-12.85C151.57,127,151.91,128.32,151.67,127.37Z" transform="translate(-123.18 -115.08)" style="fill:#919191;opacity:0.431193"/><path d="M151.66,127.37a11.86,11.86,0,1,0-4.91,12.84,12,12,0,0,0,4.91-12.84C151.57,127,151.91,128.32,151.66,127.37Z" transform="translate(-123.18 -115.08)" style="fill:#909090;opacity:0.43578000000000006"/><path d="M151.66,127.37a11.87,11.87,0,1,0-4.92,12.84,12,12,0,0,0,4.92-12.84C151.56,127,151.9,128.32,151.66,127.37Z" transform="translate(-123.18 -115.08)" style="fill:#8f8f8f;opacity:0.44036699999999995"/><path d="M151.65,127.37a11.85,11.85,0,1,0-4.91,12.83,11.95,11.95,0,0,0,4.91-12.83Z" transform="translate(-123.18 -115.08)" style="fill:#8e8e8e;opacity:0.44495399999999996"/><path d="M151.65,127.38a11.86,11.86,0,1,0-4.91,12.81,12,12,0,0,0,4.91-12.81C151.55,127,151.89,128.32,151.65,127.38Z" transform="translate(-123.18 -115.08)" style="fill:#8c8c8c;opacity:0.44954099999999997"/><path d="M151.64,127.38a11.84,11.84,0,1,0-4.91,12.81,11.95,11.95,0,0,0,4.91-12.81C151.54,127,151.88,128.32,151.64,127.38Z" transform="translate(-123.18 -115.08)" style="fill:#8b8b8b;opacity:0.454128"/><path d="M151.63,127.38a11.84,11.84,0,1,0-4.9,12.8,11.93,11.93,0,0,0,4.9-12.8C151.54,127,151.88,128.32,151.63,127.38Z" transform="translate(-123.18 -115.08)" style="fill:#8a8a8a;opacity:0.45871599999999996"/><path d="M151.63,127.38a11.83,11.83,0,1,0-4.9,12.8,12,12,0,0,0,4.9-12.8C151.53,127,151.87,128.33,151.63,127.38Z" transform="translate(-123.18 -115.08)" style="fill:#898989;opacity:0.46330299999999996"/><path d="M151.62,127.38a11.83,11.83,0,1,0-4.9,12.79,11.93,11.93,0,0,0,4.9-12.79C151.52,127,151.86,128.33,151.62,127.38Z" transform="translate(-123.18 -115.08)" style="fill:#888;opacity:0.46789000000000003"/><path d="M151.61,127.38a11.81,11.81,0,1,0-4.89,12.79,11.89,11.89,0,0,0,4.89-12.79C151.52,127,151.86,128.33,151.61,127.38Z" transform="translate(-123.18 -115.08)" style="fill:#878787;opacity:0.472477"/><path d="M151.61,127.39a11.81,11.81,0,1,0-4.9,12.77,11.93,11.93,0,0,0,4.9-12.77C151.51,127,151.85,128.33,151.61,127.39Z" transform="translate(-123.18 -115.08)" style="fill:#858585;opacity:0.477064"/><path d="M151.6,127.39a11.8,11.8,0,1,0-4.89,12.77,11.9,11.9,0,0,0,4.89-12.77C151.5,127,151.84,128.33,151.6,127.39Z" transform="translate(-123.18 -115.08)" style="fill:#848484;opacity:0.481651"/><path d="M151.59,127.39a11.79,11.79,0,1,0-4.88,12.76,11.87,11.87,0,0,0,4.88-12.76C151.5,127,151.84,128.33,151.59,127.39Z" transform="translate(-123.18 -115.08)" style="fill:#838383;opacity:0.486239"/><path d="M151.59,127.39a11.79,11.79,0,1,0-4.89,12.76,11.91,11.91,0,0,0,4.89-12.76C151.49,127,151.83,128.33,151.59,127.39Z" transform="translate(-123.18 -115.08)" style="fill:#828282;opacity:0.490826"/><path d="M151.58,127.39a11.78,11.78,0,1,0-4.88,12.75,11.89,11.89,0,0,0,4.88-12.75C151.49,127,151.82,128.33,151.58,127.39Z" transform="translate(-123.18 -115.08)" style="fill:#818181;opacity:0.495413"/><path d="M151.58,127.39a11.78,11.78,0,1,0-4.88,12.74,11.87,11.87,0,0,0,4.88-12.74C151.48,127,151.82,128.33,151.58,127.39Z" transform="translate(-123.18 -115.08)" style="fill:gray;opacity:0.5"/><path d="M151.57,127.4a11.77,11.77,0,1,0-4.88,12.73,11.88,11.88,0,0,0,4.88-12.73C151.47,127,151.81,128.34,151.57,127.4Z" transform="translate(-123.18 -115.08)" style="fill:#7e7e7e;opacity:0.504587"/><path d="M151.56,127.4a11.76,11.76,0,1,0-4.87,12.72,11.85,11.85,0,0,0,4.87-12.72C151.47,127,151.8,128.34,151.56,127.4Z" transform="translate(-123.18 -115.08)" style="fill:#7d7d7d;opacity:0.509174"/><path d="M151.56,127.4a11.76,11.76,0,1,0-4.87,12.72,11.85,11.85,0,0,0,4.87-12.72C151.46,127,151.8,128.34,151.56,127.4Z" transform="translate(-123.18 -115.08)" style="fill:#7c7c7c;opacity:0.513761"/><path d="M151.55,127.4a11.75,11.75,0,1,0-4.87,12.71,11.87,11.87,0,0,0,4.87-12.71C151.45,127,151.79,128.34,151.55,127.4Z" transform="translate(-123.18 -115.08)" style="fill:#7b7b7b;opacity:0.518349"/><path d="M151.54,127.4a11.74,11.74,0,1,0-4.86,12.71,11.83,11.83,0,0,0,4.86-12.71C151.45,127,151.79,128.34,151.54,127.4Z" transform="translate(-123.18 -115.08)" style="fill:#7a7a7a;opacity:0.522936"/><path d="M151.54,127.4a11.74,11.74,0,1,0-4.87,12.7,11.82,11.82,0,0,0,4.87-12.7C151.44,127,151.78,128.34,151.54,127.4Z" transform="translate(-123.18 -115.08)" style="fill:#787878;opacity:0.527523"/><path d="M151.53,127.41a11.73,11.73,0,1,0-4.86,12.69,11.83,11.83,0,0,0,4.86-12.69Z" transform="translate(-123.18 -115.08)" style="fill:#777;opacity:0.5321100000000001"/><path d="M151.53,127.41a11.73,11.73,0,1,0-4.86,12.68,11.82,11.82,0,0,0,4.86-12.68Z" transform="translate(-123.18 -115.08)" style="fill:#767676;opacity:0.536697"/><path d="M151.52,127.41a11.72,11.72,0,1,0-4.86,12.68,11.83,11.83,0,0,0,4.86-12.68Z" transform="translate(-123.18 -115.08)" style="fill:#757575;opacity:0.541284"/><path d="M151.51,127.41a11.71,11.71,0,1,0-4.85,12.67,11.81,11.81,0,0,0,4.85-12.67C151.42,127,151.75,128.35,151.51,127.41Z" transform="translate(-123.18 -115.08)" style="fill:#747474;opacity:0.545872"/><path d="M151.51,127.41a11.71,11.71,0,1,0-4.85,12.66,11.81,11.81,0,0,0,4.85-12.66C151.41,127,151.75,128.35,151.51,127.41Z" transform="translate(-123.18 -115.08)" style="fill:#737373;opacity:0.5504589999999999"/><path d="M151.5,127.41a11.7,11.7,0,1,0-4.85,12.66,11.81,11.81,0,0,0,4.85-12.66C151.4,127,151.74,128.35,151.5,127.41Z" transform="translate(-123.18 -115.08)" style="fill:#717171;opacity:0.5550459999999999"/><path d="M151.49,127.42a11.69,11.69,0,1,0-4.84,12.64,11.77,11.77,0,0,0,4.84-12.64C151.4,127,151.73,128.35,151.49,127.42Z" transform="translate(-123.18 -115.08)" style="fill:#707070;opacity:0.5596329999999999"/><path d="M151.49,127.42a11.68,11.68,0,1,0-4.84,12.64,11.79,11.79,0,0,0,4.84-12.64Z" transform="translate(-123.18 -115.08)" style="fill:#6f6f6f;opacity:0.56422"/><path d="M151.48,127.42a11.68,11.68,0,1,0-4.84,12.63,11.76,11.76,0,0,0,4.84-12.63C151.38,127.05,151.72,128.35,151.48,127.42Z" transform="translate(-123.18 -115.08)" style="fill:#6e6e6e;opacity:0.568807"/><path d="M151.47,127.42a11.67,11.67,0,1,0-4.83,12.63,11.77,11.77,0,0,0,4.83-12.63C151.38,127.05,151.71,128.35,151.47,127.42Z" transform="translate(-123.18 -115.08)" style="fill:#6d6d6d;opacity:0.573394"/><path d="M151.47,127.42A11.67,11.67,0,1,0,146.64,140a11.77,11.77,0,0,0,4.83-12.62C151.37,127.05,151.71,128.35,151.47,127.42Z" transform="translate(-123.18 -115.08)" style="fill:#6c6c6c;opacity:0.577982"/><path d="M151.46,127.42A11.65,11.65,0,1,0,146.63,140a11.76,11.76,0,0,0,4.83-12.62C151.37,127.05,151.7,128.35,151.46,127.42Z" transform="translate(-123.18 -115.08)" style="fill:#6a6a6a;opacity:0.582569"/><path d="M151.46,127.43a11.66,11.66,0,1,0-4.83,12.6,11.77,11.77,0,0,0,4.83-12.6C151.36,127.05,151.69,128.36,151.46,127.43Z" transform="translate(-123.18 -115.08)" style="fill:#696969;opacity:0.587156"/><path d="M151.45,127.43a11.65,11.65,0,1,0-4.83,12.6,11.73,11.73,0,0,0,4.83-12.6Z" transform="translate(-123.18 -115.08)" style="fill:#686868;opacity:0.591743"/><path d="M151.44,127.43A11.64,11.64,0,1,0,146.62,140a11.75,11.75,0,0,0,4.82-12.59C151.35,127.06,151.68,128.36,151.44,127.43Z" transform="translate(-123.18 -115.08)" style="fill:#676767;opacity:0.59633"/><path d="M151.44,127.43A11.64,11.64,0,1,0,146.62,140a11.73,11.73,0,0,0,4.82-12.58C151.34,127.06,151.68,128.36,151.44,127.43Z" transform="translate(-123.18 -115.08)" style="fill:#666;opacity:0.6009169999999999"/><path d="M151.43,127.43A11.63,11.63,0,1,0,146.61,140a11.71,11.71,0,0,0,4.82-12.58C151.33,127.06,151.67,128.36,151.43,127.43Z" transform="translate(-123.18 -115.08)" style="fill:#656565;opacity:0.605505"/><path d="M151.42,127.43A11.62,11.62,0,1,0,146.61,140a11.72,11.72,0,0,0,4.81-12.57C151.33,127.06,151.66,128.36,151.42,127.43Z" transform="translate(-123.18 -115.08)" style="fill:#636363;opacity:0.610092"/><path d="M151.42,127.43A11.61,11.61,0,1,0,146.61,140a11.71,11.71,0,0,0,4.81-12.57C151.32,127.06,151.66,128.36,151.42,127.43Z" transform="translate(-123.18 -115.08)" style="fill:#626262;opacity:0.614679"/><path d="M151.41,127.44A11.61,11.61,0,1,0,146.6,140a11.69,11.69,0,0,0,4.81-12.55C151.32,127.07,151.65,128.36,151.41,127.44Z" transform="translate(-123.18 -115.08)" style="fill:#616161;opacity:0.619266"/><path d="M151.4,127.44A11.6,11.6,0,1,0,146.6,140a11.69,11.69,0,0,0,4.8-12.55C151.31,127.07,151.64,128.36,151.4,127.44Z" transform="translate(-123.18 -115.08)" style="fill:#606060;opacity:0.623853"/><path d="M151.4,127.44A11.59,11.59,0,1,0,146.6,140a11.69,11.69,0,0,0,4.8-12.54C151.3,127.07,151.64,128.37,151.4,127.44Z" transform="translate(-123.18 -115.08)" style="fill:#5f5f5f;opacity:0.62844"/><path d="M151.39,127.44a11.59,11.59,0,1,0-4.8,12.54,11.68,11.68,0,0,0,4.8-12.54C151.3,127.07,151.63,128.37,151.39,127.44Z" transform="translate(-123.18 -115.08)" style="fill:#5e5e5e;opacity:0.6330279999999999"/><path d="M151.39,127.44a11.58,11.58,0,1,0-4.8,12.53,11.71,11.71,0,0,0,4.8-12.53C151.29,127.07,151.62,128.37,151.39,127.44Z" transform="translate(-123.18 -115.08)" style="fill:#5c5c5c;opacity:0.6376149999999999"/><path d="M151.38,127.44a11.58,11.58,0,1,0-4.8,12.53,11.67,11.67,0,0,0,4.8-12.53C151.28,127.08,151.62,128.37,151.38,127.44Z" transform="translate(-123.18 -115.08)" style="fill:#5b5b5b;opacity:0.6422019999999999"/><path d="M151.37,127.45A11.56,11.56,0,1,0,146.58,140a11.66,11.66,0,0,0,4.79-12.51C151.28,127.08,151.61,128.37,151.37,127.45Z" transform="translate(-123.18 -115.08)" style="fill:#5a5a5a;opacity:0.646789"/><path d="M151.37,127.45a11.56,11.56,0,1,0-4.79,12.5,11.68,11.68,0,0,0,4.79-12.5C151.27,127.08,151.6,128.37,151.37,127.45Z" transform="translate(-123.18 -115.08)" style="fill:#595959;opacity:0.651376"/><path d="M151.36,127.45a11.55,11.55,0,1,0-4.79,12.5,11.64,11.64,0,0,0,4.79-12.5C151.27,127.08,151.6,128.37,151.36,127.45Z" transform="translate(-123.18 -115.08)" style="fill:#585858;opacity:0.655963"/><path d="M151.35,127.45a11.55,11.55,0,1,0-4.78,12.49,11.65,11.65,0,0,0,4.78-12.49C151.26,127.08,151.59,128.37,151.35,127.45Z" transform="translate(-123.18 -115.08)" style="fill:#575757;opacity:0.6605500000000001"/><path d="M151.35,127.45a11.54,11.54,0,1,0-4.78,12.49,11.64,11.64,0,0,0,4.78-12.49C151.25,127.08,151.58,128.37,151.35,127.45Z" transform="translate(-123.18 -115.08)" style="fill:#555;opacity:0.665138"/><path d="M151.34,127.45a11.54,11.54,0,1,0-4.78,12.48,11.63,11.63,0,0,0,4.78-12.48C151.25,127.09,151.58,128.38,151.34,127.45Z" transform="translate(-123.18 -115.08)" style="fill:#545454;opacity:0.669725"/><path d="M151.34,127.46a11.53,11.53,0,1,0-4.78,12.47,11.64,11.64,0,0,0,4.78-12.47C151.24,127.09,151.57,128.38,151.34,127.46Z" transform="translate(-123.18 -115.08)" style="fill:#535353;opacity:0.674312"/><path d="M151.33,127.46a11.52,11.52,0,1,0-4.77,12.46,11.61,11.61,0,0,0,4.77-12.46C151.23,127.09,151.57,128.38,151.33,127.46Z" transform="translate(-123.18 -115.08)" style="fill:#525252;opacity:0.6788989999999999"/><path d="M151.32,127.46a11.51,11.51,0,1,0-4.77,12.46,11.6,11.6,0,0,0,4.77-12.46C151.23,127.09,151.56,128.38,151.32,127.46Z" transform="translate(-123.18 -115.08)" style="fill:#515151;opacity:0.6834859999999999"/><path d="M151.32,127.46a11.51,11.51,0,1,0-4.77,12.45,11.62,11.62,0,0,0,4.77-12.45C151.22,127.09,151.55,128.38,151.32,127.46Z" transform="translate(-123.18 -115.08)" style="fill:#505050;opacity:0.6880729999999999"/><path d="M151.31,127.46a11.5,11.5,0,1,0-4.77,12.45,11.61,11.61,0,0,0,4.77-12.45C151.22,127.1,151.55,128.38,151.31,127.46Z" transform="translate(-123.18 -115.08)" style="fill:#4e4e4e;opacity:0.692661"/><path d="M151.3,127.46a11.5,11.5,0,1,0-4.76,12.44,11.57,11.57,0,0,0,4.76-12.44C151.21,127.1,151.54,128.38,151.3,127.46Z" transform="translate(-123.18 -115.08)" style="fill:#4d4d4d;opacity:0.697248"/><path d="M151.3,127.47a11.49,11.49,0,1,0-4.76,12.42,11.58,11.58,0,0,0,4.76-12.42C151.2,127.1,151.53,128.38,151.3,127.47Z" transform="translate(-123.18 -115.08)" style="fill:#4c4c4c;opacity:0.701835"/><path d="M151.29,127.47a11.48,11.48,0,1,0-4.76,12.42,11.57,11.57,0,0,0,4.76-12.42C151.2,127.1,151.53,128.38,151.29,127.47Z" transform="translate(-123.18 -115.08)" style="fill:#4b4b4b;opacity:0.706422"/><path d="M151.28,127.47a11.47,11.47,0,1,0-4.75,12.41,11.57,11.57,0,0,0,4.75-12.41C151.19,127.1,151.52,128.39,151.28,127.47Z" transform="translate(-123.18 -115.08)" style="fill:#4a4a4a;opacity:0.711009"/><path d="M151.28,127.47a11.47,11.47,0,1,0-4.75,12.41,11.58,11.58,0,0,0,4.75-12.41C151.18,127.1,151.51,128.39,151.28,127.47Z" transform="translate(-123.18 -115.08)" style="fill:#494949;opacity:0.715596"/><path d="M151.27,127.47a11.46,11.46,0,1,0-4.75,12.4,11.55,11.55,0,0,0,4.75-12.4C151.18,127.11,151.51,128.39,151.27,127.47Z" transform="translate(-123.18 -115.08)" style="fill:#474747;opacity:0.720183"/><path d="M151.27,127.47a11.46,11.46,0,1,0-4.75,12.4,11.58,11.58,0,0,0,4.75-12.4C151.17,127.11,151.5,128.39,151.27,127.47Z" transform="translate(-123.18 -115.08)" style="fill:#464646;opacity:0.7247709999999999"/><path d="M151.26,127.48a11.45,11.45,0,1,0-4.74,12.38,11.54,11.54,0,0,0,4.74-12.38C151.17,127.11,151.49,128.39,151.26,127.48Z" transform="translate(-123.18 -115.08)" style="fill:#454545;opacity:0.729358"/><path d="M151.25,127.48a11.44,11.44,0,1,0-4.74,12.38,11.53,11.53,0,0,0,4.74-12.38C151.16,127.11,151.49,128.39,151.25,127.48Z" transform="translate(-123.18 -115.08)" style="fill:#444;opacity:0.733945"/><path d="M151.25,127.48a11.44,11.44,0,1,0-4.74,12.37,11.54,11.54,0,0,0,4.74-12.37C151.15,127.11,151.48,128.39,151.25,127.48Z" transform="translate(-123.18 -115.08)" style="fill:#434343;opacity:0.738532"/><path d="M151.24,127.48a11.43,11.43,0,1,0-4.74,12.37,11.52,11.52,0,0,0,4.74-12.37C151.15,127.12,151.48,128.39,151.24,127.48Z" transform="translate(-123.18 -115.08)" style="fill:#424242;opacity:0.743119"/><path d="M151.23,127.48a11.42,11.42,0,1,0-4.73,12.36,11.52,11.52,0,0,0,4.73-12.36C151.14,127.12,151.47,128.39,151.23,127.48Z" transform="translate(-123.18 -115.08)" style="fill:#404040;opacity:0.747706"/><path d="M151.23,127.48a11.42,11.42,0,1,0-4.73,12.35,11.52,11.52,0,0,0,4.73-12.35C151.13,127.12,151.46,128.4,151.23,127.48Z" transform="translate(-123.18 -115.08)" style="fill:#3f3f3f;opacity:0.752294"/><path d="M151.22,127.49a11.41,11.41,0,1,0-4.73,12.34,11.51,11.51,0,0,0,4.73-12.34C151.13,127.12,151.46,128.4,151.22,127.49Z" transform="translate(-123.18 -115.08)" style="fill:#3e3e3e;opacity:0.7568809999999999"/><path d="M151.21,127.49a11.4,11.4,0,1,0-4.72,12.33,11.47,11.47,0,0,0,4.72-12.33C151.12,127.12,151.45,128.4,151.21,127.49Z" transform="translate(-123.18 -115.08)" style="fill:#3d3d3d;opacity:0.7614679999999999"/><path d="M151.21,127.49a11.39,11.39,0,1,0-4.72,12.33,11.5,11.5,0,0,0,4.72-12.33C151.11,127.12,151.44,128.4,151.21,127.49Z" transform="translate(-123.18 -115.08)" style="fill:#3c3c3c;opacity:0.7660549999999999"/><path d="M151.2,127.49a11.39,11.39,0,1,0-4.72,12.32,11.48,11.48,0,0,0,4.72-12.32C151.11,127.13,151.44,128.4,151.2,127.49Z" transform="translate(-123.18 -115.08)" style="fill:#3a3a3a;opacity:0.7706419999999999"/><path d="M151.2,127.49a11.39,11.39,0,1,0-4.72,12.32,11.48,11.48,0,0,0,4.72-12.32C151.1,127.13,151.43,128.4,151.2,127.49Z" transform="translate(-123.18 -115.08)" style="fill:#393939;opacity:0.775229"/><path d="M151.19,127.49a11.38,11.38,0,1,0-4.71,12.31,11.49,11.49,0,0,0,4.71-12.31Z" transform="translate(-123.18 -115.08)" style="fill:#383838;opacity:0.779817"/><path d="M151.18,127.5a11.37,11.37,0,1,0-4.71,12.3,11.45,11.45,0,0,0,4.71-12.3C151.09,127.13,151.42,128.4,151.18,127.5Z" transform="translate(-123.18 -115.08)" style="fill:#373737;opacity:0.784404"/><path d="M151.18,127.5a11.37,11.37,0,1,0-4.71,12.29,11.45,11.45,0,0,0,4.71-12.29C151.08,127.13,151.41,128.4,151.18,127.5Z" transform="translate(-123.18 -115.08)" style="fill:#363636;opacity:0.788991"/><path d="M151.17,127.5a11.36,11.36,0,1,0-4.71,12.29,11.46,11.46,0,0,0,4.71-12.29Z" transform="translate(-123.18 -115.08)" style="fill:#353535;opacity:0.793578"/><path d="M151.16,127.5a11.35,11.35,0,1,0-4.7,12.28,11.43,11.43,0,0,0,4.7-12.28C151.07,127.14,151.4,128.41,151.16,127.5Z" transform="translate(-123.18 -115.08)" style="fill:#333;opacity:0.798165"/><path d="M151.16,127.5a11.35,11.35,0,1,0-4.7,12.27,11.46,11.46,0,0,0,4.7-12.27C151.06,127.14,151.39,128.41,151.16,127.5Z" transform="translate(-123.18 -115.08)" style="fill:#323232;opacity:0.8027519999999999"/><path d="M151.15,127.5a11.34,11.34,0,1,0-4.7,12.27,11.44,11.44,0,0,0,4.7-12.27Z" transform="translate(-123.18 -115.08)" style="fill:#313131;opacity:0.8073389999999999"/><path d="M151.15,127.5a11.34,11.34,0,1,0-4.7,12.26,11.44,11.44,0,0,0,4.7-12.26C151.05,127.14,151.38,128.41,151.15,127.5Z" transform="translate(-123.18 -115.08)" style="fill:#303030;opacity:0.811927"/><path d="M151.14,127.51a11.33,11.33,0,1,0-4.69,12.25,11.44,11.44,0,0,0,4.69-12.25C151.05,127.14,151.37,128.41,151.14,127.51Z" transform="translate(-123.18 -115.08)" style="fill:#2f2f2f;opacity:0.816514"/><path d="M151.13,127.51a11.32,11.32,0,1,0-4.69,12.24,11.4,11.4,0,0,0,4.69-12.24C151,127.15,151.37,128.41,151.13,127.51Z" transform="translate(-123.18 -115.08)" style="fill:#2e2e2e;opacity:0.821101"/><path d="M151.13,127.51a11.32,11.32,0,1,0-4.69,12.24,11.41,11.41,0,0,0,4.69-12.24C151,127.15,151.36,128.41,151.13,127.51Z" transform="translate(-123.18 -115.08)" style="fill:#2c2c2c;opacity:0.825688"/><path d="M151.12,127.51a11.3,11.3,0,1,0-4.68,12.23,11.42,11.42,0,0,0,4.68-12.23Z" transform="translate(-123.18 -115.08)" style="fill:#2b2b2b;opacity:0.830275"/><path d="M151.11,127.51a11.3,11.3,0,1,0-4.68,12.23,11.38,11.38,0,0,0,4.68-12.23C151,127.15,151.35,128.42,151.11,127.51Z" transform="translate(-123.18 -115.08)" style="fill:#2a2a2a;opacity:0.834862"/><path d="M151.11,127.51a11.3,11.3,0,1,0-4.68,12.22,11.39,11.39,0,0,0,4.68-12.22C151,127.15,151.34,128.42,151.11,127.51Z" transform="translate(-123.18 -115.08)" style="fill:#292929;opacity:0.83945"/><path d="M151.1,127.52a11.28,11.28,0,1,0-4.68,12.21,11.38,11.38,0,0,0,4.68-12.21Z" transform="translate(-123.18 -115.08)" style="fill:#282828;opacity:0.8440369999999999"/><path d="M151.09,127.52a11.28,11.28,0,1,0-4.67,12.2,11.36,11.36,0,0,0,4.67-12.2C151,127.16,151.33,128.42,151.09,127.52Z" transform="translate(-123.18 -115.08)" style="fill:#272727;opacity:0.8486239999999999"/><path d="M151.09,127.52a11.27,11.27,0,1,0-4.67,12.19,11.37,11.37,0,0,0,4.67-12.19Z" transform="translate(-123.18 -115.08)" style="fill:#252525;opacity:0.8532109999999999"/><path d="M151.08,127.52a11.26,11.26,0,1,0-4.67,12.19,11.36,11.36,0,0,0,4.67-12.19Z" transform="translate(-123.18 -115.08)" style="fill:#242424;opacity:0.857798"/><path d="M151.08,127.52a11.26,11.26,0,1,0-4.67,12.18,11.36,11.36,0,0,0,4.67-12.18C151,127.16,151.31,128.42,151.08,127.52Z" transform="translate(-123.18 -115.08)" style="fill:#232323;opacity:0.862385"/><path d="M151.07,127.52a11.25,11.25,0,1,0-4.66,12.18,11.35,11.35,0,0,0,4.66-12.18Z" transform="translate(-123.18 -115.08)" style="fill:#222;opacity:0.866972"/><path d="M151.06,127.53a11.25,11.25,0,1,0-4.66,12.16,11.34,11.34,0,0,0,4.66-12.16C151,127.17,151.29,128.42,151.06,127.53Z" transform="translate(-123.18 -115.08)" style="fill:#212121;opacity:0.8715600000000001"/><path d="M151.06,127.53a11.24,11.24,0,1,0-4.66,12.16,11.33,11.33,0,0,0,4.66-12.16C151,127.17,151.29,128.43,151.06,127.53Z" transform="translate(-123.18 -115.08)" style="fill:#202020;opacity:0.876147"/><path d="M151.05,127.53a11.24,11.24,0,1,0-4.65,12.15,11.34,11.34,0,0,0,4.65-12.15Z" transform="translate(-123.18 -115.08)" style="fill:#1e1e1e;opacity:0.8807339999999999"/><path d="M151,127.53a11.22,11.22,0,1,0-4.65,12.15A11.32,11.32,0,0,0,151,127.53Z" transform="translate(-123.18 -115.08)" style="fill:#1d1d1d;opacity:0.8853209999999999"/><path d="M151,127.53a11.22,11.22,0,1,0-4.65,12.14A11.32,11.32,0,0,0,151,127.53Z" transform="translate(-123.18 -115.08)" style="fill:#1c1c1c;opacity:0.8899079999999999"/><path d="M151,127.53a11.21,11.21,0,1,0-4.64,12.14A11.32,11.32,0,0,0,151,127.53Z" transform="translate(-123.18 -115.08)" style="fill:#1b1b1b;opacity:0.8944949999999999"/><path d="M151,127.54a11.2,11.2,0,1,0-4.64,12.12A11.29,11.29,0,0,0,151,127.54C150.93,127.18,151.26,128.43,151,127.54Z" transform="translate(-123.18 -115.08)" style="fill:#1a1a1a;opacity:0.899083"/><path d="M151,127.54a11.2,11.2,0,1,0-4.64,12.11A11.3,11.3,0,0,0,151,127.54C150.93,127.18,151.25,128.43,151,127.54Z" transform="translate(-123.18 -115.08)" style="fill:#191919;opacity:0.9036700000000001"/><path d="M151,127.54a11.19,11.19,0,1,0-4.64,12.11A11.28,11.28,0,0,0,151,127.54C150.92,127.18,151.24,128.43,151,127.54Z" transform="translate(-123.18 -115.08)" style="fill:#171717;opacity:0.908257"/><path d="M151,127.54a11.19,11.19,0,1,0-4.64,12.1,11.3,11.3,0,0,0,4.64-12.1C150.91,127.18,151.24,128.43,151,127.54Z" transform="translate(-123.18 -115.08)" style="fill:#161616;opacity:0.912844"/><path d="M151,127.54a11.18,11.18,0,1,0-4.63,12.1,11.26,11.26,0,0,0,4.63-12.1Z" transform="translate(-123.18 -115.08)" style="fill:#151515;opacity:0.917431"/><path d="M151,127.54a11.17,11.17,0,1,0-4.63,12.09A11.28,11.28,0,0,0,151,127.54Z" transform="translate(-123.18 -115.08)" style="fill:#141414;opacity:0.922018"/><path d="M151,127.55a11.17,11.17,0,1,0-4.63,12.08A11.28,11.28,0,0,0,151,127.55C150.9,127.19,151.22,128.44,151,127.55Z" transform="translate(-123.18 -115.08)" style="fill:#131313;opacity:0.9266059999999999"/><path d="M151,127.55a11.16,11.16,0,1,0-4.62,12.07A11.24,11.24,0,0,0,151,127.55C150.89,127.19,151.21,128.44,151,127.55Z" transform="translate(-123.18 -115.08)" style="fill:#121212;opacity:0.9311929999999999"/><path d="M151,127.55a11.15,11.15,0,1,0-4.62,12.07A11.25,11.25,0,0,0,151,127.55C150.88,127.19,151.2,128.44,151,127.55Z" transform="translate(-123.18 -115.08)" style="fill:#101010;opacity:0.9357800000000001"/><path d="M151,127.55a11.15,11.15,0,1,0-4.62,12.06A11.23,11.23,0,0,0,151,127.55C150.88,127.19,151.2,128.44,151,127.55Z" transform="translate(-123.18 -115.08)" style="fill:#0f0f0f;opacity:0.940367"/><path d="M151,127.55a11.14,11.14,0,1,0-4.61,12.06A11.23,11.23,0,0,0,151,127.55Z" transform="translate(-123.18 -115.08)" style="fill:#0e0e0e;opacity:0.944954"/><path d="M151,127.55a11.14,11.14,0,1,0-4.62,12,11.25,11.25,0,0,0,4.62-12C150.86,127.2,151.18,128.44,151,127.55Z" transform="translate(-123.18 -115.08)" style="fill:#0d0d0d;opacity:0.949541"/><path d="M151,127.56a11.13,11.13,0,1,0-4.61,12,11.22,11.22,0,0,0,4.61-12C150.86,127.2,151.18,128.44,151,127.56Z" transform="translate(-123.18 -115.08)" style="fill:#0c0c0c;opacity:0.954128"/><path d="M150.94,127.56a11.12,11.12,0,1,0-4.61,12,11.21,11.21,0,0,0,4.61-12C150.85,127.2,151.17,128.45,150.94,127.56Z" transform="translate(-123.18 -115.08)" style="fill:#0b0b0b;opacity:0.9587159999999999"/><path d="M150.94,127.56a11.12,11.12,0,1,0-4.61,12,11.22,11.22,0,0,0,4.61-12C150.84,127.2,151.16,128.45,150.94,127.56Z" transform="translate(-123.18 -115.08)" style="fill:#090909;opacity:0.9633029999999999"/><path d="M150.93,127.56a11.11,11.11,0,1,0-4.6,12,11.2,11.2,0,0,0,4.6-12Z" transform="translate(-123.18 -115.08)" style="fill:#080808;opacity:0.96789"/><path d="M150.92,127.56a11.1,11.1,0,1,0-4.6,12,11.2,11.2,0,0,0,4.6-12Z" transform="translate(-123.18 -115.08)" style="fill:#070707;opacity:0.9724769999999999"/><path d="M150.92,127.56a11.1,11.1,0,1,0-4.6,12,11.2,11.2,0,0,0,4.6-12Z" transform="translate(-123.18 -115.08)" style="fill:#060606;opacity:0.9770639999999999"/><path d="M150.91,127.57a11.09,11.09,0,1,0-4.59,12,11.16,11.16,0,0,0,4.59-12C150.82,127.21,151.14,128.45,150.91,127.57Z" transform="translate(-123.18 -115.08)" style="fill:#050505;opacity:0.9816509999999999"/><path d="M150.9,127.57a11.08,11.08,0,1,0-4.59,12,11.19,11.19,0,0,0,4.59-12C150.81,127.21,151.13,128.45,150.9,127.57Z" transform="translate(-123.18 -115.08)" style="fill:#040404;opacity:0.986239"/><path d="M150.9,127.57a11.08,11.08,0,1,0-4.59,12,11.18,11.18,0,0,0,4.59-12C150.81,127.21,151.13,128.45,150.9,127.57Z" transform="translate(-123.18 -115.08)" style="fill:#020202;opacity:0.990826"/><path d="M150.89,127.57a11.06,11.06,0,1,0-4.58,12,11.14,11.14,0,0,0,4.58-12Z" transform="translate(-123.18 -115.08)" style="fill:#010101;opacity:0.995413"/><path d="M150.89,127.57a11.07,11.07,0,1,0-4.59,12,11.18,11.18,0,0,0,4.59-12C150.79,127.22,151.11,128.46,150.89,127.57Z" transform="translate(-123.18 -115.08)"/></g><g style="clip-path:url(#b2e439ff-ca05-4636-96d7-afdb112a639c)"><circle cx="17" cy="15.25" r="11.05" style="fill:url(#a1b8f38d-2259-461b-9710-3c0f9f577005)"/><path d="M140.18,119.27a11.06,11.06,0,1,0,11,11A11.05,11.05,0,0,0,140.18,119.27Zm0,21.8a10.75,10.75,0,1,1,10.75-10.75A10.75,10.75,0,0,1,140.18,141.07Z" transform="translate(-123.18 -115.08)" style="opacity:0.75;fill:url(#a149f7fb-5ed6-4871-82c9-0a71cfe68c07)"/><circle cx="140.18" cy="130.32" r="8.73" transform="translate(-174 27.68) rotate(-46.64)" style="opacity:0.75;fill:url(#bd17a116-668e-4f68-ae39-c6c97bd6613a)"/><circle cx="17" cy="15.25" r="8.44" style="fill:url(#f4865b06-544d-4032-a824-318ef2f3d3a7)"/><g style="opacity:0.75"><g style="opacity:0.85;mix-blend-mode:multiply"><path d="M147.07,131.34a.25.25,0,0,1-.22-.28.26.26,0,0,1,.27-.23.26.26,0,0,1,.24.28A.26.26,0,0,1,147.07,131.34Z" transform="translate(-123.18 -115.08)" style="fill:url(#e3999aa4-dd7e-403a-a072-cd665183bafe)"/><path d="M146.85,132.33a.25.25,0,0,1,.13-.49.24.24,0,0,1,.18.31A.25.25,0,0,1,146.85,132.33Z" transform="translate(-123.18 -115.08)" style="fill:url(#a4e10267-1795-4e9e-96e8-d2052d5a089b)"/><path d="M146.48,133.28a.26.26,0,0,1,.2-.47.27.27,0,0,1,.15.34A.27.27,0,0,1,146.48,133.28Z" transform="translate(-123.18 -115.08)" style="fill:url(#b097f3ba-c135-4a25-b551-bdbbe93f3b6c)"/><path d="M146,134.17a.26.26,0,0,1-.09-.35.27.27,0,0,1,.35-.09.25.25,0,0,1,.09.35A.24.24,0,0,1,146,134.17Z" transform="translate(-123.18 -115.08)" style="fill:url(#b35c1b42-1b72-4842-849e-5dcf5e3e8c3e)"/><path d="M145.36,135a.25.25,0,0,1,0-.35.24.24,0,0,1,.35,0,.25.25,0,0,1,0,.36A.27.27,0,0,1,145.36,135Z" transform="translate(-123.18 -115.08)" style="fill:url(#f24cb305-7865-48b9-97dc-d8163d8d8748)"/><path d="M144.64,135.68a.25.25,0,1,1,.37-.34.25.25,0,0,1,0,.36A.23.23,0,0,1,144.64,135.68Z" transform="translate(-123.18 -115.08)" style="fill:url(#f0fa3955-c381-4b9d-94ef-c53beb3a45c2)"/><path d="M143.81,136.27a.25.25,0,1,1,.35.08A.25.25,0,0,1,143.81,136.27Z" transform="translate(-123.18 -115.08)" style="fill:url(#a400f949-7e06-4a50-a420-9db004de6be7)"/><path d="M142.91,136.74a.26.26,0,0,1,.12-.34.24.24,0,0,1,.33.12.25.25,0,1,1-.45.22Z" transform="translate(-123.18 -115.08)" style="fill:url(#a6785235-9666-4c61-bc9b-710ee7a726fd)"/><path d="M141.94,137.06a.26.26,0,0,1,.17-.31.27.27,0,0,1,.32.17.25.25,0,1,1-.49.14Z" transform="translate(-123.18 -115.08)" style="fill:url(#bef1f82b-dcf4-4fca-b9a8-d0d82d40e16a)"/><path d="M140.94,137.25a.27.27,0,0,1,.22-.29.26.26,0,0,1,.29.21.25.25,0,0,1-.22.29A.24.24,0,0,1,140.94,137.25Z" transform="translate(-123.18 -115.08)" style="fill:url(#b4956aec-d091-4036-b218-a17831d7d285)"/><path d="M139.93,137.28a.25.25,0,0,1,.5,0,.25.25,0,1,1-.5,0Z" transform="translate(-123.18 -115.08)" style="fill:url(#b5e1435c-c7cc-4c85-8314-f4b4cfc76f2e)"/><path d="M138.92,137.17a.25.25,0,0,1,.28-.21.27.27,0,0,1,.22.29.25.25,0,1,1-.5-.08Z" transform="translate(-123.18 -115.08)" style="fill:url(#aeda7533-d5b1-42f4-aea9-94cd8b7eb4e0)"/><path d="M137.93,136.92a.27.27,0,0,1,.32-.17.26.26,0,0,1,.17.31.25.25,0,0,1-.32.18A.26.26,0,0,1,137.93,136.92Z" transform="translate(-123.18 -115.08)" style="fill:url(#eff348a9-3bee-4ce9-a008-de2d9bbd0524)"/><path d="M137,136.52a.24.24,0,0,1,.33-.12.25.25,0,0,1,.12.34.24.24,0,0,1-.33.12A.25.25,0,0,1,137,136.52Z" transform="translate(-123.18 -115.08)" style="fill:url(#ba9801e0-c26e-4289-85d1-8025b4d43cdb)"/><path d="M136.13,136a.25.25,0,1,1,.07.36A.25.25,0,0,1,136.13,136Z" transform="translate(-123.18 -115.08)" style="fill:url(#a48ecc3c-9c2c-4d2c-9666-2f4562565e1b)"/><path d="M135.35,135.34a.25.25,0,1,1,.37.34.23.23,0,0,1-.35,0A.25.25,0,0,1,135.35,135.34Z" transform="translate(-123.18 -115.08)" style="fill:url(#b354e7e4-1eaa-45d5-9490-0622c9d80287)"/><path d="M134.67,134.58a.24.24,0,0,1,.35,0,.25.25,0,0,1,0,.35.27.27,0,0,1-.37,0A.25.25,0,0,1,134.67,134.58Z" transform="translate(-123.18 -115.08)" style="fill:url(#bafc5894-8a58-436e-a272-5475398717b5)"/><path d="M134.11,133.73a.27.27,0,0,1,.35.09.26.26,0,0,1-.09.35.24.24,0,0,1-.35-.09A.25.25,0,0,1,134.11,133.73Z" transform="translate(-123.18 -115.08)" style="fill:url(#e6411b94-3c99-4dd6-8a0d-9a08267cfc4f)"/><path d="M133.68,132.81a.26.26,0,0,1,.2.47.27.27,0,0,1-.35-.13A.27.27,0,0,1,133.68,132.81Z" transform="translate(-123.18 -115.08)" style="fill:url(#fed2269a-c9a5-4fb8-8dee-00b1082efb6e)"/><path d="M133.38,131.84a.25.25,0,0,1,.13.49.25.25,0,1,1-.13-.49Z" transform="translate(-123.18 -115.08)" style="fill:url(#e945649f-a03d-434f-b65c-ca39a528c90c)"/><path d="M133.24,130.83a.26.26,0,0,1,.27.23.25.25,0,0,1-.22.28.27.27,0,0,1-.29-.23A.27.27,0,0,1,133.24,130.83Z" transform="translate(-123.18 -115.08)" style="fill:url(#a7e08c9d-557f-4393-80f0-0659887e7aad)"/><path d="M133.24,129.82a.25.25,0,0,1,.24.26.29.29,0,0,1-.27.25.25.25,0,0,1-.24-.27A.26.26,0,0,1,133.24,129.82Z" transform="translate(-123.18 -115.08)" style="fill:url(#e26339e5-d814-43f5-a5e8-bd3ed8cc8dcc)"/><path d="M133.38,128.81a.26.26,0,0,1,.2.3.25.25,0,0,1-.29.2.26.26,0,0,1-.21-.3A.25.25,0,0,1,133.38,128.81Z" transform="translate(-123.18 -115.08)" style="fill:url(#ee71d1c7-daff-4673-8ab3-c2134c8216d2)"/><path d="M133.68,127.84a.25.25,0,0,1,.15.32.27.27,0,0,1-.32.16.24.24,0,0,1-.16-.32A.26.26,0,0,1,133.68,127.84Z" transform="translate(-123.18 -115.08)" style="fill:url(#a4daa99c-f1e5-4145-b2a5-76713393f656)"/><path d="M134.11,126.92a.26.26,0,0,1,.1.34.24.24,0,0,1-.33.11.25.25,0,0,1-.12-.34A.24.24,0,0,1,134.11,126.92Z" transform="translate(-123.18 -115.08)" style="fill:url(#a6c9777e-5cfa-440e-a0d2-e3cbea6f41a5)"/><path d="M134.67,126.07a.26.26,0,0,1,.06.35.27.27,0,0,1-.36.06.24.24,0,0,1-.06-.35A.25.25,0,0,1,134.67,126.07Z" transform="translate(-123.18 -115.08)" style="fill:url(#ba1454ef-a49c-4bdc-a043-2ff7fefa21ae)"/><path d="M135.35,125.31a.26.26,0,0,1,0,.36.25.25,0,0,1-.35,0,.25.25,0,0,1,0-.36A.25.25,0,0,1,135.35,125.31Z" transform="translate(-123.18 -115.08)" style="fill:url(#f7c4a0a7-3073-440d-88c3-f1bf84fb3e65)"/><path d="M136.13,124.66a.26.26,0,0,1,0,.36.27.27,0,0,1-.36,0,.25.25,0,0,1,.05-.36A.26.26,0,0,1,136.13,124.66Z" transform="translate(-123.18 -115.08)" style="fill:url(#b1df830d-d8ff-4006-bdd9-e12428c495e8)"/><path d="M137,124.13a.27.27,0,0,1-.1.34.26.26,0,0,1-.35-.09.26.26,0,0,1,.45-.25Z" transform="translate(-123.18 -115.08)" style="fill:url(#a861eb03-6bfa-4ac2-87d7-d2b31b364faf)"/><path d="M137.93,123.74a.24.24,0,0,1-.15.32.27.27,0,0,1-.33-.15.24.24,0,0,1,.15-.32A.24.24,0,0,1,137.93,123.74Z" transform="translate(-123.18 -115.08)" style="fill:url(#a14f4113-717f-4950-9e7a-e436b6a0f9ab)"/><path d="M138.92,123.48a.27.27,0,0,1-.2.3.26.26,0,1,1,.2-.3Z" transform="translate(-123.18 -115.08)" style="fill:url(#a2a603f8-7677-498f-9826-14e1a102eaff)"/><path d="M139.93,123.37a.26.26,0,1,1-.51,0,.24.24,0,0,1,.23-.27A.26.26,0,0,1,139.93,123.37Z" transform="translate(-123.18 -115.08)" style="fill:url(#b71f0b0c-05f5-4a76-a53f-93847597431d)"/><path d="M140.94,123.4a.26.26,0,0,1-.51,0,.26.26,0,0,1,.28-.24A.24.24,0,0,1,140.94,123.4Z" transform="translate(-123.18 -115.08)" style="fill:url(#a298f486-d4d5-4b65-b755-ef3305158388)"/><path d="M141.94,123.59a.25.25,0,0,1-.3.19.26.26,0,0,1-.19-.3.24.24,0,0,1,.3-.2A.26.26,0,0,1,141.94,123.59Z" transform="translate(-123.18 -115.08)" style="fill:url(#ff19b555-60bb-4112-9e00-cc43f6e24dd2)"/><path d="M142.91,123.91a.27.27,0,0,1-.33.15.24.24,0,0,1-.15-.32.24.24,0,0,1,.33-.15A.24.24,0,0,1,142.91,123.91Z" transform="translate(-123.18 -115.08)" style="fill:url(#bfea92ef-d974-48fd-9fc4-c1a8e36a5e45)"/><path d="M143.81,124.38a.26.26,0,0,1-.35.09.27.27,0,0,1-.1-.34.26.26,0,1,1,.45.25Z" transform="translate(-123.18 -115.08)" style="fill:url(#e1ff7ab1-9a8f-4328-83e3-77b22d3f975c)"/><path d="M144.64,125a.27.27,0,0,1-.36,0,.26.26,0,0,1,.31-.41A.25.25,0,0,1,144.64,125Z" transform="translate(-123.18 -115.08)" style="fill:url(#ef9af78d-9e7b-40d9-a3f7-77890174e5c4)"/><path d="M145.36,125.68a.25.25,0,0,1-.35,0,.26.26,0,0,1,0-.36.25.25,0,0,1,.37,0A.25.25,0,0,1,145.36,125.68Z" transform="translate(-123.18 -115.08)" style="fill:url(#a9cbf6b2-e5c2-463b-9096-eb67afbb0476)"/><path d="M146,126.48a.27.27,0,0,1-.36-.06.26.26,0,0,1,.06-.35.25.25,0,0,1,.36.06A.24.24,0,0,1,146,126.48Z" transform="translate(-123.18 -115.08)" style="fill:url(#b2d10811-38eb-45fd-bb42-9a67e2227e31)"/><path d="M146.48,127.37a.25.25,0,0,1-.33-.11.26.26,0,0,1,.1-.34.24.24,0,0,1,.35.11A.25.25,0,0,1,146.48,127.37Z" transform="translate(-123.18 -115.08)" style="fill:url(#a898bec4-511a-4544-94f9-454fd48472e6)"/><path d="M146.85,128.32a.27.27,0,0,1-.32-.16.25.25,0,0,1,.15-.32.26.26,0,0,1,.33.16A.24.24,0,0,1,146.85,128.32Z" transform="translate(-123.18 -115.08)" style="fill:url(#e7c3e5ab-b6f3-4d10-ae3d-19652d38d30a)"/><path d="M147.07,129.31a.25.25,0,0,1-.29-.2.26.26,0,0,1,.2-.3.25.25,0,0,1,.3.2A.26.26,0,0,1,147.07,129.31Z" transform="translate(-123.18 -115.08)" style="fill:url(#a60e86f9-f6eb-4cec-aa15-2034a5d57dc9)"/><path d="M147.15,130.33a.29.29,0,0,1-.27-.25.25.25,0,0,1,.24-.26.26.26,0,0,1,.27.24A.25.25,0,0,1,147.15,130.33Z" transform="translate(-123.18 -115.08)" style="fill:url(#bf536dd3-44a4-470b-914d-23277e8b61b4)"/></g><g style="opacity:0.85;mix-blend-mode:multiply"><path d="M147.07,131.34a.25.25,0,0,1-.22-.28.26.26,0,0,1,.27-.23.26.26,0,0,1,.24.28A.26.26,0,0,1,147.07,131.34Z" transform="translate(-123.18 -115.08)" style="fill:url(#e3999aa4-dd7e-403a-a072-cd665183bafe)"/><path d="M146.85,132.33a.25.25,0,0,1,.13-.49.24.24,0,0,1,.18.31A.25.25,0,0,1,146.85,132.33Z" transform="translate(-123.18 -115.08)" style="fill:url(#a4e10267-1795-4e9e-96e8-d2052d5a089b)"/><path d="M146.48,133.28a.26.26,0,0,1,.2-.47.27.27,0,0,1,.15.34A.27.27,0,0,1,146.48,133.28Z" transform="translate(-123.18 -115.08)" style="fill:url(#b097f3ba-c135-4a25-b551-bdbbe93f3b6c)"/><path d="M146,134.17a.26.26,0,0,1-.09-.35.27.27,0,0,1,.35-.09.25.25,0,0,1,.09.35A.24.24,0,0,1,146,134.17Z" transform="translate(-123.18 -115.08)" style="fill:url(#b35c1b42-1b72-4842-849e-5dcf5e3e8c3e)"/><path d="M145.36,135a.25.25,0,0,1,0-.35.24.24,0,0,1,.35,0,.25.25,0,0,1,0,.36A.27.27,0,0,1,145.36,135Z" transform="translate(-123.18 -115.08)" style="fill:url(#f24cb305-7865-48b9-97dc-d8163d8d8748)"/><path d="M144.64,135.68a.25.25,0,1,1,.37-.34.25.25,0,0,1,0,.36A.23.23,0,0,1,144.64,135.68Z" transform="translate(-123.18 -115.08)" style="fill:url(#f0fa3955-c381-4b9d-94ef-c53beb3a45c2)"/><path d="M143.81,136.27a.25.25,0,1,1,.35.08A.25.25,0,0,1,143.81,136.27Z" transform="translate(-123.18 -115.08)" style="fill:url(#a400f949-7e06-4a50-a420-9db004de6be7)"/><path d="M142.91,136.74a.26.26,0,0,1,.12-.34.24.24,0,0,1,.33.12.25.25,0,1,1-.45.22Z" transform="translate(-123.18 -115.08)" style="fill:url(#a6785235-9666-4c61-bc9b-710ee7a726fd)"/><path d="M141.94,137.06a.26.26,0,0,1,.17-.31.27.27,0,0,1,.32.17.25.25,0,1,1-.49.14Z" transform="translate(-123.18 -115.08)" style="fill:url(#bef1f82b-dcf4-4fca-b9a8-d0d82d40e16a)"/><path d="M140.94,137.25a.27.27,0,0,1,.22-.29.26.26,0,0,1,.29.21.25.25,0,0,1-.22.29A.24.24,0,0,1,140.94,137.25Z" transform="translate(-123.18 -115.08)" style="fill:url(#b4956aec-d091-4036-b218-a17831d7d285)"/><path d="M139.93,137.28a.25.25,0,0,1,.5,0,.25.25,0,1,1-.5,0Z" transform="translate(-123.18 -115.08)" style="fill:url(#b5e1435c-c7cc-4c85-8314-f4b4cfc76f2e)"/><path d="M138.92,137.17a.25.25,0,0,1,.28-.21.27.27,0,0,1,.22.29.25.25,0,1,1-.5-.08Z" transform="translate(-123.18 -115.08)" style="fill:url(#aeda7533-d5b1-42f4-aea9-94cd8b7eb4e0)"/><path d="M137.93,136.92a.27.27,0,0,1,.32-.17.26.26,0,0,1,.17.31.25.25,0,0,1-.32.18A.26.26,0,0,1,137.93,136.92Z" transform="translate(-123.18 -115.08)" style="fill:url(#eff348a9-3bee-4ce9-a008-de2d9bbd0524)"/><path d="M137,136.52a.24.24,0,0,1,.33-.12.25.25,0,0,1,.12.34.24.24,0,0,1-.33.12A.25.25,0,0,1,137,136.52Z" transform="translate(-123.18 -115.08)" style="fill:url(#ba9801e0-c26e-4289-85d1-8025b4d43cdb)"/><path d="M136.13,136a.25.25,0,1,1,.07.36A.25.25,0,0,1,136.13,136Z" transform="translate(-123.18 -115.08)" style="fill:url(#a48ecc3c-9c2c-4d2c-9666-2f4562565e1b)"/><path d="M135.35,135.34a.25.25,0,1,1,.37.34.23.23,0,0,1-.35,0A.25.25,0,0,1,135.35,135.34Z" transform="translate(-123.18 -115.08)" style="fill:url(#b354e7e4-1eaa-45d5-9490-0622c9d80287)"/><path d="M134.67,134.58a.24.24,0,0,1,.35,0,.25.25,0,0,1,0,.35.27.27,0,0,1-.37,0A.25.25,0,0,1,134.67,134.58Z" transform="translate(-123.18 -115.08)" style="fill:url(#bafc5894-8a58-436e-a272-5475398717b5)"/><path d="M134.11,133.73a.27.27,0,0,1,.35.09.26.26,0,0,1-.09.35.24.24,0,0,1-.35-.09A.25.25,0,0,1,134.11,133.73Z" transform="translate(-123.18 -115.08)" style="fill:url(#e6411b94-3c99-4dd6-8a0d-9a08267cfc4f)"/><path d="M133.68,132.81a.26.26,0,0,1,.2.47.27.27,0,0,1-.35-.13A.27.27,0,0,1,133.68,132.81Z" transform="translate(-123.18 -115.08)" style="fill:url(#fed2269a-c9a5-4fb8-8dee-00b1082efb6e)"/><path d="M133.38,131.84a.25.25,0,0,1,.13.49.25.25,0,1,1-.13-.49Z" transform="translate(-123.18 -115.08)" style="fill:url(#e945649f-a03d-434f-b65c-ca39a528c90c)"/><path d="M133.24,130.83a.26.26,0,0,1,.27.23.25.25,0,0,1-.22.28.27.27,0,0,1-.29-.23A.27.27,0,0,1,133.24,130.83Z" transform="translate(-123.18 -115.08)" style="fill:url(#a7e08c9d-557f-4393-80f0-0659887e7aad)"/><path d="M133.24,129.82a.25.25,0,0,1,.24.26.29.29,0,0,1-.27.25.25.25,0,0,1-.24-.27A.26.26,0,0,1,133.24,129.82Z" transform="translate(-123.18 -115.08)" style="fill:url(#e26339e5-d814-43f5-a5e8-bd3ed8cc8dcc)"/><path d="M133.38,128.81a.26.26,0,0,1,.2.3.25.25,0,0,1-.29.2.26.26,0,0,1-.21-.3A.25.25,0,0,1,133.38,128.81Z" transform="translate(-123.18 -115.08)" style="fill:url(#ee71d1c7-daff-4673-8ab3-c2134c8216d2)"/><path d="M133.68,127.84a.25.25,0,0,1,.15.32.27.27,0,0,1-.32.16.24.24,0,0,1-.16-.32A.26.26,0,0,1,133.68,127.84Z" transform="translate(-123.18 -115.08)" style="fill:url(#a4daa99c-f1e5-4145-b2a5-76713393f656)"/><path d="M134.11,126.92a.26.26,0,0,1,.1.34.24.24,0,0,1-.33.11.25.25,0,0,1-.12-.34A.24.24,0,0,1,134.11,126.92Z" transform="translate(-123.18 -115.08)" style="fill:url(#a6c9777e-5cfa-440e-a0d2-e3cbea6f41a5)"/><path d="M134.67,126.07a.26.26,0,0,1,.06.35.27.27,0,0,1-.36.06.24.24,0,0,1-.06-.35A.25.25,0,0,1,134.67,126.07Z" transform="translate(-123.18 -115.08)" style="fill:url(#ba1454ef-a49c-4bdc-a043-2ff7fefa21ae)"/><path d="M135.35,125.31a.26.26,0,0,1,0,.36.25.25,0,0,1-.35,0,.25.25,0,0,1,0-.36A.25.25,0,0,1,135.35,125.31Z" transform="translate(-123.18 -115.08)" style="fill:url(#f7c4a0a7-3073-440d-88c3-f1bf84fb3e65)"/><path d="M136.13,124.66a.26.26,0,0,1,0,.36.27.27,0,0,1-.36,0,.25.25,0,0,1,.05-.36A.26.26,0,0,1,136.13,124.66Z" transform="translate(-123.18 -115.08)" style="fill:url(#b1df830d-d8ff-4006-bdd9-e12428c495e8)"/><path d="M137,124.13a.27.27,0,0,1-.1.34.26.26,0,0,1-.35-.09.26.26,0,0,1,.45-.25Z" transform="translate(-123.18 -115.08)" style="fill:url(#a861eb03-6bfa-4ac2-87d7-d2b31b364faf)"/><path d="M137.93,123.74a.24.24,0,0,1-.15.32.27.27,0,0,1-.33-.15.24.24,0,0,1,.15-.32A.24.24,0,0,1,137.93,123.74Z" transform="translate(-123.18 -115.08)" style="fill:url(#a14f4113-717f-4950-9e7a-e436b6a0f9ab)"/><path d="M138.92,123.48a.27.27,0,0,1-.2.3.26.26,0,1,1,.2-.3Z" transform="translate(-123.18 -115.08)" style="fill:url(#a2a603f8-7677-498f-9826-14e1a102eaff)"/><path d="M139.93,123.37a.26.26,0,1,1-.51,0,.24.24,0,0,1,.23-.27A.26.26,0,0,1,139.93,123.37Z" transform="translate(-123.18 -115.08)" style="fill:url(#b71f0b0c-05f5-4a76-a53f-93847597431d)"/><path d="M140.94,123.4a.26.26,0,0,1-.51,0,.26.26,0,0,1,.28-.24A.24.24,0,0,1,140.94,123.4Z" transform="translate(-123.18 -115.08)" style="fill:url(#a298f486-d4d5-4b65-b755-ef3305158388)"/><path d="M141.94,123.59a.25.25,0,0,1-.3.19.26.26,0,0,1-.19-.3.24.24,0,0,1,.3-.2A.26.26,0,0,1,141.94,123.59Z" transform="translate(-123.18 -115.08)" style="fill:url(#ff19b555-60bb-4112-9e00-cc43f6e24dd2)"/><path d="M142.91,123.91a.27.27,0,0,1-.33.15.24.24,0,0,1-.15-.32.24.24,0,0,1,.33-.15A.24.24,0,0,1,142.91,123.91Z" transform="translate(-123.18 -115.08)" style="fill:url(#bfea92ef-d974-48fd-9fc4-c1a8e36a5e45)"/><path d="M143.81,124.38a.26.26,0,0,1-.35.09.27.27,0,0,1-.1-.34.26.26,0,1,1,.45.25Z" transform="translate(-123.18 -115.08)" style="fill:url(#e1ff7ab1-9a8f-4328-83e3-77b22d3f975c)"/><path d="M144.64,125a.27.27,0,0,1-.36,0,.26.26,0,0,1,.31-.41A.25.25,0,0,1,144.64,125Z" transform="translate(-123.18 -115.08)" style="fill:url(#ef9af78d-9e7b-40d9-a3f7-77890174e5c4)"/><path d="M145.36,125.68a.25.25,0,0,1-.35,0,.26.26,0,0,1,0-.36.25.25,0,0,1,.37,0A.25.25,0,0,1,145.36,125.68Z" transform="translate(-123.18 -115.08)" style="fill:url(#a9cbf6b2-e5c2-463b-9096-eb67afbb0476)"/><path d="M146,126.48a.27.27,0,0,1-.36-.06.26.26,0,0,1,.06-.35.25.25,0,0,1,.36.06A.24.24,0,0,1,146,126.48Z" transform="translate(-123.18 -115.08)" style="fill:url(#b2d10811-38eb-45fd-bb42-9a67e2227e31)"/><path d="M146.48,127.37a.25.25,0,0,1-.33-.11.26.26,0,0,1,.1-.34.24.24,0,0,1,.35.11A.25.25,0,0,1,146.48,127.37Z" transform="translate(-123.18 -115.08)" style="fill:url(#a898bec4-511a-4544-94f9-454fd48472e6)"/><path d="M146.85,128.32a.27.27,0,0,1-.32-.16.25.25,0,0,1,.15-.32.26.26,0,0,1,.33.16A.24.24,0,0,1,146.85,128.32Z" transform="translate(-123.18 -115.08)" style="fill:url(#e7c3e5ab-b6f3-4d10-ae3d-19652d38d30a)"/><path d="M147.07,129.31a.25.25,0,0,1-.29-.2.26.26,0,0,1,.2-.3.25.25,0,0,1,.3.2A.26.26,0,0,1,147.07,129.31Z" transform="translate(-123.18 -115.08)" style="fill:url(#a60e86f9-f6eb-4cec-aa15-2034a5d57dc9)"/><path d="M147.15,130.33a.29.29,0,0,1-.27-.25.25.25,0,0,1,.24-.26.26.26,0,0,1,.27.24A.25.25,0,0,1,147.15,130.33Z" transform="translate(-123.18 -115.08)" style="fill:url(#bf536dd3-44a4-470b-914d-23277e8b61b4)"/></g></g><path d="M140.18,121.88a8.45,8.45,0,1,0,8.44,8.44A8.44,8.44,0,0,0,140.18,121.88Zm0,16.34a7.9,7.9,0,1,1,7.89-7.9A7.9,7.9,0,0,1,140.18,138.22Z" transform="translate(-123.18 -115.08)" style="opacity:0.75;mix-blend-mode:multiply;fill:url(#a047216d-551f-4bbe-b004-9325c575d936)"/><path d="M142.31,129.74v0a1.44,1.44,0,0,0,.84-1.48c0-1-1-1.83-2.64-1.83s-2.73.83-2.73,1.84v.06s0,.07,0,.1v.23h1.85a.66.66,0,0,1,.63-.59c.52,0,.7.24.7.62s-.28.46-.64.46h-.53v1.42h.68c.36,0,.64.13.64.58s-.25.64-1,.64a.69.69,0,0,1-.66-.78h-1.92v.24h0v.2c0,1.07.91,1.94,2.91,1.94s2.82-.87,2.87-1.95A1.52,1.52,0,0,0,142.31,129.74Z" transform="translate(-123.18 -115.08)" style="fill:url(#f4f77419-14aa-4e38-8d44-fd3ed22c7bbf)"/><path d="M143,128.32a1.47,1.47,0,0,1-.93,1.4v0a1.53,1.53,0,0,1,1.11,1.56c0,1-.85,1.84-2.67,1.84s-2.7-.82-2.7-1.83v-.19h1.62c0,.41.22.75,1,.75s1-.36,1-.84a.61.61,0,0,0-.65-.67H140v-1.13h.53a.6.6,0,0,0,.64-.66.74.74,0,0,0-.81-.73c-.55,0-.84.32-.84.7H138v-.23c0-1,.91-1.73,2.54-1.73S143,127.38,143,128.32Z" transform="translate(-123.18 -115.08)" style="fill:url(#ecd17923-bcc3-46fa-a44c-f847809d6591)"/></g><path d="M154.56,147.1h0l2.62.34a16.56,16.56,0,0,0-3.45-7.23h0q-.62-.78-1.2-1.44a6.07,6.07,0,0,0,.65-.59.83.83,0,0,0,.25-.85,11.91,11.91,0,0,0-1.89-1.51,4,4,0,0,0,.5.07,2.89,2.89,0,0,0,1-.1h0a2.19,2.19,0,0,0,.33-.12l.21-.11.09-.05a2.48,2.48,0,0,0,.26-.19h0a1.79,1.79,0,0,0,.25-.23h0a4.35,4.35,0,0,0,.86-1.25.82.82,0,0,0,0-.87,11.8,11.8,0,0,0-2.27-.86,3.08,3.08,0,0,0,1.39-.48,2.09,2.09,0,0,0,.28-.22c.07-.06.12-.12.18-.18l.06-.07a2.56,2.56,0,0,0,.2-.26h0a4.33,4.33,0,0,0,.59-1.75.82.82,0,0,0-.3-.83,11.37,11.37,0,0,0-2.41-.11,3.2,3.2,0,0,0,1.17-.89,1.57,1.57,0,0,0,.2-.3c0-.07.07-.14.11-.22a.79.79,0,0,0,0-.09,1.51,1.51,0,0,0,.1-.3v0c0-.11.05-.22.07-.33h0a4.5,4.5,0,0,0,0-1.51.84.84,0,0,0-.54-.7,11.39,11.39,0,0,0-2.34.64,3.66,3.66,0,0,0,.55-.63,2.42,2.42,0,0,0,.29-.58,1.46,1.46,0,0,0,.1-.34,2,2,0,0,0,0-.24s0-.07,0-.1a1.82,1.82,0,0,0,0-.33h0a1.87,1.87,0,0,0,0-.34h0a4.53,4.53,0,0,0-.51-1.43.82.82,0,0,0-.73-.49,11.75,11.75,0,0,0-2,1.33l.09-.16.13-.3a3,3,0,0,0,.21-1h0a2.17,2.17,0,0,0,0-.36,1,1,0,0,0,0-.24.44.44,0,0,0,0-.1,1.71,1.71,0,0,0-.09-.3v0a4,4,0,0,0-1.06-1.51.85.85,0,0,0-.85-.25,12.71,12.71,0,0,0-1.51,1.9,3.09,3.09,0,0,0,0-1.48,1.85,1.85,0,0,0-.12-.33.94.94,0,0,0-.12-.22.36.36,0,0,0,0-.09,2.48,2.48,0,0,0-.19-.26h0a2.85,2.85,0,0,0-.23-.26h0a4.32,4.32,0,0,0-1.25-.85.8.8,0,0,0-.88,0,11.16,11.16,0,0,0-.85,2.26,4.37,4.37,0,0,0-.09-.5,2.94,2.94,0,0,0-.39-.89h0a1.94,1.94,0,0,0-.21-.27l-.18-.18-.07-.06-.26-.2h0a4.2,4.2,0,0,0-1.75-.6.82.82,0,0,0-.83.3,11.43,11.43,0,0,0-.11,2.42l-.18-.35c-.08-.12-.16-.25-.25-.37l-.22-.24a1.7,1.7,0,0,0-.24-.22,3.13,3.13,0,0,0-.3-.2l-.22-.11-.09,0-.3-.1h0l-.33-.07h0a4.32,4.32,0,0,0-1.52.05.8.8,0,0,0-.69.54,11.53,11.53,0,0,0,.64,2.33,3.18,3.18,0,0,0-1.21-.84h0a2.19,2.19,0,0,0-.34-.1l-.24,0h-.1a1.71,1.71,0,0,0-.32,0h0c-.12,0-.23,0-.34,0h0a4.53,4.53,0,0,0-1.43.51.82.82,0,0,0-.49.73,11.75,11.75,0,0,0,1.33,2l-.06,0a3.41,3.41,0,0,0-.71-.29,2.31,2.31,0,0,0-.64-.1,2.17,2.17,0,0,0-.36,0l-.24,0-.1,0-.31.09h0a4.1,4.1,0,0,0-1.51,1.06.83.83,0,0,0-.25.85,13,13,0,0,0,1.89,1.51l-.17,0-.33,0h-.32a2.84,2.84,0,0,0-.65.1,1.85,1.85,0,0,0-.33.12l-.22.12-.09,0a2.48,2.48,0,0,0-.26.19h0l-.25.23h0a4.26,4.26,0,0,0-.85,1.25.8.8,0,0,0,0,.88,11.16,11.16,0,0,0,2.26.85,4,4,0,0,0-.5.09,3.21,3.21,0,0,0-.89.39h0a2,2,0,0,0-.28.21l-.18.18-.06.07c-.07.09-.14.17-.2.26v0a2.82,2.82,0,0,0-.18.29h0a4.56,4.56,0,0,0-.42,1.45.82.82,0,0,0,.3.83,11.43,11.43,0,0,0,2.42.11,4.76,4.76,0,0,0-.45.24,3.22,3.22,0,0,0-.63.54l-.1.11h0a1.87,1.87,0,0,0-.2.29c0,.07-.07.15-.11.22l0,.09c0,.1-.07.2-.1.3v0c0,.11,0,.22-.07.33h0a4.51,4.51,0,0,0,0,1.51.84.84,0,0,0,.54.69,11.39,11.39,0,0,0,2.34-.64,3.18,3.18,0,0,0-.84,1.21h0a1.62,1.62,0,0,0-.1.34c0,.09,0,.17,0,.25s0,.06,0,.1a1.71,1.71,0,0,0,0,.32h0c0,.07,0,.13,0,.19-2,2.13-4.5,5.44-5.11,9.18l2.62-.34h.14c1.18-.15,2.41-.28,3-.31h.18v0l0,0v0c.22.51,1.57,3.71,3.11,5.16a62,62,0,0,1,3.09-6h0c.29-.49.6-1,.91-1.47l0,0,.45.24a.84.84,0,0,0,.88,0,11.33,11.33,0,0,0,.85-2.27,3.21,3.21,0,0,0,.48,1.39,3.15,3.15,0,0,0,.22.29l.18.17.07.06.26.2h0l.3.17h0a4.32,4.32,0,0,0,1.45.42.84.84,0,0,0,.83-.29,11.54,11.54,0,0,0,.11-2.42c0,.05,0,.11.08.16a3.07,3.07,0,0,0,.81,1,2.61,2.61,0,0,0,.3.2l.09,0a57.83,57.83,0,0,1,4.45,8.1,18,18,0,0,0,3.11-5.16v-.08h.18c.59,0,1.83.16,3,.31Z" transform="translate(-123.18 -115.08)" style="opacity:0.55;mix-blend-mode:overlay;fill:url(#a61fd62a-b2f4-4cfe-afb8-b5cc824df7dd)"/></g></g></svg>