<svg xmlns="http://www.w3.org/2000/svg" viewBox="0 0 60.55 54.52"><defs><style>.cls-1{isolation:isolate;}.cls-2,.cls-4{fill:#d6e6e6;}.cls-3{fill:#c5d1d0;}.cls-10,.cls-3{opacity:0.5;}.cls-10,.cls-12,.cls-13,.cls-14,.cls-15,.cls-18,.cls-19,.cls-20,.cls-21,.cls-3,.cls-4,.cls-5,.cls-6,.cls-9{mix-blend-mode:multiply;}.cls-5{fill:#b9c7c6;}.cls-12,.cls-15,.cls-17,.cls-5,.cls-6{opacity:0.3;}.cls-6{fill:#c5c7c7;}.cls-7{fill:#fff;}.cls-8{fill:#e7f6f5;}.cls-19,.cls-21,.cls-9{fill:#68a99a;}.cls-9{opacity:0.4;}.cls-10,.cls-11,.cls-12,.cls-13{fill:#efefef;}.cls-13,.cls-18,.cls-20{opacity:0.7;}.cls-14,.cls-15{fill:#3c6042;}.cls-14{opacity:0.6;}.cls-16,.cls-17{fill:#e2e2e2;}.cls-18{fill:#bae2de;}.cls-20{fill:#15776b;}.cls-21{opacity:0.2;}</style></defs><title>medal8</title><g class="cls-1"><g id="l1"><path class="cls-2" d="M250.13,366.68c0,14-12,25.28-26.73,25.28s-26.73-11.32-26.73-25.28,12-25.29,26.73-25.29S250.13,352.71,250.13,366.68Z" transform="translate(-191.9 -341.39)"/><path class="cls-3" d="M232.64,344.06c2.1,1.81,1.26,4.66,2.92,6.66,2.32,2.8,2.18,6.29,1.92,9.82A20.42,20.42,0,0,1,225.74,378a19.5,19.5,0,0,1-7.9,1.46c-2.78,0-4.86.37-7.33-1.1a23.87,23.87,0,0,1-5-3.56c-.72-.78-1.31-3.33-2.5-3.33-1.2,5.75,2.52,11.75,7.4,14.79,4.45,2.78,9.59,2.92,14.71,2.87a26.29,26.29,0,0,0,15.21-5.52c2-1.65,2.85-4.28,4.13-6.44a18.55,18.55,0,0,0,2.67-7.06c.53-3.91,1-7.73-.26-11.56a24.72,24.72,0,0,0-4.48-8.23,23.7,23.7,0,0,0-5.32-4.66,15.92,15.92,0,0,0-2.46-1.41c-.75-.32-1.79-.25-2.31-.87Z" transform="translate(-191.9 -341.39)"/><path class="cls-4" d="M209.41,347.65a21.21,21.21,0,0,0-4.95,4.92c-1.61,2.2-3.4,4.11-4.41,6.75a20.11,20.11,0,0,0-1.22,7.94,20.56,20.56,0,0,0,2.32,9c2.06,4.12,4.7,7.75,8.63,10.22a27.49,27.49,0,0,0,11.58,4.06A34.52,34.52,0,0,0,233,389.19a10.59,10.59,0,0,0,4.19-2.49c1.26-1.11,2.66-1.79,3.9-3,3.34-3.19,5.15-7.21,6.3-11.57s1.95-8.12.56-12.42a22.62,22.62,0,0,0-2.55-4.78,29,29,0,0,0-2.76-4.44,24.44,24.44,0,0,0-9.73-6.18c-1.22-.46-4-1.42-5.27-1.11-2.8.68.71,4.54,1.28,5.76a11.56,11.56,0,0,1-.29,10.57c-1.57,3.17-3.48,6.88-6.94,8.41s-7.5-.48-10.31-2.67c-2.09-1.63-2.61-4.39-2.92-6.89a26.15,26.15,0,0,1,1.1-11Z" transform="translate(-191.9 -341.39)"/><path class="cls-5" d="M218.39,344.22a5.49,5.49,0,0,1,4.14-.11c1.49.74,1.09,2.44,2.29,3.22s3.06.27,4.4.7a11.32,11.32,0,0,1,4.34,2.51c5.68,5.32.76,14.38-3.49,18.85-5.4,5.68-15.39,5.49-20.43-.46-2.88-3.39-3-9.21-2.07-13.34.13-.58,1-2.67.49-3.25-.79-1-2.24,1-2.71,1.55a19,19,0,0,0-4.62,9.7c-.6,3.29-1,6.87.28,10a24.72,24.72,0,0,0,4.74,7.34,44.51,44.51,0,0,0,7.44,6.4A15.88,15.88,0,0,0,222,389.6c2.87,0,6.08,0,8.75-1.1,1.18-.49,2.12-1.35,3.32-1.77a9.41,9.41,0,0,0,3.37-1.63,27.89,27.89,0,0,0,5.87-7.11c3.11-5.22,3.26-12,2.32-17.86a21.1,21.1,0,0,0-8.55-13.91c-3.27-2.38-7.11-3.1-11.07-3.68a12.3,12.3,0,0,0-4.87-.12c-1.08.34-1.66,1.42-2.65,1.79,0-.22-.14-.5-.14-.71Z" transform="translate(-191.9 -341.39)"/><path class="cls-4" d="M245.07,367s0,.5-.07,1.45c0,.24,0,.51-.05.8s-.09.61-.15.95-.09.72-.18,1.1-.2.8-.3,1.24a21.36,21.36,0,0,1-2.6,5.91c-.35.53-.75,1.05-1.14,1.6s-.9,1-1.36,1.57-1.06,1-1.6,1.51-1.21.95-1.85,1.39a21.56,21.56,0,0,1-9.6,3.41c-.45.05-.91,0-1.37.07l-.7,0h-.72a22.83,22.83,0,0,1-2.78-.29A21.7,21.7,0,0,1,215,386a25.23,25.23,0,0,1-5-3.14,24.67,24.67,0,0,1-4.11-4.42,23.05,23.05,0,0,1-2.75-5.45,22.18,22.18,0,0,1-1.08-6.09,23.11,23.11,0,0,1,.81-6.13,22.7,22.7,0,0,1,2.67-5.6,23.63,23.63,0,0,1,4.18-4.52,23.91,23.91,0,0,1,5.18-3.13,22.18,22.18,0,0,1,5.67-1.57,21.16,21.16,0,0,1,2.85-.22h.39l.34,0,.68,0c.45,0,.88,0,1.34.1a21.88,21.88,0,0,1,9.63,3.49,21,21,0,0,1,8.55,12c.1.43.21.85.3,1.23s.12.76.18,1.1.1.66.14,1a7.61,7.61,0,0,1,.05.79c0,.95.07,1.47.07,1.47Zm-.15,0s0-.51-.08-1.46c0-.23,0-.5-.07-.78s-.09-.6-.15-.95-.11-.7-.21-1.08-.23-.78-.35-1.21c-.07-.2-.12-.43-.19-.64l-.27-.67c-.1-.22-.2-.45-.29-.69a5.62,5.62,0,0,0-.34-.7l-.78-1.46c-.33-.47-.66-1-1-1.47a20.62,20.62,0,0,0-6.07-5.44,22.11,22.11,0,0,0-4.23-1.94c-.39-.13-.76-.27-1.16-.38l-1.2-.29-.61-.14c-.21,0-.41-.07-.62-.09l-1.24-.18c-.41-.06-.88-.05-1.32-.08l-.68,0-.34,0-.29,0a22.25,22.25,0,0,0-7.94,1.63,22.51,22.51,0,0,0-4.9,2.83,23.27,23.27,0,0,0-4,4.17,21.58,21.58,0,0,0-2.68,5.21,19,19,0,0,0-.26,11.73,20.31,20.31,0,0,0,2.6,5.36,21.15,21.15,0,0,0,4.07,4.27,21.53,21.53,0,0,0,5,2.83c.44.19.9.31,1.34.46a10.85,10.85,0,0,0,1.35.38l1.35.3c.45.09.9.12,1.35.18a22.21,22.21,0,0,0,2.72.15h.31l.33,0,.66,0c.43,0,.87,0,1.29-.1a23.43,23.43,0,0,0,9.1-3.11,20.9,20.9,0,0,0,6.06-5.46l1-1.48c.28-.5.54-1,.79-1.45a4.19,4.19,0,0,0,.34-.71l.29-.69.26-.66c.08-.22.14-.44.2-.65.12-.43.24-.83.35-1.21s.14-.75.2-1.08.11-.66.16-.94,0-.56.06-.79c0-.95.08-1.46.08-1.46Z" transform="translate(-191.9 -341.39)"/><path class="cls-6" d="M228.27,347.29a4.6,4.6,0,0,1,2.52,1.31c1.27,1,1.13,1.74,1.84,3s2.42,1.48,3.58,2.25a9.23,9.23,0,0,1,2.85,3.92c3,6.27.4,13.76-4.35,18.53-3.9,3.91-9.73,5.77-15.2,6-4.16.17-9.19.31-12.29-2.92.54,2.57,3.75,4.67,5.85,5.93a16.9,16.9,0,0,0,5.71,2.36,18.28,18.28,0,0,0,11.43-1.32c2-.92,4-1.22,5.75-2.48a30.23,30.23,0,0,0,3.74-3.61,17.88,17.88,0,0,0,4.5-8.46,20.36,20.36,0,0,0-3-17.33c-1.8-2.44-3.31-4.74-6.29-5.89-1.28-.49-2.66-.63-3.91-1.07-.68-.24-1.15-.75-1.86-.81-.56-.05-1,.26-1.55.24Z" transform="translate(-191.9 -341.39)"/><path class="cls-4" d="M210.27,352.07c-2.12,2-3.54,4.24-3.53,7.16a5.94,5.94,0,0,1-.72,3,8.41,8.41,0,0,0-.74,4.15,19.9,19.9,0,0,0,2.28,8.82,17.74,17.74,0,0,0,3,3.95c1.13,1.33,1.55,2.37,3.37,2.63,1.19.18,2.23,0,3.31.6s1.45,1.16,2.52,1.31a15.77,15.77,0,0,0,7.05-.5c3.12-1.16,6.25-1.64,8.95-3.79a18.43,18.43,0,0,0,4.67-6.19,15.82,15.82,0,0,0,1-13.31c-.76-1.81-1.9-3.51-2.8-5.22-.68-1.32-2-2.73-2.18-4.17,1.47-.07,2.85,2.7,3.65,3.67a27.58,27.58,0,0,1,3.19,4.53c1.22,2.31,1.24,5.27,1,7.82-.42,4-1.35,8.22-3.65,11.53-1.35,1.92-2.94,4.5-5,5.74-1.37.81-3.35,1.11-4.86,1.66a24.93,24.93,0,0,1-9.37,1.22,22.59,22.59,0,0,1-9.73-2.63c-1.62-.89-3.07-1.43-4.28-2.95a23.36,23.36,0,0,1-2.37-4.48,21.52,21.52,0,0,1,1.79-22.31,11.88,11.88,0,0,1,2.53-2.88c.57-.36,1.53-.22,1.85-.94Z" transform="translate(-191.9 -341.39)"/><path class="cls-7" d="M212.7,343.82c-1.4,1.36-3.61,2-5.21,3.12a21.79,21.79,0,0,0-6.06,6.52c-2.69,4.56-4.57,9.84-3.79,15.15a37.53,37.53,0,0,0,1.84,7.28A16.26,16.26,0,0,0,202,380.3a17.34,17.34,0,0,0,2.83,3.25C203.65,382,203,380,202,378.21s-2.24-3.86-2.51-6c-.23-1.77-.68-3.58-.74-5.35s-.11-4.48.73-6.24c.31-.63.77-1.14,1-1.79s.44-1.44.69-2.15c.57-1.63,1.89-2.76,2.9-4.14a19.51,19.51,0,0,1,4.44-3.9,18,18,0,0,1,4.7-2.49c.78-.27,4-1.63,2-2.49a3.74,3.74,0,0,0-2.91.34Z" transform="translate(-191.9 -341.39)"/><path class="cls-8" d="M213.11,351c-.63,0-.86,1-1.13,1.45a8.51,8.51,0,0,0-1.37,3.11c-.33,2-.09,4.5,1.46,6a7.09,7.09,0,0,0,3,1.53c1.56.47,2.29,0,3.34-1.21.91-1,1.27-1.64,2.65-1.81a5.35,5.35,0,0,0,3.35-1.44c2.4-2.5,4-8.34-.23-9.93a11,11,0,0,0-8.23.77c-.84.46-2.61,1-3.14,1.76Z" transform="translate(-191.9 -341.39)"/><path class="cls-7" d="M215.62,350.43c-.83-.08-1.37,1.09-1.7,1.67-.66,1.15-1.52,2.63-.88,4,1.59,3.4,6.38-.17,7.37-2.19.89-1.82.78-3.51-1.38-4-1.14-.25-3.34.09-3.9,1.18Z" transform="translate(-191.9 -341.39)"/><path class="cls-9" d="M197.55,372.86a9.74,9.74,0,0,1,1.5-2.71,8.8,8.8,0,0,1,1.92,4,3.87,3.87,0,0,1,1.46-2.46c.21,1.37,2,2.25,2.81,3.25a10.24,10.24,0,0,1,1.47,3.22,4.31,4.31,0,0,1,.73-1.64c.34,1.1,1.87,1.3,2.75,2,1.33,1.06,1.83,2.72,3,3.82.09-1,1.05-1.68,1.54-2.53.32,1.1,1.92,1.76,2.58,2.69a23.88,23.88,0,0,1,1.8,3.13,4,4,0,0,1,2.63-.54,4.44,4.44,0,0,1,2.81,1.32c.29-.2.12-.4.31-.68a6.51,6.51,0,0,1,1.22-1.18,25.85,25.85,0,0,0,2.95-3c.2-.24.39-.84.62-1,.41-.3.1-.16.54.08a6.76,6.76,0,0,1,1.65,1.76c-.78-.9,1.58-2.57,2.18-3,1.25-.91,2.69-1.43,3.71-2.66,1.24-1.49,2.94-3.75,2.89-5.83a4.49,4.49,0,0,1,2.23,2.85c.37-.73,1.45-1.09,2-1.67a6,6,0,0,0,1-1.63c.59,3.88-2.13,8.32-5.12,10.59a75.25,75.25,0,0,1-13.42,8,10.19,10.19,0,0,1-6.51,1c-2.36-.47-4.4-2-6.27-3.43-1.08-.84-2.64-2.14-4-2.18a7.47,7.47,0,0,1-4.39-1.62c-2.11-1.7-3.3-4.31-5.51-5.89-.87-.62-2-1.2-2.44-2.24-.26-.61-.14-1.68-.65-2.11Z" transform="translate(-191.9 -341.39)"/><path class="cls-10" d="M197.87,373c-.86-.35.18-2.38.16-3a8.25,8.25,0,0,1,2.86,4.8c.16-.41.61-1.61,1.17-1.53s1.52,1.51,1.94,1.81c1.74,1.24,2.19,2.48,2.66,4.5.2-.53.56-1.16.83-1.71,2.14,1.78,5.07,2.68,6,5.58a3.54,3.54,0,0,1,1.32-1.75c.46.92,1.87,1.49,2.58,2.24a16.17,16.17,0,0,1,2.17,2.73c.75-.1,5.05-.71,3.78,1.2a13.59,13.59,0,0,1-2.3,2c-.84.7-1.72,1.38-2.76.76a17.13,17.13,0,0,1-2.64-1.95,9,9,0,0,0-2.76-1.66c-.87-.39-1.44-1.17-2.27-1.62s-1.71-.29-2.54-.6c-1.15-.42-2.15-2.07-2.87-3.06a33.27,33.27,0,0,0-2.73-3.42,8.07,8.07,0,0,0-1.5-1.42,11,11,0,0,1-1.3-.62c-.74-.57-2.1-2.57-1.94-3.59Z" transform="translate(-191.9 -341.39)"/><path class="cls-11" d="M247.42,375.86c.23-.12.29-.88.34-1.14a5.51,5.51,0,0,1,.78-1.92,3.69,3.69,0,0,1,2.21-1.34,3.15,3.15,0,0,0,1.11-.66,5,5,0,0,1-2.19,5.21,4.32,4.32,0,0,1-1.13.43,2.11,2.11,0,0,1-.71.11c-.32-.05-.35-.34-.32-.68,0,0,0,0,0,0Z" transform="translate(-191.9 -341.39)"/><path class="cls-12" d="M251.8,370.92c-.2.86-1,1.45-1.51,2.08-.31.37-.53.83-.82,1.23s-.54.68-.78,1-.52,1-.84,1.13-.45-.4-.32-.69c.23-.52.29-1.09.47-1.64a4.23,4.23,0,0,1,.4-1,3.89,3.89,0,0,1,.72-.74c0,.23-.25.45-.35.66a3.61,3.61,0,0,0-.33.94c0,.16-.14.59.09.56s.24-.3.28-.37.29-.43.45-.64a18,18,0,0,1,1.84-1.53c.29-.28.77-.6.8-1.07a.51.51,0,0,0-.13.09Z" transform="translate(-191.9 -341.39)"/><path class="cls-12" d="M251.75,371c-.13.55-.71,1-1.05,1.36a18.61,18.61,0,0,0-1.34,1.58c-.2.27-.43.5-.63.76s-.24.44-.43.54c-.4.19-.26-.53-.26-.8-.28,0-.42,1.18-.46,1.44s0,.46.19.47.66-.7.83-.93c.61-.8,1.15-1.69,1.79-2.45a10.59,10.59,0,0,0,1.13-1.64c.06-.1.19-.32.15-.38Z" transform="translate(-191.9 -341.39)"/><path class="cls-12" d="M251.73,371c-.21.2-.4.54-.6.77l-.79,1c-.25.33-.5.66-.74,1s-.44.5-.47.73a2,2,0,0,0,.92-.47,5,5,0,0,0,1-.94,3,3,0,0,0,.8-1.78,10.9,10.9,0,0,1-.06,1.51,4.6,4.6,0,0,1-.52,1.32,5.82,5.82,0,0,1-1.32,1.47,4.2,4.2,0,0,1-1.26.69c-.28.09-1.18.33-.82-.32a15.66,15.66,0,0,1,1.74-2.42c.36-.45.76-.83,1.12-1.29.13-.17.83-.95.77-1.12Z" transform="translate(-191.9 -341.39)"/><path class="cls-13" d="M251.75,371.06a24.52,24.52,0,0,0-1.84,2.31c-.32.43-.65.84-.95,1.27a3.71,3.71,0,0,1-.62.86c-.46.32-.17-1-.55-.23-.15.28-.44.92-.13,1.16s1-.13,1.35-.27a5.33,5.33,0,0,0,.83-.41c.22-.15.64-.4.75-.67-.24,0-.62.28-.85.38s-.72.4-.86.21.75-1.3.89-1.51c.37-.56.77-1.11,1.09-1.71a8.93,8.93,0,0,1,.48-.77,2.34,2.34,0,0,0,.43-.66l-.08,0Z" transform="translate(-191.9 -341.39)"/><path class="cls-7" d="M251.69,371a6.56,6.56,0,0,1-1.13.62,4.63,4.63,0,0,0-1.15.49,1.17,1.17,0,0,0-.49.6c-.08.33.13.39.36.28s.49-.4.75-.56a4.47,4.47,0,0,0,.76-.45c.14-.11,1-.92.88-1Z" transform="translate(-191.9 -341.39)"/><path class="cls-14" d="M249.45,374.08a7.21,7.21,0,0,0-.91,1.24,1.67,1.67,0,0,1-.41.5c-.31.19-.17-.19-.33-.35s-.2.23-.22.4,0,.4.11.5.77,0,1-.08a2.25,2.25,0,0,0,1.11-.53c-.44,0-.92.35-1.38.28-.05-.32.33-.84.47-1.11s.3-.51.46-.77c0,0,0,0-.05,0Z" transform="translate(-191.9 -341.39)"/><path class="cls-11" d="M244.31,378.38c.18-.24-.15-1.07-.22-1.37a6.19,6.19,0,0,1-.18-2.41,4.16,4.16,0,0,1,1.58-2.47,3.26,3.26,0,0,0,.81-1.22,5.83,5.83,0,0,1,.4,6.55,4.22,4.22,0,0,1-.94,1,2.27,2.27,0,0,1-.68.46c-.36.1-.53-.19-.68-.56,0,0,0,0,0,0Z" transform="translate(-191.9 -341.39)"/><path class="cls-12" d="M246.29,371.06c.25,1-.27,2-.48,2.92-.12.54-.14,1.13-.22,1.69s-.22,1-.27,1.48,0,1.31-.28,1.6-.67-.2-.69-.57a19.69,19.69,0,0,0-.35-2,5.13,5.13,0,0,1-.12-1.29,4.28,4.28,0,0,1,.37-1.13,3.12,3.12,0,0,1,0,.86,4.64,4.64,0,0,0,.13,1.16c.06.18.17.69.38.54s.1-.42.11-.52c0-.3.08-.6.14-.89a19.21,19.21,0,0,1,1.11-2.5c.15-.43.49-1,.28-1.51a.75.75,0,0,0-.09.15Z" transform="translate(-191.9 -341.39)"/><path class="cls-12" d="M246.27,371.13a4.14,4.14,0,0,1-.39,1.94c-.22.77-.43,1.51-.58,2.32-.07.37-.19.72-.25,1.1a1.7,1.7,0,0,1-.17.76c-.32.39-.53-.43-.68-.71-.27.15.17,1.45.27,1.75s.18.5.43.39.32-1.05.38-1.38c.22-1.13.31-2.33.59-3.44a12.17,12.17,0,0,0,.33-2.28c0-.13,0-.43,0-.47Z" transform="translate(-191.9 -341.39)"/><path class="cls-12" d="M246.26,371.16a9.31,9.31,0,0,0-.22,1.1c-.12.48-.21,1-.3,1.45s-.18.94-.25,1.42a2.58,2.58,0,0,0-.11,1c.29-.12.55-.64.71-.93a6.58,6.58,0,0,0,.57-1.48,3.62,3.62,0,0,0-.09-2.27,11.69,11.69,0,0,1,.71,1.62,5.08,5.08,0,0,1,.13,1.64,6.58,6.58,0,0,1-.6,2.19,4.6,4.6,0,0,1-.95,1.33c-.23.23-1,.92-1,.06a19.15,19.15,0,0,1,.56-3.4c.14-.63.37-1.24.5-1.89.05-.25.37-1.4.22-1.56Z" transform="translate(-191.9 -341.39)"/><path class="cls-13" d="M246.32,371.23a25.75,25.75,0,0,0-.72,3.32c-.1.61-.24,1.2-.33,1.8a4.2,4.2,0,0,1-.2,1.21c-.31.56-.67-1-.69,0,0,.37,0,1.18.47,1.29s1-.63,1.24-.94a5.16,5.16,0,0,0,.66-.82,2.36,2.36,0,0,0,.42-1.07c-.27.07-.5.58-.68.8s-.53.77-.77.64.11-1.74.15-2c.09-.78.22-1.55.24-2.33,0-.35.06-.7.1-1a2.56,2.56,0,0,0,.11-.91l-.07.08Z" transform="translate(-191.9 -341.39)"/><path class="cls-7" d="M246.22,371.18a8.3,8.3,0,0,1-.85,1.19,4.81,4.81,0,0,0-.93,1.07,1.31,1.31,0,0,0-.2.87c.08.38.33.36.51.12s.3-.66.5-.95a7.16,7.16,0,0,0,.55-.84c.08-.18.51-1.42.39-1.48Z" transform="translate(-191.9 -341.39)"/><path class="cls-14" d="M245.49,375.53a8,8,0,0,0-.3,1.74,2.11,2.11,0,0,1-.17.72c-.22.35-.27-.12-.52-.21s-.09.34,0,.53.16.44.37.48.78-.38,1-.58a2.37,2.37,0,0,0,.85-1.09c-.44.22-.76.82-1.27,1-.21-.31-.08-1.05-.08-1.39s0-.69.08-1c0,.05,0,0,0,.06Z" transform="translate(-191.9 -341.39)"/><path class="cls-11" d="M244.83,378.58c.3,0,.88-.67,1.1-.88a6.84,6.84,0,0,1,2-1.37,4.31,4.31,0,0,1,3,.09,3.54,3.54,0,0,0,1.49.06,6.14,6.14,0,0,1-5.6,3.65,4.34,4.34,0,0,1-1.35-.29,2.22,2.22,0,0,1-.75-.34c-.27-.25-.1-.55.16-.86.05,0,0,0,0,.05Z" transform="translate(-191.9 -341.39)"/><path class="cls-12" d="M252.31,376.55a6.65,6.65,0,0,1-2.83,1.07c-.55.17-1.07.46-1.61.67s-1,.31-1.44.52-1.17.65-1.56.57-.15-.66.16-.86c.57-.36,1-.87,1.56-1.29a6,6,0,0,1,1.08-.76,5.51,5.51,0,0,1,1.19-.26,2.9,2.9,0,0,1-.78.41,5,5,0,0,0-1,.7c-.14.14-.54.49-.3.6.09,0,.42-.13.52-.17.28-.12.57-.24.86-.34a19.6,19.6,0,0,1,2.76-.32c.46-.09,1.13-.1,1.48-.54h-.14Z" transform="translate(-191.9 -341.39)"/><path class="cls-12" d="M252.24,376.57a4.48,4.48,0,0,1-1.92.65,23,23,0,0,0-2.34.69c-.36.13-.73.2-1.1.34a1.91,1.91,0,0,1-.77.24c-.49-.07.12-.66.3-.93-.27-.16-1.2.87-1.41,1.11s-.36.41-.14.56,1.09-.26,1.41-.38c1.11-.38,2.23-.91,3.34-1.23a13.19,13.19,0,0,0,2.19-.88c.12-.06.4-.19.4-.27Z" transform="translate(-191.9 -341.39)"/><path class="cls-12" d="M252.2,376.58a10.8,10.8,0,0,0-1.09.37c-.47.14-1,.31-1.43.48s-.92.32-1.38.51a2.5,2.5,0,0,0-.93.4,2.3,2.3,0,0,0,1.18.13,7,7,0,0,0,1.6-.27,3.71,3.71,0,0,0,2-1.23A11.65,11.65,0,0,1,251,378.4a5.58,5.58,0,0,1-1.39.94,7.31,7.31,0,0,1-2.24.6,4.8,4.8,0,0,1-1.65-.13c-.32-.08-1.33-.41-.56-.82a19.93,19.93,0,0,1,3.29-1.24c.64-.21,1.28-.33,1.92-.54.25-.09,1.43-.4,1.5-.61Z" transform="translate(-191.9 -341.39)"/><path class="cls-13" d="M252.17,376.66a28.88,28.88,0,0,0-3.3,1.08c-.59.21-1.18.4-1.76.63a4.58,4.58,0,0,1-1.18.44c-.64,0,.52-1.06-.35-.57-.33.18-1,.61-.9,1s1,.5,1.45.58a4.57,4.57,0,0,0,1.05.13,2.42,2.42,0,0,0,1.16-.18c-.2-.19-.77-.13-1.05-.16s-.95-.07-1-.33,1.6-.79,1.87-.9c.73-.31,1.48-.59,2.18-1,.32-.17.65-.3,1-.44a2.89,2.89,0,0,0,.86-.38h-.09Z" transform="translate(-191.9 -341.39)"/><path class="cls-7" d="M252.16,376.55a8,8,0,0,1-1.47-.11,5.56,5.56,0,0,0-1.42-.25,1.37,1.37,0,0,0-.87.28c-.29.26-.15.45.14.49s.74-.08,1.1-.07a5.77,5.77,0,0,0,1,.05,5.63,5.63,0,0,0,1.5-.42Z" transform="translate(-191.9 -341.39)"/><path class="cls-14" d="M248,378.14a8,8,0,0,0-1.69.62,2,2,0,0,1-.72.22c-.43,0,0-.28-.08-.54s-.34.1-.48.25-.31.36-.24.55.73.47,1,.57a2.54,2.54,0,0,0,1.4.17c-.42-.26-1.11-.23-1.49-.59.17-.34.89-.6,1.2-.77s.62-.31.95-.46c0,0,0,0-.06,0Z" transform="translate(-191.9 -341.39)"/><path class="cls-11" d="M239.63,385c.25-.47-.52-1.58-.73-2a8.52,8.52,0,0,1-.88-3.64c0-2,1-3.18,2.16-4.7a6.3,6.3,0,0,0,1.11-2.34,8.09,8.09,0,0,1,2.27,10,9,9,0,0,1-1.41,2.05,4.94,4.94,0,0,1-1.06,1.08c-.6.34-1,0-1.31-.51,0-.07.05,0,.08,0Z" transform="translate(-191.9 -341.39)"/><path class="cls-12" d="M241.32,372.55c.66,1.44,0,3.26-.15,4.81-.09.9,0,1.82,0,2.74s-.15,1.63-.12,2.44.28,2.06-.11,2.65c-.51.8-1.19,0-1.32-.53a26.77,26.77,0,0,0-1.08-2.85,7.3,7.3,0,0,1-.52-1.95,8.2,8.2,0,0,1,.37-1.94c.21.34.09.94.15,1.34a5.77,5.77,0,0,0,.52,1.73c.13.26.44,1,.79.64.13-.12.06-.7.06-.86,0-.49,0-1,0-1.46.11-1.55,1-3,1.34-4.49.16-.74.61-1.81.11-2.49a1.16,1.16,0,0,0-.1.28Z" transform="translate(-191.9 -341.39)"/><path class="cls-12" d="M241.3,372.67c.4.92-.08,2.28-.22,3.23a36.55,36.55,0,0,0-.45,3.91c0,.62-.16,1.23-.17,1.85a2.56,2.56,0,0,1-.13,1.29c-.44.76-1-.39-1.33-.76-.44.38.63,2.17.87,2.58s.45.68.85.38.3-1.8.33-2.34c.11-1.88,0-3.81.21-5.67a18.5,18.5,0,0,0,0-3.72c0-.21,0-.69-.17-.72Z" transform="translate(-191.9 -341.39)"/><path class="cls-12" d="M241.29,372.73a15.47,15.47,0,0,0-.13,1.84c-.08.8-.13,1.61-.16,2.41s-.1,1.55-.11,2.33c0,.42-.18,1.25.05,1.6a4.5,4.5,0,0,0,1-1.83,10.62,10.62,0,0,0,.63-2.6,4.81,4.81,0,0,0-.7-3.48,13.38,13.38,0,0,1,1.62,2.14,6.68,6.68,0,0,1,.63,2.48,10.71,10.71,0,0,1-.52,3.72,9.3,9.3,0,0,1-1.33,2.58c-.36.49-1.59,2-1.74.64a28.26,28.26,0,0,1,.17-5.59c.09-1.07.33-2.13.4-3.2,0-.42.31-2.38,0-2.55Z" transform="translate(-191.9 -341.39)"/><path class="cls-13" d="M241.4,372.8a43.26,43.26,0,0,0-.45,5.56c0,1-.13,2-.14,3a6.69,6.69,0,0,1-.06,2c-.41,1-1.4-1.14-1.19.39.08.57.32,1.82,1.12,1.74s1.52-1.48,1.94-2.12a10.48,10.48,0,0,0,.92-1.63,4.12,4.12,0,0,0,.49-1.88c-.45.25-.73,1.17-1,1.61s-.74,1.48-1.19,1.4-.22-2.76-.23-3.22a36,36,0,0,0-.12-3.75,15.55,15.55,0,0,1-.07-1.67,4,4,0,0,0,0-1.47,1.19,1.19,0,0,0-.09.15Z" transform="translate(-191.9 -341.39)"/><path class="cls-7" d="M241.22,372.78a15.2,15.2,0,0,1-1.19,2.3,10.4,10.4,0,0,0-1.36,2.17,2,2,0,0,0-.13,1.46c.23.55.64.38.9-.08s.37-1.19.64-1.74a11.17,11.17,0,0,0,.75-1.61c.1-.32.55-2.49.33-2.51Z" transform="translate(-191.9 -341.39)"/><path class="cls-14" d="M241,379.93a11.93,11.93,0,0,0-.12,2.87,3.28,3.28,0,0,1-.11,1.21c-.31.67-.5,0-1-.05s-.07.58.09.83.38.62.75.56c.63-.11,1.28-1,1.63-1.45a4.89,4.89,0,0,0,1.23-2.16c-.72.59-1.13,1.68-2,2.17-.45-.37-.4-1.58-.47-2.12a15.07,15.07,0,0,1-.11-1.65c.05.06,0,.05,0,.11Z" transform="translate(-191.9 -341.39)"/><path class="cls-15" d="M238.74,378.81c.53.16.6,1.16.71,1.59a8.9,8.9,0,0,1,.26,2.11c-.08-1.56,1.58-3.2,3-3.8,1.12-.48,2.79-.23,3.43-1.51,0,.32.07.68,0,1a3.83,3.83,0,0,1-.38,1.51,10.11,10.11,0,0,1-2.94,3,9.26,9.26,0,0,1-2.91,1.46c-.49.14-1,.2-1.49.34s-1,.55-1.44.33c.23-.57.69-1.08.9-1.69a13.82,13.82,0,0,0,.47-2c.13-.86-.08-1.91.52-2.63Z" transform="translate(-191.9 -341.39)"/><path class="cls-11" d="M239.49,383c.41,0,1.11-.92,1.39-1.22a8.19,8.19,0,0,1,2.62-1.89,6.07,6.07,0,0,1,4.12,0,5.1,5.1,0,0,0,2.06,0,7.7,7.7,0,0,1-7.2,5.06,6.39,6.39,0,0,1-1.9-.35,3.18,3.18,0,0,1-1.08-.43c-.4-.33-.21-.73.1-1.15.06,0,0,0,0,0Z" transform="translate(-191.9 -341.39)"/><path class="cls-12" d="M249.5,380c-1,1-2.52,1.11-3.75,1.52-.72.24-1.4.65-2.12.94s-1.29.45-1.92.74-1.52.9-2.07.82c-.73-.12-.29-.89.11-1.17.73-.5,1.28-1.19,2-1.77a7.36,7.36,0,0,1,1.39-1,6.7,6.7,0,0,1,1.59-.38c-.22.27-.71.39-1,.57a5.72,5.72,0,0,0-1.22,1c-.17.18-.67.67-.32.81.13.05.56-.19.68-.25.38-.17.75-.34,1.14-.48,1.22-.44,2.51-.24,3.77-.52.61-.13,1.54-.16,2-.76a1,1,0,0,0-.24,0Z" transform="translate(-191.9 -341.39)"/><path class="cls-12" d="M249.41,380a5.87,5.87,0,0,1-2.55.93,32.41,32.41,0,0,0-3.13,1c-.49.19-1,.3-1.47.5a2.53,2.53,0,0,1-1,.35c-.7-.08.06-.9.28-1.26-.39-.2-1.54,1.21-1.8,1.53s-.42.56-.1.76,1.46-.39,1.88-.55c1.48-.55,2.95-1.3,4.44-1.76a17.37,17.37,0,0,0,2.88-1.24c.16-.09.52-.27.51-.38Z" transform="translate(-191.9 -341.39)"/><path class="cls-12" d="M249.36,380.05a14.9,14.9,0,0,0-1.45.52c-.64.21-1.28.45-1.91.69s-1.22.46-1.83.72c-.32.14-1,.29-1.22.57a3.21,3.21,0,0,0,1.64.14,9.68,9.68,0,0,0,2.16-.41,4.67,4.67,0,0,0,2.53-1.7,13,13,0,0,1-1.29,1.93,6.31,6.31,0,0,1-1.78,1.31,9.21,9.21,0,0,1-3,.87,7,7,0,0,1-2.28-.11c-.47-.1-1.9-.51-.89-1.09a27.18,27.18,0,0,1,4.35-1.77c.86-.29,1.73-.47,2.57-.77.33-.13,1.91-.58,2-.86Z" transform="translate(-191.9 -341.39)"/><path class="cls-13" d="M249.32,380.16a37.66,37.66,0,0,0-4.4,1.54c-.77.31-1.56.57-2.33.9a5.81,5.81,0,0,1-1.56.63c-.88,0,.57-1.43-.56-.76-.43.26-1.34.86-1.1,1.43s1.49.64,2.08.73a7.18,7.18,0,0,0,1.47.14,3.39,3.39,0,0,0,1.56-.27c-.29-.26-1.07-.15-1.47-.2s-1.31-.05-1.35-.41,2.09-1.1,2.44-1.26c1-.44,2-.84,2.87-1.37.41-.23.85-.42,1.28-.61a3.78,3.78,0,0,0,1.13-.53l-.14,0Z" transform="translate(-191.9 -341.39)"/><path class="cls-7" d="M249.3,380a10.85,10.85,0,0,1-2.05-.11,8.09,8.09,0,0,0-2-.28,1.84,1.84,0,0,0-1.16.4c-.37.36-.15.61.27.65s1-.13,1.49-.12a8.29,8.29,0,0,0,1.41,0c.27,0,2-.43,2-.61Z" transform="translate(-191.9 -341.39)"/><path class="cls-14" d="M243.72,382.26a11,11,0,0,0-2.25.89,2.66,2.66,0,0,1-1,.32c-.59,0-.08-.38-.18-.72s-.46.14-.62.35-.39.49-.26.74c.22.44,1.07.62,1.49.73a3.65,3.65,0,0,0,1.94.19c-.61-.34-1.55-.28-2.12-.75.18-.45,1.13-.83,1.53-1.07s.82-.43,1.25-.64c0,.06,0,0-.09,0Z" transform="translate(-191.9 -341.39)"/><path class="cls-11" d="M232.65,386.91c.5.11,1.38-.88,1.73-1.17a8.59,8.59,0,0,1,3.24-1.75c1.86-.47,3.26.11,5,.73a6.44,6.44,0,0,0,2.48.39,8.23,8.23,0,0,1-8.89,4.65,8.69,8.69,0,0,1-2.28-.74,4.74,4.74,0,0,1-1.28-.67c-.47-.46-.23-.89.17-1.33.07,0,0,.05,0,.07Z" transform="translate(-191.9 -341.39)"/><path class="cls-12" d="M244.86,385.2c-1.21,1-3.09.86-4.59,1.12-.89.16-1.72.51-2.6.73s-1.58.3-2.34.54-1.88.79-2.53.59c-.88-.26-.32-1.07.18-1.33a26.89,26.89,0,0,0,2.44-1.72,7.15,7.15,0,0,1,1.72-1,7.75,7.75,0,0,1,1.93-.17c-.27.27-.87.33-1.23.49a5.61,5.61,0,0,0-1.52.92c-.21.18-.83.65-.42.88.15.08.69-.13.84-.17.47-.13.92-.27,1.39-.36,1.49-.32,3,.14,4.57,0,.74-.06,1.86.07,2.39-.55a.93.93,0,0,0-.29,0Z" transform="translate(-191.9 -341.39)"/><path class="cls-12" d="M244.74,385.21c-.78.61-2.18.52-3.12.64a38.25,38.25,0,0,0-3.81.62c-.59.14-1.2.17-1.79.32a2.75,2.75,0,0,1-1.25.23c-.83-.2.12-1,.4-1.41-.47-.3-1.91,1.14-2.24,1.47s-.53.57-.15.86,1.78-.2,2.29-.31c1.81-.39,3.6-1,5.42-1.29a18.68,18.68,0,0,0,3.54-.95c.19-.06.63-.22.63-.34Z" transform="translate(-191.9 -341.39)"/><path class="cls-12" d="M244.68,385.22a16.84,16.84,0,0,0-1.77.36c-.78.14-1.56.3-2.33.48s-1.49.32-2.23.52c-.4.1-1.23.16-1.51.46a4.52,4.52,0,0,0,2,.43,11,11,0,0,0,2.62-.11,4.86,4.86,0,0,0,3.12-1.54,13.18,13.18,0,0,1-1.63,2,6.86,6.86,0,0,1-2.2,1.21,11.26,11.26,0,0,1-3.65.5,9.25,9.25,0,0,1-2.76-.53c-.55-.19-2.27-.91-1-1.4a28.62,28.62,0,0,1,5.33-1.31c1-.2,2.1-.25,3.13-.47.41-.09,2.33-.34,2.42-.65Z" transform="translate(-191.9 -341.39)"/><path class="cls-13" d="M244.63,385.34a44.64,44.64,0,0,0-5.37,1c-.95.22-1.91.4-2.85.65a6.76,6.76,0,0,1-1.9.46c-1.07-.1.74-1.56-.66-1-.52.22-1.65.76-1.38,1.46s1.77,1,2.48,1.2a10.37,10.37,0,0,0,1.77.42,4,4,0,0,0,1.89-.06c-.34-.34-1.28-.35-1.76-.47-.32-.08-1.58-.28-1.62-.71s2.57-.92,3-1c1.18-.35,2.39-.64,3.52-1.09.51-.21,1.05-.35,1.57-.51a4.07,4.07,0,0,0,1.39-.41l-.17-.05Z" transform="translate(-191.9 -341.39)"/><path class="cls-7" d="M244.61,385.17a14.07,14.07,0,0,1-2.46-.48,10.7,10.7,0,0,0-2.39-.66,2.08,2.08,0,0,0-1.41.26c-.46.35-.2.68.29.8s1.22,0,1.81.12a9.84,9.84,0,0,0,1.7.26c.33,0,2.49-.15,2.46-.36Z" transform="translate(-191.9 -341.39)"/><path class="cls-14" d="M237.79,386.83a13.22,13.22,0,0,0-2.75.64,2.82,2.82,0,0,1-1.17.21c-.71-.1-.09-.44-.19-.86s-.56.08-.77.29-.48.5-.34.82c.25.54,1.26.89,1.76,1.1a5,5,0,0,0,2.35.55c-.73-.5-1.87-.59-2.54-1.22.24-.51,1.41-.78,1.9-1s1-.35,1.54-.53c-.05.07-.06,0-.12,0Z" transform="translate(-191.9 -341.39)"/><path class="cls-11" d="M231.4,389.06c.41-.35.13-1.67.1-2.14a8.53,8.53,0,0,1,.57-3.71c.78-1.79,2.17-2.57,3.78-3.55a6.49,6.49,0,0,0,1.92-1.76,8.09,8.09,0,0,1-1.7,10.09,8.8,8.8,0,0,1-2.07,1.38,5.55,5.55,0,0,1-1.39.61c-.69.09-.9-.37-1-1,.06-.06.06,0,.09,0Z" transform="translate(-191.9 -341.39)"/><path class="cls-12" d="M237.7,378.13c.07,1.58-1.23,3-2,4.41-.42.81-.66,1.71-1,2.55s-.76,1.46-1,2.23-.52,2-1.1,2.41c-.79.55-1.12-.42-1-1a25.72,25.72,0,0,0,.08-3.05,7.09,7.09,0,0,1,.26-2A7.73,7.73,0,0,1,233,382c0,.4-.28.91-.37,1.31a5.41,5.41,0,0,0-.19,1.79c0,.29,0,1.09.49.9.17-.07.32-.64.38-.79.19-.45.36-.9.58-1.34.68-1.4,2.06-2.37,2.94-3.66.43-.63,1.25-1.46,1.06-2.28a2.18,2.18,0,0,0-.21.22Z" transform="translate(-191.9 -341.39)"/><path class="cls-12" d="M237.64,378.23c0,1-.94,2.09-1.43,2.92a35.21,35.21,0,0,0-1.9,3.46c-.26.57-.62,1.08-.87,1.65-.17.39-.25.88-.59,1.15-.71.55-.8-.73-1-1.2-.55.19-.24,2.25-.17,2.72s.16.8.64.67,1-1.56,1.2-2.05c.81-1.71,1.43-3.53,2.34-5.18a18.15,18.15,0,0,0,1.44-3.44c.07-.2.22-.66.11-.73Z" transform="translate(-191.9 -341.39)"/><path class="cls-12" d="M237.61,378.29a17.1,17.1,0,0,0-.82,1.66c-.38.71-.73,1.44-1.07,2.17s-.67,1.4-1,2.13c-.16.39-.64,1.09-.57,1.5a4.33,4.33,0,0,0,1.63-1.32,11,11,0,0,0,1.58-2.19,4.83,4.83,0,0,0,.67-3.48,12.85,12.85,0,0,1,.69,2.59,6.61,6.61,0,0,1-.36,2.53,11,11,0,0,1-1.9,3.26,9.38,9.38,0,0,1-2.21,1.9c-.51.32-2.22,1.25-1.85-.06a28.83,28.83,0,0,1,2.27-5.12c.5-1,1.12-1.85,1.6-2.82.18-.37,1.18-2.09,1-2.36Z" transform="translate(-191.9 -341.39)"/><path class="cls-13" d="M237.69,378.4a44.85,44.85,0,0,0-2.54,5c-.41.91-.87,1.8-1.26,2.71a6.55,6.55,0,0,1-.81,1.83c-.77.79-.86-1.58-1.25-.08-.14.56-.4,1.8.37,2s2-.81,2.6-1.25a9.89,9.89,0,0,0,1.48-1.17c.38-.38,1.09-1.05,1.17-1.56-.52.06-1.12.82-1.53,1.13s-1.25,1.1-1.63.86.84-2.65,1-3.07a35.74,35.74,0,0,0,1.31-3.53c.15-.53.37-1.06.57-1.57a4.47,4.47,0,0,0,.53-1.39.88.88,0,0,0-.15.12Z" transform="translate(-191.9 -341.39)"/><path class="cls-7" d="M237.52,378.31a15.25,15.25,0,0,1-2,1.69,11.12,11.12,0,0,0-2.09,1.51,2.06,2.06,0,0,0-.67,1.3c0,.6.45.6.87.27s.79-1,1.25-1.39a11.41,11.41,0,0,0,1.3-1.2c.22-.27,1.46-2.11,1.26-2.21Z" transform="translate(-191.9 -341.39)"/><path class="cls-14" d="M234.6,384.86a12,12,0,0,0-1.2,2.62,3,3,0,0,1-.56,1.07c-.54.52-.45-.21-.87-.39s-.28.51-.23.81.12.7.48.78c.62.15,1.57-.45,2.06-.73a4.89,4.89,0,0,0,2-1.55c-.89.28-1.69,1.14-2.66,1.28-.27-.5.24-1.61.37-2.14s.34-1,.52-1.58c0,.08,0,.05-.07.1Z" transform="translate(-191.9 -341.39)"/><path class="cls-11" d="M226.7,390.33c.46.24,1.58-.47,2-.65a8.67,8.67,0,0,1,3.61-.8c1.92.06,3.11,1,4.57,2.05a6.11,6.11,0,0,0,2.27,1.05,8.34,8.34,0,0,1-9.88,2,8.49,8.49,0,0,1-2-1.32,4.94,4.94,0,0,1-1-1c-.32-.57,0-.91.54-1.23.07,0,0,.06,0,.08Z" transform="translate(-191.9 -341.39)"/><path class="cls-12" d="M238.91,392c-1.43.61-3.21,0-4.72-.17-.9-.09-1.8,0-2.71,0s-1.6-.14-2.4-.12-2,.24-2.6-.13c-.77-.48,0-1.11.56-1.22,1-.2,1.86-.69,2.84-1a7.56,7.56,0,0,1,1.93-.47,7.27,7.27,0,0,1,1.9.37,4.77,4.77,0,0,1-1.33.13,5.93,5.93,0,0,0-1.71.46c-.26.13-1,.41-.66.74.12.11.69.06.85.06.49,0,1,0,1.44,0,1.52.11,2.88,1,4.38,1.29.72.15,1.76.57,2.45.12a1.83,1.83,0,0,0-.28-.1Z" transform="translate(-191.9 -341.39)"/><path class="cls-12" d="M238.8,392c-.92.37-2.24-.09-3.17-.23a38.27,38.27,0,0,0-3.84-.45c-.61,0-1.21-.16-1.82-.18a2.67,2.67,0,0,1-1.26-.12c-.75-.43.4-.95.78-1.24-.36-.42-2.15.57-2.56.79s-.69.41-.4.79,1.76.29,2.3.33c1.84.12,3.74,0,5.57.24a19.46,19.46,0,0,0,3.66.05c.2,0,.67,0,.71-.16Z" transform="translate(-191.9 -341.39)"/><path class="cls-12" d="M238.74,392a15.11,15.11,0,0,0-1.81-.13c-.78-.09-1.58-.13-2.37-.18s-1.52-.1-2.29-.11c-.42,0-1.22-.18-1.58,0a4.28,4.28,0,0,0,1.77,1,10.67,10.67,0,0,0,2.55.62,5,5,0,0,0,3.44-.63,13.35,13.35,0,0,1-2.15,1.5,6.89,6.89,0,0,1-2.45.56,11.06,11.06,0,0,1-3.66-.51,9.12,9.12,0,0,1-2.49-1.26c-.48-.34-1.92-1.5-.58-1.63a28,28,0,0,1,5.49.2c1,.09,2.08.33,3.14.4.41,0,2.33.31,2.51,0Z" transform="translate(-191.9 -341.39)"/><path class="cls-13" d="M238.66,392.09a43.24,43.24,0,0,0-5.46-.47c-1-.05-1.95-.14-2.92-.16a6.75,6.75,0,0,1-2-.07c-1-.39,1.16-1.3-.35-1.11-.57.07-1.8.28-1.75,1s1.42,1.44,2,1.82a9.38,9.38,0,0,0,1.58.88,4,4,0,0,0,1.83.47c-.23-.43-1.13-.68-1.56-.94s-1.43-.7-1.34-1.11,2.72-.19,3.17-.19c1.24,0,2.48,0,3.7-.09.54,0,1.1,0,1.64,0a4.2,4.2,0,0,0,1.46,0l-.15-.09Z" transform="translate(-191.9 -341.39)"/><path class="cls-7" d="M238.69,391.92a15.55,15.55,0,0,1-2.23-1.13,10.48,10.48,0,0,0-2.1-1.29,2,2,0,0,0-1.43-.13c-.55.21-.39.59,0,.84s1.16.35,1.7.61a12.8,12.8,0,0,0,1.55.72c.32.09,2.44.52,2.47.32Z" transform="translate(-191.9 -341.39)"/><path class="cls-14" d="M231.66,391.65a12.62,12.62,0,0,0-2.82-.13,3.38,3.38,0,0,1-1.19-.12c-.65-.28,0-.45.07-.88s-.56-.08-.82.07-.61.35-.56.7c.08.58.95,1.19,1.37,1.53A4.76,4.76,0,0,0,229.8,394c-.55-.67-1.62-1.06-2.08-1.86.38-.41,1.57-.36,2.1-.42s1.07-.07,1.63-.1c-.06,0,0,0-.1,0Z" transform="translate(-191.9 -341.39)"/><path class="cls-11" d="M225.91,393.63c.35-.4-.13-1.67-.22-2.12a8.33,8.33,0,0,1,0-3.75c.5-1.89,1.76-2.85,3.21-4.06a6.39,6.39,0,0,0,1.63-2,8.06,8.06,0,0,1-.16,10.22,8.87,8.87,0,0,1-1.85,1.66,5.06,5.06,0,0,1-1.29.8c-.66.19-.94-.23-1.15-.81,0-.06,0,0,.08,0Z" transform="translate(-191.9 -341.39)"/><path class="cls-12" d="M230.5,381.93c.3,1.55-.76,3.17-1.27,4.63-.31.87-.4,1.79-.64,2.67s-.52,1.56-.69,2.36-.22,2.05-.73,2.54c-.69.65-1.17-.25-1.16-.83a25.93,25.93,0,0,0-.37-3,7.6,7.6,0,0,1,0-2,7.33,7.33,0,0,1,.83-1.8c.11.38-.14.93-.17,1.34a5.71,5.71,0,0,0,.09,1.8c.06.28.19,1.07.61.81.16-.09.23-.67.27-.82.12-.48.22-.95.36-1.42.47-1.47,1.69-2.63,2.37-4,.33-.68,1-1.62.7-2.4a2.2,2.2,0,0,0-.17.25Z" transform="translate(-191.9 -341.39)"/><path class="cls-12" d="M230.46,382c.17,1-.62,2.19-1,3.09a34.71,34.71,0,0,0-1.36,3.69c-.18.59-.45,1.16-.61,1.76-.12.4-.12.9-.43,1.22-.61.64-.89-.61-1.11-1.06-.53.27.09,2.27.23,2.72s.27.77.74.57.71-1.68.87-2.2c.56-1.8.89-3.7,1.55-5.45a19,19,0,0,0,.91-3.62c0-.2.11-.68,0-.73Z" transform="translate(-191.9 -341.39)"/><path class="cls-12" d="M230.44,382.09a15.73,15.73,0,0,0-.56,1.76c-.27.75-.51,1.54-.74,2.3s-.46,1.49-.65,2.25c-.1.41-.47,1.17-.34,1.56.56-.22,1.09-1.06,1.42-1.54A10.53,10.53,0,0,0,230.8,386a4.82,4.82,0,0,0,.14-3.54A13.08,13.08,0,0,1,232,385a6.83,6.83,0,0,1,0,2.55,10.85,10.85,0,0,1-1.4,3.5,9.42,9.42,0,0,1-1.9,2.19c-.46.39-2,1.56-1.84.21a28.17,28.17,0,0,1,1.49-5.39c.34-1,.82-2,1.15-3,.13-.41.86-2.24.61-2.48Z" transform="translate(-191.9 -341.39)"/><path class="cls-13" d="M230.53,382.2a42.6,42.6,0,0,0-1.76,5.29c-.27.95-.6,1.9-.85,2.85a6.22,6.22,0,0,1-.53,1.92c-.63.9-1.09-1.43-1.24.1-.06.58-.13,1.85.67,2s1.83-1.08,2.38-1.6a9.27,9.27,0,0,0,1.29-1.37,4,4,0,0,0,.92-1.71c-.5.13-1,1-1.34,1.34-.24.23-1.07,1.25-1.49,1.08s.44-2.75.54-3.19a35.9,35.9,0,0,0,.77-3.68c.07-.54.21-1.09.33-1.63a4.46,4.46,0,0,0,.32-1.44.77.77,0,0,0-.13.12Z" transform="translate(-191.9 -341.39)"/><path class="cls-7" d="M230.36,382.13a14.93,14.93,0,0,1-1.71,1.95,10.7,10.7,0,0,0-1.83,1.79,2.07,2.07,0,0,0-.48,1.39c.1.59.54.52.9.13s.64-1.07,1-1.55a9.64,9.64,0,0,0,1.11-1.37c.18-.29,1.13-2.29.92-2.37Z" transform="translate(-191.9 -341.39)"/><path class="cls-14" d="M228.44,389a11.75,11.75,0,0,0-.79,2.77,3.3,3.3,0,0,1-.4,1.14c-.45.58-.47-.15-.91-.27s-.21.54-.12.83.23.68.6.71c.63.05,1.48-.67,1.92-1a4.93,4.93,0,0,0,1.71-1.81c-.83.4-1.49,1.37-2.43,1.64-.35-.46,0-1.63,0-2.17s.18-1.08.28-1.64c0,.08,0,.06-.05.1Z" transform="translate(-191.9 -341.39)"/><path class="cls-11" d="M197.82,376.7c-.27-.17-.17-1.06-.18-1.37a5.18,5.18,0,0,0-.55-2.32,4.24,4.24,0,0,0-2.55-1.79,3.49,3.49,0,0,1-1.29-.88,5.09,5.09,0,0,0,1.61,6.3,4.51,4.51,0,0,0,1.36.61,2.88,2.88,0,0,0,.9.21c.44,0,.54-.36.59-.76,0,0,0,0-.06,0Z" transform="translate(-191.9 -341.39)"/><path class="cls-12" d="M193.31,370.48c0,1,.93,1.8,1.46,2.59.3.47.5,1,.77,1.51s.55.85.77,1.3.43,1.23.82,1.42.67-.42.58-.78a17.27,17.27,0,0,1-.22-2,4.43,4.43,0,0,0-.27-1.26,4.24,4.24,0,0,0-.77-.93c0,.26.23.55.31.8a3.78,3.78,0,0,1,.21,1.13c0,.19,0,.71-.26.65-.1,0-.23-.37-.28-.46-.14-.27-.27-.53-.43-.79-.5-.81-1.41-1.26-2-2-.3-.34-.86-.77-.78-1.33a.81.81,0,0,1,.14.12Z" transform="translate(-191.9 -341.39)"/><path class="cls-12" d="M193.35,370.54c0,.65.7,1.22,1.05,1.69a18.45,18.45,0,0,1,1.37,2c.2.33.44.61.63.95s.21.54.43.66c.48.26.47-.58.53-.9.36,0,.28,1.42.26,1.74s-.06.53-.36.51-.69-.88-.86-1.17c-.6-1-1.09-2.09-1.74-3a11,11,0,0,1-1.09-2c0-.12-.17-.4-.1-.46Z" transform="translate(-191.9 -341.39)"/><path class="cls-12" d="M193.37,370.57a7.76,7.76,0,0,1,.6,1c.28.41.54.84.79,1.26s.49.82.72,1.25c.13.23.46.62.44.89a2.32,2.32,0,0,1-1.09-.63,6,6,0,0,1-1.1-1.2,3,3,0,0,1-.61-2.17,9.87,9.87,0,0,0-.28,1.77,4.25,4.25,0,0,0,.36,1.59,6,6,0,0,0,1.36,1.85,5.13,5.13,0,0,0,1.47.94c.34.13,1.46.51,1.15-.29a15.75,15.75,0,0,0-1.69-3c-.36-.56-.8-1.05-1.15-1.62-.13-.21-.85-1.19-.73-1.39Z" transform="translate(-191.9 -341.39)"/><path class="cls-13" d="M193.33,370.65a24.05,24.05,0,0,1,1.85,2.89c.3.53.64,1,.93,1.58a3.63,3.63,0,0,0,.61,1.07c.52.41.45-1.14.77-.22.12.34.35,1.11-.12,1.37s-1.27-.26-1.69-.46a6.35,6.35,0,0,1-1-.56c-.26-.2-.73-.53-.81-.85.32,0,.74.37,1,.52s.84.54,1.07.34-.68-1.6-.8-1.85a21.45,21.45,0,0,1-1-2.11,9,9,0,0,0-.44-.94c-.13-.27-.38-.52-.4-.83a.47.47,0,0,1,.09.06Z" transform="translate(-191.9 -341.39)"/><path class="cls-7" d="M193.43,370.57a7.74,7.74,0,0,0,1.32.83,5.61,5.61,0,0,1,1.38.7,1.18,1.18,0,0,1,.49.75c0,.39-.25.44-.53.29s-.54-.53-.85-.73a5.93,5.93,0,0,1-.88-.6c-.15-.14-1-1.18-.9-1.26Z" transform="translate(-191.9 -341.39)"/><path class="cls-14" d="M195.6,374.41a7.11,7.11,0,0,1,.89,1.54,1.92,1.92,0,0,0,.41.62c.37.26.26-.19.52-.37s.2.29.19.49,0,.47-.26.57c-.37.18-1-.08-1.32-.19a2.72,2.72,0,0,1-1.3-.74c.56.06,1.11.51,1.72.47.14-.36-.23-1-.35-1.34a9.72,9.72,0,0,0-.41-.95c0,.05,0,0,.05.05Z" transform="translate(-191.9 -341.39)"/><path class="cls-11" d="M199.87,379c-.14-.26.3-1,.42-1.32a6.24,6.24,0,0,0,.52-2.36,4.11,4.11,0,0,0-1.21-2.68,3.19,3.19,0,0,1-.62-1.33,5.84,5.84,0,0,0-1.34,6.43,4,4,0,0,0,.79,1.11,2,2,0,0,0,.6.56c.34.15.56-.11.76-.46,0,0,0,0-.06,0Z" transform="translate(-191.9 -341.39)"/><path class="cls-12" d="M199,371.45a6.43,6.43,0,0,0,.06,3c0,.56,0,1.14,0,1.71s.08,1,.06,1.5-.17,1.31,0,1.63.68-.11.75-.47c.13-.65.44-1.24.64-1.89a5.14,5.14,0,0,0,.3-1.26,4.63,4.63,0,0,0-.2-1.17,2.74,2.74,0,0,0-.09.86,4.44,4.44,0,0,1-.31,1.12c-.07.18-.25.67-.45.49s0-.43,0-.53c0-.31,0-.61,0-.9a18.45,18.45,0,0,0-.74-2.64c-.09-.44-.34-1.06-.06-1.54a.49.49,0,0,1,.06.17Z" transform="translate(-191.9 -341.39)"/><path class="cls-12" d="M199,371.52a4.13,4.13,0,0,0,.11,2,23.1,23.1,0,0,1,.24,2.38c0,.38.08.74.09,1.13a1.56,1.56,0,0,0,.06.78c.25.43.59-.35.77-.61.25.18-.37,1.41-.51,1.69s-.26.47-.49.33-.16-1.09-.18-1.42c-.05-1.15,0-2.35-.09-3.49a13.59,13.59,0,0,1,0-2.3c0-.13,0-.43.11-.47Z" transform="translate(-191.9 -341.39)"/><path class="cls-12" d="M199,371.56a10.2,10.2,0,0,1,.07,1.12c0,.49.06,1,.08,1.48s0,.95,0,1.44a2.53,2.53,0,0,1,0,1c-.28-.16-.45-.71-.57-1a6.48,6.48,0,0,1-.35-1.55,3.53,3.53,0,0,1,.42-2.23,10.18,10.18,0,0,0-.94,1.5,4.83,4.83,0,0,0-.37,1.61,6.69,6.69,0,0,0,.28,2.25,4.65,4.65,0,0,0,.75,1.45c.2.27.9,1.07,1,.21a17.92,17.92,0,0,0-.06-3.44c-.05-.66-.18-1.29-.22-1.94,0-.26-.16-1.45,0-1.58Z" transform="translate(-191.9 -341.39)"/><path class="cls-13" d="M198.91,371.62a29.08,29.08,0,0,1,.24,3.39c0,.62.06,1.22.06,1.83a4.19,4.19,0,0,0,0,1.23c.22.59.8-.86.67.11,0,.37-.18,1.17-.64,1.21s-.87-.76-1.1-1.11a5.85,5.85,0,0,1-.53-.91,2.29,2.29,0,0,1-.26-1.11c.26.1.41.64.56.89s.41.83.67.74.14-1.73.14-2c0-.78,0-1.56.09-2.34,0-.35,0-.7,0-1a2.84,2.84,0,0,1,0-.92.22.22,0,0,0,.05.08Z" transform="translate(-191.9 -341.39)"/><path class="cls-7" d="M199,371.58a8.39,8.39,0,0,0,.67,1.3,4.83,4.83,0,0,1,.77,1.2,1.29,1.29,0,0,1,.07.89c-.13.37-.37.3-.52,0s-.2-.7-.35-1a5.43,5.43,0,0,1-.43-.91c-.05-.19-.3-1.48-.17-1.52Z" transform="translate(-191.9 -341.39)"/><path class="cls-14" d="M199.11,376a8,8,0,0,1,0,1.77,2,2,0,0,0,.06.74c.17.38.28-.08.55-.14s0,.35-.06.53-.22.42-.43.42c-.36,0-.72-.48-.92-.72a2.43,2.43,0,0,1-.7-1.2c.41.28.64.92,1.12,1.13.26-.27.24-1,.28-1.36s.06-.69.08-1.05c0,.05,0,0,0,.07Z" transform="translate(-191.9 -341.39)"/><path class="cls-11" d="M199.53,378.89c-.3,0-.88-.66-1.11-.88a6.59,6.59,0,0,0-2-1.35,4.31,4.31,0,0,0-3,.1,3.39,3.39,0,0,1-1.49.07,6.14,6.14,0,0,0,5.62,3.62,4,4,0,0,0,1.35-.3,2.22,2.22,0,0,0,.75-.34c.26-.25.1-.55-.17-.86,0,0,0,0,0,.05Z" transform="translate(-191.9 -341.39)"/><path class="cls-12" d="M192,376.9a7,7,0,0,0,2.84,1.06c.54.16,1.07.45,1.61.66s1,.3,1.45.51,1.17.64,1.56.56.15-.66-.17-.86c-.57-.36-1-.87-1.56-1.29a6.6,6.6,0,0,0-1.09-.75,4.93,4.93,0,0,0-1.19-.24,3.37,3.37,0,0,0,.78.4,4.57,4.57,0,0,1,1,.69c.14.14.54.49.29.6-.08,0-.41-.13-.51-.17-.29-.11-.57-.24-.86-.33a19.9,19.9,0,0,0-2.77-.31c-.45-.09-1.13-.09-1.48-.53H192Z" transform="translate(-191.9 -341.39)"/><path class="cls-12" d="M192.11,376.92a4.49,4.49,0,0,0,1.92.63c.8.21,1.55.4,2.35.68.36.13.73.2,1.1.34a1.91,1.91,0,0,0,.77.24c.5-.07-.12-.67-.31-.93.28-.16,1.21.86,1.43,1.1s.35.41.13.56-1.09-.26-1.41-.37c-1.11-.38-2.23-.9-3.35-1.22a13.9,13.9,0,0,1-2.18-.86c-.12-.06-.4-.19-.41-.27Z" transform="translate(-191.9 -341.39)"/><path class="cls-12" d="M192.15,376.93a9.91,9.91,0,0,1,1.09.36c.48.14,1,.31,1.43.48s.93.31,1.39.49c.24.1.75.19.93.4a2.29,2.29,0,0,1-1.18.14,6.93,6.93,0,0,1-1.6-.26,3.82,3.82,0,0,1-2-1.22,13.7,13.7,0,0,0,1.09,1.42,5.77,5.77,0,0,0,1.39.94,7.33,7.33,0,0,0,2.25.58,5,5,0,0,0,1.64-.13c.33-.09,1.34-.42.56-.83a20.82,20.82,0,0,0-3.29-1.23c-.64-.2-1.29-.31-1.93-.52-.24-.09-1.43-.39-1.49-.6Z" transform="translate(-191.9 -341.39)"/><path class="cls-13" d="M192.18,377a31,31,0,0,1,3.31,1.05c.59.22,1.18.4,1.76.63a4.58,4.58,0,0,0,1.18.44c.64,0-.53-1.06.35-.58.33.18,1,.61.91,1s-1,.51-1.45.59a5.2,5.2,0,0,1-1.05.13,2.42,2.42,0,0,1-1.16-.17c.2-.19.77-.13,1.05-.18s.95-.06.95-.33-1.6-.78-1.87-.89c-.73-.3-1.48-.58-2.19-.95-.31-.17-.65-.3-1-.44a2.64,2.64,0,0,1-.86-.37h.1Z" transform="translate(-191.9 -341.39)"/><path class="cls-7" d="M192.19,376.9a8,8,0,0,0,1.47-.12,5.09,5.09,0,0,1,1.42-.25,1.35,1.35,0,0,1,.87.26c.3.27.15.46-.14.5s-.74-.08-1.09-.06a4.14,4.14,0,0,1-2.53-.36Z" transform="translate(-191.9 -341.39)"/><path class="cls-14" d="M196.4,378.46a8.8,8.8,0,0,1,1.71.62,2.14,2.14,0,0,0,.72.22c.43,0,0-.28.07-.55s.34.1.48.25.32.36.24.55-.72.48-1,.57a2.55,2.55,0,0,1-1.4.18c.42-.26,1.11-.24,1.48-.59-.17-.34-.89-.6-1.19-.77s-.63-.31-1-.46c0,0,0,0,.07,0Z" transform="translate(-191.9 -341.39)"/><path class="cls-11" d="M206.06,385.47c-.33-.42.21-1.66.33-2.11a8.34,8.34,0,0,0,.17-3.75c-.41-1.9-1.61-2.92-3-4.2a6.17,6.17,0,0,1-1.53-2.08,8.07,8.07,0,0,0-.34,10.22,9.36,9.36,0,0,0,1.76,1.74,5,5,0,0,0,1.25.85c.66.23,1-.18,1.2-.75-.05-.06-.06,0-.09,0Z" transform="translate(-191.9 -341.39)"/><path class="cls-12" d="M202,373.57c-.38,1.54.61,3.2,1.05,4.69.26.87.31,1.8.5,2.7s.45,1.57.58,2.37.12,2.07.61,2.58c.66.69,1.18-.19,1.19-.77a26.37,26.37,0,0,1,.53-3,4.46,4.46,0,0,0-.6-3.85c-.13.38.09.94.11,1.35a5.75,5.75,0,0,1-.18,1.8c-.08.27-.25,1.06-.66.78-.15-.1-.19-.68-.22-.84-.1-.48-.18-1-.3-1.43-.39-1.5-1.55-2.71-2.16-4.15-.3-.69-.94-1.66-.58-2.42a1.1,1.1,0,0,1,.15.26Z" transform="translate(-191.9 -341.39)"/><path class="cls-12" d="M202.08,373.68c-.22,1,.51,2.22.84,3.13a37,37,0,0,1,1.17,3.75c.15.61.39,1.18.52,1.78a2.61,2.61,0,0,0,.37,1.24c.58.68.93-.57,1.17-1,.5.29-.21,2.25-.37,2.7s-.31.75-.77.53-.63-1.71-.76-2.24c-.47-1.82-.71-3.73-1.28-5.52a18.16,18.16,0,0,1-.73-3.65c0-.2-.09-.68,0-.73Z" transform="translate(-191.9 -341.39)"/><path class="cls-12" d="M202.1,373.74a14.06,14.06,0,0,1,.47,1.78c.24.77.44,1.55.63,2.33s.38,1.51.54,2.27c.08.42.41,1.19.26,1.58a4.46,4.46,0,0,1-1.34-1.6,11,11,0,0,1-1.11-2.44,4.76,4.76,0,0,1,0-3.54,13.5,13.5,0,0,0-1.19,2.41,6.63,6.63,0,0,0-.15,2.55,10.82,10.82,0,0,0,1.22,3.56,9.29,9.29,0,0,0,1.79,2.27c.45.42,1.94,1.65,1.83.29a27.6,27.6,0,0,0-1.22-5.44c-.29-1-.73-2-1-3.07-.1-.41-.75-2.28-.49-2.5Z" transform="translate(-191.9 -341.39)"/><path class="cls-13" d="M202,373.83a43.65,43.65,0,0,1,1.5,5.37c.22,1,.5,1.93.7,2.89a6.43,6.43,0,0,0,.44,2c.59.92,1.15-1.39,1.24.15,0,.58,0,1.85-.77,1.93s-1.78-1.17-2.31-1.71a10.36,10.36,0,0,1-1.22-1.43,4,4,0,0,1-.83-1.75c.49.15.93,1,1.28,1.4s1,1.31,1.43,1.15-.31-2.76-.39-3.21a36.22,36.22,0,0,1-.59-3.71,13.14,13.14,0,0,0-.25-1.65,4.41,4.41,0,0,1-.24-1.45.74.74,0,0,1,.12.13Z" transform="translate(-191.9 -341.39)"/><path class="cls-7" d="M202.18,373.77a15.43,15.43,0,0,0,1.6,2,10,10,0,0,1,1.75,1.87,2,2,0,0,1,.41,1.4c-.12.59-.57.5-.91.09s-.58-1.09-.95-1.58a13.11,13.11,0,0,1-1.05-1.43c-.15-.3-1-2.34-.79-2.4Z" transform="translate(-191.9 -341.39)"/><path class="cls-14" d="M203.76,380.75a11.93,11.93,0,0,1,.65,2.79,3.12,3.12,0,0,0,.35,1.17c.42.6.47-.13.92-.22s.18.54.07.83-.26.67-.63.68c-.63,0-1.44-.74-1.87-1.11a5,5,0,0,1-1.62-1.88c.82.44,1.43,1.43,2.35,1.75.37-.44.1-1.63.07-2.16s-.13-1.09-.2-1.65c0,.07,0,.05.05.1Z" transform="translate(-191.9 -341.39)"/><path class="cls-15" d="M206.39,379.36c-.53.16-.6,1.15-.7,1.6a8.74,8.74,0,0,0-.25,2.1c.06-1.56-1.6-3.19-3-3.78-1.13-.48-2.8-.22-3.44-1.49,0,.32-.07.67,0,1a3.76,3.76,0,0,0,.4,1.5,9.88,9.88,0,0,0,3,2.95,9.28,9.28,0,0,0,2.92,1.45c.49.13,1,.18,1.49.33s1,.53,1.44.32c-.24-.58-.7-1.08-.9-1.69a11.42,11.42,0,0,1-.48-2c-.14-.85.06-1.9-.54-2.63Z" transform="translate(-191.9 -341.39)"/><path class="cls-11" d="M205.88,383.24c-.42,0-1.11-.92-1.4-1.22a8.24,8.24,0,0,0-2.62-1.87,6.1,6.1,0,0,0-4.13,0,4.77,4.77,0,0,1-2.06,0,7.69,7.69,0,0,0,7.24,5,6.33,6.33,0,0,0,1.89-.36,3.59,3.59,0,0,0,1.07-.43c.4-.34.22-.73-.1-1.16-.06,0,0,0,0,.06Z" transform="translate(-191.9 -341.39)"/><path class="cls-12" d="M195.85,380.34c1,1,2.53,1.09,3.76,1.5.73.23,1.41.63,2.12.93s1.3.44,1.93.73,1.53.89,2.07.8c.74-.12.3-.88-.12-1.16-.73-.5-1.28-1.18-2-1.76a7.07,7.07,0,0,0-1.4-1,6.7,6.7,0,0,0-1.59-.38c.23.27.72.39,1,.57a6,6,0,0,1,1.23,1c.17.19.67.66.32.81-.12.05-.55-.19-.68-.25-.38-.16-.75-.33-1.14-.47-1.22-.43-2.52-.23-3.77-.5-.61-.12-1.54-.15-2-.75a1.06,1.06,0,0,1,.24,0Z" transform="translate(-191.9 -341.39)"/><path class="cls-12" d="M196,380.36a5.94,5.94,0,0,0,2.55.92,32.27,32.27,0,0,1,3.13,1c.49.19,1,.29,1.47.49a2.41,2.41,0,0,0,1,.34c.7-.08-.07-.89-.29-1.26.39-.2,1.54,1.2,1.81,1.52s.43.56.11.76-1.47-.38-1.89-.54c-1.49-.54-3-1.28-4.44-1.74a16.67,16.67,0,0,1-2.9-1.22c-.15-.08-.52-.26-.51-.37Z" transform="translate(-191.9 -341.39)"/><path class="cls-12" d="M196,380.37c.45.09,1,.38,1.45.53.64.2,1.28.44,1.91.68s1.22.44,1.83.7c.33.14,1,.28,1.23.57a3.57,3.57,0,0,1-1.64.15,9.57,9.57,0,0,1-2.16-.41,4.61,4.61,0,0,1-2.54-1.68,12.45,12.45,0,0,0,1.3,1.92,6.47,6.47,0,0,0,1.78,1.3,9.58,9.58,0,0,0,3,.86,7.25,7.25,0,0,0,2.28-.13c.46-.1,1.9-.53.89-1.09A25.51,25.51,0,0,0,201,382c-.85-.29-1.73-.46-2.57-.77-.34-.12-1.92-.57-2-.85Z" transform="translate(-191.9 -341.39)"/><path class="cls-13" d="M196,380.49a37.62,37.62,0,0,1,4.41,1.51c.78.31,1.57.57,2.34.89a5.78,5.78,0,0,0,1.56.62c.88,0-.58-1.42.56-.76.43.26,1.35.85,1.11,1.42s-1.49.65-2.08.74a7.19,7.19,0,0,1-1.47.15,3.15,3.15,0,0,1-1.56-.27c.29-.25,1.07-.15,1.47-.19s1.3-.06,1.35-.42-2.1-1.1-2.45-1.25a30.19,30.19,0,0,1-2.88-1.35c-.41-.23-.86-.42-1.28-.61a4.08,4.08,0,0,1-1.14-.52l.14,0Z" transform="translate(-191.9 -341.39)"/><path class="cls-7" d="M196.05,380.34a11.7,11.7,0,0,0,2-.12,7.7,7.7,0,0,1,2-.29,1.77,1.77,0,0,1,1.16.39c.38.36.16.61-.26.65s-1-.13-1.49-.11a8.28,8.28,0,0,1-1.41,0c-.28,0-2.05-.43-2-.6Z" transform="translate(-191.9 -341.39)"/><path class="cls-14" d="M201.64,382.56a10.79,10.79,0,0,1,2.26.88,2.84,2.84,0,0,0,1,.31c.59,0,.08-.37.18-.72s.46.14.62.34.39.49.27.75c-.22.43-1.07.61-1.49.73a3.67,3.67,0,0,1-1.95.2c.62-.34,1.56-.29,2.13-.75-.19-.46-1.14-.83-1.54-1.06s-.83-.43-1.26-.64c0,.06,0,0,.09,0Z" transform="translate(-191.9 -341.39)"/><path class="cls-11" d="M212.74,387.15c-.5.11-1.39-.87-1.74-1.16a8.55,8.55,0,0,0-3.24-1.73c-1.87-.47-3.27.12-5,.75a6.27,6.27,0,0,1-2.48.4,8.21,8.21,0,0,0,8.92,4.6,8.51,8.51,0,0,0,2.27-.74,4.51,4.51,0,0,0,1.28-.69c.47-.45.23-.88-.17-1.32-.08,0,0,.05,0,.07Z" transform="translate(-191.9 -341.39)"/><path class="cls-12" d="M200.53,385.5c1.2,1,3.09.84,4.59,1.1.89.15,1.72.5,2.6.72s1.58.29,2.35.52,1.88.77,2.53.58c.88-.26.32-1.08-.19-1.33a26.33,26.33,0,0,1-2.45-1.71,7.68,7.68,0,0,0-1.72-1,7.87,7.87,0,0,0-1.94-.16c.28.27.87.33,1.24.49a5.7,5.7,0,0,1,1.52.9c.21.19.84.65.42.88-.15.09-.68-.12-.83-.17-.47-.12-.92-.25-1.39-.35-1.49-.3-3,.16-4.57.07-.74-.05-1.87.08-2.4-.54a1.42,1.42,0,0,1,.29,0Z" transform="translate(-191.9 -341.39)"/><path class="cls-12" d="M200.64,385.52c.79.6,2.18.5,3.12.62a35.66,35.66,0,0,1,3.82.6c.59.13,1.2.16,1.79.31a2.88,2.88,0,0,0,1.25.22c.84-.21-.12-1-.4-1.4.46-.31,1.91,1.12,2.24,1.45s.54.57.16.86-1.78-.19-2.3-.3c-1.81-.38-3.6-1-5.42-1.26a18.63,18.63,0,0,1-3.54-.93c-.19-.06-.64-.22-.64-.34Z" transform="translate(-191.9 -341.39)"/><path class="cls-12" d="M200.7,385.52a17,17,0,0,1,1.78.36c.77.12,1.55.29,2.32.46s1.5.31,2.24.51c.4.1,1.23.15,1.51.44a4.23,4.23,0,0,1-2,.45,10.94,10.94,0,0,1-2.62-.09,5,5,0,0,1-3.14-1.52,13.78,13.78,0,0,0,1.65,2,7,7,0,0,0,2.2,1.2,11,11,0,0,0,3.66.48,9.39,9.39,0,0,0,2.76-.54c.54-.2,2.26-.93,1-1.41a28.74,28.74,0,0,0-5.33-1.28c-1-.19-2.1-.24-3.14-.45-.4-.08-2.33-.34-2.42-.65Z" transform="translate(-191.9 -341.39)"/><path class="cls-13" d="M200.75,385.64a44.71,44.71,0,0,1,5.38,1c1,.22,1.91.39,2.85.64a7.1,7.1,0,0,0,1.9.45c1.08-.11-.74-1.56.66-1,.52.22,1.65.75,1.39,1.46s-1.77,1-2.47,1.21a9.93,9.93,0,0,1-1.77.43,4.18,4.18,0,0,1-1.9-.05c.35-.34,1.28-.35,1.77-.48.31-.08,1.57-.29,1.61-.72s-2.57-.9-3-1a32.85,32.85,0,0,1-3.54-1.07c-.5-.2-1-.34-1.56-.49a4.23,4.23,0,0,1-1.39-.41l.17,0Z" transform="translate(-191.9 -341.39)"/><path class="cls-7" d="M200.77,385.47a13.92,13.92,0,0,0,2.46-.49,10.27,10.27,0,0,1,2.38-.67,2.11,2.11,0,0,1,1.42.25c.46.35.2.68-.29.8s-1.22,0-1.81.13a10.81,10.81,0,0,1-1.69.27c-.33,0-2.5-.14-2.47-.34Z" transform="translate(-191.9 -341.39)"/><path class="cls-14" d="M207.6,387.09a13.43,13.43,0,0,1,2.76.63,3.14,3.14,0,0,0,1.17.21c.7-.1.08-.45.18-.87s.56.08.77.29.49.5.34.82c-.24.54-1.25.9-1.75,1.1a4.7,4.7,0,0,1-2.34.56c.73-.49,1.86-.59,2.53-1.23-.25-.5-1.41-.76-1.9-1s-1-.35-1.55-.53c.05.07.06,0,.12,0Z" transform="translate(-191.9 -341.39)"/><path class="cls-11" d="M214,389.29c-.41-.35-.13-1.67-.11-2.14a8.36,8.36,0,0,0-.59-3.7c-.79-1.79-2.18-2.56-3.8-3.54a6.31,6.31,0,0,1-1.92-1.74,8.09,8.09,0,0,0,1.74,10.08,9.2,9.2,0,0,0,2.08,1.36,5.24,5.24,0,0,0,1.4.6c.69.1.9-.37,1-1-.06-.06,0,0-.08,0Z" transform="translate(-191.9 -341.39)"/><path class="cls-12" d="M207.64,378.4c-.06,1.58,1.25,3,2,4.39.44.81.67,1.71,1,2.55s.76,1.46,1.05,2.22.54,2,1.12,2.41c.79.54,1.12-.42,1-1a28,28,0,0,1-.09-3.05,7.35,7.35,0,0,0-.27-2,7.91,7.91,0,0,0-1.1-1.67c-.06.4.28.91.37,1.31a5.42,5.42,0,0,1,.2,1.79c0,.29,0,1.09-.48.9-.17-.07-.33-.64-.39-.79-.19-.45-.37-.9-.59-1.34-.69-1.39-2.07-2.35-3-3.64-.43-.63-1.26-1.46-1.06-2.27a1.42,1.42,0,0,1,.2.22Z" transform="translate(-191.9 -341.39)"/><path class="cls-12" d="M207.7,378.5c0,1,1,2.08,1.45,2.91a36.17,36.17,0,0,1,1.92,3.45c.26.56.62,1.08.88,1.64.17.39.25.88.6,1.15.71.54.8-.74.94-1.2.57.18.26,2.24.19,2.71s-.15.8-.63.67-1-1.55-1.21-2c-.83-1.7-1.46-3.52-2.38-5.17a19.22,19.22,0,0,1-1.46-3.43c-.06-.2-.22-.65-.11-.73Z" transform="translate(-191.9 -341.39)"/><path class="cls-12" d="M207.73,378.55a16.06,16.06,0,0,1,.83,1.66c.39.71.74,1.44,1.08,2.16s.69,1.4,1,2.13c.16.39.64,1.08.57,1.5a4.72,4.72,0,0,1-1.64-1.32A11,11,0,0,1,208,382.5a4.81,4.81,0,0,1-.7-3.47,13.5,13.5,0,0,0-.67,2.59,6.82,6.82,0,0,0,.37,2.53,11.06,11.06,0,0,0,1.93,3.25,9.11,9.11,0,0,0,2.21,1.88c.52.32,2.23,1.25,1.85-.06a28.87,28.87,0,0,0-2.3-5.11c-.5-1-1.13-1.84-1.61-2.81-.19-.38-1.2-2.09-1-2.36Z" transform="translate(-191.9 -341.39)"/><path class="cls-13" d="M207.66,378.67a42.27,42.27,0,0,1,2.56,5c.42.91.88,1.79,1.27,2.7a6.9,6.9,0,0,0,.83,1.83c.77.8.85-1.59,1.25-.09.15.56.41,1.81-.36,2s-2-.79-2.61-1.23a9.31,9.31,0,0,1-1.49-1.16c-.37-.38-1.09-1-1.17-1.55.52.06,1.12.81,1.54,1.12.26.2,1.25,1.08,1.63.85s-.86-2.65-1-3.07a37.37,37.37,0,0,1-1.33-3.52,15,15,0,0,0-.58-1.58,4,4,0,0,1-.53-1.37l.14.11Z" transform="translate(-191.9 -341.39)"/><path class="cls-7" d="M207.82,378.57a14.53,14.53,0,0,0,2,1.68,11.47,11.47,0,0,1,2.1,1.5,2.1,2.1,0,0,1,.68,1.3c0,.6-.45.59-.87.27s-.79-1-1.26-1.38a10.58,10.58,0,0,1-1.31-1.19c-.22-.26-1.46-2.1-1.27-2.21Z" transform="translate(-191.9 -341.39)"/><path class="cls-14" d="M210.78,385.1a12.46,12.46,0,0,1,1.21,2.62,3.15,3.15,0,0,0,.57,1.07c.54.51.45-.21.86-.39s.29.5.25.8-.12.71-.48.79c-.62.14-1.57-.45-2.06-.72a5,5,0,0,1-2-1.54c.88.27,1.69,1.13,2.66,1.26.27-.5-.24-1.61-.38-2.13s-.34-1-.53-1.58c0,.08,0,.05.07.09Z" transform="translate(-191.9 -341.39)"/><path class="cls-11" d="M218.71,390.54c-.46.23-1.58-.47-2-.65a8.49,8.49,0,0,0-3.61-.77c-1.92.06-3.1,1-4.55,2.08a6.46,6.46,0,0,1-2.27,1.06,8.34,8.34,0,0,0,9.89,2,8.86,8.86,0,0,0,2-1.33,5.19,5.19,0,0,0,1-1c.32-.57,0-.91-.55-1.22-.07,0,0,.05,0,.07Z" transform="translate(-191.9 -341.39)"/><path class="cls-12" d="M206.51,392.28c1.44.6,3.21,0,4.72-.19.9-.1,1.8,0,2.71,0s1.6-.15,2.4-.13,2,.23,2.6-.14c.77-.49,0-1.12-.56-1.22a27.41,27.41,0,0,1-2.85-1,7.65,7.65,0,0,0-1.93-.46,7.89,7.89,0,0,0-1.91.38,4.46,4.46,0,0,0,1.33.12,6,6,0,0,1,1.72.46c.26.12,1,.4.66.73-.12.12-.69.06-.85.07-.48,0-1,0-1.44,0-1.52.11-2.87,1-4.37,1.31-.72.15-1.76.58-2.45.13a1.83,1.83,0,0,1,.28-.1Z" transform="translate(-191.9 -341.39)"/><path class="cls-12" d="M206.62,392.26c.93.37,2.24-.1,3.18-.25,1.29-.2,2.52-.39,3.83-.47.61,0,1.2-.16,1.81-.18a2.83,2.83,0,0,0,1.27-.13c.74-.43-.41-1-.79-1.24.35-.42,2.15.56,2.57.78s.68.41.4.79-1.77.3-2.29.34c-1.85.12-3.75,0-5.58.26a19.45,19.45,0,0,1-3.66.08c-.2,0-.67,0-.71-.16Z" transform="translate(-191.9 -341.39)"/><path class="cls-12" d="M206.69,392.25a17.06,17.06,0,0,1,1.8-.14c.78-.09,1.58-.14,2.36-.19s1.53-.11,2.3-.12c.41,0,1.22-.19,1.58,0a4.41,4.41,0,0,1-1.77,1,11,11,0,0,1-2.54.63,5.09,5.09,0,0,1-3.45-.61,13.32,13.32,0,0,0,2.16,1.48,7,7,0,0,0,2.46.56,11,11,0,0,0,3.65-.54,8.88,8.88,0,0,0,2.49-1.27c.47-.34,1.91-1.51.57-1.63a28,28,0,0,0-5.49.23c-1.05.09-2.09.33-3.14.41-.41,0-2.33.32-2.51,0Z" transform="translate(-191.9 -341.39)"/><path class="cls-13" d="M206.76,392.36a45.24,45.24,0,0,1,5.45-.5c1-.05,1.95-.15,2.93-.17a7.12,7.12,0,0,0,2-.09c1-.39-1.17-1.28.34-1.11.57.07,1.8.27,1.76,1s-1.42,1.45-2,1.84a9.28,9.28,0,0,1-1.57.88,4,4,0,0,1-1.84.48c.23-.42,1.13-.69,1.56-.94.28-.16,1.42-.71,1.34-1.13s-2.73-.17-3.18-.17c-1.23,0-2.48.06-3.7-.06a15,15,0,0,0-1.64-.05,4.4,4.4,0,0,1-1.45,0,.42.42,0,0,1,.14-.09Z" transform="translate(-191.9 -341.39)"/><path class="cls-7" d="M206.73,392.18a15.06,15.06,0,0,0,2.23-1.13,9.76,9.76,0,0,1,2.09-1.3,2.09,2.09,0,0,1,1.43-.15c.55.21.39.6,0,.85s-1.16.35-1.7.62a9.5,9.5,0,0,1-1.55.72c-.31.1-2.43.54-2.46.34Z" transform="translate(-191.9 -341.39)"/><path class="cls-14" d="M213.76,391.88a13.24,13.24,0,0,1,2.82-.15,3,3,0,0,0,1.19-.12c.64-.29-.05-.45-.08-.88s.56-.08.83.07.61.34.56.69c-.08.58-1,1.2-1.37,1.54a4.59,4.59,0,0,1-2.08,1.17c.55-.67,1.62-1.08,2.07-1.87-.38-.41-1.57-.35-2.1-.41s-1.07-.07-1.63-.09c.06.06.05,0,.1,0Z" transform="translate(-191.9 -341.39)"/><path class="cls-11" d="M219.53,393.83c-.36-.4.11-1.67.2-2.13a8.43,8.43,0,0,0,0-3.74c-.52-1.89-1.78-2.84-3.24-4a6.32,6.32,0,0,1-1.64-2,8.09,8.09,0,0,0,.22,10.23,9.17,9.17,0,0,0,1.86,1.65,5,5,0,0,0,1.29.78c.67.19,1-.23,1.15-.81,0-.06,0,0-.09,0Z" transform="translate(-191.9 -341.39)"/><path class="cls-12" d="M214.86,382.15c-.29,1.56.78,3.17,1.3,4.63.31.87.41,1.79.65,2.67s.54,1.55.71,2.35.23,2.06.74,2.54c.7.65,1.17-.26,1.16-.83a24.44,24.44,0,0,1,.36-3,7.12,7.12,0,0,0,0-2,7.33,7.33,0,0,0-.83-1.8c-.11.38.14.94.18,1.34a5.77,5.77,0,0,1-.08,1.81c-.07.28-.19,1.07-.61.81-.16-.09-.23-.67-.27-.83-.12-.47-.23-.94-.38-1.41-.47-1.47-1.7-2.62-2.38-4-.34-.68-1-1.62-.72-2.4a1.1,1.1,0,0,1,.17.25Z" transform="translate(-191.9 -341.39)"/><path class="cls-12" d="M214.9,382.27c-.16,1,.64,2.18,1,3.08a33.81,33.81,0,0,1,1.37,3.68c.18.6.46,1.16.63,1.75a2.73,2.73,0,0,0,.42,1.23c.62.63.9-.62,1.12-1.06.52.26-.09,2.26-.22,2.71s-.27.77-.73.58-.73-1.68-.89-2.2c-.56-1.79-.91-3.69-1.58-5.44a19.74,19.74,0,0,1-.93-3.61c0-.2-.12-.68,0-.74Z" transform="translate(-191.9 -341.39)"/><path class="cls-12" d="M214.93,382.32a17.08,17.08,0,0,1,.57,1.75c.27.76.52,1.53.75,2.3s.47,1.48.66,2.24c.11.41.48,1.17.35,1.57-.56-.22-1.09-1.06-1.43-1.53a11,11,0,0,1-1.24-2.38,4.83,4.83,0,0,1-.17-3.54,12.82,12.82,0,0,0-1,2.47,6.83,6.83,0,0,0,0,2.55,10.91,10.91,0,0,0,1.41,3.49,9.23,9.23,0,0,0,1.92,2.18c.46.39,2,1.55,1.84.2a28,28,0,0,0-1.52-5.38c-.35-1-.84-2-1.17-3-.13-.4-.87-2.23-.62-2.47Z" transform="translate(-191.9 -341.39)"/><path class="cls-13" d="M214.84,382.42a42.59,42.59,0,0,1,1.79,5.28c.27,1,.6,1.9.85,2.85a6.53,6.53,0,0,0,.55,1.92c.64.9,1.08-1.44,1.25.09.06.58.13,1.85-.66,2s-1.84-1.07-2.4-1.59a10.42,10.42,0,0,1-1.3-1.36,4.1,4.1,0,0,1-.92-1.71c.5.13,1,1,1.35,1.33s1.07,1.25,1.49,1.07-.46-2.74-.56-3.18a36.39,36.39,0,0,1-.79-3.67,15.4,15.4,0,0,0-.34-1.64,4.11,4.11,0,0,1-.32-1.44l.13.13Z" transform="translate(-191.9 -341.39)"/><path class="cls-7" d="M215,382.35a15.71,15.71,0,0,0,1.71,1.95,10.75,10.75,0,0,1,1.85,1.78,2,2,0,0,1,.48,1.38c-.09.59-.53.52-.9.14s-.64-1.07-1-1.54a10.47,10.47,0,0,1-1.12-1.37c-.17-.29-1.13-2.29-.92-2.36Z" transform="translate(-191.9 -341.39)"/><path class="cls-14" d="M217,389.23a12.49,12.49,0,0,1,.8,2.76,3.23,3.23,0,0,0,.41,1.15c.45.58.46-.15.91-.27s.21.54.11.83-.22.68-.59.71c-.63,0-1.48-.67-1.93-1a4.83,4.83,0,0,1-1.71-1.8c.83.4,1.5,1.36,2.44,1.63.34-.46,0-1.63,0-2.17s-.19-1.07-.3-1.63c0,.07,0,.05.06.1Z" transform="translate(-191.9 -341.39)"/><path class="cls-11" d="M220.32,387.29c-1.45-.19-2.11,2.81-2.25,3.77-.2,1.29-.17,3.27.9,4.24a1.78,1.78,0,0,0,1.9.14,3.06,3.06,0,0,1,1.3-.23c.44,0,.61.28,1,.42,1.41.53,3.79-.05,4.05-1.71.35-2.23-.24-5.69-2.43-6.89a5.37,5.37,0,0,0-5,.37Z" transform="translate(-191.9 -341.39)"/><path class="cls-12" d="M220.16,387.13c-1.23.15-1.91,2.37-2,3.36a6.48,6.48,0,0,0,.53,4.05c.58.92,1.77.85,2.78.67a2.45,2.45,0,0,1,1.34-.1,4.3,4.3,0,0,0,1.37.43c1.84,0,2.25-1.43,2.48-3a6.4,6.4,0,0,0-.1-2.72,4,4,0,0,0-1-2,6.44,6.44,0,0,0-.1,1.26,3.76,3.76,0,0,1-1,2,2.17,2.17,0,0,1-3.1.11,4.39,4.39,0,0,1-1.19-2.55c-.05-.43-.13-1.24.23-1.55Z" transform="translate(-191.9 -341.39)"/><path class="cls-12" d="M220.1,387.4c-1.27-.27-1.89,3.16-2,4-.12,1.06-.07,3.12,1,3.71s1.86-.54,2.92-.37,1.56.8,2.65.66c2.85-.37,2.29-5.54,1.09-7.19-.26,1.59.33,3-.88,4.38a2.73,2.73,0,0,1-3.2.83c-2.57-.82-2.86-4.18-1.68-6.1Z" transform="translate(-191.9 -341.39)"/><path class="cls-13" d="M219,387c0,.67-.29.91-.68,1.44a5.13,5.13,0,0,0-.88,2c-.12.48-.14,1.32-.64,1.55a5,5,0,0,1-1.29.08c.09,1,2,2.44,3,2.58.08-1.53-.26-3.08.16-4.64a9.63,9.63,0,0,1,.79-1.94c.41-.82-.06-.71-.44-1.33Z" transform="translate(-191.9 -341.39)"/><path class="cls-13" d="M225.74,387.9c1.47,1.58,1.31,4.35,1.42,6.35.6.14,1.41-.91,1.79-1.3a6.74,6.74,0,0,0,1.64-2.54c-.22.51-1.32,1-1.75.48s.18-1.43-.58-2c-.45-.33-2.41-.64-2.35-1.23Z" transform="translate(-191.9 -341.39)"/><path class="cls-13" d="M225.91,388.18c.47.34.25,2.63.17,3.22a3.26,3.26,0,0,1-1.31,2.31,3.77,3.77,0,0,1-2.29.78c-.84,0-1-.41-1.71-.65-.29-.11-.56,0-.85-.13a2.25,2.25,0,0,1-.78-1c-.15-.36-.13-1.9-.67-1.95-1.1-.1-.06,3.21.2,3.66a1.54,1.54,0,0,0,1.26.88c.56,0,.95-.34,1.52-.33,1.12,0,2,.82,3.16.72,3.57-.33,2.24-5.11,1.52-7.21a4.83,4.83,0,0,1-.17-.59Z" transform="translate(-191.9 -341.39)"/><path class="cls-13" d="M219.48,387.51c-.08.66-1,1.49-1.31,2.12a17.66,17.66,0,0,0-.72,2.2,1.15,1.15,0,0,1-.33.61c-.24.22-.64.19-.62.55s1.35,1.23,1.73,1.49a10.51,10.51,0,0,0-.1-1.76,10.56,10.56,0,0,1,.22-2.11,9.48,9.48,0,0,1,.66-2c.16-.33.64-1.06.53-1.38Z" transform="translate(-191.9 -341.39)"/><path class="cls-13" d="M225.85,387.9c.09.25.32.35.45.56a4.8,4.8,0,0,1,.35,1.05,13.07,13.07,0,0,1,.51,2,22.17,22.17,0,0,1,.11,2.71c.74.11,2.59-1.51,2.52-2.19-.74.06-.8.07-.89-.67a2.66,2.66,0,0,0-.91-1.5,14.65,14.65,0,0,0-1.17-1.33c-.32-.3-.83-.51-1.08-.89Z" transform="translate(-191.9 -341.39)"/><path class="cls-7" d="M220.32,387.24c-.24,0-1.1,1-.49,1.31.39.23,1.68-.39,2.11-.47a5.7,5.7,0,0,1,2.4.06,3.54,3.54,0,0,1,1.34.93c-.44-1.29-.85-2-2.26-2.27a5.16,5.16,0,0,0-1.57-.06,3.47,3.47,0,0,0-.85.1c-.32.11-.54.37-.84.45Z" transform="translate(-191.9 -341.39)"/><path class="cls-16" d="M220.21,387.29c-.19.19-.89.81-.41,1.07.27.15,1-.56,1.3-.69a4.81,4.81,0,0,1,2.93-.26A3.06,3.06,0,0,0,222,387a5.37,5.37,0,0,0-1.08.09l-.54.14c-.2,0-.31.18-.29,0Z" transform="translate(-191.9 -341.39)"/><path class="cls-13" d="M212.77,382.66c0,.44.24.87.26,1.32a5.47,5.47,0,0,1-.35,1.64,7.86,7.86,0,0,0-.17,3.82,6.53,6.53,0,0,0,1.76,3,7,7,0,0,0,2.59,1.47,9.4,9.4,0,0,1-1.61-1.48,6.39,6.39,0,0,1-1-1.7,24.73,24.73,0,0,1-.81-3.32,9.19,9.19,0,0,1,0-3c.1-.93-.59-1.29-.87-2.09Z" transform="translate(-191.9 -341.39)"/><path class="cls-13" d="M231.83,384a29.85,29.85,0,0,1,.41,3,7.91,7.91,0,0,1-.75,3,12.64,12.64,0,0,1-1.43,2.3,6.31,6.31,0,0,1-.67.7,7.68,7.68,0,0,0-.76.51h0c.05.62,1.81.7,2.21.46a6.14,6.14,0,0,0,2.72-4.11,7.31,7.31,0,0,0-.5-4.07,5.2,5.2,0,0,0-1.21-2h0Z" transform="translate(-191.9 -341.39)"/><path class="cls-16" d="M226.15,389.45c.44.49.3,1.57.22,2.17a3.78,3.78,0,0,1-.71,1.9c-.25.32-.92.62-1,1-.13.62.74.55,1.09.38,1-.49,1-2.07,1-3a4.53,4.53,0,0,0-.19-1.32c-.1-.32-.21-1.16-.56-1.28Z" transform="translate(-191.9 -341.39)"/><path class="cls-17" d="M220.29,387.24c-.36.09-.91.84-1.13,1.15a4.74,4.74,0,0,0-.75,1.88,3.38,3.38,0,0,0,.23,2.24,1,1,0,0,0,1.08.4c.45-.18.47-.81.49-1.21.07-1.58.21-3.37,2.11-3.72.33-.07,1.09-.2.91-.71s-1-.38-1.32-.36a2.45,2.45,0,0,0-1.71.55.08.08,0,0,1-.06-.08Z" transform="translate(-191.9 -341.39)"/><path class="cls-18" d="M241.55,372.52a7.23,7.23,0,0,1-2,7.87c-.51-.6-.38-1.7-1-2.35-.27.79.2,1.87.16,2.74s-.06,2-.08,3c1.33-.76,2.16-2.29,3.48-3.05a3.21,3.21,0,0,0,2-2.73c.21-2.24-1.38-4.18-2.83-5.72Z" transform="translate(-191.9 -341.39)"/><path class="cls-18" d="M244.09,376.18a6.8,6.8,0,0,1,.25-2.74c.43-1,1.41-1.63,2-2.5-.51.76-2.15,3.07-1.51,4s1.62-1.65,1.92-2.06c.82.66.88,2.51.54,3.42.24-2.08.56-3.14,2.3-4.32-.3.76-1.05,1.5-1.06,2.35a4.47,4.47,0,0,0,2.91-2.79c0,1.28,0,2.38-1,3.28a14.07,14.07,0,0,1-2.28,1.51,2.18,2.18,0,0,1,2.57.38,4.41,4.41,0,0,0-3.66,1.51,8.81,8.81,0,0,1,1.78.18c.44.11.81.33,1.26.13-1.68,1.71-3.54,1.08-5.72,1.08a13.18,13.18,0,0,1,2.52.15c.51.1,1.12.34,1.59,0-1.62.78-3.61.88-4.74,2.51a15.82,15.82,0,0,0,2.55-.14,4.18,4.18,0,0,0,2.2-.83c0,1.7-3.39,3.15-4.83,3.37-1.73.26-3-1.11-4.53-1.1-.34-1.81,3.31-2.93,4.2-4,.57-.7,1.46-3.07.71-3.82Z" transform="translate(-191.9 -341.39)"/><path class="cls-18" d="M233.25,381.37a4.09,4.09,0,0,0-1.63,2c-.17.68.28.79.54,1.39a5.17,5.17,0,0,1,.17,2c0,.44-.34,1.56-.14,1.89s1.29.41,1.69.34a3.52,3.52,0,0,0,1.91-1.24,8.14,8.14,0,0,0,1.64-2.05c.13-.26,1-2.32.75-2.46a.08.08,0,0,1,0,0c-.42.54-1.31,1.91-2,1.87-.16-1.27.61-2.49.51-3.79-.56.2-1.07,1.8-1.45,2.35s-.84,1.24-1.07.31c-.34-1.37.43-2.35,1-3.42a4.4,4.4,0,0,0-2.61,1.74Z" transform="translate(-191.9 -341.39)"/><path class="cls-18" d="M234.41,388.85c2.05.76,4.5,1.26,6.61.06a9.43,9.43,0,0,0,4.12-3.88,3.81,3.81,0,0,1-3.12-.63,6.22,6.22,0,0,0-3.38-1c.26,1.28-.74,2.39-1.54,3.28-.4.44-2.18,2.62-2.62,2.21Z" transform="translate(-191.9 -341.39)"/><path class="cls-18" d="M232.41,382.59a6.18,6.18,0,0,0,.63,2.31,8.19,8.19,0,0,1,.22,2.1,9.2,9.2,0,0,1,1.67-1.12c0,.34-.16.62-.13,1,1.07.13,2.75-1.42,3.3-2.25,0,1.45-2.1,3.38-3.31,4-.68.37-2.31.69-2.7-.15s.2-2.24.08-3.13c-.16-1.3-.6-1.85.39-3Z" transform="translate(-191.9 -341.39)"/><path class="cls-9" d="M233.56,349.17c1.9-.09,4.12,2.75,4.62,4.35.18.56-.17,1.5,0,1.91.24.62,1.17.37,1.46,1s-.18,1-.14,1.46.3.46.75.91a5.07,5.07,0,0,1,1.08,3.73,7.15,7.15,0,0,1-1.6,3.47c-.65.71-1.59,1.1-1.54,2.19a7.55,7.55,0,0,1,.16,1.37c-.08.65-.32,1.33-.45,2a16.54,16.54,0,0,1-1.33,3.66,38.14,38.14,0,0,0-2.08,4.27c.61.72,3-1.43,3.55-1.92A10.11,10.11,0,0,0,240,374.2a11,11,0,0,0,.62-1.44c.18-.63.13-1.14.76-.63s1.07,1.77,1.75,2.37a11.87,11.87,0,0,0,1.62-6.46,18.94,18.94,0,0,0-.22-5.27,24.79,24.79,0,0,0-4.76-9.56c-1.78-2.09-3.7-4.08-6.62-4.18-.08.27.07.2.22.29Z" transform="translate(-191.9 -341.39)"/><path class="cls-19" d="M215,381.37c.78.9,1.51,1.91,2.38,2.82.4.41.78.82,1.17,1.23.23.24.78,1.12,1,1.22.51.2,2-.41,2.65-.46a4.41,4.41,0,0,1,2.75.52c1.29-2.2,4.34-3,5.32-5.47,1,.09,1.33,1.78,1.37,2.56a4,4,0,0,0-1.13-1.88c-.21.55-.93.94-1.35,1.3s-1.11,1-1.69,1.42a5.06,5.06,0,0,0-2,3.28c-.14-1.11-1.95-1.3-2.82-1.35a3.85,3.85,0,0,0-1.79.21c-.49.2-.93.69-1.43.77a9.92,9.92,0,0,0-2.45-3.21,7.72,7.72,0,0,1-1.25-1.51c-.25-.4-.46-1.5-.85-1.6Z" transform="translate(-191.9 -341.39)"/><path class="cls-18" d="M230.1,381.67c.76,1.49-5.12,3.48-4.62,6,.21,1.05,1.4,1.93,1.69,3.05a8,8,0,0,1,.1,3.27c1.74-.17,2.91-2.25,3.69-3.58a8.5,8.5,0,0,0,1.14-4.63c-.37.93-2.44,3-2.14.8a37.39,37.39,0,0,1,.45-4.64c0-.14-.06,0-.16,0Z" transform="translate(-191.9 -341.39)"/><path class="cls-18" d="M225.48,387.55a11.33,11.33,0,0,1,2.07,6.46,10.59,10.59,0,0,0,3.71-4.84,3.41,3.41,0,0,1-2.3,1.73c-.05-.9,1-3.4.23-3.95-.48,1-.9,1.92-1.46,2.87a14,14,0,0,1-.17-2.5c.12-1,1.19-1.89,1.14-2.89-1.16.17-3.14,2.47-2.75,3.58Z" transform="translate(-191.9 -341.39)"/><path class="cls-18" d="M232.25,387.55c-.55,1.76-1.6,5.06-3.45,5.89,1,1.59,4,1.59,5.61,1.21a9.22,9.22,0,0,0,2.66-1.24,9.73,9.73,0,0,1,2-1.28,4.29,4.29,0,0,1-1.88-.44,13.83,13.83,0,0,1-1.29-1.54,3.24,3.24,0,0,0-1.61-1c-.66-.22-1.39-.21-2-.45a4.51,4.51,0,0,0-.09-1.05Z" transform="translate(-191.9 -341.39)"/><path class="cls-18" d="M223.33,386.64c.81-.38,1,1.78,1,2.27a3.75,3.75,0,0,1-1.23,3,3.92,3.92,0,0,1-2.39,1.05c-.75-.07-1.47-1.47-2.15-1.38-1.14.15-.33,3.25.41,3.65a3.45,3.45,0,0,0,1.83.31c.81-.16,1-.69,1.84-.29,1.15.51,2.46,1.09,3.61.15s1.13-2.55,1-3.79a8.76,8.76,0,0,0-1.33-3.61c-.42-.74-1.78-1.89-2.68-1.6Z" transform="translate(-191.9 -341.39)"/><path class="cls-18" d="M214.64,381.83c-.92.43-1.22,2.57-1.4,3.51a6.16,6.16,0,0,0,.27,3.45c.63,1.66,2.26,4.62,4.2,4.93a11.52,11.52,0,0,1,.76-4.17c.49-1.18,1.43-2.3.55-3.45s-2.08-1.92-3-3c-.26-.31-.64-1.33-1.06-1.38-.63-.08-1.25,1.43-1.46,1.83Z" transform="translate(-191.9 -341.39)"/><path class="cls-18" d="M214.72,382c.45,1.15,1.36,2,1.77,3.27a7.5,7.5,0,0,1,.38,3.16c-.06.66-.2,1.47-1,1.51-.59,0-.92-.77-1.52-.68-.29.55.37,1.5.6,2,.37.84.92,2.12,1.91,2.37s.84-.57.8-1.36a6,6,0,0,1,.85-3c.34-.66,1-1.35.77-2.14a7.67,7.67,0,0,0-1.4-2,19.87,19.87,0,0,0-1.77-1.89,4.07,4.07,0,0,1-1.08-1.07c-.18-.33-.13-.75-.39-1Z" transform="translate(-191.9 -341.39)"/><path class="cls-18" d="M213.72,389.08c-.95-.95-3,.44-3.84,1-1,.64-2.19,2.18-3.53,2.09.43,1.43,3.56,2.14,4.83,2.2,1.91.1,3.64.08,5.23-1-1.57-.88-2.24-3.16-2.76-4.22Z" transform="translate(-191.9 -341.39)"/><path class="cls-18" d="M214.72,382c-.07.62-.6,1.2-.75,1.85a7.65,7.65,0,0,0,0,2.9,8.45,8.45,0,0,0,2.39,5.09c.07-1,0-2,0-3a13.59,13.59,0,0,1,1,1.36,26.6,26.6,0,0,0,.95-4.11c1.72.81.51,2.62.05,3.72a11.23,11.23,0,0,0-.61,4.12c-1.07.26-2.32-1.42-2.91-2.12a7.85,7.85,0,0,1-1.79-3.29,10,10,0,0,1-.07-3.58c.25-1.28,1.25-2.1,1.86-2.9Z" transform="translate(-191.9 -341.39)"/><path class="cls-18" d="M207.26,378.62c-1.24,1.41-.9,4.73-.25,6.34a8.66,8.66,0,0,0,3.33,3.87,4.92,4.92,0,0,0,1.92.17c.93,0,1.06-.06.92-1a11.76,11.76,0,0,1-.23-2.37c0-.63.36-1.23.39-1.83a3.2,3.2,0,0,0-1.6-2.59c-.07.41.85,3.5.14,3.44a15.89,15.89,0,0,1-1.37-2,5.17,5.17,0,0,0-1.78-1.73c.16,1.13,1.33,2.42,1.77,3.52a6.56,6.56,0,0,1,.52,2.72c-1.7.26-3.28-1.92-3.82-3.25a7,7,0,0,1-.17-4.52Z" transform="translate(-191.9 -341.39)"/><path class="cls-18" d="M206.74,384c-1.57-.22-2.46.53-3.9.92.91.08,1.56-.34,2.46.06s1.06.74.82,1.58a2.8,2.8,0,0,1-2.6,1.86c.27,1.15,2.62,1.28,3.57,1.31,1.3,0,2.46-.6,3.73-.81-.75.41-2.62-1.63-2.93-2.24-.45-.91-.89-1.87-1.26-2.79Z" transform="translate(-191.9 -341.39)"/><path class="cls-18" d="M200.92,374.86c.06.43-.45,1-.59,1.45A5.56,5.56,0,0,0,200,378c0,.31-.22,1.13-.06,1.42s.79.11,1.27.18a6.25,6.25,0,0,1,2.77,1.54c.83.61,1.23,1.64,2,2.22.54-.66.53-2.43.47-3.26a4.13,4.13,0,0,0-1.2-2.62c0,.47.11,2.36-.71,2.27-.32,0-.71-1.18-.86-1.41a5.11,5.11,0,0,0-.86-1.09c-.09.39,0,.95-.47,1.15s-.85-.2-1-.57a4.61,4.61,0,0,1-.3-2.94Z" transform="translate(-191.9 -341.39)"/><path class="cls-18" d="M197.81,372.58c-.49,1.21-1.3,2.92-.54,4.24.27.47.77.63,1.24,1a7.08,7.08,0,0,1,1.49,1.4,10.32,10.32,0,0,1,.56-3.53,2,2,0,0,0-.44-2.35c-.15.93.27,2.33-.76,2.91-.49-.73-.24-1.84-.74-2.61,0,.46-.11,3.08-.86,2.05a3.58,3.58,0,0,1,.05-2.87Z" transform="translate(-191.9 -341.39)"/><path class="cls-18" d="M198.9,379.9c1.35,0,3.56.83,3.87,2.36.21,1.08-.7.63-1.2.28.56.39,1.24.81.73,1.48s-1.52.52-2.29.52a4.43,4.43,0,0,0,3.26.15A7.37,7.37,0,0,1,206,384a11.55,11.55,0,0,0-3.05-3.78,3.27,3.27,0,0,0-1.91-.73c-.46,0-1.8,0-1.9.4Z" transform="translate(-191.9 -341.39)"/><path class="cls-18" d="M225.2,387.74a6.22,6.22,0,0,0,.52,1,5.25,5.25,0,0,1,.23,2.05,3,3,0,0,1-1.49,2.59c-.66.41-1.12.18-1.8.18s-.82.5-1.38.78a2.25,2.25,0,0,1-2.14-.39c-.48-.29-1.19-.56-.81.34a2.22,2.22,0,0,0,1.81,1.14c.79.07,1.23-.42,1.93-.58s1.7.68,2.54.76c1.41.14,2.22-.81,2.56-2.1a5.61,5.61,0,0,0-.32-3.61,7,7,0,0,0-.89-1.68c-.25-.31-.72-.58-.82-1Z" transform="translate(-191.9 -341.39)"/><path class="cls-20" d="M213.2,389.06c-.42.17-1,.07-1.49.33.72,0,1.39.27,1.49,1.05.12,1-.77,1-1.42,1.37.7.07,2.42-.43,2.12.91-.24,1-1.62,1.28-2.47,1.49,1.75.56,3.47-.29,4.94-1a8.65,8.65,0,0,1-2.14-2.9c-.19-.4-.29-1.24-.68-1.43s-1.29.27-1.73.45Z" transform="translate(-191.9 -341.39)"/><path class="cls-19" d="M197.57,373c.33-.15.51-.93.71-1.26a5,5,0,0,1,.84-1c.12,1.41,1.89,2.06,1.68,3.64a9.92,9.92,0,0,1,1.16-1.64c.46.44.69,1.15,1.15,1.61s1.23,1,1.85,1.54a5.16,5.16,0,0,1,1.67,3.58,6,6,0,0,1,.92-1.82c.59.44,1,1.17,1.61,1.63s1.54.92,2.27,1.41a4.45,4.45,0,0,1,2.06,3.36c0-1.17-1.78-2.56-2.65-3.2-.59-.43-1.2-.87-1.78-1.31s-.88-1.05-1.39-1.37a4.08,4.08,0,0,0-.94,2.23c-.33-.58-.54-1.45-.87-2.1a6.14,6.14,0,0,0-1.37-1.84c-.48-.43-1.1-.78-1.55-1.25s-.57-1.3-1-1.85c-.39.56-.62,1.4-1,1.89-.39-.59-.41-1.35-.89-2a4.1,4.1,0,0,1-1-1.84c-.25.34-.93,1.67-1.25,1.6Z" transform="translate(-191.9 -341.39)"/><path class="cls-21" d="M228.7,348a7.75,7.75,0,0,1,4.45,4.68c.34,1.29-.1,2.8,0,4.13.17,1.48.9,2.47,1.2,3.87,1.14,5.27-1.61,10.41-4.89,14.07A17.42,17.42,0,0,1,219,380.22c-2.32.39-7.52,0-9.45-1.54,1.18,1,2.31,2.15,3.45,3.25,2.68-2.55,4.11,2.86,6.2,4,2.91,1.56,5.81.49,7.93-1.74.49-.51.92-1.85,1.56-2.16s1.63.38,2.25.23c1.84-.46,2.91-1.89,4.25-3a20.76,20.76,0,0,0,6.05-7.71c.82.12,1.25,1,1.65,1.69,2.58-6.13,1.8-11.87-1.88-17.24a18.39,18.39,0,0,0-5.3-5.49c-2.21-1.39-4.64-1.44-6.76-2.75Z" transform="translate(-191.9 -341.39)"/></g></g></svg>