<svg xmlns="http://www.w3.org/2000/svg" xmlns:xlink="http://www.w3.org/1999/xlink" viewBox="0 0 34 36.94"><defs><linearGradient id="aba6dd4b-c7d6-4536-a6e3-55f4e0539c5a" x1="74.52" y1="119.98" x2="67.71" y2="131.07" gradientTransform="translate(23.15 9.38) rotate(7.33)" gradientUnits="userSpaceOnUse"><stop offset="0" stop-color="#3ca6da"/><stop offset="0.55" stop-color="#0674b3"/><stop offset="0.72" stop-color="#056faf"/><stop offset="0.9" stop-color="#0262a2"/><stop offset="1" stop-color="#005898"/></linearGradient><linearGradient id="fdefbcc0-68e8-4a37-aac8-45a0d2c18a05" x1="80.74" y1="138.63" x2="74.73" y2="146.52" gradientUnits="userSpaceOnUse"><stop offset="0" stop-color="#f0e8e5"/><stop offset="0.44" stop-color="#ede3df"/><stop offset="1" stop-color="#e3d5cf"/></linearGradient><linearGradient id="f2b8abaf-0296-41a9-9e6d-214d4e367d79" x1="-223.09" y1="158.24" x2="-229.9" y2="169.33" gradientTransform="matrix(-0.99, 0.13, 0.13, 0.99, -151.47, 9.38)" xlink:href="#aba6dd4b-c7d6-4536-a6e3-55f4e0539c5a"/><linearGradient id="a0375a6a-2000-4a30-97bc-292aec87bf98" x1="-219.3" y1="138.63" x2="-225.32" y2="146.52" gradientTransform="matrix(-1, 0, 0, 1, -128.32, 0)" xlink:href="#fdefbcc0-68e8-4a37-aac8-45a0d2c18a05"/><linearGradient id="a8b2c5e3-7cda-4a27-a560-43ba099ea7f7" x1="-16.52" y1="223.71" x2="-12.58" y2="223.71" gradientTransform="translate(-150.1 115.72) rotate(-90)" gradientUnits="userSpaceOnUse"><stop offset="0.17" stop-color="#3ca6da"/><stop offset="0.38" stop-color="#1c7cb7"/><stop offset="0.57" stop-color="#005898"/></linearGradient><linearGradient id="f433c8ab-2c3c-4c79-a690-6e488f3425fa" x1="21.91" y1="207.84" x2="25.85" y2="207.84" gradientTransform="translate(-130.88 84.9) rotate(-72)" xlink:href="#a8b2c5e3-7cda-4a27-a560-43ba099ea7f7"/><linearGradient id="e202c04d-cc6f-4734-be27-f4ae9c60365d" x1="54.85" y1="180.7" x2="58.79" y2="180.7" gradientTransform="translate(-103.66 62.67) rotate(-54)" xlink:href="#a8b2c5e3-7cda-4a27-a560-43ba099ea7f7"/><linearGradient id="a3917057-3bc3-41be-a479-526a23027877" x1="-170.85" y1="95.94" x2="-166.9" y2="95.94" gradientTransform="translate(13.29 317.05) rotate(144)" xlink:href="#a8b2c5e3-7cda-4a27-a560-43ba099ea7f7"/><linearGradient id="ff595c6b-e107-4a1d-91b6-52b19c9772c1" x1="76.72" y1="145.37" x2="80.66" y2="145.37" gradientTransform="translate(-70.45 48.79) rotate(-36)" xlink:href="#a8b2c5e3-7cda-4a27-a560-43ba099ea7f7"/><linearGradient id="a7dcd232-cd0f-4bd5-9212-7c29fa80dea2" x1="-180.87" y1="136.01" x2="-176.93" y2="136.01" gradientTransform="translate(-38.07 326.62) rotate(162)" xlink:href="#a8b2c5e3-7cda-4a27-a560-43ba099ea7f7"/><linearGradient id="ed92c27e-6535-4789-b3a9-a40813d813e7" x1="86.93" y1="103.79" x2="90.87" y2="103.79" gradientTransform="translate(-34.51 47.08) rotate(-18)" xlink:href="#a8b2c5e3-7cda-4a27-a560-43ba099ea7f7"/><linearGradient id="a48210a5-160c-4f6d-893e-59dcad5930ff" x1="-177.84" y1="178.48" x2="-173.9" y2="178.48" gradientTransform="translate(-89.66 321.11) rotate(180)" xlink:href="#a8b2c5e3-7cda-4a27-a560-43ba099ea7f7"/><linearGradient id="b86091e1-a2c9-4649-ac4f-7ee83f290288" x1="83.99" y1="62.39" x2="87.94" y2="62.39" gradientTransform="translate(0 55.29)" xlink:href="#a8b2c5e3-7cda-4a27-a560-43ba099ea7f7"/><linearGradient id="b4562d8e-5b03-4a09-9e90-6fcc6ee2eb5b" x1="-162.57" y1="217.38" x2="-158.63" y2="217.38" gradientTransform="translate(-137.57 299.18) rotate(-162)" xlink:href="#a8b2c5e3-7cda-4a27-a560-43ba099ea7f7"/><linearGradient id="f0385199-5a62-47e3-b6f5-d2f7ab31772b" x1="67.66" y1="23.37" x2="71.6" y2="23.37" gradientTransform="translate(30.82 74.51) rotate(18)" xlink:href="#a8b2c5e3-7cda-4a27-a560-43ba099ea7f7"/><linearGradient id="ad873f1a-e598-4f19-b2d0-0238403f3248" x1="-134.75" y1="249.49" x2="-130.8" y2="249.49" gradientTransform="translate(-175.22 264.11) rotate(-144)" xlink:href="#a8b2c5e3-7cda-4a27-a560-43ba099ea7f7"/><linearGradient id="bd0e1d47-7f2e-437e-ba46-ebbb86123f6a" x1="41.34" y1="-8.9" x2="45.28" y2="-8.9" gradientTransform="translate(53.05 101.73) rotate(36)" xlink:href="#a8b2c5e3-7cda-4a27-a560-43ba099ea7f7"/><linearGradient id="b60bf161-036f-47c1-89df-789d13d2fc5f" x1="-35.44" y1="-41.64" x2="-31.49" y2="-41.64" gradientTransform="translate(68.65 170.88) rotate(72)" xlink:href="#a8b2c5e3-7cda-4a27-a560-43ba099ea7f7"/><linearGradient id="af69b934-205a-4319-b242-0b5da8a4f0ea" x1="-99.42" y1="272.08" x2="-95.48" y2="272.08" gradientTransform="translate(-201.33 218.67) rotate(-126)" xlink:href="#a8b2c5e3-7cda-4a27-a560-43ba099ea7f7"/><linearGradient id="b0a1255f-f205-4cda-818c-c1fd8800b75f" x1="-77.33" y1="17.16" x2="-73.38" y2="17.16" gradientTransform="translate(115.72 205.39) rotate(90)" xlink:href="#a8b2c5e3-7cda-4a27-a560-43ba099ea7f7"/><linearGradient id="a2e4d914-ef76-434d-a635-989d374d009d" x1="5.3" y1="-30.78" x2="9.24" y2="-30.78" gradientTransform="translate(66.94 134.93) rotate(54)" xlink:href="#a8b2c5e3-7cda-4a27-a560-43ba099ea7f7"/><linearGradient id="f43767a9-d755-4cae-bc76-1e498ffdc310" x1="-116.82" y1="32.91" x2="-112.88" y2="32.91" gradientTransform="translate(93.8 253.29) rotate(108)" xlink:href="#a8b2c5e3-7cda-4a27-a560-43ba099ea7f7"/><linearGradient id="f870268f-c797-4d83-ad9a-4de1420d8cd6" x1="-58.51" y1="281.44" x2="-54.56" y2="281.44" gradientTransform="translate(-210.89 167.32) rotate(-108)" xlink:href="#a8b2c5e3-7cda-4a27-a560-43ba099ea7f7"/><linearGradient id="e93bc865-4d92-4560-8ba1-6b3b1f7451c2" x1="-148.25" y1="59.9" x2="-144.31" y2="59.9" gradientTransform="translate(58.73 290.94) rotate(126)" xlink:href="#a8b2c5e3-7cda-4a27-a560-43ba099ea7f7"/><clipPath id="b0aa2c29-81eb-40fe-9162-921ecce10dc7" transform="translate(-68.86 -115.08)"><circle cx="85.86" cy="130.32" r="11.05" style="fill:none"/></clipPath><linearGradient id="a6840648-67bc-49cf-9f77-427cf2dd9a0b" x1="24.7" y1="7.58" x2="8.99" y2="23.23" gradientUnits="userSpaceOnUse"><stop offset="0.05" stop-color="#eeeff4"/><stop offset="0.1" stop-color="#c4c3c9"/><stop offset="0.31" stop-color="#e5e5e8"/><stop offset="0.5" stop-color="#c2c3ca"/><stop offset="0.69" stop-color="#dbdcde"/><stop offset="0.84" stop-color="#dde0e5"/><stop offset="0.92" stop-color="#e0e3e8"/><stop offset="0.98" stop-color="#e9ebf0"/><stop offset="1" stop-color="#eeeff4"/></linearGradient><linearGradient id="eeb97499-f2a1-4ac4-a752-09678882c7ec" x1="93.25" y1="122.02" x2="78.56" y2="138.54" gradientUnits="userSpaceOnUse"><stop offset="0.05" stop-color="#eeeff4"/><stop offset="0.31" stop-color="#e5e5e8"/><stop offset="1" stop-color="#eeeff4"/></linearGradient><linearGradient id="b2c817d1-7e07-4836-83fc-6f575b817ede" x1="92.6" y1="124.88" x2="79.11" y2="135.78" gradientTransform="translate(200.71 24.64) rotate(80.76)" gradientUnits="userSpaceOnUse"><stop offset="0.48" stop-color="#cc9434"/><stop offset="0.68" stop-color="#ffea72"/><stop offset="0.76" stop-color="#ffe76c"/><stop offset="0.87" stop-color="#ffde5c"/><stop offset="0.96" stop-color="#ffd44a"/></linearGradient><linearGradient id="b0e2b883-0474-4a17-a5a2-35148be1a793" x1="91.71" y1="123.51" x2="80.23" y2="136.9" gradientTransform="translate(200.71 24.64) rotate(80.76)" xlink:href="#eeb97499-f2a1-4ac4-a752-09678882c7ec"/><linearGradient id="bb17aa3a-f763-4a0d-8a6c-ab7edd7b7e06" x1="21.91" y1="11.22" x2="9.61" y2="21.31" gradientUnits="userSpaceOnUse"><stop offset="0" stop-color="#eeeff4"/><stop offset="0.26" stop-color="#c4c3c9"/><stop offset="0.65" stop-color="#eeeef0"/><stop offset="0.95" stop-color="#dddde2"/></linearGradient><linearGradient id="ec05150e-c589-4de7-a98f-47f3264b2401" x1="92.53" y1="131.09" x2="93.04" y2="131.09" gradientUnits="userSpaceOnUse"><stop offset="0" stop-color="#ebece8"/><stop offset="1" stop-color="#444"/></linearGradient><linearGradient id="b6681c18-0f45-458e-84ac-1f4c25420a18" x1="92.34" y1="132.09" x2="92.85" y2="132.09" xlink:href="#ec05150e-c589-4de7-a98f-47f3264b2401"/><linearGradient id="bd7f5122-f661-4c7c-8984-46fed12c3d71" x1="92.02" y1="133.05" x2="92.53" y2="133.05" xlink:href="#ec05150e-c589-4de7-a98f-47f3264b2401"/><linearGradient id="f152a735-362e-4347-bfb4-46c3a90623f0" x1="91.55" y1="133.95" x2="92.06" y2="133.95" xlink:href="#ec05150e-c589-4de7-a98f-47f3264b2401"/><linearGradient id="a79b7674-2f52-4609-b7b2-d9a4afeb970b" x1="90.96" y1="134.78" x2="91.47" y2="134.78" xlink:href="#ec05150e-c589-4de7-a98f-47f3264b2401"/><linearGradient id="ec004cbf-0e72-4467-8e7b-295be4550851" x1="90.26" y1="135.51" x2="90.77" y2="135.51" xlink:href="#ec05150e-c589-4de7-a98f-47f3264b2401"/><linearGradient id="b2a12f9e-94dc-4bcb-98a5-93449c9efb86" x1="89.45" y1="136.13" x2="89.96" y2="136.13" xlink:href="#ec05150e-c589-4de7-a98f-47f3264b2401"/><linearGradient id="a0fe8b9f-62aa-46c4-95d1-5f3f128767ee" x1="88.57" y1="136.63" x2="89.08" y2="136.63" xlink:href="#ec05150e-c589-4de7-a98f-47f3264b2401"/><linearGradient id="bffcc3a3-7ffc-4402-83f6-e5d0e389039e" x1="87.62" y1="137" x2="88.13" y2="137" xlink:href="#ec05150e-c589-4de7-a98f-47f3264b2401"/><linearGradient id="bfbb616f-8dbe-446c-acbd-4ef3ddd35ed2" x1="86.63" y1="137.21" x2="87.13" y2="137.21" xlink:href="#ec05150e-c589-4de7-a98f-47f3264b2401"/><linearGradient id="b52a3a1d-8dd6-475c-9be2-cf0432b4b953" x1="85.61" y1="137.29" x2="86.12" y2="137.29" xlink:href="#ec05150e-c589-4de7-a98f-47f3264b2401"/><linearGradient id="b3e76ae0-8f61-4e97-98b7-7142491e5083" x1="84.6" y1="137.21" x2="85.1" y2="137.21" xlink:href="#ec05150e-c589-4de7-a98f-47f3264b2401"/><linearGradient id="e5a92ec4-b941-48ea-8e15-c5f921341da2" x1="83.6" y1="137" x2="84.11" y2="137" xlink:href="#ec05150e-c589-4de7-a98f-47f3264b2401"/><linearGradient id="f6b81405-3712-467a-bcc9-1c9f2b6481d6" x1="82.65" y1="136.63" x2="83.16" y2="136.63" xlink:href="#ec05150e-c589-4de7-a98f-47f3264b2401"/><linearGradient id="a40e1f51-a065-4364-a159-e8397dc83dd4" x1="81.77" y1="136.13" x2="82.28" y2="136.13" xlink:href="#ec05150e-c589-4de7-a98f-47f3264b2401"/><linearGradient id="b620944e-d640-4d84-869c-9313c0f1dd1f" x1="80.96" y1="135.51" x2="81.47" y2="135.51" xlink:href="#ec05150e-c589-4de7-a98f-47f3264b2401"/><linearGradient id="e6575b77-c7c3-4a7d-a3e3-c0c05d359516" x1="80.26" y1="134.78" x2="80.77" y2="134.78" xlink:href="#ec05150e-c589-4de7-a98f-47f3264b2401"/><linearGradient id="f38a09e4-09c0-400f-be25-6197fe535466" x1="79.67" y1="133.95" x2="80.18" y2="133.95" xlink:href="#ec05150e-c589-4de7-a98f-47f3264b2401"/><linearGradient id="afd73994-f828-40a4-ba56-44020b5f102d" x1="79.2" y1="133.05" x2="79.71" y2="133.05" xlink:href="#ec05150e-c589-4de7-a98f-47f3264b2401"/><linearGradient id="b43549c4-6873-4273-b2fe-f676ec359b0f" x1="78.88" y1="132.09" x2="79.38" y2="132.09" xlink:href="#ec05150e-c589-4de7-a98f-47f3264b2401"/><linearGradient id="b4066959-542b-4793-907b-1ed821597a58" x1="78.69" y1="131.09" x2="79.2" y2="131.09" xlink:href="#ec05150e-c589-4de7-a98f-47f3264b2401"/><linearGradient id="baae27fd-9c34-4348-9429-449ec70451e3" x1="78.66" y1="130.07" x2="79.17" y2="130.07" xlink:href="#ec05150e-c589-4de7-a98f-47f3264b2401"/><linearGradient id="b9e1a759-d4b9-4afc-b6a8-e15f29e5e248" x1="78.76" y1="129.06" x2="79.27" y2="129.06" xlink:href="#ec05150e-c589-4de7-a98f-47f3264b2401"/><linearGradient id="a366958e-02da-4da5-97a0-caab10a1cc29" x1="79.02" y1="128.08" x2="79.53" y2="128.08" xlink:href="#ec05150e-c589-4de7-a98f-47f3264b2401"/><linearGradient id="be784684-b2fb-4df0-b607-77aae553e7a3" x1="79.42" y1="127.14" x2="79.92" y2="127.14" xlink:href="#ec05150e-c589-4de7-a98f-47f3264b2401"/><linearGradient id="b27a3c27-cd80-40e9-9d68-1b0ef6923c83" x1="79.94" y1="126.27" x2="80.46" y2="126.27" xlink:href="#ec05150e-c589-4de7-a98f-47f3264b2401"/><linearGradient id="b2681590-2aef-4581-aef4-1ec3738cc582" x1="80.6" y1="125.49" x2="81.1" y2="125.49" xlink:href="#ec05150e-c589-4de7-a98f-47f3264b2401"/><linearGradient id="e7054c24-9407-42ef-918b-9035176f638b" x1="81.35" y1="124.81" x2="81.86" y2="124.81" xlink:href="#ec05150e-c589-4de7-a98f-47f3264b2401"/><linearGradient id="f40e6eb3-0dea-4e78-abb6-73eb4d95dfd6" x1="82.2" y1="124.25" x2="82.71" y2="124.25" xlink:href="#ec05150e-c589-4de7-a98f-47f3264b2401"/><linearGradient id="f71ba4a0-53ef-4d58-be7d-8c67153d9250" x1="83.12" y1="123.82" x2="83.63" y2="123.82" xlink:href="#ec05150e-c589-4de7-a98f-47f3264b2401"/><linearGradient id="bec59467-78eb-468e-b42d-e6b2c142849d" x1="84.1" y1="123.53" x2="84.6" y2="123.53" xlink:href="#ec05150e-c589-4de7-a98f-47f3264b2401"/><linearGradient id="bfbacd74-8eda-4392-8c0c-aa70b541f206" x1="85.1" y1="123.38" x2="85.61" y2="123.38" xlink:href="#ec05150e-c589-4de7-a98f-47f3264b2401"/><linearGradient id="a60be79a-869b-4fc9-89c2-d93be4a73fb9" x1="86.12" y1="123.38" x2="86.63" y2="123.38" xlink:href="#ec05150e-c589-4de7-a98f-47f3264b2401"/><linearGradient id="e3b8ad57-5ea4-4cbc-9142-f14ce607998e" x1="87.13" y1="123.53" x2="87.63" y2="123.53" xlink:href="#ec05150e-c589-4de7-a98f-47f3264b2401"/><linearGradient id="bc688513-680a-49ed-8509-65d57f4f44ee" x1="88.1" y1="123.82" x2="88.61" y2="123.82" xlink:href="#ec05150e-c589-4de7-a98f-47f3264b2401"/><linearGradient id="bb765d31-f252-4c80-926b-bd5ee0353787" x1="89.02" y1="124.25" x2="89.53" y2="124.25" xlink:href="#ec05150e-c589-4de7-a98f-47f3264b2401"/><linearGradient id="be742f0d-c382-401d-b3a6-a21fe4e02853" x1="89.87" y1="124.81" x2="90.38" y2="124.81" xlink:href="#ec05150e-c589-4de7-a98f-47f3264b2401"/><linearGradient id="eb94db28-1e18-4daf-9bb4-561c39b745f1" x1="90.63" y1="125.49" x2="91.13" y2="125.49" xlink:href="#ec05150e-c589-4de7-a98f-47f3264b2401"/><linearGradient id="b3c39118-c2ec-4a75-8e12-bb50bf32eb1b" x1="91.27" y1="126.27" x2="91.79" y2="126.27" xlink:href="#ec05150e-c589-4de7-a98f-47f3264b2401"/><linearGradient id="b60af240-f9ee-4f63-bbd4-5498c3d67e60" x1="91.81" y1="127.14" x2="92.31" y2="127.14" xlink:href="#ec05150e-c589-4de7-a98f-47f3264b2401"/><linearGradient id="bef22622-02ef-469f-8347-8e69271f344d" x1="92.2" y1="128.08" x2="92.71" y2="128.08" xlink:href="#ec05150e-c589-4de7-a98f-47f3264b2401"/><linearGradient id="f47a781e-cb15-4bda-a8f8-25108f16cc75" x1="92.46" y1="129.06" x2="92.97" y2="129.06" xlink:href="#ec05150e-c589-4de7-a98f-47f3264b2401"/><linearGradient id="e42e5e20-ff12-4ac4-8080-5dae4663c0f7" x1="92.56" y1="130.07" x2="93.07" y2="130.07" xlink:href="#ec05150e-c589-4de7-a98f-47f3264b2401"/><radialGradient id="e8117101-2621-4b57-a43f-c3cf7ea7b8a7" cx="59.73" cy="148.65" r="19.68" gradientTransform="translate(56 56) scale(0.5)" gradientUnits="userSpaceOnUse"><stop offset="0.57" stop-color="#cbd2d6"/><stop offset="0.97" stop-color="#5c707e"/></radialGradient><linearGradient id="e41a60ec-5380-4129-8729-3ad41fb526a6" x1="83.54" y1="131.52" x2="89.43" y2="128.73" gradientUnits="userSpaceOnUse"><stop offset="0" stop-color="#9b9ba7"/><stop offset="0.65" stop-color="#eeeef0"/><stop offset="0.95" stop-color="#dddde2"/></linearGradient><linearGradient id="aa1ff10a-2c43-4e28-8ab2-54f88bbc8635" x1="86.13" y1="126.6" x2="86.13" y2="133.16" gradientUnits="userSpaceOnUse"><stop offset="0.05" stop-color="#eeeff4"/><stop offset="0.17" stop-color="#e5e5e8"/><stop offset="0.25" stop-color="#c8c8ce"/><stop offset="0.33" stop-color="#afafb9"/><stop offset="0.41" stop-color="#a0a0ac"/><stop offset="0.47" stop-color="#9b9ba7"/><stop offset="0.65" stop-color="#707081"/><stop offset="0.79" stop-color="#bebec5"/><stop offset="0.81" stop-color="#c9c9d0"/><stop offset="0.85" stop-color="#d3d3da"/><stop offset="0.88" stop-color="#d7d7de"/><stop offset="0.91" stop-color="#e3e4e9"/><stop offset="0.95" stop-color="#ebecf2"/><stop offset="1" stop-color="#eeeff4"/></linearGradient><radialGradient id="ab3c4830-5563-4fe4-8e60-d19a90ccbb03" cx="59.73" cy="155.1" r="35.5" gradientTransform="translate(56 56) scale(0.5)" gradientUnits="userSpaceOnUse"><stop offset="0" stop-color="#ececbb"/><stop offset="1" stop-color="#784f58"/></radialGradient></defs><g style="isolation:isolate"><g id="b61185d6-957e-49e4-a983-3eb0a33e8d36" data-name="Layer 1"><path d="M76.64,135.78s-6.72,5.2-7.78,11.66c0,0,5-.67,5.94-.66,0,0,1.47,3.66,3.14,5.24,0,0,4.09-9.26,7.7-11.69C85.64,140.33,77,135.48,76.64,135.78Z" transform="translate(-68.86 -115.08)" style="fill:url(#aba6dd4b-c7d6-4536-a6e3-55f4e0539c5a)"/><path d="M71.49,147.1c1.43-.17,2.8-.33,3.31-.32a27.47,27.47,0,0,0,1.46,3c.51-1.15,1.58-3.41,2.15-4.32a38.32,38.32,0,0,1,4.31-5.6c-1.14-.86-3.13-1.94-4.27-2.71a22.28,22.28,0,0,0-2.78,3A23.79,23.79,0,0,0,71.49,147.1Z" transform="translate(-68.86 -115.08)" style="fill:url(#fdefbcc0-68e8-4a37-aac8-45a0d2c18a05)"/><path d="M95.09,135.78s6.72,5.2,7.78,11.66c0,0-5-.67-6-.66,0,0-1.46,3.66-3.13,5.24,0,0-4.09-9.26-7.7-11.69C86.09,140.33,94.72,135.48,95.09,135.78Z" transform="translate(-68.86 -115.08)" style="fill:url(#f2b8abaf-0296-41a9-9e6d-214d4e367d79)"/><path d="M100.24,147.1c-1.43-.17-2.8-.33-3.32-.32a26.3,26.3,0,0,1-1.45,3c-.51-1.15-1.58-3.41-2.15-4.32a38.32,38.32,0,0,0-4.31-5.6c1.14-.86,3.13-1.94,4.27-2.71a22.28,22.28,0,0,1,2.78,3A23.79,23.79,0,0,1,100.24,147.1Z" transform="translate(-68.86 -115.08)" style="fill:url(#a0375a6a-2000-4a30-97bc-292aec87bf98)"/><path d="M81.39,141.56l-.84-.39c-.26-.12-.28,0-.43.25L78.57,140a11.41,11.41,0,0,1-1.3-1.2h0s-.31.21-.33.23l-1.33-2.36c-.46.41-.9.84-1.33,1.29h0a24.5,24.5,0,0,0-2,2.25c.24.59.7,1.51,1.45,1.11A18.73,18.73,0,0,0,76,139.78a3.93,3.93,0,0,0-.53,1.74h0a3.36,3.36,0,0,0,.39,1.64h0c.27.53,1.44,2.37,2.25,1.73a11.06,11.06,0,0,0,1.79-2.28,3.91,3.91,0,0,0,.08,1.95,2.75,2.75,0,0,0,.83,1.3l.22.2c.29-.49.59-1,.91-1.47s.65-1.06,1-1.57h0c.13-.2.26-.38.39-.57Z" transform="translate(-68.86 -115.08)" style="fill:#223859;opacity:0.5;mix-blend-mode:multiply"/><path d="M90.36,141.56l.84-.39c.26-.12.28,0,.42.25L93.18,140a11.41,11.41,0,0,0,1.3-1.2h0s.3.21.33.23l1.33-2.36c.46.41.9.84,1.33,1.29h0a26.14,26.14,0,0,1,2,2.25c-.24.59-.7,1.51-1.45,1.11a18.73,18.73,0,0,1-2.23-1.53,3.93,3.93,0,0,1,.53,1.74h0a3.48,3.48,0,0,1-.39,1.64h0c-.27.53-1.44,2.37-2.25,1.73a10.73,10.73,0,0,1-1.79-2.28,3.91,3.91,0,0,1-.08,1.95,2.75,2.75,0,0,1-.83,1.3l-.22.2c-.29-.49-.59-1-.91-1.47s-.65-1.06-1-1.57h0c-.13-.2-.26-.38-.4-.57Z" transform="translate(-68.86 -115.08)" style="fill:#223859;opacity:0.5;mix-blend-mode:multiply"/><path d="M76.21,128.48a5.87,5.87,0,0,0-1.35-.27,3.88,3.88,0,0,0-2.52.48A3.45,3.45,0,0,0,71,131.18a.84.84,0,0,0,.3.83,27.33,27.33,0,0,0,3.93.1h.54Z" transform="translate(-68.86 -115.08)" style="fill:url(#a8b2c5e3-7cda-4a27-a560-43ba099ea7f7)"/><path d="M72.34,128.69a2.78,2.78,0,0,0-.89,1A8.84,8.84,0,0,1,76,130c.09-.81.18-1.55.18-1.55a5.37,5.37,0,0,0-1.35-.28A3.88,3.88,0,0,0,72.34,128.69Z" transform="translate(-68.86 -115.08)" style="fill:#265e81;opacity:0.75;mix-blend-mode:multiply"/><path d="M77.21,125.51a6.75,6.75,0,0,0-1.2-.68,3.86,3.86,0,0,0-2.54-.31,3.39,3.39,0,0,0-2,2,.84.84,0,0,0,0,.88,28.1,28.1,0,0,0,3.7,1.3s.51.18.52.17Z" transform="translate(-68.86 -115.08)" style="fill:url(#f433c8ab-2c3c-4c79-a690-6e488f3425fa)"/><path d="M73.47,124.52a2.7,2.7,0,0,0-1.18.71,8.77,8.77,0,0,1,4.26,1.71l.66-1.43a6.75,6.75,0,0,0-1.2-.68A3.86,3.86,0,0,0,73.47,124.52Z" transform="translate(-68.86 -115.08)" style="fill:#265e81;opacity:0.75;mix-blend-mode:multiply"/><path d="M79.07,123c.07-.07-.86-1-.92-1a3.86,3.86,0,0,0-2.33-1.08,3.38,3.38,0,0,0-2.53,1.23.84.84,0,0,0-.24.85,26.59,26.59,0,0,0,3.12,2.38,5.36,5.36,0,0,0,.44.32Z" transform="translate(-68.86 -115.08)" style="fill:url(#e202c04d-cc6f-4734-be27-f4ae9c60365d)"/><path d="M75.82,120.9a2.66,2.66,0,0,0-1.33.31A8.7,8.7,0,0,1,78,124.15L79.07,123c.07-.07-.86-1-.92-1A3.86,3.86,0,0,0,75.82,120.9Z" transform="translate(-68.86 -115.08)" style="fill:#265e81;opacity:0.75;mix-blend-mode:multiply"/><path d="M90.54,139.12a6.58,6.58,0,0,0,.57,1.26A3.88,3.88,0,0,0,93,142.13a3.44,3.44,0,0,0,2.79-.4.83.83,0,0,0,.5-.73A28.35,28.35,0,0,0,94,137.77s-.31-.44-.32-.44Z" transform="translate(-68.86 -115.08)" style="fill:url(#a3917057-3bc3-41be-a479-526a23027877)"/><path d="M93,142.13a2.78,2.78,0,0,0,1.37.11,8.75,8.75,0,0,1-2.44-3.89l-1.37.77a6.58,6.58,0,0,0,.57,1.26A3.88,3.88,0,0,0,93,142.13Z" transform="translate(-68.86 -115.08)" style="fill:#265e81;opacity:0.75;mix-blend-mode:multiply"/><path d="M81.63,121.18a6,6,0,0,0-.57-1.25,3.79,3.79,0,0,0-1.87-1.75,3.39,3.39,0,0,0-2.79.39.83.83,0,0,0-.5.73,27.5,27.5,0,0,0,2.23,3.23s.31.45.32.44Z" transform="translate(-68.86 -115.08)" style="fill:url(#ff595c6b-e107-4a1d-91b6-52b19c9772c1)"/><path d="M79.19,118.18a2.67,2.67,0,0,0-1.37-.12A8.75,8.75,0,0,1,80.26,122l1.37-.77a6,6,0,0,0-.57-1.25A3.79,3.79,0,0,0,79.19,118.18Z" transform="translate(-68.86 -115.08)" style="fill:#265e81;opacity:0.75;mix-blend-mode:multiply"/><path d="M87.55,140.06a6.82,6.82,0,0,0,.15,1.37A3.9,3.9,0,0,0,89,143.67a3.38,3.38,0,0,0,2.77.49.84.84,0,0,0,.7-.54,27.06,27.06,0,0,0-1.13-3.76,5.36,5.36,0,0,0-.16-.52Z" transform="translate(-68.86 -115.08)" style="fill:url(#a7dcd232-cd0f-4bd5-9212-7c29fa80dea2)"/><path d="M89,143.67a2.57,2.57,0,0,0,1.26.53,8.74,8.74,0,0,1-1.12-4.45l-1.54.31a6.82,6.82,0,0,0,.15,1.37A3.9,3.9,0,0,0,89,143.67Z" transform="translate(-68.86 -115.08)" style="fill:#265e81;opacity:0.75;mix-blend-mode:multiply"/><path d="M84.62,120.24a6.23,6.23,0,0,0-.15-1.37,3.85,3.85,0,0,0-1.25-2.24,3.38,3.38,0,0,0-2.77-.48.82.82,0,0,0-.7.54,29.42,29.42,0,0,0,1.13,3.76s.15.51.16.51Z" transform="translate(-68.86 -115.08)" style="fill:url(#ed92c27e-6535-4789-b3a9-a40813d813e7)"/><path d="M83.22,116.63A2.66,2.66,0,0,0,82,116.1a8.67,8.67,0,0,1,1.12,4.45l1.54-.31a6.23,6.23,0,0,0-.15-1.37A3.85,3.85,0,0,0,83.22,116.63Z" transform="translate(-68.86 -115.08)" style="fill:#265e81;opacity:0.75;mix-blend-mode:multiply"/><path d="M84.42,140a5.85,5.85,0,0,0-.28,1.35,3.79,3.79,0,0,0,.49,2.51,3.35,3.35,0,0,0,2.49,1.32.84.84,0,0,0,.83-.29A29,29,0,0,0,88,141s0-.54,0-.54Z" transform="translate(-68.86 -115.08)" style="fill:url(#a48210a5-160c-4f6d-893e-59dcad5930ff)"/><path d="M84.63,143.89a2.65,2.65,0,0,0,1,.9,8.83,8.83,0,0,1,.3-4.58L84.42,140a5.85,5.85,0,0,0-.28,1.35A3.79,3.79,0,0,0,84.63,143.89Z" transform="translate(-68.86 -115.08)" style="fill:#265e81;opacity:0.75;mix-blend-mode:multiply"/><path d="M87.75,120.27a5.76,5.76,0,0,0,.28-1.34,3.81,3.81,0,0,0-.49-2.52,3.38,3.38,0,0,0-2.49-1.32.81.81,0,0,0-.82.3,27.18,27.18,0,0,0-.1,3.92s0,.54,0,.54Z" transform="translate(-68.86 -115.08)" style="fill:url(#b86091e1-a2c9-4649-ac4f-7ee83f290288)"/><path d="M87.54,116.41a2.52,2.52,0,0,0-1-.89,8.8,8.8,0,0,1-.31,4.57l1.55.18a5.76,5.76,0,0,0,.28-1.34A3.81,3.81,0,0,0,87.54,116.41Z" transform="translate(-68.86 -115.08)" style="fill:#265e81;opacity:0.75;mix-blend-mode:multiply"/><path d="M81.45,139a5.71,5.71,0,0,0-.68,1.2,3.86,3.86,0,0,0-.32,2.54,3.44,3.44,0,0,0,2,2,.84.84,0,0,0,.88,0,29.17,29.17,0,0,0,1.31-3.71s.17-.51.16-.51Z" transform="translate(-68.86 -115.08)" style="fill:url(#b4562d8e-5b03-4a09-9e90-6fcc6ee2eb5b)"/><path d="M80.45,142.77a2.7,2.7,0,0,0,.71,1.17,8.85,8.85,0,0,1,1.71-4.26L81.45,139a5.71,5.71,0,0,0-.68,1.2A3.86,3.86,0,0,0,80.45,142.77Z" transform="translate(-68.86 -115.08)" style="fill:#265e81;opacity:0.75;mix-blend-mode:multiply"/><path d="M90.72,121.27a5.62,5.62,0,0,0,.68-1.19,3.89,3.89,0,0,0,.32-2.55,3.4,3.4,0,0,0-2-2,.8.8,0,0,0-.88,0,27.1,27.1,0,0,0-1.3,3.7s-.18.51-.17.51Z" transform="translate(-68.86 -115.08)" style="fill:url(#f0385199-5a62-47e3-b6f5-d2f7ab31772b)"/><path d="M91.72,117.53a2.76,2.76,0,0,0-.71-1.17,8.81,8.81,0,0,1-1.71,4.26l1.42.65a5.62,5.62,0,0,0,.68-1.19A3.89,3.89,0,0,0,91.72,117.53Z" transform="translate(-68.86 -115.08)" style="fill:#265e81;opacity:0.75;mix-blend-mode:multiply"/><path d="M78.93,137.16c-.07-.06-1,.87-1,.93a3.86,3.86,0,0,0-1.08,2.32,3.4,3.4,0,0,0,1.24,2.53.81.81,0,0,0,.84.25,28.66,28.66,0,0,0,2.39-3.12s.32-.43.31-.44Z" transform="translate(-68.86 -115.08)" style="fill:url(#ad873f1a-e598-4f19-b2d0-0238403f3248)"/><path d="M76.83,140.41a2.67,2.67,0,0,0,.31,1.34,8.8,8.8,0,0,1,2.94-3.53l-1.15-1.06c-.07-.06-1,.87-1,.93A3.86,3.86,0,0,0,76.83,140.41Z" transform="translate(-68.86 -115.08)" style="fill:#265e81;opacity:0.75;mix-blend-mode:multiply"/><path d="M93.24,123.14c.07.06,1-.86,1-.93a3.81,3.81,0,0,0,1.08-2.32,3.4,3.4,0,0,0-1.24-2.53.83.83,0,0,0-.84-.25,28.66,28.66,0,0,0-2.39,3.12s-.32.44-.31.44Z" transform="translate(-68.86 -115.08)" style="fill:url(#bd0e1d47-7f2e-437e-ba46-ebbb86123f6a)"/><path d="M95.34,119.89a2.64,2.64,0,0,0-.31-1.33,8.84,8.84,0,0,1-2.94,3.52l1.15,1.06c.07.06,1-.86,1-.93A3.81,3.81,0,0,0,95.34,119.89Z" transform="translate(-68.86 -115.08)" style="fill:#265e81;opacity:0.75;mix-blend-mode:multiply"/><path d="M96,128.69a6.21,6.21,0,0,0,1.37-.16,3.86,3.86,0,0,0,2.25-1.24,3.38,3.38,0,0,0,.48-2.77.84.84,0,0,0-.54-.7,27.73,27.73,0,0,0-3.76,1.12s-.52.16-.52.17Z" transform="translate(-68.86 -115.08)" style="fill:url(#b60bf161-036f-47c1-89df-789d13d2fc5f)"/><path d="M99.61,127.29a2.82,2.82,0,0,0,.53-1.26,8.89,8.89,0,0,1-4.45,1.12c.16.8.3,1.53.3,1.53a5.63,5.63,0,0,0,1.37-.15A3.86,3.86,0,0,0,99.61,127.29Z" transform="translate(-68.86 -115.08)" style="fill:#265e81;opacity:0.75;mix-blend-mode:multiply"/><path d="M77.11,134.61a6,6,0,0,0-1.25.57,3.83,3.83,0,0,0-1.75,1.87,3.36,3.36,0,0,0,.4,2.79.82.82,0,0,0,.72.49,25.31,25.31,0,0,0,3.24-2.23s.44-.3.43-.31Z" transform="translate(-68.86 -115.08)" style="fill:url(#af69b934-205a-4319-b242-0b5da8a4f0ea)"/><path d="M74.11,137.05a2.78,2.78,0,0,0-.11,1.37A8.77,8.77,0,0,1,77.88,136l-.76-1.36a5.8,5.8,0,0,0-1.26.57A3.83,3.83,0,0,0,74.11,137.05Z" transform="translate(-68.86 -115.08)" style="fill:#265e81;opacity:0.75;mix-blend-mode:multiply"/><path d="M96,131.82a6.57,6.57,0,0,0,1.35.28,3.88,3.88,0,0,0,2.52-.49,3.42,3.42,0,0,0,1.32-2.49.84.84,0,0,0-.3-.83,27.44,27.44,0,0,0-3.93-.09h-.54Z" transform="translate(-68.86 -115.08)" style="fill:url(#b0a1255f-f205-4cda-818c-c1fd8800b75f)"/><path d="M99.83,131.61a2.78,2.78,0,0,0,.89-1,8.73,8.73,0,0,1-4.58-.31c-.09.82-.18,1.56-.18,1.56a6.57,6.57,0,0,0,1.35.28A3.88,3.88,0,0,0,99.83,131.61Z" transform="translate(-68.86 -115.08)" style="fill:#265e81;opacity:0.75;mix-blend-mode:multiply"/><path d="M95.06,125.7a6.51,6.51,0,0,0,1.25-.57,3.9,3.9,0,0,0,1.75-1.88,3.37,3.37,0,0,0-.4-2.79.8.8,0,0,0-.72-.49,27.55,27.55,0,0,0-3.24,2.23s-.44.31-.43.32Z" transform="translate(-68.86 -115.08)" style="fill:url(#a2e4d914-ef76-434d-a635-989d374d009d)"/><path d="M98.06,123.25a2.53,2.53,0,0,0,.11-1.36,8.75,8.75,0,0,1-3.88,2.44l.77,1.36a5.89,5.89,0,0,0,1.25-.56A3.9,3.9,0,0,0,98.06,123.25Z" transform="translate(-68.86 -115.08)" style="fill:#265e81;opacity:0.75;mix-blend-mode:multiply"/><path d="M95,134.79a5.71,5.71,0,0,0,1.2.68,3.8,3.8,0,0,0,2.54.31,3.36,3.36,0,0,0,2-2,.82.82,0,0,0,0-.87,25.76,25.76,0,0,0-3.7-1.31l-.52-.17Z" transform="translate(-68.86 -115.08)" style="fill:url(#f43767a9-d755-4cae-bc76-1e498ffdc310)"/><path d="M98.7,135.78a2.61,2.61,0,0,0,1.18-.71,8.66,8.66,0,0,1-4.26-1.7L95,134.79a5.71,5.71,0,0,0,1.2.68A3.8,3.8,0,0,0,98.7,135.78Z" transform="translate(-68.86 -115.08)" style="fill:#265e81;opacity:0.75;mix-blend-mode:multiply"/><path d="M76.18,131.62a6.17,6.17,0,0,0-1.37.15A3.81,3.81,0,0,0,72.57,133a3.41,3.41,0,0,0-.49,2.78.84.84,0,0,0,.54.69,27.31,27.31,0,0,0,3.76-1.12l.52-.17Z" transform="translate(-68.86 -115.08)" style="fill:url(#f870268f-c797-4d83-ad9a-4de1420d8cd6)"/><path d="M72.57,133a2.64,2.64,0,0,0-.53,1.27,8.75,8.75,0,0,1,4.45-1.13l-.31-1.53a6.17,6.17,0,0,0-1.37.15A3.81,3.81,0,0,0,72.57,133Z" transform="translate(-68.86 -115.08)" style="fill:#265e81;opacity:0.75;mix-blend-mode:multiply"/><path d="M93.1,137.31c-.07.07.86,1,.92,1a3.87,3.87,0,0,0,2.33,1.09,3.4,3.4,0,0,0,2.53-1.24.84.84,0,0,0,.24-.85A27.73,27.73,0,0,0,96,134.94l-.43-.32Z" transform="translate(-68.86 -115.08)" style="fill:url(#e93bc865-4d92-4560-8ba1-6b3b1f7451c2)"/><path d="M96.35,139.41a2.67,2.67,0,0,0,1.33-.32,8.76,8.76,0,0,1-3.52-2.94l-1.06,1.16c-.07.07.86,1,.92,1A3.87,3.87,0,0,0,96.35,139.41Z" transform="translate(-68.86 -115.08)" style="fill:#265e81;opacity:0.75;mix-blend-mode:multiply"/><g style="opacity:0.55;mix-blend-mode:multiply"><path d="M98,127.22a12.49,12.49,0,1,0-5.17,13.51A12.6,12.6,0,0,0,98,127.22C97.85,126.82,98.21,128.21,98,127.22Z" transform="translate(-68.86 -115.08)" style="fill:#fff;opacity:0"/><path d="M97.94,127.22a12.48,12.48,0,1,0-5.17,13.5,12.57,12.57,0,0,0,5.17-13.5C97.84,126.82,98.2,128.22,97.94,127.22Z" transform="translate(-68.86 -115.08)" style="fill:#fefefe;opacity:0.004587"/><path d="M97.94,127.22a12.47,12.47,0,1,0-5.17,13.5,12.59,12.59,0,0,0,5.17-13.5Z" transform="translate(-68.86 -115.08)" style="fill:#fdfdfd;opacity:0.009174"/><path d="M97.93,127.22a12.47,12.47,0,1,0-5.17,13.49,12.57,12.57,0,0,0,5.17-13.49C97.83,126.82,98.19,128.22,97.93,127.22Z" transform="translate(-68.86 -115.08)" style="fill:#fbfbfb;opacity:0.013760999999999999"/><path d="M97.93,127.22a12.46,12.46,0,1,0-5.17,13.49,12.59,12.59,0,0,0,5.17-13.49C97.82,126.83,98.18,128.22,97.93,127.22Z" transform="translate(-68.86 -115.08)" style="fill:#fafafa;opacity:0.018349"/><path d="M97.92,127.22a12.46,12.46,0,1,0-5.16,13.48,12.57,12.57,0,0,0,5.16-13.48C97.82,126.83,98.17,128.22,97.92,127.22Z" transform="translate(-68.86 -115.08)" style="fill:#f9f9f9;opacity:0.022935999999999998"/><path d="M97.91,127.23a12.44,12.44,0,1,0-5.16,13.47,12.56,12.56,0,0,0,5.16-13.47C97.81,126.83,98.17,128.22,97.91,127.23Z" transform="translate(-68.86 -115.08)" style="fill:#f8f8f8;opacity:0.027523"/><path d="M97.91,127.23a12.45,12.45,0,1,0-5.16,13.46,12.57,12.57,0,0,0,5.16-13.46C97.8,126.83,98.16,128.22,97.91,127.23Z" transform="translate(-68.86 -115.08)" style="fill:#f7f7f7;opacity:0.03211"/><path d="M97.9,127.23a12.43,12.43,0,1,0-5.15,13.46,12.54,12.54,0,0,0,5.15-13.46C97.8,126.83,98.16,128.22,97.9,127.23Z" transform="translate(-68.86 -115.08)" style="fill:#f6f6f6;opacity:0.036697"/><path d="M97.89,127.23a12.43,12.43,0,1,0-5.15,13.45,12.52,12.52,0,0,0,5.15-13.45C97.79,126.83,98.15,128.22,97.89,127.23Z" transform="translate(-68.86 -115.08)" style="fill:#f4f4f4;opacity:0.041284"/><path d="M97.89,127.23a12.43,12.43,0,1,0-5.15,13.44,12.54,12.54,0,0,0,5.15-13.44C97.78,126.84,98.14,128.23,97.89,127.23Z" transform="translate(-68.86 -115.08)" style="fill:#f3f3f3;opacity:0.045871999999999996"/><path d="M97.88,127.23a12.42,12.42,0,1,0-5.14,13.44,12.53,12.53,0,0,0,5.14-13.44Z" transform="translate(-68.86 -115.08)" style="fill:#f2f2f2;opacity:0.050459"/><path d="M97.87,127.24a12.41,12.41,0,1,0-5.14,13.42,12.5,12.5,0,0,0,5.14-13.42C97.77,126.84,98.13,128.23,97.87,127.24Z" transform="translate(-68.86 -115.08)" style="fill:#f1f1f1;opacity:0.055046"/><path d="M97.87,127.24a12.4,12.4,0,1,0-5.14,13.42,12.53,12.53,0,0,0,5.14-13.42Z" transform="translate(-68.86 -115.08)" style="fill:#f0f0f0;opacity:0.059633"/><path d="M97.86,127.24a12.39,12.39,0,1,0-5.13,13.41,12.5,12.5,0,0,0,5.13-13.41C97.76,126.84,98.12,128.23,97.86,127.24Z" transform="translate(-68.86 -115.08)" style="fill:#efefef;opacity:0.06422"/><path d="M97.86,127.24a12.4,12.4,0,1,0-5.14,13.41,12.49,12.49,0,0,0,5.14-13.41C97.75,126.85,98.11,128.23,97.86,127.24Z" transform="translate(-68.86 -115.08)" style="fill:#ededed;opacity:0.068807"/><path d="M97.85,127.24a12.38,12.38,0,1,0-5.13,13.4,12.51,12.51,0,0,0,5.13-13.4Z" transform="translate(-68.86 -115.08)" style="fill:#ececec;opacity:0.073394"/><path d="M97.84,127.24a12.38,12.38,0,1,0-5.13,13.4,12.46,12.46,0,0,0,5.13-13.4Z" transform="translate(-68.86 -115.08)" style="fill:#ebebeb;opacity:0.077982"/><path d="M97.84,127.25a12.37,12.37,0,1,0-5.13,13.38,12.48,12.48,0,0,0,5.13-13.38C97.73,126.85,98.09,128.23,97.84,127.25Z" transform="translate(-68.86 -115.08)" style="fill:#eaeaea;opacity:0.08256899999999999"/><path d="M97.83,127.25a12.36,12.36,0,1,0-5.12,13.38,12.48,12.48,0,0,0,5.12-13.38Z" transform="translate(-68.86 -115.08)" style="fill:#e9e9e9;opacity:0.087156"/><path d="M97.82,127.25a12.35,12.35,0,1,0-5.12,13.37,12.45,12.45,0,0,0,5.12-13.37C97.72,126.85,98.08,128.24,97.82,127.25Z" transform="translate(-68.86 -115.08)" style="fill:#e8e8e8;opacity:0.09174299999999999"/><path d="M97.82,127.25a12.36,12.36,0,1,0-5.12,13.36,12.46,12.46,0,0,0,5.12-13.36Z" transform="translate(-68.86 -115.08)" style="fill:#e6e6e6;opacity:0.09633000000000001"/><path d="M97.81,127.25a12.34,12.34,0,1,0-5.11,13.36,12.44,12.44,0,0,0,5.11-13.36Z" transform="translate(-68.86 -115.08)" style="fill:#e5e5e5;opacity:0.10091699999999999"/><path d="M97.8,127.25a12.34,12.34,0,1,0-5.11,13.35,12.43,12.43,0,0,0,5.11-13.35Z" transform="translate(-68.86 -115.08)" style="fill:#e4e4e4;opacity:0.105505"/><path d="M97.8,127.26a12.33,12.33,0,1,0-5.11,13.34,12.45,12.45,0,0,0,5.11-13.34Z" transform="translate(-68.86 -115.08)" style="fill:#e3e3e3;opacity:0.110092"/><path d="M97.79,127.26a12.32,12.32,0,1,0-5.1,13.33,12.43,12.43,0,0,0,5.1-13.33C97.69,126.86,98.05,128.24,97.79,127.26Z" transform="translate(-68.86 -115.08)" style="fill:#e2e2e2;opacity:0.11467899999999999"/><path d="M97.79,127.26a12.32,12.32,0,1,0-5.11,13.33,12.42,12.42,0,0,0,5.11-13.33C97.68,126.87,98,128.24,97.79,127.26Z" transform="translate(-68.86 -115.08)" style="fill:#e1e1e1;opacity:0.119266"/><path d="M97.78,127.26a12.31,12.31,0,1,0-5.1,13.32,12.43,12.43,0,0,0,5.1-13.32Z" transform="translate(-68.86 -115.08)" style="fill:#dfdfdf;opacity:0.12385299999999999"/><path d="M97.77,127.26a12.3,12.3,0,1,0-5.1,13.32,12.41,12.41,0,0,0,5.1-13.32Z" transform="translate(-68.86 -115.08)" style="fill:#dedede;opacity:0.12844"/><path d="M97.77,127.26a12.31,12.31,0,1,0-5.1,13.31,12.4,12.4,0,0,0,5.1-13.31Z" transform="translate(-68.86 -115.08)" style="fill:#ddd;opacity:0.133028"/><path d="M97.76,127.27a12.29,12.29,0,1,0-5.09,13.3,12.41,12.41,0,0,0,5.09-13.3Z" transform="translate(-68.86 -115.08)" style="fill:#dcdcdc;opacity:0.137615"/><path d="M97.75,127.27a12.29,12.29,0,1,0-5.09,13.29,12.37,12.37,0,0,0,5.09-13.29C97.65,126.87,98,128.25,97.75,127.27Z" transform="translate(-68.86 -115.08)" style="fill:#dbdbdb;opacity:0.142202"/><path d="M97.75,127.27a12.28,12.28,0,1,0-5.09,13.28,12.4,12.4,0,0,0,5.09-13.28Z" transform="translate(-68.86 -115.08)" style="fill:#dadada;opacity:0.146789"/><path d="M97.74,127.27a12.27,12.27,0,1,0-5.08,13.28,12.38,12.38,0,0,0,5.08-13.28Z" transform="translate(-68.86 -115.08)" style="fill:#d8d8d8;opacity:0.15137599999999998"/><path d="M97.74,127.27a12.27,12.27,0,1,0-5.09,13.27,12.38,12.38,0,0,0,5.09-13.27C97.63,126.88,98,128.25,97.74,127.27Z" transform="translate(-68.86 -115.08)" style="fill:#d7d7d7;opacity:0.155963"/><path d="M97.73,127.27a12.26,12.26,0,1,0-5.08,13.27,12.37,12.37,0,0,0,5.08-13.27Z" transform="translate(-68.86 -115.08)" style="fill:#d6d6d6;opacity:0.16055000000000003"/><path d="M97.72,127.28a12.25,12.25,0,1,0-5.07,13.25,12.35,12.35,0,0,0,5.07-13.25C97.62,126.88,98,128.25,97.72,127.28Z" transform="translate(-68.86 -115.08)" style="fill:#d5d5d5;opacity:0.16513799999999998"/><path d="M97.72,127.28a12.25,12.25,0,1,0-5.08,13.25,12.37,12.37,0,0,0,5.08-13.25Z" transform="translate(-68.86 -115.08)" style="fill:#d4d4d4;opacity:0.169725"/><path d="M97.71,127.28a12.24,12.24,0,1,0-5.07,13.24,12.33,12.33,0,0,0,5.07-13.24Z" transform="translate(-68.86 -115.08)" style="fill:#d3d3d3;opacity:0.174312"/><path d="M97.7,127.28a12.23,12.23,0,1,0-5.07,13.24,12.33,12.33,0,0,0,5.07-13.24Z" transform="translate(-68.86 -115.08)" style="fill:#d1d1d1;opacity:0.178899"/><path d="M97.7,127.28a12.23,12.23,0,1,0-5.07,13.23,12.33,12.33,0,0,0,5.07-13.23Z" transform="translate(-68.86 -115.08)" style="fill:#d0d0d0;opacity:0.18348599999999998"/><path d="M97.69,127.28a12.22,12.22,0,1,0-5.06,13.23,12.33,12.33,0,0,0,5.06-13.23Z" transform="translate(-68.86 -115.08)" style="fill:#cfcfcf;opacity:0.188073"/><path d="M97.68,127.29a12.21,12.21,0,1,0-5.06,13.21,12.32,12.32,0,0,0,5.06-13.21C97.58,126.89,97.94,128.26,97.68,127.29Z" transform="translate(-68.86 -115.08)" style="fill:#cecece;opacity:0.192661"/><path d="M97.68,127.29a12.21,12.21,0,1,0-5.06,13.2,12.3,12.3,0,0,0,5.06-13.2Z" transform="translate(-68.86 -115.08)" style="fill:#cdcdcd;opacity:0.19724799999999998"/><path d="M97.67,127.29a12.2,12.2,0,1,0-5,13.2,12.32,12.32,0,0,0,5-13.2Z" transform="translate(-68.86 -115.08)" style="fill:#ccc;opacity:0.201835"/><path d="M97.67,127.29a12.2,12.2,0,1,0-5.06,13.19,12.31,12.31,0,0,0,5.06-13.19Z" transform="translate(-68.86 -115.08)" style="fill:#cacaca;opacity:0.206422"/><path d="M97.66,127.29a12.18,12.18,0,1,0-5,13.19,12.28,12.28,0,0,0,5-13.19Z" transform="translate(-68.86 -115.08)" style="fill:#c9c9c9;opacity:0.211009"/><path d="M97.65,127.29a12.18,12.18,0,1,0-5,13.18,12.29,12.29,0,0,0,5-13.18Z" transform="translate(-68.86 -115.08)" style="fill:#c8c8c8;opacity:0.21559599999999998"/><path d="M97.65,127.29a12.18,12.18,0,1,0-5.05,13.18,12.29,12.29,0,0,0,5.05-13.18C97.55,126.91,97.9,128.27,97.65,127.29Z" transform="translate(-68.86 -115.08)" style="fill:#c7c7c7;opacity:0.220183"/><path d="M97.64,127.3a12.17,12.17,0,1,0-5,13.16,12.27,12.27,0,0,0,5-13.16Z" transform="translate(-68.86 -115.08)" style="fill:#c6c6c6;opacity:0.224771"/><path d="M97.63,127.3a12.16,12.16,0,1,0-5,13.16,12.27,12.27,0,0,0,5-13.16Z" transform="translate(-68.86 -115.08)" style="fill:#c5c5c5;opacity:0.22935799999999998"/><path d="M97.63,127.3a12.16,12.16,0,1,0-5,13.15,12.27,12.27,0,0,0,5-13.15Z" transform="translate(-68.86 -115.08)" style="fill:#c3c3c3;opacity:0.233945"/><path d="M97.62,127.3a12.14,12.14,0,1,0-5,13.15,12.24,12.24,0,0,0,5-13.15Z" transform="translate(-68.86 -115.08)" style="fill:#c2c2c2;opacity:0.238532"/><path d="M97.61,127.3a12.14,12.14,0,1,0-5,13.14,12.25,12.25,0,0,0,5-13.14C97.52,126.92,97.86,128.27,97.61,127.3Z" transform="translate(-68.86 -115.08)" style="fill:#c1c1c1;opacity:0.243119"/><path d="M97.61,127.3a12.14,12.14,0,1,0-5,13.13,12.24,12.24,0,0,0,5-13.13Z" transform="translate(-68.86 -115.08)" style="fill:silver;opacity:0.24770599999999998"/><path d="M97.6,127.31a12.13,12.13,0,1,0-5,13.12,12.21,12.21,0,0,0,5-13.12Z" transform="translate(-68.86 -115.08)" style="fill:#bfbfbf;opacity:0.25229399999999996"/><path d="M97.6,127.31a12.12,12.12,0,1,0-5,13.11,12.24,12.24,0,0,0,5-13.11C97.5,126.92,97.84,128.28,97.6,127.31Z" transform="translate(-68.86 -115.08)" style="fill:#bdbdbd;opacity:0.25688099999999997"/><path d="M97.59,127.31a12.12,12.12,0,1,0-5,13.11,12.21,12.21,0,0,0,5-13.11Z" transform="translate(-68.86 -115.08)" style="fill:#bcbcbc;opacity:0.261468"/><path d="M97.58,127.31a12.1,12.1,0,1,0-5,13.1,12.19,12.19,0,0,0,5-13.1Z" transform="translate(-68.86 -115.08)" style="fill:#bbb;opacity:0.266055"/><path d="M97.58,127.31a12.11,12.11,0,1,0-5,13.1,12.22,12.22,0,0,0,5-13.1Z" transform="translate(-68.86 -115.08)" style="fill:#bababa;opacity:0.270642"/><path d="M97.57,127.31a12.09,12.09,0,1,0-5,13.09,12.19,12.19,0,0,0,5-13.09Z" transform="translate(-68.86 -115.08)" style="fill:#b9b9b9;opacity:0.275229"/><path d="M97.56,127.32a12.09,12.09,0,1,0-5,13.08,12.19,12.19,0,0,0,5-13.08Z" transform="translate(-68.86 -115.08)" style="fill:#b8b8b8;opacity:0.279817"/><path d="M97.56,127.32a12.08,12.08,0,1,0-5,13.07,12.19,12.19,0,0,0,5-13.07Z" transform="translate(-68.86 -115.08)" style="fill:#b6b6b6;opacity:0.284404"/><path d="M97.55,127.32a12.07,12.07,0,1,0-5,13.07,12.17,12.17,0,0,0,5-13.07Z" transform="translate(-68.86 -115.08)" style="fill:#b5b5b5;opacity:0.288991"/><path d="M97.55,127.32a12.07,12.07,0,1,0-5,13.06,12.18,12.18,0,0,0,5-13.06C97.45,126.94,97.79,128.28,97.55,127.32Z" transform="translate(-68.86 -115.08)" style="fill:#b4b4b4;opacity:0.293578"/><path d="M97.54,127.32a12.07,12.07,0,1,0-5,13.05,12.17,12.17,0,0,0,5-13.05Z" transform="translate(-68.86 -115.08)" style="fill:#b3b3b3;opacity:0.298165"/><path d="M97.53,127.32a12.05,12.05,0,1,0-5,13.05,12.15,12.15,0,0,0,5-13.05Z" transform="translate(-68.86 -115.08)" style="fill:#b2b2b2;opacity:0.30275199999999997"/><path d="M97.53,127.33a12.05,12.05,0,1,0-5,13,12.17,12.17,0,0,0,5-13Z" transform="translate(-68.86 -115.08)" style="fill:#b1b1b1;opacity:0.307339"/><path d="M97.52,127.33a12,12,0,1,0-5,13,12.15,12.15,0,0,0,5-13Z" transform="translate(-68.86 -115.08)" style="fill:#afafaf;opacity:0.311927"/><path d="M97.51,127.33a12,12,0,1,0-5,13,12.12,12.12,0,0,0,5-13Z" transform="translate(-68.86 -115.08)" style="fill:#aeaeae;opacity:0.31651399999999996"/><path d="M97.51,127.33a12,12,0,1,0-5,13,12.15,12.15,0,0,0,5-13C97.41,127,97.75,128.29,97.51,127.33Z" transform="translate(-68.86 -115.08)" style="fill:#adadad;opacity:0.32110099999999997"/><path d="M97.5,127.33a12,12,0,1,0-5,13,12.13,12.13,0,0,0,5-13Z" transform="translate(-68.86 -115.08)" style="fill:#acacac;opacity:0.325688"/><path d="M97.49,127.33a12,12,0,1,0-5,13,12.09,12.09,0,0,0,5-13C97.4,127,97.74,128.29,97.49,127.33Z" transform="translate(-68.86 -115.08)" style="fill:#ababab;opacity:0.330275"/><path d="M97.49,127.34a12,12,0,1,0-5,13,12.13,12.13,0,0,0,5-13Z" transform="translate(-68.86 -115.08)" style="fill:#aaa;opacity:0.334862"/><path d="M97.48,127.34a12,12,0,1,0-5,13,12.11,12.11,0,0,0,5-13Z" transform="translate(-68.86 -115.08)" style="fill:#a8a8a8;opacity:0.33945000000000003"/><path d="M97.48,127.34a12,12,0,1,0-5,13,12.1,12.1,0,0,0,5-13C97.38,127,97.72,128.3,97.48,127.34Z" transform="translate(-68.86 -115.08)" style="fill:#a7a7a7;opacity:0.344037"/><path d="M97.47,127.34a12,12,0,1,0-5,13,12.11,12.11,0,0,0,5-13Z" transform="translate(-68.86 -115.08)" style="fill:#a6a6a6;opacity:0.348624"/><path d="M97.46,127.34a12,12,0,1,0-5,13,12.06,12.06,0,0,0,5-13Z" transform="translate(-68.86 -115.08)" style="fill:#a5a5a5;opacity:0.353211"/><path d="M97.46,127.34a12,12,0,1,0-5,13,12.08,12.08,0,0,0,5-13C97.36,127,97.7,128.3,97.46,127.34Z" transform="translate(-68.86 -115.08)" style="fill:#a4a4a4;opacity:0.357798"/><path d="M97.45,127.35a12,12,0,1,0-5,13,12.09,12.09,0,0,0,5-13Z" transform="translate(-68.86 -115.08)" style="fill:#a3a3a3;opacity:0.36238499999999996"/><path d="M97.44,127.35a12,12,0,1,0-5,12.94,12.05,12.05,0,0,0,5-12.94C97.35,127,97.69,128.3,97.44,127.35Z" transform="translate(-68.86 -115.08)" style="fill:#a1a1a1;opacity:0.36697199999999996"/><path d="M97.44,127.35a12,12,0,1,0-5,12.94,12.08,12.08,0,0,0,5-12.94C97.34,127,97.68,128.3,97.44,127.35Z" transform="translate(-68.86 -115.08)" style="fill:#a0a0a0;opacity:0.37156000000000006"/><path d="M97.43,127.35a11.95,11.95,0,1,0-5,12.93,12.07,12.07,0,0,0,5-12.93Z" transform="translate(-68.86 -115.08)" style="fill:#9f9f9f;opacity:0.376147"/><path d="M97.42,127.35a11.94,11.94,0,1,0-4.94,12.93,12,12,0,0,0,4.94-12.93C97.33,127,97.67,128.31,97.42,127.35Z" transform="translate(-68.86 -115.08)" style="fill:#9e9e9e;opacity:0.38073399999999996"/><path d="M97.42,127.35a11.94,11.94,0,1,0-5,12.92,12,12,0,0,0,5-12.92C97.32,127,97.66,128.31,97.42,127.35Z" transform="translate(-68.86 -115.08)" style="fill:#9d9d9d;opacity:0.38532099999999997"/><path d="M97.41,127.36a11.93,11.93,0,1,0-4.94,12.91,12,12,0,0,0,4.94-12.91C97.31,127,97.66,128.31,97.41,127.36Z" transform="translate(-68.86 -115.08)" style="fill:#9c9c9c;opacity:0.389908"/><path d="M97.41,127.36a11.93,11.93,0,1,0-5,12.9,12,12,0,0,0,5-12.9C97.31,127,97.65,128.31,97.41,127.36Z" transform="translate(-68.86 -115.08)" style="fill:#9a9a9a;opacity:0.394495"/><path d="M97.4,127.36a11.92,11.92,0,1,0-4.94,12.89,12,12,0,0,0,4.94-12.89C97.3,127,97.64,128.31,97.4,127.36Z" transform="translate(-68.86 -115.08)" style="fill:#999;opacity:0.39908299999999997"/><path d="M97.39,127.36a11.91,11.91,0,1,0-4.93,12.89,12,12,0,0,0,4.93-12.89C97.3,127,97.64,128.31,97.39,127.36Z" transform="translate(-68.86 -115.08)" style="fill:#989898;opacity:0.40367000000000003"/><path d="M97.39,127.36a11.91,11.91,0,1,0-4.94,12.88,12,12,0,0,0,4.94-12.88C97.29,127,97.63,128.31,97.39,127.36Z" transform="translate(-68.86 -115.08)" style="fill:#979797;opacity:0.408257"/><path d="M97.38,127.36a11.9,11.9,0,1,0-4.93,12.88,12,12,0,0,0,4.93-12.88Z" transform="translate(-68.86 -115.08)" style="fill:#969696;opacity:0.412844"/><path d="M97.37,127.36a11.89,11.89,0,1,0-4.92,12.87,12,12,0,0,0,4.92-12.87C97.28,127,97.62,128.31,97.37,127.36Z" transform="translate(-68.86 -115.08)" style="fill:#959595;opacity:0.417431"/><path d="M97.37,127.37a11.89,11.89,0,1,0-4.93,12.86,12,12,0,0,0,4.93-12.86C97.27,127,97.61,128.32,97.37,127.37Z" transform="translate(-68.86 -115.08)" style="fill:#939393;opacity:0.422018"/><path d="M97.36,127.37a11.88,11.88,0,1,0-4.92,12.85,12,12,0,0,0,4.92-12.85Z" transform="translate(-68.86 -115.08)" style="fill:#929292;opacity:0.426606"/><path d="M97.36,127.37a11.88,11.88,0,1,0-4.92,12.85,12,12,0,0,0,4.92-12.85C97.26,127,97.6,128.32,97.36,127.37Z" transform="translate(-68.86 -115.08)" style="fill:#919191;opacity:0.431193"/><path d="M97.35,127.37a11.87,11.87,0,1,0-4.92,12.84,12,12,0,0,0,4.92-12.84C97.25,127,97.59,128.32,97.35,127.37Z" transform="translate(-68.86 -115.08)" style="fill:#909090;opacity:0.43578000000000006"/><path d="M97.34,127.37a11.86,11.86,0,1,0-4.91,12.84,11.95,11.95,0,0,0,4.91-12.84Z" transform="translate(-68.86 -115.08)" style="fill:#8f8f8f;opacity:0.44036699999999995"/><path d="M97.34,127.37a11.86,11.86,0,1,0-4.92,12.83,12,12,0,0,0,4.92-12.83C97.24,127,97.58,128.32,97.34,127.37Z" transform="translate(-68.86 -115.08)" style="fill:#8e8e8e;opacity:0.44495399999999996"/><path d="M97.33,127.38a11.85,11.85,0,1,0-4.91,12.81,11.95,11.95,0,0,0,4.91-12.81C97.23,127,97.57,128.32,97.33,127.38Z" transform="translate(-68.86 -115.08)" style="fill:#8c8c8c;opacity:0.44954099999999997"/><path d="M97.32,127.38a11.84,11.84,0,1,0-4.9,12.81,11.94,11.94,0,0,0,4.9-12.81C97.23,127,97.57,128.32,97.32,127.38Z" transform="translate(-68.86 -115.08)" style="fill:#8b8b8b;opacity:0.454128"/><path d="M97.32,127.38a11.84,11.84,0,1,0-4.91,12.8,11.94,11.94,0,0,0,4.91-12.8C97.22,127,97.56,128.32,97.32,127.38Z" transform="translate(-68.86 -115.08)" style="fill:#8a8a8a;opacity:0.45871599999999996"/><path d="M97.31,127.38a11.83,11.83,0,1,0-4.9,12.8,11.94,11.94,0,0,0,4.9-12.8C97.21,127,97.55,128.33,97.31,127.38Z" transform="translate(-68.86 -115.08)" style="fill:#898989;opacity:0.46330299999999996"/><path d="M97.3,127.38a11.82,11.82,0,1,0-4.89,12.79,11.92,11.92,0,0,0,4.89-12.79C97.21,127,97.55,128.33,97.3,127.38Z" transform="translate(-68.86 -115.08)" style="fill:#888;opacity:0.46789000000000003"/><path d="M97.3,127.38a11.82,11.82,0,1,0-4.9,12.79,11.9,11.9,0,0,0,4.9-12.79C97.2,127,97.54,128.33,97.3,127.38Z" transform="translate(-68.86 -115.08)" style="fill:#878787;opacity:0.472477"/><path d="M97.29,127.39a11.81,11.81,0,1,0-4.89,12.77,11.92,11.92,0,0,0,4.89-12.77C97.19,127,97.53,128.33,97.29,127.39Z" transform="translate(-68.86 -115.08)" style="fill:#858585;opacity:0.477064"/><path d="M97.29,127.39a11.8,11.8,0,1,0-4.89,12.77,11.92,11.92,0,0,0,4.89-12.77C97.19,127,97.53,128.33,97.29,127.39Z" transform="translate(-68.86 -115.08)" style="fill:#848484;opacity:0.481651"/><path d="M97.28,127.39a11.8,11.8,0,1,0-4.89,12.76,11.89,11.89,0,0,0,4.89-12.76C97.18,127,97.52,128.33,97.28,127.39Z" transform="translate(-68.86 -115.08)" style="fill:#838383;opacity:0.486239"/><path d="M97.27,127.39a11.78,11.78,0,1,0-4.88,12.76,11.88,11.88,0,0,0,4.88-12.76C97.18,127,97.52,128.33,97.27,127.39Z" transform="translate(-68.86 -115.08)" style="fill:#828282;opacity:0.490826"/><path d="M97.27,127.39a11.79,11.79,0,1,0-4.89,12.75,11.91,11.91,0,0,0,4.89-12.75C97.17,127,97.51,128.33,97.27,127.39Z" transform="translate(-68.86 -115.08)" style="fill:#818181;opacity:0.495413"/><path d="M97.26,127.39a11.78,11.78,0,1,0-4.88,12.74,11.87,11.87,0,0,0,4.88-12.74C97.16,127,97.5,128.33,97.26,127.39Z" transform="translate(-68.86 -115.08)" style="fill:gray;opacity:0.5"/><path d="M97.25,127.4a11.77,11.77,0,1,0-4.87,12.73,11.86,11.86,0,0,0,4.87-12.73C97.16,127,97.5,128.34,97.25,127.4Z" transform="translate(-68.86 -115.08)" style="fill:#7e7e7e;opacity:0.504587"/><path d="M97.25,127.4a11.77,11.77,0,1,0-4.88,12.72,11.87,11.87,0,0,0,4.88-12.72C97.15,127,97.49,128.34,97.25,127.4Z" transform="translate(-68.86 -115.08)" style="fill:#7d7d7d;opacity:0.509174"/><path d="M97.24,127.4a11.76,11.76,0,1,0-4.87,12.72,11.84,11.84,0,0,0,4.87-12.72C97.14,127,97.48,128.34,97.24,127.4Z" transform="translate(-68.86 -115.08)" style="fill:#7c7c7c;opacity:0.513761"/><path d="M97.23,127.4a11.75,11.75,0,1,0-4.86,12.71,11.85,11.85,0,0,0,4.86-12.71C97.14,127,97.48,128.34,97.23,127.4Z" transform="translate(-68.86 -115.08)" style="fill:#7b7b7b;opacity:0.518349"/><path d="M97.23,127.4a11.74,11.74,0,1,0-4.87,12.71,11.84,11.84,0,0,0,4.87-12.71C97.13,127,97.47,128.34,97.23,127.4Z" transform="translate(-68.86 -115.08)" style="fill:#7a7a7a;opacity:0.522936"/><path d="M97.22,127.4a11.74,11.74,0,1,0-4.86,12.7,11.82,11.82,0,0,0,4.86-12.7C97.13,127,97.46,128.34,97.22,127.4Z" transform="translate(-68.86 -115.08)" style="fill:#787878;opacity:0.527523"/><path d="M97.22,127.41a11.73,11.73,0,1,0-4.86,12.69,11.83,11.83,0,0,0,4.86-12.69Z" transform="translate(-68.86 -115.08)" style="fill:#777;opacity:0.5321100000000001"/><path d="M97.21,127.41a11.72,11.72,0,1,0-4.86,12.68,11.82,11.82,0,0,0,4.86-12.68Z" transform="translate(-68.86 -115.08)" style="fill:#767676;opacity:0.536697"/><path d="M97.2,127.41a11.72,11.72,0,1,0-4.85,12.68,11.83,11.83,0,0,0,4.85-12.68C97.11,127,97.44,128.34,97.2,127.41Z" transform="translate(-68.86 -115.08)" style="fill:#757575;opacity:0.541284"/><path d="M97.2,127.41a11.71,11.71,0,1,0-4.86,12.67,11.81,11.81,0,0,0,4.86-12.67C97.1,127,97.44,128.35,97.2,127.41Z" transform="translate(-68.86 -115.08)" style="fill:#747474;opacity:0.545872"/><path d="M97.19,127.41a11.71,11.71,0,1,0-4.85,12.66,11.81,11.81,0,0,0,4.85-12.66C97.09,127,97.43,128.35,97.19,127.41Z" transform="translate(-68.86 -115.08)" style="fill:#737373;opacity:0.5504589999999999"/><path d="M97.18,127.41a11.7,11.7,0,1,0-4.84,12.66,11.8,11.8,0,0,0,4.84-12.66C97.09,127,97.42,128.35,97.18,127.41Z" transform="translate(-68.86 -115.08)" style="fill:#717171;opacity:0.5550459999999999"/><path d="M97.18,127.42a11.7,11.7,0,1,0-4.85,12.64,11.78,11.78,0,0,0,4.85-12.64Z" transform="translate(-68.86 -115.08)" style="fill:#707070;opacity:0.5596329999999999"/><path d="M97.17,127.42a11.68,11.68,0,1,0-4.84,12.64,11.78,11.78,0,0,0,4.84-12.64C97.08,127,97.41,128.35,97.17,127.42Z" transform="translate(-68.86 -115.08)" style="fill:#6f6f6f;opacity:0.56422"/><path d="M97.17,127.42a11.68,11.68,0,1,0-4.84,12.63,11.79,11.79,0,0,0,4.84-12.63C97.07,127.05,97.41,128.35,97.17,127.42Z" transform="translate(-68.86 -115.08)" style="fill:#6e6e6e;opacity:0.568807"/><path d="M97.16,127.42a11.67,11.67,0,1,0-4.84,12.63,11.78,11.78,0,0,0,4.84-12.63C97.06,127.05,97.4,128.35,97.16,127.42Z" transform="translate(-68.86 -115.08)" style="fill:#6d6d6d;opacity:0.573394"/><path d="M97.15,127.42A11.66,11.66,0,1,0,92.32,140a11.76,11.76,0,0,0,4.83-12.62C97.06,127.05,97.39,128.35,97.15,127.42Z" transform="translate(-68.86 -115.08)" style="fill:#6c6c6c;opacity:0.577982"/><path d="M97.15,127.42A11.66,11.66,0,1,0,92.32,140a11.78,11.78,0,0,0,4.83-12.62C97.05,127.05,97.39,128.35,97.15,127.42Z" transform="translate(-68.86 -115.08)" style="fill:#6a6a6a;opacity:0.582569"/><path d="M97.14,127.43A11.66,11.66,0,1,0,92.31,140a11.74,11.74,0,0,0,4.83-12.6Z" transform="translate(-68.86 -115.08)" style="fill:#696969;opacity:0.587156"/><path d="M97.13,127.43A11.64,11.64,0,1,0,92.31,140a11.73,11.73,0,0,0,4.82-12.6C97,127.05,97.37,128.36,97.13,127.43Z" transform="translate(-68.86 -115.08)" style="fill:#686868;opacity:0.591743"/><path d="M97.13,127.43A11.64,11.64,0,1,0,92.31,140a11.75,11.75,0,0,0,4.82-12.59C97,127.06,97.37,128.36,97.13,127.43Z" transform="translate(-68.86 -115.08)" style="fill:#676767;opacity:0.59633"/><path d="M97.12,127.43A11.63,11.63,0,1,0,92.3,140a11.72,11.72,0,0,0,4.82-12.58C97,127.06,97.36,128.36,97.12,127.43Z" transform="translate(-68.86 -115.08)" style="fill:#666;opacity:0.6009169999999999"/><path d="M97.11,127.43A11.62,11.62,0,1,0,92.3,140a11.71,11.71,0,0,0,4.81-12.58C97,127.06,97.35,128.36,97.11,127.43Z" transform="translate(-68.86 -115.08)" style="fill:#656565;opacity:0.605505"/><path d="M97.11,127.43A11.62,11.62,0,1,0,92.29,140a11.73,11.73,0,0,0,4.82-12.57C97,127.06,97.35,128.36,97.11,127.43Z" transform="translate(-68.86 -115.08)" style="fill:#636363;opacity:0.610092"/><path d="M97.1,127.43A11.61,11.61,0,1,0,92.29,140a11.7,11.7,0,0,0,4.81-12.57C97,127.06,97.34,128.36,97.1,127.43Z" transform="translate(-68.86 -115.08)" style="fill:#626262;opacity:0.614679"/><path d="M97.1,127.44A11.61,11.61,0,1,0,92.29,140a11.7,11.7,0,0,0,4.81-12.55C97,127.07,97.33,128.36,97.1,127.44Z" transform="translate(-68.86 -115.08)" style="fill:#616161;opacity:0.619266"/><path d="M97.09,127.44A11.6,11.6,0,1,0,92.28,140a11.7,11.7,0,0,0,4.81-12.55C97,127.07,97.33,128.36,97.09,127.44Z" transform="translate(-68.86 -115.08)" style="fill:#606060;opacity:0.623853"/><path d="M97.08,127.44A11.59,11.59,0,1,0,92.28,140a11.67,11.67,0,0,0,4.8-12.54C97,127.07,97.32,128.37,97.08,127.44Z" transform="translate(-68.86 -115.08)" style="fill:#5f5f5f;opacity:0.62844"/><path d="M97.08,127.44A11.59,11.59,0,1,0,92.28,140a11.7,11.7,0,0,0,4.8-12.54C97,127.07,97.31,128.37,97.08,127.44Z" transform="translate(-68.86 -115.08)" style="fill:#5e5e5e;opacity:0.6330279999999999"/><path d="M97.07,127.44A11.58,11.58,0,1,0,92.27,140a11.7,11.7,0,0,0,4.8-12.53C97,127.07,97.31,128.37,97.07,127.44Z" transform="translate(-68.86 -115.08)" style="fill:#5c5c5c;opacity:0.6376149999999999"/><path d="M97.06,127.44A11.57,11.57,0,1,0,92.27,140a11.65,11.65,0,0,0,4.79-12.53C97,127.08,97.3,128.37,97.06,127.44Z" transform="translate(-68.86 -115.08)" style="fill:#5b5b5b;opacity:0.6422019999999999"/><path d="M97.06,127.45A11.57,11.57,0,1,0,92.27,140a11.68,11.68,0,0,0,4.79-12.51C97,127.08,97.3,128.37,97.06,127.45Z" transform="translate(-68.86 -115.08)" style="fill:#5a5a5a;opacity:0.646789"/><path d="M97.05,127.45A11.56,11.56,0,1,0,92.26,140a11.66,11.66,0,0,0,4.79-12.5C97,127.08,97.29,128.37,97.05,127.45Z" transform="translate(-68.86 -115.08)" style="fill:#595959;opacity:0.651376"/><path d="M97,127.45A11.55,11.55,0,1,0,92.26,140,11.63,11.63,0,0,0,97,127.45C97,127.08,97.28,128.37,97,127.45Z" transform="translate(-68.86 -115.08)" style="fill:#585858;opacity:0.655963"/><path d="M97,127.45a11.55,11.55,0,1,0-4.79,12.49A11.66,11.66,0,0,0,97,127.45C96.94,127.08,97.28,128.37,97,127.45Z" transform="translate(-68.86 -115.08)" style="fill:#575757;opacity:0.6605500000000001"/><path d="M97,127.45a11.54,11.54,0,1,0-4.78,12.49A11.63,11.63,0,0,0,97,127.45C96.94,127.08,97.27,128.37,97,127.45Z" transform="translate(-68.86 -115.08)" style="fill:#555;opacity:0.665138"/><path d="M97,127.45a11.54,11.54,0,1,0-4.78,12.48A11.64,11.64,0,0,0,97,127.45C96.93,127.09,97.26,128.38,97,127.45Z" transform="translate(-68.86 -115.08)" style="fill:#545454;opacity:0.669725"/><path d="M97,127.46a11.52,11.52,0,1,0-4.78,12.47A11.64,11.64,0,0,0,97,127.46C96.92,127.09,97.26,128.38,97,127.46Z" transform="translate(-68.86 -115.08)" style="fill:#535353;opacity:0.674312"/><path d="M97,127.46a11.52,11.52,0,1,0-4.77,12.46A11.6,11.6,0,0,0,97,127.46C96.92,127.09,97.25,128.38,97,127.46Z" transform="translate(-68.86 -115.08)" style="fill:#525252;opacity:0.6788989999999999"/><path d="M97,127.46a11.52,11.52,0,1,0-4.77,12.46A11.62,11.62,0,0,0,97,127.46C96.91,127.09,97.24,128.38,97,127.46Z" transform="translate(-68.86 -115.08)" style="fill:#515151;opacity:0.6834859999999999"/><path d="M97,127.46a11.51,11.51,0,1,0-4.77,12.45A11.62,11.62,0,0,0,97,127.46C96.91,127.09,97.24,128.38,97,127.46Z" transform="translate(-68.86 -115.08)" style="fill:#505050;opacity:0.6880729999999999"/><path d="M97,127.46a11.5,11.5,0,1,0-4.76,12.45A11.58,11.58,0,0,0,97,127.46C96.9,127.1,97.23,128.38,97,127.46Z" transform="translate(-68.86 -115.08)" style="fill:#4e4e4e;opacity:0.692661"/><path d="M97,127.46a11.5,11.5,0,1,0-4.76,12.44A11.6,11.6,0,0,0,97,127.46C96.89,127.1,97.22,128.38,97,127.46Z" transform="translate(-68.86 -115.08)" style="fill:#4d4d4d;opacity:0.697248"/><path d="M97,127.47a11.49,11.49,0,1,0-4.76,12.42A11.57,11.57,0,0,0,97,127.47C96.89,127.1,97.22,128.38,97,127.47Z" transform="translate(-68.86 -115.08)" style="fill:#4c4c4c;opacity:0.701835"/><path d="M97,127.47a11.48,11.48,0,1,0-4.76,12.42A11.58,11.58,0,0,0,97,127.47C96.88,127.1,97.21,128.38,97,127.47Z" transform="translate(-68.86 -115.08)" style="fill:#4b4b4b;opacity:0.706422"/><path d="M97,127.47a11.48,11.48,0,1,0-4.76,12.41A11.6,11.6,0,0,0,97,127.47C96.87,127.1,97.2,128.39,97,127.47Z" transform="translate(-68.86 -115.08)" style="fill:#4a4a4a;opacity:0.711009"/><path d="M97,127.47a11.47,11.47,0,1,0-4.75,12.41A11.56,11.56,0,0,0,97,127.47C96.87,127.1,97.2,128.39,97,127.47Z" transform="translate(-68.86 -115.08)" style="fill:#494949;opacity:0.715596"/><path d="M97,127.47a11.46,11.46,0,1,0-4.75,12.4A11.56,11.56,0,0,0,97,127.47C96.86,127.11,97.19,128.39,97,127.47Z" transform="translate(-68.86 -115.08)" style="fill:#474747;opacity:0.720183"/><path d="M97,127.47a11.46,11.46,0,1,0-4.75,12.4A11.57,11.57,0,0,0,97,127.47C96.86,127.11,97.19,128.39,97,127.47Z" transform="translate(-68.86 -115.08)" style="fill:#464646;opacity:0.7247709999999999"/><path d="M96.94,127.48a11.44,11.44,0,1,0-4.74,12.38,11.54,11.54,0,0,0,4.74-12.38C96.85,127.11,97.18,128.39,96.94,127.48Z" transform="translate(-68.86 -115.08)" style="fill:#454545;opacity:0.729358"/><path d="M96.94,127.48a11.44,11.44,0,1,0-4.74,12.38,11.53,11.53,0,0,0,4.74-12.38C96.84,127.11,97.17,128.39,96.94,127.48Z" transform="translate(-68.86 -115.08)" style="fill:#444;opacity:0.733945"/><path d="M96.93,127.48a11.43,11.43,0,1,0-4.74,12.37,11.54,11.54,0,0,0,4.74-12.37C96.84,127.11,97.17,128.39,96.93,127.48Z" transform="translate(-68.86 -115.08)" style="fill:#434343;opacity:0.738532"/><path d="M96.92,127.48a11.43,11.43,0,1,0-4.73,12.37,11.52,11.52,0,0,0,4.73-12.37C96.83,127.12,97.16,128.39,96.92,127.48Z" transform="translate(-68.86 -115.08)" style="fill:#424242;opacity:0.743119"/><path d="M96.92,127.48a11.42,11.42,0,1,0-4.73,12.36,11.52,11.52,0,0,0,4.73-12.36C96.82,127.12,97.15,128.39,96.92,127.48Z" transform="translate(-68.86 -115.08)" style="fill:#404040;opacity:0.747706"/><path d="M96.91,127.48a11.42,11.42,0,1,0-4.73,12.35,11.52,11.52,0,0,0,4.73-12.35C96.82,127.12,97.15,128.4,96.91,127.48Z" transform="translate(-68.86 -115.08)" style="fill:#3f3f3f;opacity:0.752294"/><path d="M96.91,127.49a11.41,11.41,0,1,0-4.73,12.34,11.52,11.52,0,0,0,4.73-12.34C96.81,127.12,97.14,128.4,96.91,127.49Z" transform="translate(-68.86 -115.08)" style="fill:#3e3e3e;opacity:0.7568809999999999"/><path d="M96.9,127.49a11.41,11.41,0,1,0-4.73,12.33,11.49,11.49,0,0,0,4.73-12.33C96.81,127.12,97.13,128.4,96.9,127.49Z" transform="translate(-68.86 -115.08)" style="fill:#3d3d3d;opacity:0.7614679999999999"/><path d="M96.89,127.49a11.39,11.39,0,1,0-4.72,12.33,11.49,11.49,0,0,0,4.72-12.33C96.8,127.12,97.13,128.4,96.89,127.49Z" transform="translate(-68.86 -115.08)" style="fill:#3c3c3c;opacity:0.7660549999999999"/><path d="M96.89,127.49a11.4,11.4,0,1,0-4.72,12.32,11.5,11.5,0,0,0,4.72-12.32C96.79,127.13,97.12,128.4,96.89,127.49Z" transform="translate(-68.86 -115.08)" style="fill:#3a3a3a;opacity:0.7706419999999999"/><path d="M96.88,127.49a11.38,11.38,0,1,0-4.72,12.32,11.46,11.46,0,0,0,4.72-12.32Z" transform="translate(-68.86 -115.08)" style="fill:#393939;opacity:0.775229"/><path d="M96.87,127.49a11.38,11.38,0,1,0-4.71,12.31,11.48,11.48,0,0,0,4.71-12.31C96.78,127.13,97.11,128.4,96.87,127.49Z" transform="translate(-68.86 -115.08)" style="fill:#383838;opacity:0.779817"/><path d="M96.87,127.5a11.37,11.37,0,1,0-4.71,12.3,11.46,11.46,0,0,0,4.71-12.3C96.77,127.13,97.1,128.4,96.87,127.5Z" transform="translate(-68.86 -115.08)" style="fill:#373737;opacity:0.784404"/><path d="M96.86,127.5a11.37,11.37,0,1,0-4.71,12.29,11.43,11.43,0,0,0,4.71-12.29C96.77,127.13,97.09,128.4,96.86,127.5Z" transform="translate(-68.86 -115.08)" style="fill:#363636;opacity:0.788991"/><path d="M96.85,127.5a11.35,11.35,0,1,0-4.7,12.29,11.46,11.46,0,0,0,4.7-12.29C96.76,127.14,97.09,128.41,96.85,127.5Z" transform="translate(-68.86 -115.08)" style="fill:#353535;opacity:0.793578"/><path d="M96.85,127.5a11.35,11.35,0,1,0-4.7,12.28,11.43,11.43,0,0,0,4.7-12.28Z" transform="translate(-68.86 -115.08)" style="fill:#333;opacity:0.798165"/><path d="M96.84,127.5a11.35,11.35,0,1,0-4.7,12.27,11.45,11.45,0,0,0,4.7-12.27C96.75,127.14,97.08,128.41,96.84,127.5Z" transform="translate(-68.86 -115.08)" style="fill:#323232;opacity:0.8027519999999999"/><path d="M96.84,127.5a11.34,11.34,0,1,0-4.7,12.27,11.45,11.45,0,0,0,4.7-12.27C96.74,127.14,97.07,128.41,96.84,127.5Z" transform="translate(-68.86 -115.08)" style="fill:#313131;opacity:0.8073389999999999"/><path d="M96.83,127.5a11.34,11.34,0,1,0-4.7,12.26,11.43,11.43,0,0,0,4.7-12.26Z" transform="translate(-68.86 -115.08)" style="fill:#303030;opacity:0.811927"/><path d="M96.82,127.51a11.32,11.32,0,1,0-4.69,12.25,11.42,11.42,0,0,0,4.69-12.25C96.73,127.14,97.06,128.41,96.82,127.51Z" transform="translate(-68.86 -115.08)" style="fill:#2f2f2f;opacity:0.816514"/><path d="M96.82,127.51a11.32,11.32,0,1,0-4.69,12.24,11.41,11.41,0,0,0,4.69-12.24C96.72,127.15,97.05,128.41,96.82,127.51Z" transform="translate(-68.86 -115.08)" style="fill:#2e2e2e;opacity:0.821101"/><path d="M96.81,127.51a11.31,11.31,0,1,0-4.69,12.24,11.4,11.4,0,0,0,4.69-12.24Z" transform="translate(-68.86 -115.08)" style="fill:#2c2c2c;opacity:0.825688"/><path d="M96.8,127.51a11.3,11.3,0,1,0-4.68,12.23,11.4,11.4,0,0,0,4.68-12.23C96.71,127.15,97,128.41,96.8,127.51Z" transform="translate(-68.86 -115.08)" style="fill:#2b2b2b;opacity:0.830275"/><path d="M96.8,127.51a11.3,11.3,0,1,0-4.68,12.23,11.4,11.4,0,0,0,4.68-12.23Z" transform="translate(-68.86 -115.08)" style="fill:#2a2a2a;opacity:0.834862"/><path d="M96.79,127.51a11.29,11.29,0,1,0-4.68,12.22,11.37,11.37,0,0,0,4.68-12.22Z" transform="translate(-68.86 -115.08)" style="fill:#292929;opacity:0.83945"/><path d="M96.79,127.52a11.29,11.29,0,1,0-4.68,12.21,11.4,11.4,0,0,0,4.68-12.21C96.69,127.16,97,128.42,96.79,127.52Z" transform="translate(-68.86 -115.08)" style="fill:#282828;opacity:0.8440369999999999"/><path d="M96.78,127.52a11.28,11.28,0,1,0-4.67,12.2,11.38,11.38,0,0,0,4.67-12.2Z" transform="translate(-68.86 -115.08)" style="fill:#272727;opacity:0.8486239999999999"/><path d="M96.77,127.52a11.27,11.27,0,1,0-4.67,12.19,11.35,11.35,0,0,0,4.67-12.19Z" transform="translate(-68.86 -115.08)" style="fill:#252525;opacity:0.8532109999999999"/><path d="M96.77,127.52a11.26,11.26,0,1,0-4.67,12.19,11.38,11.38,0,0,0,4.67-12.19C96.67,127.16,97,128.42,96.77,127.52Z" transform="translate(-68.86 -115.08)" style="fill:#242424;opacity:0.857798"/><path d="M96.76,127.52A11.26,11.26,0,1,0,92.1,139.7a11.35,11.35,0,0,0,4.66-12.18Z" transform="translate(-68.86 -115.08)" style="fill:#232323;opacity:0.862385"/><path d="M96.75,127.52a11.25,11.25,0,1,0-4.66,12.18,11.34,11.34,0,0,0,4.66-12.18Z" transform="translate(-68.86 -115.08)" style="fill:#222;opacity:0.866972"/><path d="M96.75,127.53a11.25,11.25,0,1,0-4.66,12.16,11.35,11.35,0,0,0,4.66-12.16C96.65,127.17,97,128.42,96.75,127.53Z" transform="translate(-68.86 -115.08)" style="fill:#212121;opacity:0.8715600000000001"/><path d="M96.74,127.53a11.24,11.24,0,1,0-4.66,12.16,11.33,11.33,0,0,0,4.66-12.16Z" transform="translate(-68.86 -115.08)" style="fill:#202020;opacity:0.876147"/><path d="M96.73,127.53a11.23,11.23,0,1,0-4.65,12.15,11.33,11.33,0,0,0,4.65-12.15C96.64,127.17,97,128.43,96.73,127.53Z" transform="translate(-68.86 -115.08)" style="fill:#1e1e1e;opacity:0.8807339999999999"/><path d="M96.73,127.53a11.23,11.23,0,1,0-4.65,12.15,11.33,11.33,0,0,0,4.65-12.15Z" transform="translate(-68.86 -115.08)" style="fill:#1d1d1d;opacity:0.8853209999999999"/><path d="M96.72,127.53a11.22,11.22,0,1,0-4.65,12.14,11.32,11.32,0,0,0,4.65-12.14Z" transform="translate(-68.86 -115.08)" style="fill:#1c1c1c;opacity:0.8899079999999999"/><path d="M96.72,127.53a11.21,11.21,0,1,0-4.65,12.14,11.32,11.32,0,0,0,4.65-12.14C96.62,127.18,97,128.43,96.72,127.53Z" transform="translate(-68.86 -115.08)" style="fill:#1b1b1b;opacity:0.8944949999999999"/><path d="M96.71,127.54a11.21,11.21,0,1,0-4.64,12.12,11.32,11.32,0,0,0,4.64-12.12C96.62,127.18,96.94,128.43,96.71,127.54Z" transform="translate(-68.86 -115.08)" style="fill:#1a1a1a;opacity:0.899083"/><path d="M96.7,127.54a11.2,11.2,0,1,0-4.64,12.11,11.28,11.28,0,0,0,4.64-12.11C96.61,127.18,96.93,128.43,96.7,127.54Z" transform="translate(-68.86 -115.08)" style="fill:#191919;opacity:0.9036700000000001"/><path d="M96.7,127.54a11.2,11.2,0,1,0-4.64,12.11,11.3,11.3,0,0,0,4.64-12.11C96.6,127.18,96.93,128.43,96.7,127.54Z" transform="translate(-68.86 -115.08)" style="fill:#171717;opacity:0.908257"/><path d="M96.69,127.54a11.18,11.18,0,1,0-4.63,12.1,11.3,11.3,0,0,0,4.63-12.1C96.6,127.18,96.92,128.43,96.69,127.54Z" transform="translate(-68.86 -115.08)" style="fill:#161616;opacity:0.912844"/><path d="M96.68,127.54a11.18,11.18,0,1,0-4.63,12.1,11.25,11.25,0,0,0,4.63-12.1Z" transform="translate(-68.86 -115.08)" style="fill:#151515;opacity:0.917431"/><path d="M96.68,127.54a11.18,11.18,0,1,0-4.63,12.09,11.29,11.29,0,0,0,4.63-12.09Z" transform="translate(-68.86 -115.08)" style="fill:#141414;opacity:0.922018"/><path d="M96.67,127.55A11.17,11.17,0,1,0,92,139.63a11.26,11.26,0,0,0,4.63-12.08C96.58,127.19,96.9,128.44,96.67,127.55Z" transform="translate(-68.86 -115.08)" style="fill:#131313;opacity:0.9266059999999999"/><path d="M96.66,127.55A11.16,11.16,0,1,0,92,139.62a11.24,11.24,0,0,0,4.62-12.07C96.57,127.19,96.89,128.44,96.66,127.55Z" transform="translate(-68.86 -115.08)" style="fill:#121212;opacity:0.9311929999999999"/><path d="M96.66,127.55A11.15,11.15,0,1,0,92,139.62a11.25,11.25,0,0,0,4.62-12.07C96.57,127.19,96.89,128.44,96.66,127.55Z" transform="translate(-68.86 -115.08)" style="fill:#101010;opacity:0.9357800000000001"/><path d="M96.65,127.55A11.15,11.15,0,1,0,92,139.61a11.23,11.23,0,0,0,4.62-12.06C96.56,127.19,96.88,128.44,96.65,127.55Z" transform="translate(-68.86 -115.08)" style="fill:#0f0f0f;opacity:0.940367"/><path d="M96.65,127.55A11.14,11.14,0,1,0,92,139.61a11.23,11.23,0,0,0,4.62-12.06C96.55,127.2,96.87,128.44,96.65,127.55Z" transform="translate(-68.86 -115.08)" style="fill:#0e0e0e;opacity:0.944954"/><path d="M96.64,127.55a11.13,11.13,0,1,0-4.61,12,11.23,11.23,0,0,0,4.61-12Z" transform="translate(-68.86 -115.08)" style="fill:#0d0d0d;opacity:0.949541"/><path d="M96.63,127.56a11.13,11.13,0,1,0-4.61,12,11.22,11.22,0,0,0,4.61-12C96.54,127.2,96.86,128.44,96.63,127.56Z" transform="translate(-68.86 -115.08)" style="fill:#0c0c0c;opacity:0.954128"/><path d="M96.63,127.56a11.12,11.12,0,1,0-4.61,12,11.21,11.21,0,0,0,4.61-12C96.54,127.2,96.86,128.45,96.63,127.56Z" transform="translate(-68.86 -115.08)" style="fill:#0b0b0b;opacity:0.9587159999999999"/><path d="M96.62,127.56a11.12,11.12,0,1,0-4.6,12,11.21,11.21,0,0,0,4.6-12C96.53,127.2,96.85,128.45,96.62,127.56Z" transform="translate(-68.86 -115.08)" style="fill:#090909;opacity:0.9633029999999999"/><path d="M96.61,127.56a11.1,11.1,0,1,0-4.6,12,11.19,11.19,0,0,0,4.6-12Z" transform="translate(-68.86 -115.08)" style="fill:#080808;opacity:0.96789"/><path d="M96.61,127.56a11.11,11.11,0,1,0-4.6,12,11.21,11.21,0,0,0,4.6-12Z" transform="translate(-68.86 -115.08)" style="fill:#070707;opacity:0.9724769999999999"/><path d="M96.6,127.56a11.09,11.09,0,1,0-4.6,12,11.18,11.18,0,0,0,4.6-12Z" transform="translate(-68.86 -115.08)" style="fill:#060606;opacity:0.9770639999999999"/><path d="M96.6,127.57a11.09,11.09,0,1,0-4.6,12,11.19,11.19,0,0,0,4.6-12C96.5,127.21,96.82,128.45,96.6,127.57Z" transform="translate(-68.86 -115.08)" style="fill:#050505;opacity:0.9816509999999999"/><path d="M96.59,127.57a11.08,11.08,0,1,0-4.59,12,11.2,11.2,0,0,0,4.59-12C96.5,127.21,96.82,128.45,96.59,127.57Z" transform="translate(-68.86 -115.08)" style="fill:#040404;opacity:0.986239"/><path d="M96.58,127.57a11.08,11.08,0,1,0-4.59,12,11.15,11.15,0,0,0,4.59-12C96.49,127.21,96.81,128.45,96.58,127.57Z" transform="translate(-68.86 -115.08)" style="fill:#020202;opacity:0.990826"/><path d="M96.58,127.57a11.07,11.07,0,1,0-4.59,12,11.17,11.17,0,0,0,4.59-12C96.49,127.22,96.8,128.45,96.58,127.57Z" transform="translate(-68.86 -115.08)" style="fill:#010101;opacity:0.995413"/><path d="M96.57,127.57a11.06,11.06,0,1,0-4.58,12,11.16,11.16,0,0,0,4.58-12Z" transform="translate(-68.86 -115.08)"/></g><g style="clip-path:url(#b0aa2c29-81eb-40fe-9162-921ecce10dc7)"><circle cx="17" cy="15.25" r="11.05" style="fill:url(#a6840648-67bc-49cf-9f77-427cf2dd9a0b)"/><path d="M85.86,119.27a11.06,11.06,0,1,0,11.06,11A11.05,11.05,0,0,0,85.86,119.27Zm0,21.8a10.75,10.75,0,1,1,10.75-10.75A10.74,10.74,0,0,1,85.86,141.07Z" transform="translate(-68.86 -115.08)" style="fill:url(#eeb97499-f2a1-4ac4-a752-09678882c7ec)"/><circle cx="85.86" cy="130.32" r="8.73" transform="translate(-125.42 79.06) rotate(-80.76)" style="opacity:0.75;mix-blend-mode:screen;fill:url(#b2c817d1-7e07-4836-83fc-6f575b817ede)"/><circle cx="85.86" cy="130.32" r="8.73" transform="translate(-125.42 79.06) rotate(-80.76)" style="fill:url(#b0e2b883-0474-4a17-a5a2-35148be1a793)"/><circle cx="17" cy="15.25" r="8.44" style="fill:url(#bb17aa3a-f763-4a0d-8a6c-ab7edd7b7e06)"/><g style="opacity:0.5"><g style="opacity:0.85;mix-blend-mode:multiply"><path d="M92.75,131.34a.24.24,0,0,1-.21-.28.25.25,0,0,1,.27-.23.26.26,0,1,1-.06.51Z" transform="translate(-68.86 -115.08)" style="fill:url(#ec05150e-c589-4de7-a98f-47f3264b2401)"/><path d="M92.54,132.33a.27.27,0,0,1-.19-.31.26.26,0,0,1,.31-.18.26.26,0,0,1,.19.31A.25.25,0,0,1,92.54,132.33Z" transform="translate(-68.86 -115.08)" style="fill:url(#b6681c18-0f45-458e-84ac-1f4c25420a18)"/><path d="M92.17,133.28A.25.25,0,0,1,92,133a.26.26,0,0,1,.33-.14.25.25,0,0,1,.14.34A.26.26,0,0,1,92.17,133.28Z" transform="translate(-68.86 -115.08)" style="fill:url(#bd7f5122-f661-4c7c-8984-46fed12c3d71)"/><path d="M91.67,134.17a.27.27,0,0,1-.08-.35.27.27,0,0,1,.35-.09.25.25,0,0,1,.08.35A.24.24,0,0,1,91.67,134.17Z" transform="translate(-68.86 -115.08)" style="fill:url(#f152a735-362e-4347-bfb4-46c3a90623f0)"/><path d="M91.05,135a.25.25,0,0,1,.32-.39.25.25,0,0,1,0,.36A.25.25,0,0,1,91.05,135Z" transform="translate(-68.86 -115.08)" style="fill:url(#a79b7674-2f52-4609-b7b2-d9a4afeb970b)"/><path d="M90.32,135.68a.25.25,0,1,1,.38-.34.25.25,0,0,1-.38.34Z" transform="translate(-68.86 -115.08)" style="fill:url(#ec004cbf-0e72-4467-8e7b-295be4550851)"/><path d="M89.49,136.27a.26.26,0,0,1,.08-.35.25.25,0,0,1,.34.07.25.25,0,0,1-.06.36A.27.27,0,0,1,89.49,136.27Z" transform="translate(-68.86 -115.08)" style="fill:url(#b2a12f9e-94dc-4bcb-98a5-93449c9efb86)"/><path d="M88.59,136.74a.27.27,0,0,1,.12-.34.26.26,0,0,1,.34.12.25.25,0,0,1-.12.34A.25.25,0,0,1,88.59,136.74Z" transform="translate(-68.86 -115.08)" style="fill:url(#a0fe8b9f-62aa-46c4-95d1-5f3f128767ee)"/><path d="M87.63,137.06a.25.25,0,0,1,.17-.31.25.25,0,0,1,.31.17.24.24,0,0,1-.16.32A.25.25,0,0,1,87.63,137.06Z" transform="translate(-68.86 -115.08)" style="fill:url(#bffcc3a3-7ffc-4402-83f6-e5d0e389039e)"/><path d="M86.63,137.25a.26.26,0,0,1,.21-.29.26.26,0,0,1,.29.21.24.24,0,0,1-.22.29A.23.23,0,0,1,86.63,137.25Z" transform="translate(-68.86 -115.08)" style="fill:url(#bfbb616f-8dbe-446c-acbd-4ef3ddd35ed2)"/><path d="M85.61,137.28a.24.24,0,0,1,.25-.24.25.25,0,0,1,.26.24.27.27,0,0,1-.26.27A.26.26,0,0,1,85.61,137.28Z" transform="translate(-68.86 -115.08)" style="fill:url(#b52a3a1d-8dd6-475c-9be2-cf0432b4b953)"/><path d="M84.6,137.17a.26.26,0,0,1,.29-.21.26.26,0,0,1,.21.29.24.24,0,0,1-.29.21A.24.24,0,0,1,84.6,137.17Z" transform="translate(-68.86 -115.08)" style="fill:url(#b3e76ae0-8f61-4e97-98b7-7142491e5083)"/><path d="M83.62,136.92a.25.25,0,0,1,.31-.17.26.26,0,0,1-.15.49A.24.24,0,0,1,83.62,136.92Z" transform="translate(-68.86 -115.08)" style="fill:url(#e5a92ec4-b941-48ea-8e15-c5f921341da2)"/><path d="M82.68,136.52a.26.26,0,0,1,.34-.12.27.27,0,0,1,.12.34.25.25,0,0,1-.34.12A.25.25,0,0,1,82.68,136.52Z" transform="translate(-68.86 -115.08)" style="fill:url(#f6b81405-3712-467a-bcc9-1c9f2b6481d6)"/><path d="M81.81,136a.26.26,0,0,1,.35-.07.26.26,0,0,1,.08.35.27.27,0,0,1-.36.08A.26.26,0,0,1,81.81,136Z" transform="translate(-68.86 -115.08)" style="fill:url(#a40e1f51-a065-4364-a159-e8397dc83dd4)"/><path d="M81,135.34a.25.25,0,1,1,.38.34.25.25,0,1,1-.38-.34Z" transform="translate(-68.86 -115.08)" style="fill:url(#b620944e-d640-4d84-869c-9313c0f1dd1f)"/><path d="M80.36,134.58a.25.25,0,0,1,.32.39.27.27,0,0,1-.37,0A.25.25,0,0,1,80.36,134.58Z" transform="translate(-68.86 -115.08)" style="fill:url(#e6575b77-c7c3-4a7d-a3e3-c0c05d359516)"/><path d="M79.79,133.73a.26.26,0,0,1,.27.44.24.24,0,0,1-.35-.09A.25.25,0,0,1,79.79,133.73Z" transform="translate(-68.86 -115.08)" style="fill:url(#f38a09e4-09c0-400f-be25-6197fe535466)"/><path d="M79.36,132.81a.26.26,0,0,1,.33.14.26.26,0,0,1-.47.2A.25.25,0,0,1,79.36,132.81Z" transform="translate(-68.86 -115.08)" style="fill:url(#afd73994-f828-40a4-ba56-44020b5f102d)"/><path d="M79.07,131.84a.25.25,0,1,1,.12.49.25.25,0,0,1-.31-.18A.26.26,0,0,1,79.07,131.84Z" transform="translate(-68.86 -115.08)" style="fill:url(#b43549c4-6873-4273-b2fe-f676ec359b0f)"/><path d="M78.92,130.83a.25.25,0,0,1,.27.23.25.25,0,0,1-.21.28.26.26,0,0,1-.29-.23A.25.25,0,0,1,78.92,130.83Z" transform="translate(-68.86 -115.08)" style="fill:url(#b4066959-542b-4793-907b-1ed821597a58)"/><path d="M78.92,129.82a.25.25,0,0,1,.24.26.27.27,0,0,1-.26.25.25.25,0,0,1-.24-.27A.24.24,0,0,1,78.92,129.82Z" transform="translate(-68.86 -115.08)" style="fill:url(#baae27fd-9c34-4348-9429-449ec70451e3)"/><path d="M79.07,128.81a.27.27,0,0,1,.2.3.25.25,0,0,1-.29.2.25.25,0,0,1-.21-.3A.24.24,0,0,1,79.07,128.81Z" transform="translate(-68.86 -115.08)" style="fill:url(#b9e1a759-d4b9-4afc-b6a8-e15f29e5e248)"/><path d="M79.36,127.84a.26.26,0,0,1,.16.32.28.28,0,0,1-.33.16A.25.25,0,0,1,79,128,.26.26,0,0,1,79.36,127.84Z" transform="translate(-68.86 -115.08)" style="fill:url(#a366958e-02da-4da5-97a0-caab10a1cc29)"/><path d="M79.79,126.92a.27.27,0,0,1,.11.34.26.26,0,0,1-.34.11.24.24,0,0,1-.11-.34A.24.24,0,0,1,79.79,126.92Z" transform="translate(-68.86 -115.08)" style="fill:url(#be784684-b2fb-4df0-b607-77aae553e7a3)"/><path d="M80.36,126.07a.25.25,0,0,1-.3.41.24.24,0,0,1-.06-.35A.25.25,0,0,1,80.36,126.07Z" transform="translate(-68.86 -115.08)" style="fill:url(#b27a3c27-cd80-40e9-9d68-1b0ef6923c83)"/><path d="M81,125.31a.27.27,0,0,1,0,.36.26.26,0,0,1-.36,0,.25.25,0,0,1,0-.36A.24.24,0,0,1,81,125.31Z" transform="translate(-68.86 -115.08)" style="fill:url(#b2681590-2aef-4581-aef4-1ec3738cc582)"/><path d="M81.81,124.66a.26.26,0,0,1,0,.36.27.27,0,0,1-.36,0,.26.26,0,0,1,0-.36A.26.26,0,0,1,81.81,124.66Z" transform="translate(-68.86 -115.08)" style="fill:url(#e7054c24-9407-42ef-918b-9035176f638b)"/><path d="M82.68,124.13a.26.26,0,0,1-.1.34.25.25,0,0,1-.34-.09.25.25,0,1,1,.44-.25Z" transform="translate(-68.86 -115.08)" style="fill:url(#f40e6eb3-0dea-4e78-abb6-73eb4d95dfd6)"/><path d="M83.62,123.74a.25.25,0,0,1-.15.32.26.26,0,0,1-.33-.15.23.23,0,0,1,.15-.32A.24.24,0,0,1,83.62,123.74Z" transform="translate(-68.86 -115.08)" style="fill:url(#f71ba4a0-53ef-4d58-be7d-8c67153d9250)"/><path d="M84.6,123.48a.28.28,0,0,1-.19.3.26.26,0,1,1-.11-.5A.24.24,0,0,1,84.6,123.48Z" transform="translate(-68.86 -115.08)" style="fill:url(#bec59467-78eb-468e-b42d-e6b2c142849d)"/><path d="M85.61,123.37a.26.26,0,0,1-.24.27.28.28,0,0,1-.27-.24.26.26,0,1,1,.51,0Z" transform="translate(-68.86 -115.08)" style="fill:url(#bfbacd74-8eda-4392-8c0c-aa70b541f206)"/><path d="M86.63,123.4a.28.28,0,0,1-.28.24.26.26,0,0,1-.23-.27.25.25,0,0,1,.27-.24A.25.25,0,0,1,86.63,123.4Z" transform="translate(-68.86 -115.08)" style="fill:url(#a60be79a-869b-4fc9-89c2-d93be4a73fb9)"/><path d="M87.63,123.59a.27.27,0,0,1-.31.19.26.26,0,0,1-.19-.3.24.24,0,0,1,.3-.2A.26.26,0,0,1,87.63,123.59Z" transform="translate(-68.86 -115.08)" style="fill:url(#e3b8ad57-5ea4-4cbc-9142-f14ce607998e)"/><path d="M88.59,123.91a.26.26,0,0,1-.33.15.25.25,0,0,1-.15-.32.24.24,0,0,1,.33-.15A.23.23,0,0,1,88.59,123.91Z" transform="translate(-68.86 -115.08)" style="fill:url(#bc688513-680a-49ed-8509-65d57f4f44ee)"/><path d="M89.49,124.38a.25.25,0,0,1-.34.09.26.26,0,0,1-.1-.34.25.25,0,0,1,.35-.1A.26.26,0,0,1,89.49,124.38Z" transform="translate(-68.86 -115.08)" style="fill:url(#bb765d31-f252-4c80-926b-bd5ee0353787)"/><path d="M90.32,125a.27.27,0,0,1-.36,0,.27.27,0,0,1,0-.36.27.27,0,0,1,.36,0A.25.25,0,0,1,90.32,125Z" transform="translate(-68.86 -115.08)" style="fill:url(#be742f0d-c382-401d-b3a6-a21fe4e02853)"/><path d="M91.05,125.68a.26.26,0,0,1-.36,0,.27.27,0,0,1,0-.36.24.24,0,0,1,.36,0A.25.25,0,0,1,91.05,125.68Z" transform="translate(-68.86 -115.08)" style="fill:url(#eb94db28-1e18-4daf-9bb4-561c39b745f1)"/><path d="M91.67,126.48a.25.25,0,0,1-.3-.41.25.25,0,0,1,.36.06A.24.24,0,0,1,91.67,126.48Z" transform="translate(-68.86 -115.08)" style="fill:url(#b3c39118-c2ec-4a75-8e12-bb50bf32eb1b)"/><path d="M92.17,127.37a.26.26,0,0,1-.34-.11.27.27,0,0,1,.11-.34.24.24,0,0,1,.34.11A.24.24,0,0,1,92.17,127.37Z" transform="translate(-68.86 -115.08)" style="fill:url(#b60af240-f9ee-4f63-bbd4-5498c3d67e60)"/><path d="M92.54,128.32a.28.28,0,0,1-.33-.16.26.26,0,0,1,.16-.32.26.26,0,0,1,.33.16A.25.25,0,0,1,92.54,128.32Z" transform="translate(-68.86 -115.08)" style="fill:url(#bef22622-02ef-469f-8347-8e69271f344d)"/><path d="M92.75,129.31a.25.25,0,0,1-.29-.2.27.27,0,0,1,.2-.3.25.25,0,0,1,.3.2A.26.26,0,0,1,92.75,129.31Z" transform="translate(-68.86 -115.08)" style="fill:url(#f47a781e-cb15-4bda-a8f8-25108f16cc75)"/><path d="M92.83,130.33a.29.29,0,0,1-.27-.25.27.27,0,0,1,.25-.26.24.24,0,0,1,.26.24A.25.25,0,0,1,92.83,130.33Z" transform="translate(-68.86 -115.08)" style="fill:url(#e42e5e20-ff12-4ac4-8080-5dae4663c0f7)"/></g><g style="opacity:0.85;mix-blend-mode:multiply"><path d="M92.75,131.34a.24.24,0,0,1-.21-.28.25.25,0,0,1,.27-.23.26.26,0,1,1-.06.51Z" transform="translate(-68.86 -115.08)" style="fill:url(#ec05150e-c589-4de7-a98f-47f3264b2401)"/><path d="M92.54,132.33a.27.27,0,0,1-.19-.31.26.26,0,0,1,.31-.18.26.26,0,0,1,.19.31A.25.25,0,0,1,92.54,132.33Z" transform="translate(-68.86 -115.08)" style="fill:url(#b6681c18-0f45-458e-84ac-1f4c25420a18)"/><path d="M92.17,133.28A.25.25,0,0,1,92,133a.26.26,0,0,1,.33-.14.25.25,0,0,1,.14.34A.26.26,0,0,1,92.17,133.28Z" transform="translate(-68.86 -115.08)" style="fill:url(#bd7f5122-f661-4c7c-8984-46fed12c3d71)"/><path d="M91.67,134.17a.27.27,0,0,1-.08-.35.27.27,0,0,1,.35-.09.25.25,0,0,1,.08.35A.24.24,0,0,1,91.67,134.17Z" transform="translate(-68.86 -115.08)" style="fill:url(#f152a735-362e-4347-bfb4-46c3a90623f0)"/><path d="M91.05,135a.25.25,0,0,1,.32-.39.25.25,0,0,1,0,.36A.25.25,0,0,1,91.05,135Z" transform="translate(-68.86 -115.08)" style="fill:url(#a79b7674-2f52-4609-b7b2-d9a4afeb970b)"/><path d="M90.32,135.68a.25.25,0,1,1,.38-.34.25.25,0,0,1-.38.34Z" transform="translate(-68.86 -115.08)" style="fill:url(#ec004cbf-0e72-4467-8e7b-295be4550851)"/><path d="M89.49,136.27a.26.26,0,0,1,.08-.35.25.25,0,0,1,.34.07.25.25,0,0,1-.06.36A.27.27,0,0,1,89.49,136.27Z" transform="translate(-68.86 -115.08)" style="fill:url(#b2a12f9e-94dc-4bcb-98a5-93449c9efb86)"/><path d="M88.59,136.74a.27.27,0,0,1,.12-.34.26.26,0,0,1,.34.12.25.25,0,0,1-.12.34A.25.25,0,0,1,88.59,136.74Z" transform="translate(-68.86 -115.08)" style="fill:url(#a0fe8b9f-62aa-46c4-95d1-5f3f128767ee)"/><path d="M87.63,137.06a.25.25,0,0,1,.17-.31.25.25,0,0,1,.31.17.24.24,0,0,1-.16.32A.25.25,0,0,1,87.63,137.06Z" transform="translate(-68.86 -115.08)" style="fill:url(#bffcc3a3-7ffc-4402-83f6-e5d0e389039e)"/><path d="M86.63,137.25a.26.26,0,0,1,.21-.29.26.26,0,0,1,.29.21.24.24,0,0,1-.22.29A.23.23,0,0,1,86.63,137.25Z" transform="translate(-68.86 -115.08)" style="fill:url(#bfbb616f-8dbe-446c-acbd-4ef3ddd35ed2)"/><path d="M85.61,137.28a.24.24,0,0,1,.25-.24.25.25,0,0,1,.26.24.27.27,0,0,1-.26.27A.26.26,0,0,1,85.61,137.28Z" transform="translate(-68.86 -115.08)" style="fill:url(#b52a3a1d-8dd6-475c-9be2-cf0432b4b953)"/><path d="M84.6,137.17a.26.26,0,0,1,.29-.21.26.26,0,0,1,.21.29.24.24,0,0,1-.29.21A.24.24,0,0,1,84.6,137.17Z" transform="translate(-68.86 -115.08)" style="fill:url(#b3e76ae0-8f61-4e97-98b7-7142491e5083)"/><path d="M83.62,136.92a.25.25,0,0,1,.31-.17.26.26,0,0,1-.15.49A.24.24,0,0,1,83.62,136.92Z" transform="translate(-68.86 -115.08)" style="fill:url(#e5a92ec4-b941-48ea-8e15-c5f921341da2)"/><path d="M82.68,136.52a.26.26,0,0,1,.34-.12.27.27,0,0,1,.12.34.25.25,0,0,1-.34.12A.25.25,0,0,1,82.68,136.52Z" transform="translate(-68.86 -115.08)" style="fill:url(#f6b81405-3712-467a-bcc9-1c9f2b6481d6)"/><path d="M81.81,136a.26.26,0,0,1,.35-.07.26.26,0,0,1,.08.35.27.27,0,0,1-.36.08A.26.26,0,0,1,81.81,136Z" transform="translate(-68.86 -115.08)" style="fill:url(#a40e1f51-a065-4364-a159-e8397dc83dd4)"/><path d="M81,135.34a.25.25,0,1,1,.38.34.25.25,0,1,1-.38-.34Z" transform="translate(-68.86 -115.08)" style="fill:url(#b620944e-d640-4d84-869c-9313c0f1dd1f)"/><path d="M80.36,134.58a.25.25,0,0,1,.32.39.27.27,0,0,1-.37,0A.25.25,0,0,1,80.36,134.58Z" transform="translate(-68.86 -115.08)" style="fill:url(#e6575b77-c7c3-4a7d-a3e3-c0c05d359516)"/><path d="M79.79,133.73a.26.26,0,0,1,.27.44.24.24,0,0,1-.35-.09A.25.25,0,0,1,79.79,133.73Z" transform="translate(-68.86 -115.08)" style="fill:url(#f38a09e4-09c0-400f-be25-6197fe535466)"/><path d="M79.36,132.81a.26.26,0,0,1,.33.14.26.26,0,0,1-.47.2A.25.25,0,0,1,79.36,132.81Z" transform="translate(-68.86 -115.08)" style="fill:url(#afd73994-f828-40a4-ba56-44020b5f102d)"/><path d="M79.07,131.84a.25.25,0,1,1,.12.49.25.25,0,0,1-.31-.18A.26.26,0,0,1,79.07,131.84Z" transform="translate(-68.86 -115.08)" style="fill:url(#b43549c4-6873-4273-b2fe-f676ec359b0f)"/><path d="M78.92,130.83a.25.25,0,0,1,.27.23.25.25,0,0,1-.21.28.26.26,0,0,1-.29-.23A.25.25,0,0,1,78.92,130.83Z" transform="translate(-68.86 -115.08)" style="fill:url(#b4066959-542b-4793-907b-1ed821597a58)"/><path d="M78.92,129.82a.25.25,0,0,1,.24.26.27.27,0,0,1-.26.25.25.25,0,0,1-.24-.27A.24.24,0,0,1,78.92,129.82Z" transform="translate(-68.86 -115.08)" style="fill:url(#baae27fd-9c34-4348-9429-449ec70451e3)"/><path d="M79.07,128.81a.27.27,0,0,1,.2.3.25.25,0,0,1-.29.2.25.25,0,0,1-.21-.3A.24.24,0,0,1,79.07,128.81Z" transform="translate(-68.86 -115.08)" style="fill:url(#b9e1a759-d4b9-4afc-b6a8-e15f29e5e248)"/><path d="M79.36,127.84a.26.26,0,0,1,.16.32.28.28,0,0,1-.33.16A.25.25,0,0,1,79,128,.26.26,0,0,1,79.36,127.84Z" transform="translate(-68.86 -115.08)" style="fill:url(#a366958e-02da-4da5-97a0-caab10a1cc29)"/><path d="M79.79,126.92a.27.27,0,0,1,.11.34.26.26,0,0,1-.34.11.24.24,0,0,1-.11-.34A.24.24,0,0,1,79.79,126.92Z" transform="translate(-68.86 -115.08)" style="fill:url(#be784684-b2fb-4df0-b607-77aae553e7a3)"/><path d="M80.36,126.07a.25.25,0,0,1-.3.41.24.24,0,0,1-.06-.35A.25.25,0,0,1,80.36,126.07Z" transform="translate(-68.86 -115.08)" style="fill:url(#b27a3c27-cd80-40e9-9d68-1b0ef6923c83)"/><path d="M81,125.31a.27.27,0,0,1,0,.36.26.26,0,0,1-.36,0,.25.25,0,0,1,0-.36A.24.24,0,0,1,81,125.31Z" transform="translate(-68.86 -115.08)" style="fill:url(#b2681590-2aef-4581-aef4-1ec3738cc582)"/><path d="M81.81,124.66a.26.26,0,0,1,0,.36.27.27,0,0,1-.36,0,.26.26,0,0,1,0-.36A.26.26,0,0,1,81.81,124.66Z" transform="translate(-68.86 -115.08)" style="fill:url(#e7054c24-9407-42ef-918b-9035176f638b)"/><path d="M82.68,124.13a.26.26,0,0,1-.1.34.25.25,0,0,1-.34-.09.25.25,0,1,1,.44-.25Z" transform="translate(-68.86 -115.08)" style="fill:url(#f40e6eb3-0dea-4e78-abb6-73eb4d95dfd6)"/><path d="M83.62,123.74a.25.25,0,0,1-.15.32.26.26,0,0,1-.33-.15.23.23,0,0,1,.15-.32A.24.24,0,0,1,83.62,123.74Z" transform="translate(-68.86 -115.08)" style="fill:url(#f71ba4a0-53ef-4d58-be7d-8c67153d9250)"/><path d="M84.6,123.48a.28.28,0,0,1-.19.3.26.26,0,1,1-.11-.5A.24.24,0,0,1,84.6,123.48Z" transform="translate(-68.86 -115.08)" style="fill:url(#bec59467-78eb-468e-b42d-e6b2c142849d)"/><path d="M85.61,123.37a.26.26,0,0,1-.24.27.28.28,0,0,1-.27-.24.26.26,0,1,1,.51,0Z" transform="translate(-68.86 -115.08)" style="fill:url(#bfbacd74-8eda-4392-8c0c-aa70b541f206)"/><path d="M86.63,123.4a.28.28,0,0,1-.28.24.26.26,0,0,1-.23-.27.25.25,0,0,1,.27-.24A.25.25,0,0,1,86.63,123.4Z" transform="translate(-68.86 -115.08)" style="fill:url(#a60be79a-869b-4fc9-89c2-d93be4a73fb9)"/><path d="M87.63,123.59a.27.27,0,0,1-.31.19.26.26,0,0,1-.19-.3.24.24,0,0,1,.3-.2A.26.26,0,0,1,87.63,123.59Z" transform="translate(-68.86 -115.08)" style="fill:url(#e3b8ad57-5ea4-4cbc-9142-f14ce607998e)"/><path d="M88.59,123.91a.26.26,0,0,1-.33.15.25.25,0,0,1-.15-.32.24.24,0,0,1,.33-.15A.23.23,0,0,1,88.59,123.91Z" transform="translate(-68.86 -115.08)" style="fill:url(#bc688513-680a-49ed-8509-65d57f4f44ee)"/><path d="M89.49,124.38a.25.25,0,0,1-.34.09.26.26,0,0,1-.1-.34.25.25,0,0,1,.35-.1A.26.26,0,0,1,89.49,124.38Z" transform="translate(-68.86 -115.08)" style="fill:url(#bb765d31-f252-4c80-926b-bd5ee0353787)"/><path d="M90.32,125a.27.27,0,0,1-.36,0,.27.27,0,0,1,0-.36.27.27,0,0,1,.36,0A.25.25,0,0,1,90.32,125Z" transform="translate(-68.86 -115.08)" style="fill:url(#be742f0d-c382-401d-b3a6-a21fe4e02853)"/><path d="M91.05,125.68a.26.26,0,0,1-.36,0,.27.27,0,0,1,0-.36.24.24,0,0,1,.36,0A.25.25,0,0,1,91.05,125.68Z" transform="translate(-68.86 -115.08)" style="fill:url(#eb94db28-1e18-4daf-9bb4-561c39b745f1)"/><path d="M91.67,126.48a.25.25,0,0,1-.3-.41.25.25,0,0,1,.36.06A.24.24,0,0,1,91.67,126.48Z" transform="translate(-68.86 -115.08)" style="fill:url(#b3c39118-c2ec-4a75-8e12-bb50bf32eb1b)"/><path d="M92.17,127.37a.26.26,0,0,1-.34-.11.27.27,0,0,1,.11-.34.24.24,0,0,1,.34.11A.24.24,0,0,1,92.17,127.37Z" transform="translate(-68.86 -115.08)" style="fill:url(#b60af240-f9ee-4f63-bbd4-5498c3d67e60)"/><path d="M92.54,128.32a.28.28,0,0,1-.33-.16.26.26,0,0,1,.16-.32.26.26,0,0,1,.33.16A.25.25,0,0,1,92.54,128.32Z" transform="translate(-68.86 -115.08)" style="fill:url(#bef22622-02ef-469f-8347-8e69271f344d)"/><path d="M92.75,129.31a.25.25,0,0,1-.29-.2.27.27,0,0,1,.2-.3.25.25,0,0,1,.3.2A.26.26,0,0,1,92.75,129.31Z" transform="translate(-68.86 -115.08)" style="fill:url(#f47a781e-cb15-4bda-a8f8-25108f16cc75)"/><path d="M92.83,130.33a.29.29,0,0,1-.27-.25.27.27,0,0,1,.25-.26.24.24,0,0,1,.26.24A.25.25,0,0,1,92.83,130.33Z" transform="translate(-68.86 -115.08)" style="fill:url(#e42e5e20-ff12-4ac4-8080-5dae4663c0f7)"/></g></g><path d="M85.86,121.88a8.45,8.45,0,1,0,8.45,8.44A8.44,8.44,0,0,0,85.86,121.88Zm0,16.34a7.9,7.9,0,1,1,7.9-7.9A7.9,7.9,0,0,1,85.86,138.22Z" transform="translate(-68.86 -115.08)" style="opacity:0.55;mix-blend-mode:multiply;fill:url(#e8117101-2621-4b57-a43f-c3cf7ea7b8a7)"/><path d="M86.35,131.42c1.65-1.1,2.52-1.53,2.52-3,0-1.18-1-1.95-2.49-1.95-2,0-3.06.87-3.06,2.19,0,.07,0,.36,0,.44h2v-.3a.79.79,0,0,1,.84-.73h.15a.55.55,0,0,1,.41.58c0,.41-.94.93-2.52,2.32a2.24,2.24,0,0,0-.85,1.86v.45H89v-1.82Z" transform="translate(-68.86 -115.08)" style="fill:url(#e41a60ec-5380-4129-8729-3ad41fb526a6)"/><path d="M88.69,128.5c0,1.38-1.4,2.05-2.7,3h2.77V133H83.51v-.44a2.17,2.17,0,0,1,.88-1.64c1.44-1.28,2.47-1.79,2.47-2.39,0-.35-.23-.67-.79-.67a.89.89,0,0,0-.83.5,1.36,1.36,0,0,0-.06.55H83.54s0-.46,0-.58c.17-1.09,1.06-1.77,2.69-1.77S88.69,127.35,88.69,128.5Z" transform="translate(-68.86 -115.08)" style="fill:url(#aa1ff10a-2c43-4e28-8ab2-54f88bbc8635)"/></g><path d="M96.91,146.81v0h.19c.58,0,1.82.16,3,.31h.13l2.63.34a16.67,16.67,0,0,0-3.45-7.23h0c-.4-.52-.81-1-1.2-1.44a5.34,5.34,0,0,0,.66-.59.84.84,0,0,0,.24-.85,11.91,11.91,0,0,0-1.89-1.51,4.61,4.61,0,0,0,.5.07,2.86,2.86,0,0,0,1-.1h0a1.75,1.75,0,0,0,.32-.12l.22-.11.08-.05a2.61,2.61,0,0,0,.27-.19h0a2.68,2.68,0,0,0,.26-.23h0a4.53,4.53,0,0,0,.85-1.25.82.82,0,0,0,0-.87,11.9,11.9,0,0,0-2.26-.86,3.17,3.17,0,0,0,1.39-.48l.28-.22.17-.18.07-.07a2.48,2.48,0,0,0,.19-.26h0a4.2,4.2,0,0,0,.6-1.75.84.84,0,0,0-.3-.83,11.48,11.48,0,0,0-2.42-.11l.16-.08a3.08,3.08,0,0,0,1-.81,2.23,2.23,0,0,0,.2-.3,1.47,1.47,0,0,0,.1-.22l0-.09a2.64,2.64,0,0,0,.1-.3v0c0-.11.06-.22.08-.33h0a4.5,4.5,0,0,0,0-1.51.84.84,0,0,0-.54-.7,11.53,11.53,0,0,0-2.33.64,3.6,3.6,0,0,0,.54-.63,2.89,2.89,0,0,0,.3-.58c0-.11.07-.23.1-.34a2,2,0,0,0,0-.24s0-.07,0-.1v-.34c0-.12,0-.23,0-.34h0a4.09,4.09,0,0,0-.51-1.43.8.8,0,0,0-.72-.49,11.69,11.69,0,0,0-2,1.33l.09-.16c0-.1.09-.2.13-.3a2.79,2.79,0,0,0,.21-1h0a2.17,2.17,0,0,0,0-.36c0-.08,0-.16,0-.24s0-.06,0-.1-.06-.2-.1-.3v0a4.13,4.13,0,0,0-1.07-1.51.83.83,0,0,0-.84-.25,11.49,11.49,0,0,0-1.51,1.9,3.36,3.36,0,0,0,0-1.48c0-.11-.08-.23-.12-.33l-.12-.22,0-.09a2.4,2.4,0,0,0-.18-.26h0a2.85,2.85,0,0,0-.23-.26h0a4.61,4.61,0,0,0-1.25-.85.8.8,0,0,0-.88,0A11.61,11.61,0,0,0,88,117.8a2.92,2.92,0,0,0-.09-.5,2.72,2.72,0,0,0-.39-.89h0a2,2,0,0,0-.22-.27c0-.06-.12-.12-.18-.18l-.07-.06-.26-.2h0a4.1,4.1,0,0,0-1.75-.6.81.81,0,0,0-.82.3,11.91,11.91,0,0,0-.12,2.42,2.31,2.31,0,0,0-.18-.35,2.68,2.68,0,0,0-.25-.37,2.25,2.25,0,0,0-.21-.24l-.25-.22-.29-.2-.22-.11-.09,0-.31-.1h0L82,116.1h0a4.26,4.26,0,0,0-1.51.05.82.82,0,0,0-.7.54,12.28,12.28,0,0,0,.64,2.33,3.08,3.08,0,0,0-1.2-.84h0a1.91,1.91,0,0,0-.34-.1l-.24,0h-.1a1.71,1.71,0,0,0-.32,0h0l-.34,0h0a4.47,4.47,0,0,0-1.42.51.83.83,0,0,0-.5.73,11.75,11.75,0,0,0,1.33,2l-.16-.08-.29-.14a2.89,2.89,0,0,0-1-.2h0a2,2,0,0,0-.35,0l-.25,0-.09,0a2.8,2.8,0,0,0-.31.09h0a4.27,4.27,0,0,0-1.51,1.06.84.84,0,0,0-.24.85,11.91,11.91,0,0,0,1.89,1.51,4.61,4.61,0,0,0-.5-.07h-.33a2.76,2.76,0,0,0-.64.1,2,2,0,0,0-.34.12l-.22.12-.08,0a2.61,2.61,0,0,0-.27.19h0a2.73,2.73,0,0,0-.25.23h0a4.49,4.49,0,0,0-.86,1.25.84.84,0,0,0,0,.88,11.33,11.33,0,0,0,2.27.85,4,4,0,0,0-.5.09,3.27,3.27,0,0,0-.9.39h0a2.92,2.92,0,0,0-.28.21l-.17.18a.46.46,0,0,1-.07.07l-.19.26v0a2.75,2.75,0,0,0-.17.29h0a4.58,4.58,0,0,0-.43,1.45.84.84,0,0,0,.3.83,11.48,11.48,0,0,0,2.42.11l-.45.24a2.9,2.9,0,0,0-.62.54l-.1.11h0a1.81,1.81,0,0,0-.19.29,1.13,1.13,0,0,0-.11.22l-.05.09c0,.1-.07.2-.1.3v0a1.94,1.94,0,0,0-.07.33h0a4.51,4.51,0,0,0,0,1.51.84.84,0,0,0,.54.69,11.53,11.53,0,0,0,2.33-.64,3.3,3.3,0,0,0-.84,1.21h0c0,.12-.07.23-.1.34l0,.25a.31.31,0,0,0,0,.1c0,.1,0,.21,0,.32h0a1.11,1.11,0,0,0,0,.19c-2,2.13-4.51,5.44-5.12,9.18l2.63-.34h.12c1.19-.15,2.43-.28,3-.31h.18l0,0v.06a18.18,18.18,0,0,0,3.1,5.15,64.84,64.84,0,0,1,3.09-6h0c.29-.49.59-1,.91-1.47l0,0c.14.08.29.17.44.24a.84.84,0,0,0,.88,0,11.8,11.8,0,0,0,.86-2.27,3.08,3.08,0,0,0,.48,1.39,3.15,3.15,0,0,0,.22.29c.05.06.12.11.18.17l.07.06a1.64,1.64,0,0,0,.26.2h0l.29.17h0a4.25,4.25,0,0,0,1.45.42.84.84,0,0,0,.83-.29,12.31,12.31,0,0,0,.11-2.42,1.19,1.19,0,0,0,.08.16,2.94,2.94,0,0,0,.81,1,1.87,1.87,0,0,0,.29.2l.1,0a59,59,0,0,1,4.45,8.1,18.18,18.18,0,0,0,3.1-5.15v-.06Z" transform="translate(-68.86 -115.08)" style="opacity:0.55;mix-blend-mode:overlay;fill:url(#ab3c4830-5563-4fe4-8e60-d19a90ccbb03)"/></g></g></svg>