<svg xmlns="http://www.w3.org/2000/svg" viewBox="0 0 59.36 56.19"><defs><style>.cls-1{isolation:isolate;}.cls-2{fill:#eda70c;}.cls-10,.cls-11,.cls-12,.cls-3,.cls-5,.cls-9{fill:#dfa000;}.cls-3{opacity:0.2;}.cls-11,.cls-12,.cls-14,.cls-15,.cls-3,.cls-4,.cls-5,.cls-8,.cls-9{mix-blend-mode:multiply;}.cls-4{fill:#934200;}.cls-4,.cls-6,.cls-9{opacity:0.5;}.cls-5,.cls-8{opacity:0.4;}.cls-6{fill:#ffe91a;}.cls-7{fill:#f7b900;}.cls-8{fill:#793500;}.cls-11,.cls-15,.cls-18{opacity:0.3;}.cls-12{opacity:0.7;}.cls-13{fill:#f5ae00;}.cls-14,.cls-15{fill:#834200;}.cls-14{opacity:0.6;}.cls-16{fill:#f4ab00;}.cls-17,.cls-18{fill:#f7b80e;}</style></defs><title>medal7</title><g class="cls-1"><g id="l1"><path class="cls-2" d="M405.24,362.85c0,13.51-11.24,24.46-25.1,24.46s-25.09-10.95-25.09-24.46,11.23-24.46,25.09-24.46S405.24,349.34,405.24,362.85Z" transform="translate(-351.03 -338.17)"/><path class="cls-3" d="M388.82,341c2,1.76,1.18,4.52,2.73,6.45,2.19,2.71,2.05,6.08,1.81,9.5a19.79,19.79,0,0,1-11,16.85,17.76,17.76,0,0,1-7.42,1.4c-2.61,0-4.56.37-6.88-1.06a22.25,22.25,0,0,1-4.71-3.44c-.68-.75-1.23-3.23-2.35-3.23-1.12,5.57,2.37,11.37,6.95,14.32,4.18,2.69,9,2.82,13.81,2.77A24.26,24.26,0,0,0,396,379.2c1.87-1.61,2.68-4.15,3.88-6.23a18.4,18.4,0,0,0,2.51-6.84c.5-3.78.91-7.47-.25-11.18a23.88,23.88,0,0,0-4.2-8,23,23,0,0,0-5-4.51,14.35,14.35,0,0,0-2.32-1.36c-.7-.3-1.68-.25-2.17-.84Z" transform="translate(-351.03 -338.17)"/><path class="cls-3" d="M367,344.44a20.61,20.61,0,0,0-4.65,4.76c-1.51,2.13-3.2,4-4.14,6.54a20,20,0,0,0-1.14,7.68,20.32,20.32,0,0,0,2.17,8.67c1.94,4,4.42,7.49,8.11,9.88a25.18,25.18,0,0,0,10.87,3.92,31.46,31.46,0,0,0,10.91-1.26,9.86,9.86,0,0,0,3.93-2.41c1.18-1.08,2.49-1.73,3.66-2.88a23.29,23.29,0,0,0,5.91-11.19c1-4.09,1.83-7.86.53-12a22,22,0,0,0-2.39-4.63,28.27,28.27,0,0,0-2.6-4.3,23,23,0,0,0-9.13-6c-1.15-.44-3.74-1.37-4.94-1.06-2.64.65.66,4.38,1.2,5.57A11.51,11.51,0,0,1,385,356c-1.47,3.07-3.26,6.65-6.51,8.13s-7-.47-9.68-2.58c-2-1.57-2.45-4.25-2.75-6.67a26.26,26.26,0,0,1,1-10.63Z" transform="translate(-351.03 -338.17)"/><path class="cls-3" d="M374.43,341a5.09,5.09,0,0,1,3.89-.1c1.4.71,1,2.37,2.15,3.12s2.88.26,4.13.68a10.38,10.38,0,0,1,4.08,2.43c5.33,5.14.7,13.91-3.28,18.23a13,13,0,0,1-19.19-.45c-2.7-3.28-2.79-8.91-1.94-12.9.13-.56.9-2.59.47-3.15-.75-1-2.11,1-2.55,1.5a18.66,18.66,0,0,0-4.34,9.39c-.56,3.18-1,6.65.27,9.65a24.13,24.13,0,0,0,4.44,7.1,42.28,42.28,0,0,0,7,6.19,14.58,14.58,0,0,0,8.31,2.22c2.69,0,5.71,0,8.22-1.06,1.11-.48,2-1.32,3.11-1.72a8.91,8.91,0,0,0,3.17-1.58,26.84,26.84,0,0,0,5.51-6.87c2.92-5.06,3.06-11.6,2.17-17.28a20.48,20.48,0,0,0-8-13.46c-3.06-2.3-6.66-3-10.38-3.55a11.06,11.06,0,0,0-4.58-.12c-1,.32-1.56,1.38-2.48,1.73,0-.21-.14-.49-.14-.69Z" transform="translate(-351.03 -338.17)"/><path class="cls-4" d="M400.48,363.12s0,.48-.06,1.4c0,.23,0,.49-.05.77s-.09.59-.14.92-.08.7-.17,1.07-.18.77-.28,1.19a20.78,20.78,0,0,1-2.44,5.72c-.33.52-.71,1-1.07,1.55s-.84,1-1.28,1.52-1,1-1.5,1.46-1.13.92-1.75,1.35a19.77,19.77,0,0,1-9,3.29c-.42.06-.86,0-1.29.07l-.65,0h-.52l-.16,0a20.83,20.83,0,0,1-7.85-1.88,22.92,22.92,0,0,1-4.73-3,23.82,23.82,0,0,1-3.86-4.27A23.22,23.22,0,0,1,361.1,369a21.9,21.9,0,0,1-1-5.89,22.71,22.71,0,0,1,.76-5.93,22.07,22.07,0,0,1,2.51-5.42,21.81,21.81,0,0,1,3.92-4.37,22,22,0,0,1,4.86-3,19.72,19.72,0,0,1,5.32-1.51,18.74,18.74,0,0,1,2.68-.22h.37l.32,0,.63,0c.42,0,.83,0,1.26.09A19.8,19.8,0,0,1,397.35,352a20.83,20.83,0,0,1,2.44,5.73c.1.42.19.82.28,1.19s.11.73.17,1.06.09.65.13.92a5.5,5.5,0,0,1,.05.77c0,.93.06,1.42.06,1.42Zm-.13,0s0-.49-.09-1.4a7.63,7.63,0,0,0-.06-.77c0-.27-.09-.58-.15-.91a8.87,8.87,0,0,0-.19-1l-.32-1.17c-.06-.2-.11-.42-.19-.63s-.16-.42-.25-.64l-.27-.67a6.82,6.82,0,0,0-.31-.68l-.75-1.41-.94-1.42a19.77,19.77,0,0,0-5.69-5.27,21.41,21.41,0,0,0-4-1.87c-.36-.13-.71-.26-1.09-.37l-1.12-.28-.58-.14c-.19,0-.38-.06-.58-.09l-1.16-.17c-.39-.05-.83,0-1.24-.07l-.64,0h-.32l-.27,0a19.13,19.13,0,0,0-2.49.2,19.9,19.9,0,0,0-5,1.37,20.73,20.73,0,0,0-4.59,2.74,22.19,22.19,0,0,0-3.76,4,20.86,20.86,0,0,0-2.52,5,21.26,21.26,0,0,0-1,5.66,21.7,21.7,0,0,0,.74,5.7A20.68,20.68,0,0,0,364,374a20,20,0,0,0,3.82,4.13,19.84,19.84,0,0,0,4.72,2.73c.4.19.84.3,1.25.45a10.14,10.14,0,0,0,1.27.37l1.27.29c.42.08.85.11,1.26.17a19.67,19.67,0,0,0,2.56.15h.29l.31,0,.62,0c.4,0,.81,0,1.22-.1a21.4,21.4,0,0,0,8.54-3,19.93,19.93,0,0,0,5.69-5.28l.93-1.43.75-1.41a5.93,5.93,0,0,0,.31-.68l.27-.67.25-.64c.08-.21.12-.42.19-.63.11-.41.22-.8.32-1.16s.13-.73.19-1.05.1-.63.15-.91a7.63,7.63,0,0,0,.06-.77c.05-.92.08-1.4.08-1.4Z" transform="translate(-351.03 -338.17)"/><path class="cls-5" d="M384.71,344.09a4.39,4.39,0,0,1,2.37,1.27c1.19,1,1.06,1.69,1.73,2.9s2.27,1.44,3.36,2.18a9,9,0,0,1,2.67,3.79c2.83,6.07.37,13.31-4.08,17.93-3.66,3.78-9.14,5.58-14.27,5.79-3.9.17-8.62.3-11.54-2.83.51,2.5,3.52,4.53,5.49,5.74a15.38,15.38,0,0,0,5.36,2.28,16.63,16.63,0,0,0,10.73-1.27c1.85-.89,3.74-1.18,5.4-2.39a29.73,29.73,0,0,0,3.51-3.5,17.4,17.4,0,0,0,4.22-8.18A20.19,20.19,0,0,0,396.81,351c-1.69-2.36-3.12-4.58-5.91-5.69-1.21-.48-2.5-.61-3.68-1-.63-.23-1.07-.72-1.74-.78s-.93.25-1.46.23Z" transform="translate(-351.03 -338.17)"/><path class="cls-5" d="M367.82,348.72a9.35,9.35,0,0,0-3.32,6.93,5.84,5.84,0,0,1-.68,2.92,8.41,8.41,0,0,0-.69,4,19.45,19.45,0,0,0,2.15,8.53,16.85,16.85,0,0,0,2.77,3.83c1.06,1.29,1.46,2.29,3.16,2.54,1.12.17,2.09,0,3.11.58s1.36,1.13,2.37,1.27a14.29,14.29,0,0,0,6.61-.49c2.93-1.12,5.87-1.58,8.41-3.66a18,18,0,0,0,4.38-6,15.71,15.71,0,0,0,1-12.87c-.71-1.75-1.79-3.4-2.63-5.06-.64-1.26-1.88-2.63-2.05-4,1.39-.06,2.68,2.61,3.43,3.55a26.26,26.26,0,0,1,3,4.38c1.15,2.24,1.17,5.1.91,7.57-.39,3.84-1.27,7.95-3.43,11.15-1.26,1.86-2.75,4.36-4.71,5.55-1.28.79-3.13,1.07-4.56,1.61a22.56,22.56,0,0,1-8.79,1.18,20.69,20.69,0,0,1-9.13-2.55c-1.53-.86-2.89-1.38-4-2.85a22.7,22.7,0,0,1-2.23-4.33,21.34,21.34,0,0,1,1.68-21.58,11.68,11.68,0,0,1,2.38-2.79c.54-.34,1.43-.21,1.73-.9Z" transform="translate(-351.03 -338.17)"/><path class="cls-6" d="M370.1,340.75c-1.32,1.31-3.39,1.88-4.89,3a20.66,20.66,0,0,0-5.69,6.3c-2.52,4.42-4.29,9.52-3.56,14.66a36.66,36.66,0,0,0,1.73,7,15.93,15.93,0,0,0,2.36,4.25,16.62,16.62,0,0,0,2.66,3.15,46.43,46.43,0,0,1-2.66-5.16,17.3,17.3,0,0,1-2.36-5.83c-.21-1.7-.63-3.46-.68-5.17s-.11-4.34.68-6c.29-.61.72-1.1,1-1.73s.41-1.39.65-2.08c.53-1.58,1.77-2.67,2.72-4a18.77,18.77,0,0,1,4.17-3.78,16.73,16.73,0,0,1,4.41-2.4c.74-.26,3.75-1.58,1.85-2.41a3.41,3.41,0,0,0-2.74.33Z" transform="translate(-351.03 -338.17)"/><path class="cls-7" d="M370.48,347.68c-.59,0-.81.95-1.06,1.4a8.7,8.7,0,0,0-1.29,3c-.31,2-.08,4.36,1.37,5.82a6.75,6.75,0,0,0,2.79,1.49c1.46.45,2.15,0,3.13-1.18.86-1,1.2-1.58,2.5-1.75a5,5,0,0,0,3.14-1.38c2.25-2.43,3.76-8.08-.22-9.62a10,10,0,0,0-7.72.75c-.79.44-2.45,1-2.95,1.7Z" transform="translate(-351.03 -338.17)"/><path class="cls-6" d="M372.84,347.14c-.79-.08-1.29,1-1.6,1.61-.62,1.11-1.42,2.54-.83,3.84,1.5,3.29,6-.16,6.92-2.12.83-1.76.74-3.39-1.3-3.86-1.06-.24-3.13.09-3.65,1.14Z" transform="translate(-351.03 -338.17)"/><path class="cls-8" d="M356.57,371.67A9.44,9.44,0,0,1,358,369a8.68,8.68,0,0,1,1.88,3.95,3.8,3.8,0,0,1,1.44-2.43c.2,1.36,1.93,2.23,2.75,3.21a10.22,10.22,0,0,1,1.44,3.19,4.27,4.27,0,0,1,.71-1.62c.33,1.08,1.84,1.28,2.7,2,1.3,1.05,1.79,2.69,3,3.77.09-1,1-1.66,1.51-2.49.31,1.08,1.88,1.73,2.52,2.65a23.4,23.4,0,0,1,1.78,3.1,3.86,3.86,0,0,1,2.57-.54,4.32,4.32,0,0,1,2.75,1.3c.29-.19.12-.39.31-.66a6.39,6.39,0,0,1,1.2-1.18,24.9,24.9,0,0,0,2.89-2.92c.19-.24.38-.84.61-1,.4-.3.1-.16.53.07a6.69,6.69,0,0,1,1.61,1.74c-.77-.88,1.55-2.54,2.14-3,1.23-.9,2.64-1.41,3.63-2.63,1.22-1.47,2.89-3.7,2.84-5.76a4.52,4.52,0,0,1,2.19,2.82c.36-.72,1.42-1.08,2-1.65a5.91,5.91,0,0,0,1-1.61c.58,3.83-2.1,8.21-5,10.46a73.84,73.84,0,0,1-13.15,7.92,10,10,0,0,1-6.39,1,15.55,15.55,0,0,1-6.15-3.4c-1.06-.83-2.59-2.11-4-2.15a7.35,7.35,0,0,1-4.3-1.6c-2.07-1.68-3.23-4.25-5.4-5.81-.85-.62-2-1.19-2.4-2.22-.25-.6-.13-1.66-.63-2.09Z" transform="translate(-351.03 -338.17)"/><path class="cls-9" d="M356.88,371.82c-.84-.35.18-2.35.16-3a8.12,8.12,0,0,1,2.8,4.73c.16-.4.6-1.58,1.15-1.5s1.48,1.49,1.9,1.78c1.71,1.23,2.14,2.46,2.61,4.45a17.27,17.27,0,0,1,.81-1.69c2.1,1.76,5,2.65,5.87,5.51a3.48,3.48,0,0,1,1.29-1.73c.45.91,1.83,1.47,2.53,2.22a16.09,16.09,0,0,1,2.12,2.69c.74-.09,4.95-.7,3.71,1.18a12.73,12.73,0,0,1-2.25,2c-.82.7-1.69,1.36-2.7.76a16.29,16.29,0,0,1-2.59-1.93,8.7,8.7,0,0,0-2.71-1.64c-.86-.39-1.41-1.16-2.23-1.6s-1.67-.29-2.49-.59c-1.12-.43-2.1-2.05-2.81-3a33.28,33.28,0,0,0-2.68-3.37,7.49,7.49,0,0,0-1.46-1.41,10.76,10.76,0,0,1-1.28-.61c-.73-.57-2.06-2.54-1.91-3.55Z" transform="translate(-351.03 -338.17)"/><path class="cls-10" d="M405.46,374.64c.22-.12.28-.87.33-1.13a5.4,5.4,0,0,1,.77-1.9,3.6,3.6,0,0,1,2.16-1.32,3.07,3.07,0,0,0,1.09-.66,4.94,4.94,0,0,1-2.15,5.15,3.79,3.79,0,0,1-1.1.42,1.9,1.9,0,0,1-.7.11c-.32-.05-.35-.33-.32-.67,0,0,0,0,0,0Z" transform="translate(-351.03 -338.17)"/><path class="cls-11" d="M409.75,369.75c-.19.86-1,1.43-1.47,2.06-.31.37-.53.81-.81,1.21s-.54.67-.77,1-.51,1-.82,1.12-.44-.39-.32-.68a15,15,0,0,0,.46-1.62,4.9,4.9,0,0,1,.4-1,3.51,3.51,0,0,1,.71-.73c0,.22-.25.44-.35.64a3.74,3.74,0,0,0-.33.94c0,.15-.13.58.1.55.08,0,.23-.29.27-.36l.44-.64a17.45,17.45,0,0,1,1.81-1.51c.28-.27.75-.59.78-1.06l-.13.09Z" transform="translate(-351.03 -338.17)"/><path class="cls-11" d="M409.71,369.79c-.13.54-.71,1-1,1.35a19.65,19.65,0,0,0-1.31,1.56c-.2.26-.43.49-.62.75s-.23.44-.42.53c-.39.18-.25-.52-.25-.79-.28,0-.42,1.16-.45,1.43s-.05.45.18.46.64-.7.81-.92c.6-.79,1.13-1.67,1.76-2.42a10.78,10.78,0,0,0,1.11-1.62c0-.1.18-.32.15-.38Z" transform="translate(-351.03 -338.17)"/><path class="cls-11" d="M409.68,369.82a8,8,0,0,0-.59.76c-.26.33-.52.66-.77,1s-.49.65-.73,1c-.12.18-.43.49-.46.72a2,2,0,0,0,.91-.46,5.47,5.47,0,0,0,1-.93,3.06,3.06,0,0,0,.78-1.76,10.61,10.61,0,0,1-.06,1.49,4.2,4.2,0,0,1-.51,1.3,5.86,5.86,0,0,1-1.29,1.46,4.29,4.29,0,0,1-1.24.68c-.27.09-1.15.33-.8-.32a15.23,15.23,0,0,1,1.71-2.39c.35-.44.75-.82,1.09-1.27.13-.17.81-.94.76-1.11Z" transform="translate(-351.03 -338.17)"/><path class="cls-12" d="M409.7,369.89a23.84,23.84,0,0,0-1.81,2.28c-.3.43-.63.83-.92,1.26a3.65,3.65,0,0,1-.62.85c-.45.32-.16-1-.54-.23-.14.28-.43.91-.12,1.15s1-.13,1.33-.27a4.74,4.74,0,0,0,.81-.41,1.93,1.93,0,0,0,.73-.66c-.23,0-.61.27-.83.38s-.7.39-.84.21.74-1.29.87-1.49a20,20,0,0,0,1.07-1.69c.14-.27.31-.51.47-.76a2.31,2.31,0,0,0,.42-.66l-.08,0Z" transform="translate(-351.03 -338.17)"/><path class="cls-13" d="M409.65,369.81a6.72,6.72,0,0,1-1.11.61,4.5,4.5,0,0,0-1.13.49,1.13,1.13,0,0,0-.48.59c-.08.33.12.39.35.28s.48-.4.74-.55a6,6,0,0,0,.74-.44c.14-.11.94-.91.87-1Z" transform="translate(-351.03 -338.17)"/><path class="cls-14" d="M407.45,372.88a6.48,6.48,0,0,0-.89,1.22,1.78,1.78,0,0,1-.4.49c-.31.19-.17-.18-.33-.34s-.2.22-.21.39-.05.4.1.5.75,0,1-.08a2.2,2.2,0,0,0,1.08-.53c-.43,0-.9.35-1.35.28,0-.31.33-.83.46-1.09s.29-.51.45-.77c0,.05,0,0-.05,0Z" transform="translate(-351.03 -338.17)"/><path class="cls-10" d="M402.41,377.12c.17-.23-.15-1.05-.22-1.36a6.13,6.13,0,0,1-.18-2.36,4.06,4.06,0,0,1,1.56-2.45,3.35,3.35,0,0,0,.79-1.21,5.81,5.81,0,0,1,.39,6.47,4.1,4.1,0,0,1-.92,1,2.31,2.31,0,0,1-.66.46c-.36.1-.53-.19-.67-.56,0,0,0,0,.05,0Z" transform="translate(-351.03 -338.17)"/><path class="cls-11" d="M404.35,369.89a6.34,6.34,0,0,1-.47,2.89c-.12.53-.13,1.11-.22,1.66s-.21,1-.26,1.47,0,1.3-.28,1.58-.65-.2-.67-.57a19.13,19.13,0,0,0-.35-1.93,6.23,6.23,0,0,1-.12-1.28,4.67,4.67,0,0,1,.37-1.11,3,3,0,0,1,0,.85,4.44,4.44,0,0,0,.13,1.14c.05.18.16.69.38.54s.09-.42.1-.52c0-.29.07-.59.13-.87a18.33,18.33,0,0,1,1.1-2.48c.14-.42.47-1,.26-1.49,0,0-.06.1-.08.15Z" transform="translate(-351.03 -338.17)"/><path class="cls-11" d="M404.33,370a4.21,4.21,0,0,1-.39,1.92c-.21.76-.41,1.49-.56,2.29-.06.37-.19.71-.25,1.08a1.67,1.67,0,0,1-.17.76c-.3.39-.51-.42-.66-.71-.27.15.16,1.44.26,1.73s.19.49.43.39.31-1,.37-1.36c.21-1.12.31-2.31.58-3.4a12.71,12.71,0,0,0,.33-2.25c0-.13,0-.43,0-.47Z" transform="translate(-351.03 -338.17)"/><path class="cls-11" d="M404.32,370c-.11.31-.13.75-.22,1.09s-.2.95-.29,1.43-.18.93-.24,1.4a2.54,2.54,0,0,0-.12,1c.3-.12.55-.63.7-.92a6,6,0,0,0,.56-1.46,3.52,3.52,0,0,0-.09-2.24,11.4,11.4,0,0,1,.7,1.6,5,5,0,0,1,.13,1.62,6.4,6.4,0,0,1-.59,2.16,4.58,4.58,0,0,1-.93,1.31c-.23.23-1,.92-1,.07a18.55,18.55,0,0,1,.55-3.36c.14-.63.36-1.23.48-1.87,0-.24.37-1.38.22-1.54Z" transform="translate(-351.03 -338.17)"/><path class="cls-12" d="M404.38,370.06a27.3,27.3,0,0,0-.71,3.28c-.1.6-.23,1.18-.32,1.78a4.25,4.25,0,0,1-.2,1.2c-.3.54-.66-1-.67,0,0,.36,0,1.17.46,1.27s.94-.61,1.22-.92a5.8,5.8,0,0,0,.64-.82,2.35,2.35,0,0,0,.41-1c-.26.06-.49.57-.66.78s-.52.76-.76.64.11-1.73.14-2a19.87,19.87,0,0,0,.24-2.31c0-.34.07-.68.11-1a3,3,0,0,0,.1-.9l-.07.08Z" transform="translate(-351.03 -338.17)"/><path class="cls-13" d="M404.28,370a7.49,7.49,0,0,1-.83,1.17,5.24,5.24,0,0,0-.92,1.06,1.34,1.34,0,0,0-.19.86c.08.38.32.36.5.12s.29-.65.49-.94a5.39,5.39,0,0,0,.54-.83,5.21,5.21,0,0,0,.38-1.45Z" transform="translate(-351.03 -338.17)"/><path class="cls-14" d="M403.57,374.3a8,8,0,0,0-.3,1.72,2.37,2.37,0,0,1-.16.72c-.22.35-.27-.12-.51-.21s-.09.33,0,.52.15.44.35.48.78-.38,1-.58a2.28,2.28,0,0,0,.84-1.08c-.43.23-.74.81-1.24.95-.21-.3-.09-1-.08-1.37a8.76,8.76,0,0,1,.08-1c0,.05,0,0,0,.06Z" transform="translate(-351.03 -338.17)"/><path class="cls-10" d="M402.92,377.32c.3,0,.86-.66,1.08-.87a6.6,6.6,0,0,1,2-1.35,4.11,4.11,0,0,1,2.92.09,3.42,3.42,0,0,0,1.46.06,6,6,0,0,1-5.49,3.61,4.23,4.23,0,0,1-1.32-.3,2.1,2.1,0,0,1-.73-.33c-.26-.25-.1-.54.16-.85,0,0,0,0,0,.05Z" transform="translate(-351.03 -338.17)"/><path class="cls-11" d="M410.25,375.32a6.7,6.7,0,0,1-2.77,1.05c-.54.17-1.05.46-1.58.66s-.95.31-1.42.52-1.15.64-1.53.56-.14-.65.17-.85c.55-.36,1-.86,1.52-1.28a5.85,5.85,0,0,1,1.07-.74,5.29,5.29,0,0,1,1.15-.26c-.17.2-.53.27-.75.41a4.46,4.46,0,0,0-.94.69c-.14.13-.53.48-.29.59s.41-.13.5-.17c.29-.11.56-.24.85-.34a20.63,20.63,0,0,1,2.71-.31c.44-.09,1.11-.1,1.45-.53a.49.49,0,0,0-.17,0Z" transform="translate(-351.03 -338.17)"/><path class="cls-11" d="M410.18,375.34a4.29,4.29,0,0,1-1.88.63c-.77.21-1.52.4-2.29.68-.36.13-.72.2-1.08.34a1.69,1.69,0,0,1-.75.24c-.49-.06.11-.65.29-.92-.26-.15-1.18.86-1.39,1.1s-.34.4-.13.56,1.07-.27,1.38-.38c1.09-.38,2.18-.9,3.28-1.22a13.48,13.48,0,0,0,2.14-.86c.12-.07.39-.19.39-.27Z" transform="translate(-351.03 -338.17)"/><path class="cls-11" d="M410.15,375.35a7.48,7.48,0,0,0-1.07.36c-.47.14-.94.31-1.41.48s-.9.31-1.35.49a2.87,2.87,0,0,0-.91.4,2.21,2.21,0,0,0,1.16.13,6.63,6.63,0,0,0,1.56-.27,3.68,3.68,0,0,0,1.92-1.2,11,11,0,0,1-1.06,1.4,5.33,5.33,0,0,1-1.35.93,6.86,6.86,0,0,1-2.2.59,4.87,4.87,0,0,1-1.62-.12c-.32-.08-1.31-.41-.54-.82a19.34,19.34,0,0,1,3.22-1.22c.62-.21,1.25-.32,1.88-.54.24-.08,1.4-.39,1.46-.59Z" transform="translate(-351.03 -338.17)"/><path class="cls-12" d="M410.12,375.42a30.1,30.1,0,0,0-3.25,1.07c-.57.21-1.15.4-1.71.62a4.74,4.74,0,0,1-1.16.44c-.63,0,.51-1-.35-.57-.32.18-1,.61-.88,1s1,.49,1.42.57a4.47,4.47,0,0,0,1,.13,2.4,2.4,0,0,0,1.13-.17c-.19-.19-.74-.13-1-.17s-.92-.06-.93-.32,1.57-.78,1.83-.89c.72-.31,1.45-.58,2.14-1,.31-.16.64-.3.95-.44a2.9,2.9,0,0,0,.85-.36h-.1Z" transform="translate(-351.03 -338.17)"/><path class="cls-13" d="M410.11,375.32a7.74,7.74,0,0,1-1.45-.12,5.69,5.69,0,0,0-1.39-.24,1.32,1.32,0,0,0-.85.28c-.29.25-.15.44.14.48s.72-.08,1.07-.06a6.64,6.64,0,0,0,1,0c.2,0,1.49-.29,1.48-.42Z" transform="translate(-351.03 -338.17)"/><path class="cls-14" d="M406,376.88a8.38,8.38,0,0,0-1.66.62,2.09,2.09,0,0,1-.71.22c-.42,0,0-.28-.07-.54s-.34.1-.47.25-.31.35-.24.54.71.47,1,.56a2.44,2.44,0,0,0,1.37.17c-.41-.25-1.08-.22-1.45-.58.16-.33.86-.59,1.16-.76s.62-.3.94-.45c0,0,0,0-.06,0Z" transform="translate(-351.03 -338.17)"/><path class="cls-10" d="M397.82,383.67c.24-.47-.51-1.57-.71-2a8.44,8.44,0,0,1-.87-3.59c.05-1.93,1-3.14,2.12-4.64a6.28,6.28,0,0,0,1.09-2.31,8,8,0,0,1,2.22,9.85,9.15,9.15,0,0,1-1.38,2,4.36,4.36,0,0,1-1,1.06c-.59.34-1,0-1.29-.5,0-.07.06,0,.09,0Z" transform="translate(-351.03 -338.17)"/><path class="cls-11" d="M399.47,371.36c.65,1.42,0,3.22-.14,4.75-.08.9,0,1.81,0,2.71s-.14,1.61-.12,2.42.27,2-.1,2.61c-.51.79-1.18,0-1.3-.52a25.37,25.37,0,0,0-1.06-2.82,7.08,7.08,0,0,1-.51-1.92,7.5,7.5,0,0,1,.37-1.92,4.39,4.39,0,0,1,.15,1.32,5.62,5.62,0,0,0,.5,1.71c.13.26.43,1,.78.64.12-.13.06-.7.06-.86,0-.48,0-1,0-1.44.1-1.53,1-2.92,1.31-4.43.15-.73.59-1.79.11-2.47a2.33,2.33,0,0,0-.11.28Z" transform="translate(-351.03 -338.17)"/><path class="cls-11" d="M399.46,371.49c.39.9-.08,2.24-.22,3.18a35.8,35.8,0,0,0-.44,3.87c0,.61-.16,1.21-.17,1.82a2.58,2.58,0,0,1-.12,1.27c-.44.76-1-.38-1.31-.74-.43.37.62,2.14.86,2.54s.43.67.83.38.29-1.78.32-2.31c.11-1.86,0-3.76.2-5.6a17.42,17.42,0,0,0,0-3.68c0-.2,0-.67-.17-.71Z" transform="translate(-351.03 -338.17)"/><path class="cls-11" d="M399.45,371.54a13.46,13.46,0,0,0-.12,1.82c-.09.79-.14,1.59-.17,2.38s-.09,1.53-.1,2.3c0,.42-.18,1.24,0,1.58a4.24,4.24,0,0,0,1-1.8,10.91,10.91,0,0,0,.62-2.58,4.78,4.78,0,0,0-.68-3.43,13.13,13.13,0,0,1,1.58,2.12,6.42,6.42,0,0,1,.62,2.44,10.71,10.71,0,0,1-.51,3.68,9.25,9.25,0,0,1-1.3,2.54c-.35.49-1.56,2-1.71.63a28.21,28.21,0,0,1,.16-5.51c.09-1.06.33-2.11.4-3.16,0-.42.3-2.35,0-2.52Z" transform="translate(-351.03 -338.17)"/><path class="cls-12" d="M399.56,371.62a43.85,43.85,0,0,0-.45,5.49c0,1-.12,1.95-.14,2.93a6.5,6.5,0,0,1-.05,2c-.4,1-1.38-1.13-1.17.38.08.57.31,1.8,1.1,1.73s1.49-1.47,1.9-2.1a11.09,11.09,0,0,0,.91-1.61,4.1,4.1,0,0,0,.47-1.86c-.44.25-.71,1.16-1,1.6-.17.28-.72,1.45-1.16,1.38s-.22-2.73-.23-3.18a32.7,32.7,0,0,0-.12-3.71c-.06-.54-.06-1.1-.07-1.64a4.19,4.19,0,0,0,0-1.46.83.83,0,0,0-.09.16Z" transform="translate(-351.03 -338.17)"/><path class="cls-13" d="M399.38,371.59a13.94,13.94,0,0,1-1.17,2.27,11.33,11.33,0,0,0-1.33,2.15,2,2,0,0,0-.13,1.44c.23.54.63.37.89-.08s.35-1.18.62-1.72a10.43,10.43,0,0,0,.74-1.59c.1-.31.53-2.46.32-2.48Z" transform="translate(-351.03 -338.17)"/><path class="cls-14" d="M399.16,378.65a11.7,11.7,0,0,0-.11,2.84,3,3,0,0,1-.12,1.19c-.3.66-.48,0-.93,0s-.07.56.09.82.37.6.74.54c.61-.1,1.24-1,1.59-1.42a4.81,4.81,0,0,0,1.2-2.14c-.7.58-1.11,1.66-1.93,2.15-.44-.37-.4-1.56-.47-2.09s-.08-1.08-.11-1.64c.05.06,0,.05,0,.11Z" transform="translate(-351.03 -338.17)"/><path class="cls-15" d="M397,377.55c.52.16.59,1.14.69,1.57a8.65,8.65,0,0,1,.26,2.08c-.07-1.54,1.55-3.16,2.9-3.75,1.1-.48,2.74-.23,3.36-1.49,0,.31.07.67,0,1a4,4,0,0,1-.38,1.49,9.81,9.81,0,0,1-2.88,2.93,9,9,0,0,1-2.85,1.44c-.49.14-1,.2-1.47.34s-1,.54-1.4.33c.22-.57.67-1.07.87-1.68a12.24,12.24,0,0,0,.46-2c.13-.85-.07-1.89.51-2.6Z" transform="translate(-351.03 -338.17)"/><path class="cls-10" d="M397.68,381.65c.41,0,1.09-.91,1.37-1.2a7.75,7.75,0,0,1,2.56-1.87,5.87,5.87,0,0,1,4.05,0,4.86,4.86,0,0,0,2,0,7.53,7.53,0,0,1-7.06,5,5.84,5.84,0,0,1-1.86-.35,3,3,0,0,1-1.05-.42c-.4-.32-.22-.72.09-1.14.06,0,0,0,0,.06Z" transform="translate(-351.03 -338.17)"/><path class="cls-11" d="M407.5,378.73c-.95,1-2.47,1.1-3.68,1.5-.71.24-1.37.64-2.07.94s-1.28.43-1.89.73-1.49.89-2,.8c-.72-.11-.29-.87.11-1.15a24.2,24.2,0,0,0,1.93-1.75,6.68,6.68,0,0,1,1.36-1,6,6,0,0,1,1.56-.38c-.22.27-.7.38-1,.56a5.82,5.82,0,0,0-1.2,1c-.16.18-.65.66-.31.8.12.05.55-.19.67-.25.37-.16.74-.33,1.11-.47,1.2-.44,2.47-.24,3.7-.51.6-.13,1.51-.16,1.92-.75h-.19Z" transform="translate(-351.03 -338.17)"/><path class="cls-11" d="M407.4,378.76a5.73,5.73,0,0,1-2.49.91c-1.05.3-2,.58-3.07,1-.48.19-1,.3-1.44.49a2.45,2.45,0,0,1-1,.35c-.69-.08.06-.89.27-1.25-.38-.19-1.5,1.19-1.76,1.51s-.41.56-.1.75,1.43-.38,1.85-.54c1.45-.54,2.88-1.28,4.34-1.74a16.78,16.78,0,0,0,2.83-1.22c.15-.09.51-.27.5-.38Z" transform="translate(-351.03 -338.17)"/><path class="cls-11" d="M407.36,378.77c-.45.09-1,.37-1.43.52-.62.21-1.24.44-1.86.68s-1.2.45-1.8.71c-.32.14-1,.29-1.2.57a3.21,3.21,0,0,0,1.61.13,9.22,9.22,0,0,0,2.12-.4,4.6,4.6,0,0,0,2.48-1.68,13.2,13.2,0,0,1-1.27,1.91,6.35,6.35,0,0,1-1.73,1.29,9.23,9.23,0,0,1-2.95.86,7,7,0,0,1-2.24-.12c-.45-.1-1.86-.5-.87-1.07a25.34,25.34,0,0,1,4.27-1.74c.84-.3,1.69-.47,2.52-.77.32-.12,1.87-.57,1.93-.85Z" transform="translate(-351.03 -338.17)"/><path class="cls-12" d="M407.32,378.88A36.2,36.2,0,0,0,403,380.4c-.76.31-1.53.57-2.28.89a5.86,5.86,0,0,1-1.53.62c-.87,0,.55-1.41-.56-.74-.42.25-1.31.84-1.08,1.41s1.47.63,2,.72a7.64,7.64,0,0,0,1.44.13,3.18,3.18,0,0,0,1.54-.27c-.29-.25-1.05-.14-1.45-.19s-1.28-.05-1.32-.4,2.05-1.09,2.39-1.25A30.34,30.34,0,0,0,405,380c.4-.23.83-.41,1.25-.61a3.42,3.42,0,0,0,1.11-.52h-.14Z" transform="translate(-351.03 -338.17)"/><path class="cls-13" d="M407.3,378.74a11.3,11.3,0,0,1-2-.12,7.83,7.83,0,0,0-1.94-.27,1.77,1.77,0,0,0-1.14.39c-.36.36-.14.6.26.64s1-.13,1.46-.12a8.07,8.07,0,0,0,1.39,0c.26,0,2-.43,2-.6Z" transform="translate(-351.03 -338.17)"/><path class="cls-14" d="M401.83,381a9.82,9.82,0,0,0-2.2.88,2.81,2.81,0,0,1-.94.31c-.58,0-.09-.37-.18-.71s-.45.14-.61.34-.38.49-.25.74c.21.43,1,.6,1.45.72a3.53,3.53,0,0,0,1.91.18c-.6-.33-1.52-.27-2.08-.73.18-.45,1.11-.83,1.5-1.06s.81-.42,1.23-.64c0,.07,0,0-.09,0Z" transform="translate(-351.03 -338.17)"/><path class="cls-10" d="M391,385.55c.49.1,1.35-.87,1.7-1.15a8.14,8.14,0,0,1,3.17-1.73c1.82-.47,3.2.1,4.88.71a6.14,6.14,0,0,0,2.43.39,8.06,8.06,0,0,1-8.73,4.59,8.61,8.61,0,0,1-2.22-.72A4.76,4.76,0,0,1,391,387c-.46-.45-.23-.88.16-1.31.08,0,0,0,0,.07Z" transform="translate(-351.03 -338.17)"/><path class="cls-11" d="M403,383.85c-1.19,1-3,.86-4.5,1.12-.87.15-1.69.5-2.55.72s-1.55.3-2.3.53-1.84.78-2.48.59c-.86-.26-.31-1.07.18-1.32a26,26,0,0,0,2.39-1.7,4.45,4.45,0,0,1,3.59-1.13c-.28.26-.86.32-1.22.48a5.86,5.86,0,0,0-1.48.9c-.21.19-.82.65-.41.87.15.09.67-.12.82-.16.45-.13.9-.26,1.36-.36,1.46-.31,3,.14,4.48,0,.72-.05,1.83.07,2.34-.54a.67.67,0,0,0-.28,0Z" transform="translate(-351.03 -338.17)"/><path class="cls-11" d="M402.83,383.87c-.76.6-2.13.51-3.06.63-1.27.17-2.48.32-3.73.61-.58.14-1.18.18-1.76.32a2.63,2.63,0,0,1-1.22.23c-.82-.2.11-1,.38-1.39-.45-.3-1.86,1.12-2.19,1.45s-.52.56-.15.85,1.75-.2,2.26-.31c1.77-.39,3.52-1,5.31-1.27a19.05,19.05,0,0,0,3.46-.94c.19-.06.62-.22.62-.34Z" transform="translate(-351.03 -338.17)"/><path class="cls-11" d="M402.77,383.88a14,14,0,0,0-1.73.36c-.77.13-1.53.3-2.28.47s-1.47.31-2.2.51c-.39.11-1.2.16-1.47.45a4.2,4.2,0,0,0,1.93.43,11,11,0,0,0,2.57-.1,4.91,4.91,0,0,0,3.07-1.52,12.83,12.83,0,0,1-1.61,2,6.66,6.66,0,0,1-2.15,1.19,10.88,10.88,0,0,1-3.58.5,9,9,0,0,1-2.71-.53c-.54-.19-2.22-.9-1-1.38a28.47,28.47,0,0,1,5.22-1.3c1-.19,2.06-.24,3.07-.46.4-.08,2.29-.34,2.37-.65Z" transform="translate(-351.03 -338.17)"/><path class="cls-12" d="M402.73,384a44.57,44.57,0,0,0-5.27,1c-.93.22-1.88.4-2.79.65a6.9,6.9,0,0,1-1.87.45c-1.05-.1.73-1.54-.64-1-.52.22-1.62.75-1.36,1.45s1.74,1,2.43,1.18a9.46,9.46,0,0,0,1.73.41,3.87,3.87,0,0,0,1.86-.05c-.33-.34-1.25-.34-1.73-.46-.31-.08-1.54-.28-1.58-.7s2.52-.91,2.94-1a34.47,34.47,0,0,0,3.45-1.08c.5-.2,1-.34,1.54-.49a4.14,4.14,0,0,0,1.36-.41l-.17-.05Z" transform="translate(-351.03 -338.17)"/><path class="cls-13" d="M402.71,383.83a14.56,14.56,0,0,1-2.42-.47,11,11,0,0,0-2.34-.66,2.06,2.06,0,0,0-1.38.26c-.46.35-.2.67.28.79s1.19,0,1.78.12a11.47,11.47,0,0,0,1.66.26c.32,0,2.44-.15,2.41-.36Z" transform="translate(-351.03 -338.17)"/><path class="cls-14" d="M396,385.47a12.1,12.1,0,0,0-2.69.64,3,3,0,0,1-1.15.2c-.69-.1-.09-.44-.18-.85s-.55.08-.75.29-.48.49-.34.81c.24.53,1.24.88,1.73,1.08a4.64,4.64,0,0,0,2.3.54c-.72-.48-1.83-.57-2.49-1.2.24-.5,1.38-.77,1.86-1s1-.35,1.51-.52c-.05.07-.06,0-.11,0Z" transform="translate(-351.03 -338.17)"/><path class="cls-10" d="M389.75,387.67c.41-.34.13-1.65.1-2.11a8.3,8.3,0,0,1,.56-3.66c.76-1.77,2.12-2.54,3.71-3.51a6.24,6.24,0,0,0,1.87-1.74,8,8,0,0,1-1.66,10,8.79,8.79,0,0,1-2,1.36,5,5,0,0,1-1.36.6c-.68.09-.89-.36-1-.95.06-.05.06,0,.08,0Z" transform="translate(-351.03 -338.17)"/><path class="cls-11" d="M395.93,376.88c.07,1.56-1.21,3-1.92,4.35-.42.8-.65,1.69-1,2.52s-.74,1.45-1,2.2-.51,2-1.08,2.38c-.77.55-1.1-.41-1-1,.17-1,0-2,.08-3a7.24,7.24,0,0,1,.25-2,7.64,7.64,0,0,1,1.07-1.65c.05.39-.28.9-.37,1.29a5.61,5.61,0,0,0-.17,1.78c0,.28,0,1.07.47.87.17-.06.32-.62.38-.77.18-.45.35-.89.56-1.33.67-1.38,2-2.33,2.89-3.61.42-.63,1.22-1.45,1-2.25a1.07,1.07,0,0,0-.2.22Z" transform="translate(-351.03 -338.17)"/><path class="cls-11" d="M395.87,377c0,1-.92,2.06-1.41,2.88a38.86,38.86,0,0,0-1.86,3.42c-.25.55-.6,1.06-.85,1.63a2.63,2.63,0,0,1-.58,1.14c-.7.53-.79-.73-.93-1.19-.55.18-.24,2.22-.17,2.69s.15.78.62.66.95-1.55,1.18-2c.8-1.68,1.4-3.49,2.3-5.12a19,19,0,0,0,1.41-3.39c.06-.2.21-.65.1-.73Z" transform="translate(-351.03 -338.17)"/><path class="cls-11" d="M395.84,377a15.59,15.59,0,0,0-.8,1.64c-.38.7-.72,1.43-1.05,2.15s-.66,1.38-1,2.1c-.16.38-.63,1.08-.56,1.48a4.45,4.45,0,0,0,1.6-1.3,10.23,10.23,0,0,0,1.54-2.16,4.77,4.77,0,0,0,.66-3.44,13.24,13.24,0,0,1,.68,2.56,6.6,6.6,0,0,1-.35,2.49,11,11,0,0,1-1.87,3.23,9.24,9.24,0,0,1-2.16,1.87c-.51.32-2.18,1.24-1.82-.06a28,28,0,0,1,2.23-5c.49-1,1.1-1.83,1.56-2.79.18-.37,1.17-2.06,1-2.33Z" transform="translate(-351.03 -338.17)"/><path class="cls-12" d="M395.92,377.14a43.77,43.77,0,0,0-2.49,4.93c-.4.9-.85,1.77-1.23,2.67a6.64,6.64,0,0,1-.8,1.8c-.76.79-.85-1.55-1.22-.08-.15.56-.4,1.79.36,2s1.94-.81,2.55-1.24a10,10,0,0,0,1.45-1.15c.37-.38,1.06-1,1.14-1.55-.5.06-1.09.81-1.5,1.12s-1.22,1.08-1.6.85.83-2.62,1-3a34.72,34.72,0,0,0,1.29-3.48,14.49,14.49,0,0,1,.56-1.56,4.17,4.17,0,0,0,.51-1.36l-.14.11Z" transform="translate(-351.03 -338.17)"/><path class="cls-13" d="M395.76,377.05a14.11,14.11,0,0,1-1.94,1.67,11.12,11.12,0,0,0-2,1.49,2,2,0,0,0-.66,1.29c0,.59.44.59.84.26s.78-1,1.23-1.36a11.19,11.19,0,0,0,1.28-1.19c.21-.27,1.43-2.09,1.24-2.19Z" transform="translate(-351.03 -338.17)"/><path class="cls-14" d="M392.89,383.52a11.91,11.91,0,0,0-1.18,2.59,2.9,2.9,0,0,1-.55,1.06c-.52.51-.43-.2-.84-.39s-.28.5-.24.8.12.7.48.78c.61.14,1.53-.45,2-.73a4.94,4.94,0,0,0,1.92-1.52c-.87.27-1.66,1.12-2.61,1.26-.27-.5.23-1.6.36-2.12s.33-1,.52-1.56c0,.08,0,.05-.07.1Z" transform="translate(-351.03 -338.17)"/><path class="cls-10" d="M385.15,388.93c.45.23,1.54-.47,2-.65a8.33,8.33,0,0,1,3.53-.78c1.89.05,3.05,1,4.48,2a6.15,6.15,0,0,0,2.23,1,8.11,8.11,0,0,1-11.62.7,4.48,4.48,0,0,1-1-1c-.32-.56,0-.9.52-1.21.07,0,0,.05,0,.08Z" transform="translate(-351.03 -338.17)"/><path class="cls-11" d="M397.12,390.58c-1.41.61-3.15,0-4.63-.16-.88-.09-1.77,0-2.66,0s-1.57-.14-2.36-.12-2,.24-2.55-.12c-.75-.49,0-1.11.55-1.22a26.35,26.35,0,0,0,2.79-1,6.88,6.88,0,0,1,1.89-.46,7.11,7.11,0,0,1,1.87.36c-.34.18-.91.07-1.3.13a5.81,5.81,0,0,0-1.69.46c-.25.12-1,.4-.64.72.12.12.68.06.84.06.47,0,.93,0,1.41,0,1.48.11,2.82,1,4.28,1.28.71.14,1.74.56,2.41.12a1.08,1.08,0,0,0-.27-.1Z" transform="translate(-351.03 -338.17)"/><path class="cls-11" d="M397,390.57c-.9.36-2.19-.09-3.11-.23a36,36,0,0,0-3.76-.44c-.59,0-1.18-.16-1.78-.18a2.59,2.59,0,0,1-1.24-.12c-.73-.42.4-.94.77-1.23-.36-.41-2.11.56-2.51.79s-.67.4-.4.78,1.74.29,2.26.32c1.81.12,3.67,0,5.46.24a18.73,18.73,0,0,0,3.59.05c.2,0,.66,0,.7-.16Z" transform="translate(-351.03 -338.17)"/><path class="cls-11" d="M397,390.56a14.59,14.59,0,0,0-1.77-.13c-.78-.09-1.55-.13-2.33-.18s-1.49-.1-2.24-.11c-.41,0-1.2-.17-1.55,0a4.24,4.24,0,0,0,1.73.95,11.25,11.25,0,0,0,2.5.6,4.9,4.9,0,0,0,3.38-.62,14,14,0,0,1-2.11,1.48,6.9,6.9,0,0,1-2.41.56,10.85,10.85,0,0,1-3.58-.51,8.73,8.73,0,0,1-2.45-1.25c-.46-.33-1.88-1.47-.57-1.61a28.57,28.57,0,0,1,5.39.2c1,.09,2,.33,3.08.4.4,0,2.28.3,2.45,0Z" transform="translate(-351.03 -338.17)"/><path class="cls-12" d="M396.87,390.67a41.69,41.69,0,0,0-5.35-.47c-1,0-1.91-.14-2.86-.15a6.8,6.8,0,0,1-1.92-.07c-1-.39,1.13-1.28-.35-1.1-.56.07-1.77.27-1.72,1s1.4,1.42,2,1.81a11.19,11.19,0,0,0,1.55.87,4,4,0,0,0,1.8.46c-.23-.42-1.11-.68-1.53-.93s-1.41-.69-1.32-1.1,2.67-.19,3.11-.19a33.78,33.78,0,0,0,3.63-.09c.53-.05,1.08,0,1.61-.05a4,4,0,0,0,1.43,0l-.15-.08Z" transform="translate(-351.03 -338.17)"/><path class="cls-13" d="M396.9,390.5a15.06,15.06,0,0,1-2.19-1.12,10,10,0,0,0-2-1.27,2,2,0,0,0-1.41-.13c-.54.2-.38.59.05.83s1.14.34,1.67.6a11.69,11.69,0,0,0,1.52.71c.31.09,2.39.52,2.42.32Z" transform="translate(-351.03 -338.17)"/><path class="cls-14" d="M390,390.23a12.78,12.78,0,0,0-2.77-.13,3,3,0,0,1-1.16-.11c-.64-.29,0-.45.07-.88s-.55-.07-.81.08-.6.34-.55.68c.08.58.93,1.19,1.35,1.52a4.64,4.64,0,0,0,2.05,1.15c-.55-.67-1.59-1.06-2-1.84.36-.41,1.53-.36,2.05-.42s1.06-.07,1.6-.1c-.06.05-.05,0-.1,0Z" transform="translate(-351.03 -338.17)"/><path class="cls-10" d="M384.37,392.18c.34-.39-.13-1.64-.22-2.09a8.25,8.25,0,0,1,0-3.7c.49-1.87,1.72-2.82,3.14-4a6.22,6.22,0,0,0,1.6-2,8,8,0,0,1-.16,10.1,8.26,8.26,0,0,1-1.81,1.63,4.64,4.64,0,0,1-1.26.8c-.65.19-.93-.23-1.14-.8.05-.06.06,0,.09,0Z" transform="translate(-351.03 -338.17)"/><path class="cls-11" d="M388.88,380.63c.29,1.53-.76,3.13-1.26,4.58-.29.85-.39,1.76-.62,2.64s-.51,1.53-.67,2.32-.22,2-.73,2.51c-.68.65-1.14-.25-1.13-.82a26,26,0,0,0-.37-3,7.37,7.37,0,0,1,0-2,7.51,7.51,0,0,1,.81-1.78c.11.38-.13.93-.17,1.33a5.91,5.91,0,0,0,.09,1.78c.07.28.19,1.05.6.8.15-.09.22-.66.27-.82.11-.47.21-.93.35-1.39.46-1.46,1.65-2.61,2.32-4,.32-.68,1-1.6.69-2.38a2.2,2.2,0,0,0-.17.25Z" transform="translate(-351.03 -338.17)"/><path class="cls-11" d="M388.83,380.74c.17,1-.61,2.16-1,3.05a35.34,35.34,0,0,0-1.34,3.65c-.17.58-.44,1.14-.59,1.73a2.7,2.7,0,0,1-.42,1.21c-.6.63-.88-.61-1.09-1-.52.26.09,2.23.23,2.68s.26.75.72.56.7-1.66.85-2.17c.55-1.78.88-3.65,1.52-5.39a18.29,18.29,0,0,0,.89-3.57c0-.2.12-.67,0-.72Z" transform="translate(-351.03 -338.17)"/><path class="cls-11" d="M388.81,380.79a14.75,14.75,0,0,0-.55,1.74c-.27.74-.5,1.51-.72,2.27s-.45,1.47-.64,2.22c-.1.4-.46,1.15-.33,1.55.54-.23,1.06-1.06,1.39-1.52a11,11,0,0,0,1.21-2.36,4.87,4.87,0,0,0,.14-3.5,13.67,13.67,0,0,1,1,2.43,6.94,6.94,0,0,1,0,2.53A11.07,11.07,0,0,1,389,389.6a9.34,9.34,0,0,1-1.86,2.16c-.46.39-2,1.54-1.81.21a27.61,27.61,0,0,1,1.46-5.32c.33-1,.81-2,1.13-3,.12-.4.84-2.21.6-2.44Z" transform="translate(-351.03 -338.17)"/><path class="cls-12" d="M388.9,380.89a42.13,42.13,0,0,0-1.73,5.23c-.27.94-.58,1.88-.83,2.82a6.45,6.45,0,0,1-.52,1.9c-.62.89-1.06-1.42-1.22.09-.06.57-.12,1.83.66,1.94s1.8-1.06,2.34-1.58a10.67,10.67,0,0,0,1.26-1.35,4,4,0,0,0,.9-1.69c-.49.13-1,.95-1.31,1.32s-1.05,1.24-1.46,1.06.43-2.71.53-3.14c.27-1.21.61-2.41.76-3.64.06-.54.2-1.08.31-1.61a3.88,3.88,0,0,0,.31-1.43l-.12.13Z" transform="translate(-351.03 -338.17)"/><path class="cls-13" d="M388.73,380.83a15.12,15.12,0,0,1-1.67,1.92,11.17,11.17,0,0,0-1.8,1.77,2,2,0,0,0-.46,1.37c.09.58.52.51.88.14s.62-1.06,1-1.53a11.8,11.8,0,0,0,1.09-1.36c.17-.29,1.1-2.26.89-2.34Z" transform="translate(-351.03 -338.17)"/><path class="cls-14" d="M386.85,387.63a12.13,12.13,0,0,0-.78,2.74,3.11,3.11,0,0,1-.39,1.13c-.44.57-.46-.15-.89-.27s-.2.53-.11.82.22.67.58.7c.62.06,1.45-.67,1.89-1a4.77,4.77,0,0,0,1.67-1.79c-.81.4-1.46,1.35-2.38,1.62-.34-.45,0-1.61,0-2.14a14.65,14.65,0,0,1,.28-1.61c0,.07,0,.05-.06.09Z" transform="translate(-351.03 -338.17)"/><path class="cls-10" d="M356.83,375.46c-.26-.16-.16-1-.17-1.35a5.19,5.19,0,0,0-.55-2.29,4.18,4.18,0,0,0-2.49-1.77,3.21,3.21,0,0,1-1.26-.87,5,5,0,0,0,1.57,6.23,4.78,4.78,0,0,0,1.34.6,2.63,2.63,0,0,0,.88.2c.42,0,.53-.35.57-.75,0,0,0,0-.05,0Z" transform="translate(-351.03 -338.17)"/><path class="cls-11" d="M352.41,369.32c0,1,.91,1.77,1.43,2.56.3.46.49,1,.76,1.49s.54.84.75,1.29.43,1.21.81,1.39.66-.41.56-.76c-.16-.62-.11-1.28-.21-1.94a4.29,4.29,0,0,0-.27-1.24,3.88,3.88,0,0,0-.75-.92c0,.26.22.54.3.78a3.83,3.83,0,0,1,.2,1.13c0,.18,0,.69-.24.63-.11,0-.23-.36-.28-.45-.14-.27-.27-.53-.42-.78-.5-.8-1.39-1.24-2-1.95-.3-.35-.84-.77-.77-1.31a.49.49,0,0,1,.14.11Z" transform="translate(-351.03 -338.17)"/><path class="cls-11" d="M352.45,369.38c0,.64.69,1.2,1,1.67a22,22,0,0,1,1.35,2c.18.33.43.61.61.94s.2.53.43.65c.46.26.45-.57.51-.89.35.05.27,1.41.25,1.72s-.05.53-.35.51-.67-.87-.84-1.15c-.59-1-1.06-2.07-1.71-3a11,11,0,0,1-1.06-2c-.05-.12-.17-.39-.1-.45Z" transform="translate(-351.03 -338.17)"/><path class="cls-11" d="M352.47,369.41a8,8,0,0,1,.59.95c.27.4.52.82.77,1.24s.49.82.71,1.23c.12.23.45.62.43.89a2.35,2.35,0,0,1-1.07-.63,5.72,5.72,0,0,1-1.07-1.18,2.94,2.94,0,0,1-.6-2.14,9.55,9.55,0,0,0-.28,1.74,4.1,4.1,0,0,0,.35,1.57,6.14,6.14,0,0,0,1.34,1.84,4.89,4.89,0,0,0,1.44.91c.34.14,1.43.51,1.13-.28a15.85,15.85,0,0,0-1.66-3c-.35-.56-.78-1-1.12-1.6-.14-.21-.84-1.18-.72-1.37Z" transform="translate(-351.03 -338.17)"/><path class="cls-12" d="M352.43,369.49a23.29,23.29,0,0,1,1.81,2.85c.3.52.63,1,.92,1.56a3.53,3.53,0,0,0,.59,1.06c.51.41.44-1.13.76-.22.11.34.34,1.1-.12,1.35s-1.25-.25-1.65-.45a5.49,5.49,0,0,1-1-.55c-.25-.19-.72-.53-.79-.84.32,0,.72.37,1,.51s.82.54,1,.34-.66-1.59-.78-1.83c-.34-.69-.72-1.36-1-2.08a10,10,0,0,0-.43-.94,2.18,2.18,0,0,1-.39-.81l.09.05Z" transform="translate(-351.03 -338.17)"/><path class="cls-13" d="M352.53,369.41a7.43,7.43,0,0,0,1.29.82,5.38,5.38,0,0,1,1.35.69,1.11,1.11,0,0,1,.48.74c0,.38-.24.44-.51.28s-.53-.51-.84-.71a5.75,5.75,0,0,1-.86-.6c-.15-.14-1-1.16-.88-1.25Z" transform="translate(-351.03 -338.17)"/><path class="cls-14" d="M354.66,373.21a6.61,6.61,0,0,1,.87,1.51,1.75,1.75,0,0,0,.4.61c.36.26.26-.19.51-.36s.2.28.18.48,0,.47-.25.57c-.37.17-1-.09-1.29-.19a2.65,2.65,0,0,1-1.28-.73c.55.06,1.09.5,1.69.46.14-.36-.23-1-.34-1.32s-.26-.62-.4-.94c0,.05,0,0,0,.05Z" transform="translate(-351.03 -338.17)"/><path class="cls-10" d="M358.84,377.72c-.13-.26.3-1,.41-1.3a6.27,6.27,0,0,0,.51-2.33,4,4,0,0,0-1.19-2.65,3.21,3.21,0,0,1-.6-1.31,5.81,5.81,0,0,0-1.32,6.35,3.92,3.92,0,0,0,.78,1.1,2.06,2.06,0,0,0,.59.55c.33.15.54-.11.74-.45,0,0,0,0-.05,0Z" transform="translate(-351.03 -338.17)"/><path class="cls-11" d="M358,370.28a6.31,6.31,0,0,0,.06,2.93c0,.54,0,1.12,0,1.68s.08,1,.06,1.48a4,4,0,0,0,0,1.62c.3.43.68-.11.75-.47a16.22,16.22,0,0,1,.62-1.86,5.68,5.68,0,0,0,.3-1.25,5,5,0,0,0-.2-1.16,2.68,2.68,0,0,0-.09.85,4.46,4.46,0,0,1-.3,1.11c-.08.17-.25.66-.45.48s0-.43,0-.53c0-.3,0-.59,0-.89a19.68,19.68,0,0,0-.73-2.6c-.09-.44-.33-1.05-.06-1.52a.43.43,0,0,1,.06.17Z" transform="translate(-351.03 -338.17)"/><path class="cls-11" d="M358,370.35a4.14,4.14,0,0,0,.11,1.95c.1.79.2,1.54.23,2.35,0,.38.08.74.09,1.11a1.82,1.82,0,0,0,.06.78c.25.42.57-.34.75-.61.25.19-.36,1.4-.49,1.68s-.26.46-.48.32-.16-1.07-.18-1.4c-.05-1.14,0-2.33-.09-3.45a13.24,13.24,0,0,1,0-2.27c0-.13,0-.43.11-.46Z" transform="translate(-351.03 -338.17)"/><path class="cls-11" d="M358,370.38a10,10,0,0,1,.07,1.12c0,.48.06,1,.08,1.45s.05.95.05,1.43a2.69,2.69,0,0,1,0,1c-.28-.16-.45-.7-.57-1a7,7,0,0,1-.34-1.53,3.57,3.57,0,0,1,.41-2.2,10.18,10.18,0,0,0-.92,1.48,4.9,4.9,0,0,0-.36,1.58,6.83,6.83,0,0,0,.27,2.23,4.63,4.63,0,0,0,.74,1.43c.2.27.88,1.05,1,.21a18.33,18.33,0,0,0-.07-3.4c-.05-.65-.18-1.27-.21-1.92,0-.25-.16-1.43,0-1.56Z" transform="translate(-351.03 -338.17)"/><path class="cls-12" d="M357.9,370.45a28.26,28.26,0,0,1,.23,3.35c0,.6.06,1.2.06,1.8a4.93,4.93,0,0,0,0,1.22c.22.58.79-.85.66.11,0,.36-.18,1.15-.63,1.19s-.85-.75-1.08-1.09a6.13,6.13,0,0,1-.51-.9,2.26,2.26,0,0,1-.26-1.1c.25.1.4.64.55.88s.4.82.65.73.14-1.72.15-2a22.48,22.48,0,0,1,.08-2.32c0-.34,0-.69.05-1a2.71,2.71,0,0,1,0-.9l0,.08Z" transform="translate(-351.03 -338.17)"/><path class="cls-13" d="M358,370.41a7.37,7.37,0,0,0,.66,1.28,5,5,0,0,1,.75,1.19,1.23,1.23,0,0,1,.07.87c-.13.37-.36.31-.51.05s-.2-.69-.34-1a4.92,4.92,0,0,1-.42-.9c-.06-.19-.3-1.47-.17-1.5Z" transform="translate(-351.03 -338.17)"/><path class="cls-14" d="M358.1,374.76a7.82,7.82,0,0,1,0,1.75,2,2,0,0,0,.06.73c.17.37.27-.07.53-.13s0,.34-.06.52-.21.41-.41.41c-.36,0-.72-.47-.91-.71a2.37,2.37,0,0,1-.68-1.19c.4.28.62.91,1.1,1.12.25-.27.23-1,.27-1.34s.05-.68.08-1c0,0,0,0,0,.06Z" transform="translate(-351.03 -338.17)"/><path class="cls-10" d="M358.51,377.63c-.3,0-.86-.66-1.09-.87a6.57,6.57,0,0,0-2-1.34,4.2,4.2,0,0,0-2.93.1,3.25,3.25,0,0,1-1.46.07,6,6,0,0,0,5.51,3.58,3.86,3.86,0,0,0,1.32-.3,2.31,2.31,0,0,0,.73-.33c.26-.26.1-.55-.16-.85,0,0,0,0,0,0Z" transform="translate(-351.03 -338.17)"/><path class="cls-11" d="M351.17,375.66a6.69,6.69,0,0,0,2.78,1c.53.16,1.05.44,1.58.65s1,.3,1.42.5,1.15.63,1.53.56.14-.66-.17-.85c-.56-.36-1-.86-1.53-1.27a5.85,5.85,0,0,0-1.07-.74,4.72,4.72,0,0,0-1.16-.25,3.23,3.23,0,0,0,.76.4,4.46,4.46,0,0,1,.94.69c.14.13.53.47.29.59-.08,0-.41-.14-.5-.17-.29-.11-.56-.24-.84-.33a19.36,19.36,0,0,0-2.72-.31c-.44-.08-1.11-.09-1.45-.52h.14Z" transform="translate(-351.03 -338.17)"/><path class="cls-11" d="M351.24,375.68a4.33,4.33,0,0,0,1.88.63,22.15,22.15,0,0,1,2.3.67c.36.13.72.19,1.08.33s.51.27.75.23c.49-.07-.11-.65-.3-.91.27-.16,1.19.85,1.4,1.08s.34.41.13.56-1.07-.26-1.38-.36c-1.09-.38-2.19-.9-3.28-1.21a13.53,13.53,0,0,1-2.15-.85c-.11-.06-.39-.19-.39-.27Z" transform="translate(-351.03 -338.17)"/><path class="cls-11" d="M351.27,375.69a9.62,9.62,0,0,1,1.07.36c.47.14.94.3,1.41.47l1.35.48c.25.1.74.19.92.4a2.2,2.2,0,0,1-1.15.14,7.15,7.15,0,0,1-1.57-.26,3.7,3.7,0,0,1-1.93-1.2,11,11,0,0,0,1.07,1.4,5,5,0,0,0,1.36.92,6.77,6.77,0,0,0,2.2.58,4.8,4.8,0,0,0,1.61-.13c.32-.09,1.31-.42.55-.82a20.08,20.08,0,0,0-3.23-1.21c-.63-.2-1.26-.31-1.89-.52-.24-.08-1.4-.38-1.46-.59Z" transform="translate(-351.03 -338.17)"/><path class="cls-12" d="M351.3,375.76a32.33,32.33,0,0,1,3.25,1.05c.58.21,1.16.4,1.72.62a4.55,4.55,0,0,0,1.16.43c.63,0-.51-1,.35-.57.32.18,1,.6.89,1s-1,.5-1.42.58a4.49,4.49,0,0,1-1,.13,2.42,2.42,0,0,1-1.13-.17c.19-.19.75-.13,1-.17s.92-.07.93-.33-1.57-.77-1.83-.88c-.72-.3-1.45-.57-2.15-.94a10,10,0,0,0-.95-.43,2.59,2.59,0,0,1-.85-.37h.1Z" transform="translate(-351.03 -338.17)"/><path class="cls-13" d="M351.31,375.66a7.64,7.64,0,0,0,1.44-.12,5.33,5.33,0,0,1,1.39-.25,1.37,1.37,0,0,1,.86.27c.29.26.15.45-.14.48s-.72-.08-1.07-.06a4.76,4.76,0,0,1-1,0,5.17,5.17,0,0,1-1.48-.4Z" transform="translate(-351.03 -338.17)"/><path class="cls-14" d="M355.45,377.2a8.33,8.33,0,0,1,1.66.61,2.16,2.16,0,0,0,.71.22c.42,0,0-.28.07-.54s.34.09.47.25.31.35.24.54-.71.47-1,.56a2.32,2.32,0,0,1-1.36.18c.41-.26,1.08-.23,1.45-.59-.17-.33-.87-.59-1.17-.76s-.62-.29-.95-.44c0,0,0,0,.07,0Z" transform="translate(-351.03 -338.17)"/><path class="cls-10" d="M364.92,384.12c-.33-.4.2-1.63.31-2.08a8.41,8.41,0,0,0,.18-3.7c-.41-1.88-1.59-2.89-3-4.15a6.14,6.14,0,0,1-1.5-2.06,8,8,0,0,0-.33,10.1,8.5,8.5,0,0,0,1.73,1.71,4.69,4.69,0,0,0,1.22.85c.64.23.94-.18,1.17-.74-.05-.06-.05,0-.08,0Z" transform="translate(-351.03 -338.17)"/><path class="cls-11" d="M361,372.37c-.37,1.52.6,3.16,1,4.63.26.87.31,1.78.49,2.67s.44,1.55.57,2.35.11,2,.6,2.54c.64.68,1.15-.19,1.17-.76a25.62,25.62,0,0,1,.51-3,7.36,7.36,0,0,0,.14-2,7.45,7.45,0,0,0-.73-1.82c-.13.38.09.94.11,1.34a5.56,5.56,0,0,1-.18,1.77c-.08.28-.24,1.05-.64.78-.15-.1-.19-.67-.22-.83-.09-.48-.17-.95-.29-1.42-.39-1.48-1.53-2.67-2.12-4.09-.29-.69-.92-1.64-.57-2.4a1.1,1.1,0,0,1,.15.26Z" transform="translate(-351.03 -338.17)"/><path class="cls-11" d="M361,372.48c-.22,1,.5,2.19.82,3.09a36.21,36.21,0,0,1,1.15,3.71c.14.6.38,1.16.51,1.76a2.55,2.55,0,0,0,.36,1.22c.57.67.91-.56,1.14-1,.5.28-.2,2.22-.36,2.66s-.3.74-.75.54-.61-1.7-.74-2.22c-.46-1.8-.7-3.68-1.26-5.45a19.29,19.29,0,0,1-.72-3.6c0-.21-.08-.68,0-.73Z" transform="translate(-351.03 -338.17)"/><path class="cls-11" d="M361,372.54a16,16,0,0,1,.46,1.75c.23.77.43,1.54.61,2.31s.38,1.49.53,2.24c.09.41.41,1.18.26,1.57a4.35,4.35,0,0,1-1.31-1.59,11,11,0,0,1-1.1-2.41,4.86,4.86,0,0,1,0-3.5,13.77,13.77,0,0,0-1.16,2.38,6.91,6.91,0,0,0-.15,2.52,11,11,0,0,0,1.2,3.52,9,9,0,0,0,1.76,2.24c.43.42,1.89,1.64,1.79.29a27.7,27.7,0,0,0-1.2-5.38c-.28-1-.71-2-1-3-.11-.4-.74-2.24-.48-2.47Z" transform="translate(-351.03 -338.17)"/><path class="cls-12" d="M360.93,372.63a41.31,41.31,0,0,1,1.48,5.3c.22,1,.49,1.9.68,2.86a6.79,6.79,0,0,0,.43,1.92c.59.92,1.14-1.37,1.22.15,0,.58,0,1.83-.75,1.91s-1.75-1.16-2.26-1.69a10,10,0,0,1-1.2-1.41,4,4,0,0,1-.82-1.73c.49.15.92,1,1.26,1.38s1,1.29,1.4,1.13-.3-2.72-.38-3.16c-.21-1.22-.49-2.44-.58-3.67a15.25,15.25,0,0,0-.24-1.63,4.25,4.25,0,0,1-.24-1.43.74.74,0,0,1,.12.13Z" transform="translate(-351.03 -338.17)"/><path class="cls-13" d="M361.11,372.57a14.32,14.32,0,0,0,1.57,2,10.35,10.35,0,0,1,1.71,1.85,2,2,0,0,1,.4,1.39c-.12.57-.55.49-.89.09s-.57-1.09-.93-1.57a11.54,11.54,0,0,1-1-1.41c-.15-.3-1-2.31-.77-2.37Z" transform="translate(-351.03 -338.17)"/><path class="cls-14" d="M362.65,379.46a11.67,11.67,0,0,1,.64,2.76,3.2,3.2,0,0,0,.34,1.15c.42.6.47-.12.91-.22s.17.54.07.83-.25.66-.62.67c-.62,0-1.41-.73-1.83-1.09a4.81,4.81,0,0,1-1.59-1.86c.8.43,1.4,1.41,2.3,1.73.37-.44.09-1.61.07-2.14s-.13-1.08-.2-1.63c0,.07,0,0,.05.1Z" transform="translate(-351.03 -338.17)"/><path class="cls-15" d="M365.23,378.09c-.52.16-.58,1.14-.68,1.58a8.52,8.52,0,0,0-.25,2.08c.07-1.55-1.56-3.15-2.92-3.74-1.1-.47-2.75-.21-3.37-1.47,0,.31-.07.67,0,1a3.87,3.87,0,0,0,.39,1.49,9.66,9.66,0,0,0,2.89,2.91,9,9,0,0,0,2.86,1.43c.49.13,1,.19,1.47.33s1,.53,1.41.31c-.23-.56-.68-1.06-.89-1.66a13.44,13.44,0,0,1-.47-2c-.13-.85.07-1.89-.52-2.6Z" transform="translate(-351.03 -338.17)"/><path class="cls-10" d="M364.74,381.92c-.41,0-1.1-.91-1.38-1.2a8,8,0,0,0-2.57-1.85,5.9,5.9,0,0,0-4,0,4.59,4.59,0,0,1-2,0,7.53,7.53,0,0,0,7.09,5,6.2,6.2,0,0,0,1.86-.36,3.3,3.3,0,0,0,1.05-.42c.39-.33.21-.72-.1-1.14-.06,0,0,0,0,.05Z" transform="translate(-351.03 -338.17)"/><path class="cls-11" d="M354.9,379.06c1,1,2.48,1.08,3.69,1.48.71.23,1.38.63,2.08.92s1.27.43,1.89.72,1.5.88,2,.79c.72-.11.29-.87-.12-1.14-.72-.5-1.25-1.17-1.93-1.75a6.78,6.78,0,0,0-1.37-1,6,6,0,0,0-1.56-.37c.22.26.7.38,1,.56a5.77,5.77,0,0,1,1.2.95c.17.18.66.65.32.8-.12.05-.55-.19-.67-.25-.37-.16-.74-.32-1.12-.46-1.2-.44-2.46-.23-3.7-.49-.59-.13-1.51-.16-1.92-.75a1,1,0,0,1,.24,0Z" transform="translate(-351.03 -338.17)"/><path class="cls-11" d="M355,379.08a5.9,5.9,0,0,0,2.5.91,29.37,29.37,0,0,1,3.07,1c.48.18,1,.28,1.44.48a2.31,2.31,0,0,0,1,.33c.68-.07-.07-.87-.29-1.24.39-.2,1.52,1.19,1.78,1.5s.41.56.1.76-1.43-.38-1.85-.53c-1.45-.54-2.89-1.27-4.35-1.73a16,16,0,0,1-2.84-1.2c-.15-.08-.51-.26-.51-.37Z" transform="translate(-351.03 -338.17)"/><path class="cls-11" d="M355,379.09c.45.09,1,.37,1.43.52.63.2,1.25.44,1.87.67s1.2.44,1.79.7c.33.13,1,.27,1.21.56a3.31,3.31,0,0,1-1.61.14,8.73,8.73,0,0,1-2.11-.4,4.53,4.53,0,0,1-2.5-1.66,13.45,13.45,0,0,0,1.28,1.9,6.4,6.4,0,0,0,1.74,1.29,9.53,9.53,0,0,0,2.95.84,6.71,6.71,0,0,0,2.24-.13c.46-.1,1.87-.52.87-1.07a23.78,23.78,0,0,0-4.28-1.72c-.84-.29-1.69-.46-2.52-.77-.33-.11-1.88-.55-1.94-.83Z" transform="translate(-351.03 -338.17)"/><path class="cls-12" d="M355.08,379.2a38.09,38.09,0,0,1,4.32,1.5c.76.3,1.53.56,2.29.88a5.82,5.82,0,0,0,1.53.61c.87,0-.56-1.41.55-.75.42.25,1.32.84,1.09,1.4s-1.46.65-2,.74a6.9,6.9,0,0,1-1.44.14,3.16,3.16,0,0,1-1.53-.26c.29-.25,1-.15,1.44-.2s1.28-.05,1.32-.41-2.05-1.08-2.39-1.23c-1-.43-1.93-.82-2.83-1.34-.41-.22-.84-.41-1.26-.6a3.73,3.73,0,0,1-1.11-.51l.14,0Z" transform="translate(-351.03 -338.17)"/><path class="cls-13" d="M355.1,379.06a11.14,11.14,0,0,0,2-.12,8,8,0,0,1,1.95-.29,1.79,1.79,0,0,1,1.14.39c.37.35.15.6-.26.64s-1-.13-1.47-.11a7.82,7.82,0,0,1-1.37,0c-.27,0-2-.42-2-.59Z" transform="translate(-351.03 -338.17)"/><path class="cls-14" d="M360.58,381.25a11.15,11.15,0,0,1,2.21.87,2.81,2.81,0,0,0,.94.31c.58,0,.09-.37.18-.71s.45.13.61.34.38.48.26.73c-.21.43-1,.61-1.45.73a3.65,3.65,0,0,1-1.91.19c.6-.33,1.52-.28,2.08-.74-.19-.45-1.12-.82-1.51-1.05s-.81-.42-1.24-.63c0,.06.05,0,.09,0Z" transform="translate(-351.03 -338.17)"/><path class="cls-10" d="M371.46,385.79c-.5.1-1.36-.87-1.71-1.15a8.4,8.4,0,0,0-3.18-1.71c-1.82-.46-3.2.12-4.87.74a6,6,0,0,1-2.43.4,8,8,0,0,0,8.75,4.54,8.63,8.63,0,0,0,2.22-.73,4.79,4.79,0,0,0,1.26-.68c.46-.45.22-.87-.17-1.3-.08,0,0,.05,0,.07Z" transform="translate(-351.03 -338.17)"/><path class="cls-11" d="M359.49,384.16c1.18.95,3,.83,4.5,1.08.87.15,1.69.5,2.55.71s1.55.29,2.3.52,1.84.76,2.49.57c.86-.26.3-1.06-.19-1.31a24.72,24.72,0,0,1-2.4-1.69,7.51,7.51,0,0,0-1.7-1,8,8,0,0,0-1.89-.16c.27.27.85.32,1.21.48a5.25,5.25,0,0,1,1.49.9c.21.18.82.64.42.87-.15.08-.67-.13-.82-.17-.46-.12-.9-.25-1.37-.35-1.46-.3-3,.16-4.48.07-.72-.05-1.82.08-2.35-.53a1.43,1.43,0,0,1,.29,0Z" transform="translate(-351.03 -338.17)"/><path class="cls-11" d="M359.6,384.17c.77.59,2.14.5,3.06.62a34.2,34.2,0,0,1,3.74.59c.58.13,1.18.16,1.76.3a2.62,2.62,0,0,0,1.22.22c.82-.2-.12-1-.39-1.38.45-.3,1.87,1.11,2.2,1.43s.52.57.15.86-1.74-.19-2.25-.3c-1.78-.38-3.54-1-5.32-1.25a18.86,18.86,0,0,1-3.47-.91c-.19-.07-.63-.22-.62-.34Z" transform="translate(-351.03 -338.17)"/><path class="cls-11" d="M359.66,384.18a16.75,16.75,0,0,1,1.74.35c.76.12,1.52.29,2.28.46s1.46.3,2.19.5c.4.1,1.2.15,1.48.44a4.18,4.18,0,0,1-1.93.44,11,11,0,0,1-2.57-.09,4.82,4.82,0,0,1-3.08-1.51,13.54,13.54,0,0,0,1.62,2,6.81,6.81,0,0,0,2.16,1.19,10.88,10.88,0,0,0,3.59.47,8.69,8.69,0,0,0,2.7-.53c.54-.2,2.22-.92,1-1.4a29.1,29.1,0,0,0-5.23-1.26c-1-.19-2.06-.24-3.07-.44-.4-.08-2.28-.33-2.37-.64Z" transform="translate(-351.03 -338.17)"/><path class="cls-12" d="M359.7,384.3a45.43,45.43,0,0,1,5.28,1c.93.22,1.87.39,2.79.63a6.6,6.6,0,0,0,1.87.44c1.05-.1-.74-1.53.64-.95.51.21,1.62.74,1.37,1.43s-1.74,1-2.43,1.2a9.49,9.49,0,0,1-1.73.42,3.88,3.88,0,0,1-1.86,0c.34-.34,1.25-.35,1.73-.48.31-.08,1.54-.29,1.58-.71s-2.52-.89-2.94-1c-1.17-.33-2.35-.61-3.47-1a16,16,0,0,0-1.53-.49,4.36,4.36,0,0,1-1.37-.4l.17,0Z" transform="translate(-351.03 -338.17)"/><path class="cls-13" d="M359.72,384.13a14.31,14.31,0,0,0,2.41-.49,10.58,10.58,0,0,1,2.34-.66,2,2,0,0,1,1.39.25c.46.34.2.67-.29.79s-1.19,0-1.77.12a10.28,10.28,0,0,1-1.66.28c-.32,0-2.44-.15-2.41-.35Z" transform="translate(-351.03 -338.17)"/><path class="cls-14" d="M366.42,385.73a12.14,12.14,0,0,1,2.7.62,3.29,3.29,0,0,0,1.15.21c.69-.11.08-.45.18-.86s.55.07.75.29.48.49.34.8c-.23.54-1.23.89-1.72,1.09a4.73,4.73,0,0,1-2.29.56c.71-.49,1.82-.59,2.48-1.22-.24-.49-1.38-.76-1.86-1s-1-.35-1.52-.52c.05.07.06,0,.11,0Z" transform="translate(-351.03 -338.17)"/><path class="cls-10" d="M372.69,387.9c-.4-.34-.13-1.65-.1-2.11a8.46,8.46,0,0,0-.58-3.66c-.78-1.77-2.14-2.53-3.73-3.49a6.24,6.24,0,0,1-1.88-1.73,8,8,0,0,0,1.71,10,8.71,8.71,0,0,0,2,1.35,5,5,0,0,0,1.37.59c.68.1.88-.36,1-.95-.06-.05,0,0-.08,0Z" transform="translate(-351.03 -338.17)"/><path class="cls-11" d="M366.46,377.14c-.06,1.56,1.22,3,1.94,4.34.43.8.66,1.69,1,2.52s.75,1.44,1,2.2.53,2,1.1,2.37c.77.54,1.1-.42,1-1a25,25,0,0,1-.09-3A4.47,4.47,0,0,0,371.1,381c-.05.39.28.89.37,1.29a5.27,5.27,0,0,1,.19,1.77c0,.28,0,1.07-.47.88-.16-.07-.32-.62-.38-.77-.19-.45-.36-.89-.57-1.32-.68-1.39-2-2.33-2.91-3.61-.42-.61-1.23-1.43-1-2.24a1.42,1.42,0,0,1,.2.22Z" transform="translate(-351.03 -338.17)"/><path class="cls-11" d="M366.52,377.24c0,1,.93,2.05,1.42,2.87a36.42,36.42,0,0,1,1.88,3.41c.26.56.61,1.07.86,1.63.17.38.25.86.6,1.13.69.54.77-.73.92-1.19.55.18.25,2.22.18,2.68s-.14.79-.62.67-.95-1.54-1.18-2c-.81-1.68-1.43-3.48-2.33-5.11a18.08,18.08,0,0,1-1.44-3.39c-.06-.2-.21-.64-.1-.72Z" transform="translate(-351.03 -338.17)"/><path class="cls-11" d="M366.55,377.29a15.63,15.63,0,0,1,.81,1.64c.38.7.73,1.42,1.06,2.14s.67,1.38,1,2.1c.16.38.63,1.07.56,1.48a4.68,4.68,0,0,1-1.61-1.3,11,11,0,0,1-1.55-2.15,4.77,4.77,0,0,1-.68-3.44,13.38,13.38,0,0,0-.66,2.56,6.63,6.63,0,0,0,.37,2.5,10.59,10.59,0,0,0,1.88,3.21,9,9,0,0,0,2.17,1.86c.51.32,2.19,1.23,1.82-.06a28.44,28.44,0,0,0-2.26-5c-.49-1-1.11-1.82-1.58-2.79-.18-.37-1.17-2.05-1-2.32Z" transform="translate(-351.03 -338.17)"/><path class="cls-12" d="M366.48,377.41a42,42,0,0,1,2.51,4.91c.41.89.86,1.76,1.25,2.66a6.37,6.37,0,0,0,.81,1.8c.75.79.83-1.56,1.22-.08.15.55.4,1.78-.35,2s-1.95-.78-2.56-1.21a10.12,10.12,0,0,1-1.46-1.15c-.37-.38-1.07-1-1.15-1.54.51.07,1.1.8,1.51,1.11s1.23,1.08,1.6.84-.84-2.61-1-3a34,34,0,0,1-1.31-3.48c-.15-.52-.37-1-.57-1.55a4,4,0,0,1-.52-1.36l.14.11Z" transform="translate(-351.03 -338.17)"/><path class="cls-13" d="M366.63,377.32a14.67,14.67,0,0,0,1.95,1.65,10.69,10.69,0,0,1,2.05,1.48,2,2,0,0,1,.67,1.29c0,.59-.44.58-.85.26s-.78-.95-1.23-1.36a9.66,9.66,0,0,1-1.29-1.18c-.21-.26-1.43-2.07-1.24-2.18Z" transform="translate(-351.03 -338.17)"/><path class="cls-14" d="M369.54,383.76a12.67,12.67,0,0,1,1.19,2.59,2.92,2.92,0,0,0,.56,1.06c.52.5.43-.21.84-.39s.28.49.24.79-.12.7-.47.78c-.61.14-1.54-.44-2-.71a4.84,4.84,0,0,1-1.93-1.52c.86.27,1.66,1.12,2.61,1.25.26-.5-.24-1.59-.38-2.11a15,15,0,0,0-.52-1.56c0,.08,0,.05.07.09Z" transform="translate(-351.03 -338.17)"/><path class="cls-10" d="M377.31,389.13c-.44.24-1.55-.46-2-.63a8.38,8.38,0,0,0-3.55-.77c-1.88.06-3,1-4.46,2a6.13,6.13,0,0,1-2.22,1.05,8.12,8.12,0,0,0,9.69,2,8.57,8.57,0,0,0,1.93-1.32,4.52,4.52,0,0,0,1-1c.31-.56,0-.9-.54-1.21-.06,0,0,.06,0,.08Z" transform="translate(-351.03 -338.17)"/><path class="cls-11" d="M365.35,390.85c1.41.59,3.15,0,4.63-.19.88-.09,1.76,0,2.65,0s1.57-.15,2.36-.14,2,.23,2.55-.13c.75-.49,0-1.11-.55-1.21a25.69,25.69,0,0,1-2.8-1,6.86,6.86,0,0,0-1.89-.45,7.13,7.13,0,0,0-1.87.37c.34.18.92.06,1.31.12a5.81,5.81,0,0,1,1.68.45c.26.12,1,.39.65.72-.12.12-.68.07-.84.07-.47,0-.93,0-1.4,0-1.49.11-2.82,1-4.29,1.29-.71.15-1.73.58-2.4.14a.79.79,0,0,1,.27-.1Z" transform="translate(-351.03 -338.17)"/><path class="cls-11" d="M365.46,390.84c.91.36,2.2-.11,3.11-.25a36.41,36.41,0,0,1,3.76-.46c.6,0,1.18-.17,1.78-.19a2.72,2.72,0,0,0,1.24-.13c.73-.42-.4-.93-.78-1.22.35-.42,2.12.56,2.52.77s.67.4.4.78-1.73.3-2.25.34c-1.81.12-3.67,0-5.46.26a18,18,0,0,1-3.59.07c-.2,0-.66,0-.7-.15Z" transform="translate(-351.03 -338.17)"/><path class="cls-11" d="M365.52,390.83a14.42,14.42,0,0,1,1.77-.14c.77-.1,1.55-.14,2.32-.19s1.49-.11,2.25-.12c.41,0,1.2-.19,1.55,0a4.3,4.3,0,0,1-1.73,1,11.16,11.16,0,0,1-2.5.62,5,5,0,0,1-3.38-.6,13.52,13.52,0,0,0,2.12,1.46,6.88,6.88,0,0,0,2.41.55,10.83,10.83,0,0,0,3.58-.53,8.84,8.84,0,0,0,2.44-1.26c.46-.33,1.87-1.49.56-1.61a28.48,28.48,0,0,0-5.38.23c-1,.09-2,.33-3.08.41-.4,0-2.28.31-2.46.05Z" transform="translate(-351.03 -338.17)"/><path class="cls-12" d="M365.6,390.93a43.26,43.26,0,0,1,5.34-.5c1,0,1.91-.14,2.87-.16a7.23,7.23,0,0,0,1.92-.08c1-.39-1.14-1.28.34-1.1.55.06,1.77.26,1.72,1s-1.39,1.43-2,1.82a9,9,0,0,1-1.54.87,4,4,0,0,1-1.8.48c.23-.43,1.11-.68,1.53-.93.27-.16,1.39-.7,1.31-1.12s-2.68-.17-3.11-.17c-1.21,0-2.43.06-3.63-.06a14.43,14.43,0,0,0-1.61-.05,4.28,4.28,0,0,1-1.43,0l.15-.09Z" transform="translate(-351.03 -338.17)"/><path class="cls-13" d="M365.57,390.76a13.67,13.67,0,0,0,2.18-1.13,10.53,10.53,0,0,1,2.05-1.28,2,2,0,0,1,1.4-.14c.54.21.39.59-.05.84s-1.13.34-1.66.6a10,10,0,0,1-1.52.72c-.31.1-2.38.54-2.41.33Z" transform="translate(-351.03 -338.17)"/><path class="cls-14" d="M372.46,390.46a12.74,12.74,0,0,1,2.77-.15,2.84,2.84,0,0,0,1.16-.12c.63-.28-.05-.45-.08-.87s.56-.08.81.07.6.34.56.68c-.08.58-.94,1.19-1.35,1.52a4.44,4.44,0,0,1-2,1.16c.54-.66,1.59-1.06,2-1.85-.37-.4-1.54-.34-2.06-.4s-1.05-.07-1.6-.09c.06,0,0,0,.11,0Z" transform="translate(-351.03 -338.17)"/><path class="cls-10" d="M378.11,392.38c-.35-.39.11-1.64.2-2.1a8.25,8.25,0,0,0,0-3.7c-.51-1.86-1.74-2.8-3.18-4a6.22,6.22,0,0,1-1.6-2,8,8,0,0,0,.22,10.1,8.52,8.52,0,0,0,1.81,1.63,4.78,4.78,0,0,0,1.27.78c.65.19.93-.23,1.13-.8-.05-.06-.05,0-.08,0Z" transform="translate(-351.03 -338.17)"/><path class="cls-11" d="M373.54,380.85c-.29,1.54.76,3.13,1.27,4.57.31.86.41,1.76.64,2.64s.52,1.53.69,2.32.23,2,.73,2.51c.68.64,1.15-.26,1.13-.82a25.56,25.56,0,0,1,.36-3,7.37,7.37,0,0,0,0-2,7.17,7.17,0,0,0-.82-1.78c-.1.38.15.93.18,1.33a5.6,5.6,0,0,1-.08,1.78c-.06.28-.18,1.06-.6.81-.15-.1-.22-.67-.26-.82-.12-.47-.22-.94-.37-1.4-.46-1.45-1.67-2.59-2.34-4-.32-.67-1-1.6-.7-2.37a1.21,1.21,0,0,1,.17.25Z" transform="translate(-351.03 -338.17)"/><path class="cls-11" d="M373.58,381c-.16,1,.62,2.16,1,3a38.82,38.82,0,0,1,1.34,3.65c.18.58.45,1.13.61,1.72a2.61,2.61,0,0,0,.42,1.21c.61.63.88-.61,1.09-1,.52.25-.08,2.23-.21,2.68s-.26.76-.72.57-.71-1.66-.87-2.18c-.55-1.77-.89-3.64-1.55-5.37a19.08,19.08,0,0,1-.91-3.57c0-.2-.11-.66,0-.72Z" transform="translate(-351.03 -338.17)"/><path class="cls-11" d="M373.61,381a16.89,16.89,0,0,1,.55,1.74c.27.74.51,1.51.73,2.27s.47,1.46.66,2.21c.1.4.47,1.16.34,1.54-.55-.21-1.07-1-1.4-1.51a10.28,10.28,0,0,1-1.22-2.35,4.79,4.79,0,0,1-.16-3.49,12.94,12.94,0,0,0-1,2.43,6.73,6.73,0,0,0,0,2.53,10.72,10.72,0,0,0,1.38,3.45,9.14,9.14,0,0,0,1.88,2.15c.45.38,2,1.52,1.8.19a28.1,28.1,0,0,0-1.48-5.31c-.35-1-.83-2-1.15-3-.13-.4-.86-2.21-.62-2.44Z" transform="translate(-351.03 -338.17)"/><path class="cls-12" d="M373.52,381.11a44.42,44.42,0,0,1,1.75,5.22c.27.94.59,1.87.84,2.82a6.72,6.72,0,0,0,.53,1.89c.64.89,1.06-1.42,1.23.09.06.57.13,1.83-.65,1.95s-1.8-1.07-2.35-1.58a9.46,9.46,0,0,1-1.27-1.34,4,4,0,0,1-.91-1.69c.49.13,1,.95,1.32,1.31s1.06,1.24,1.47,1.07-.45-2.71-.55-3.14c-.28-1.21-.62-2.41-.78-3.64a15.33,15.33,0,0,0-.33-1.61,4,4,0,0,1-.31-1.42.74.74,0,0,1,.12.13Z" transform="translate(-351.03 -338.17)"/><path class="cls-13" d="M373.68,381.05a15.2,15.2,0,0,0,1.68,1.92,10,10,0,0,1,1.81,1.76,2,2,0,0,1,.48,1.36c-.09.58-.53.52-.88.14s-.63-1.05-1-1.52a10,10,0,0,1-1.1-1.35c-.17-.29-1.11-2.26-.91-2.34Z" transform="translate(-351.03 -338.17)"/><path class="cls-14" d="M375.6,387.84a11.71,11.71,0,0,1,.79,2.73,3.11,3.11,0,0,0,.4,1.13c.45.57.46-.14.89-.27s.21.54.12.82-.22.68-.59.71c-.61.05-1.45-.66-1.89-1a4.78,4.78,0,0,1-1.68-1.78c.82.4,1.47,1.35,2.4,1.61.33-.46,0-1.61-.06-2.14s-.18-1.06-.28-1.61c0,.07,0,0,.05.09Z" transform="translate(-351.03 -338.17)"/><path class="cls-10" d="M378.89,385.93c-1.42-.19-2.07,2.77-2.21,3.71-.19,1.29-.16,3.24.89,4.2a1.73,1.73,0,0,0,1.86.13,3.3,3.3,0,0,1,1.28-.23c.42.05.59.29,1,.43,1.39.52,3.72-.06,4-1.7.35-2.2-.23-5.62-2.38-6.8a5.23,5.23,0,0,0-4.92.37Z" transform="translate(-351.03 -338.17)"/><path class="cls-11" d="M378.73,385.76c-1.2.16-1.87,2.35-2,3.32a6.43,6.43,0,0,0,.53,4c.56.91,1.73.84,2.72.65a2.54,2.54,0,0,1,1.31-.09,4.19,4.19,0,0,0,1.34.42c1.81,0,2.21-1.4,2.43-2.95a6.42,6.42,0,0,0-.09-2.69,4.09,4.09,0,0,0-1-2,6.33,6.33,0,0,0-.1,1.25,3.71,3.71,0,0,1-.95,2,2.11,2.11,0,0,1-3,.1,4.3,4.3,0,0,1-1.16-2.51c-.06-.43-.13-1.22.22-1.53Z" transform="translate(-351.03 -338.17)"/><path class="cls-11" d="M378.67,386c-1.24-.27-1.85,3.12-1.93,3.92-.11,1-.07,3.07,1,3.66s1.82-.53,2.86-.37,1.52.8,2.6.66c2.79-.37,2.24-5.48,1.06-7.11-.25,1.57.33,3-.86,4.33a2.67,2.67,0,0,1-3.14.82c-2.52-.81-2.8-4.13-1.65-6Z" transform="translate(-351.03 -338.17)"/><path class="cls-12" d="M377.57,385.6c0,.66-.28.9-.66,1.42a5,5,0,0,0-.88,2c-.11.47-.13,1.3-.62,1.53a4.37,4.37,0,0,1-1.26.07c.09,1,2,2.41,2.91,2.55.08-1.51-.25-3,.16-4.58a10,10,0,0,1,.78-1.91c.41-.81-.06-.71-.43-1.31Z" transform="translate(-351.03 -338.17)"/><path class="cls-12" d="M384.2,386.53c1.45,1.55,1.29,4.3,1.39,6.28.6.12,1.39-.91,1.76-1.3A6.72,6.72,0,0,0,389,389c-.22.5-1.3.94-1.72.47s.18-1.41-.56-2c-.45-.32-2.37-.63-2.31-1.21Z" transform="translate(-351.03 -338.17)"/><path class="cls-12" d="M384.37,386.8c.46.34.25,2.6.16,3.19a3.15,3.15,0,0,1-1.28,2.27A3.62,3.62,0,0,1,381,393c-.83,0-1-.4-1.67-.64-.29-.11-.56,0-.85-.12a2.3,2.3,0,0,1-.76-1c-.15-.36-.12-1.88-.66-1.92-1.07-.1-.06,3.17.21,3.6a1.52,1.52,0,0,0,1.23.88c.55,0,.93-.34,1.49-.33,1.1,0,2,.82,3.1.71,3.49-.32,2.19-5.05,1.49-7.12a4.36,4.36,0,0,1-.17-.59Z" transform="translate(-351.03 -338.17)"/><path class="cls-12" d="M378.07,386.15c-.08.64-1,1.47-1.29,2.08a19.78,19.78,0,0,0-.71,2.18,1.06,1.06,0,0,1-.31.6c-.25.22-.64.19-.62.55s1.32,1.21,1.7,1.47a10.51,10.51,0,0,0-.1-1.75,10.34,10.34,0,0,1,.22-2.08,9.39,9.39,0,0,1,.65-2c.15-.33.63-1,.51-1.37Z" transform="translate(-351.03 -338.17)"/><path class="cls-12" d="M384.31,386.53c.09.25.31.34.44.55a4.64,4.64,0,0,1,.35,1,14.43,14.43,0,0,1,.5,2,21.68,21.68,0,0,1,.1,2.68c.72.11,2.54-1.49,2.47-2.17-.72.07-.78.08-.87-.65a2.61,2.61,0,0,0-.89-1.49,14.18,14.18,0,0,0-1.15-1.31c-.31-.3-.81-.5-1.06-.88Z" transform="translate(-351.03 -338.17)"/><path class="cls-16" d="M378.89,385.87c-.24,0-1.08.95-.48,1.3.38.23,1.64-.39,2.07-.47a5.63,5.63,0,0,1,2.35.06,3.57,3.57,0,0,1,1.32.93c-.44-1.28-.84-2-2.22-2.25a5,5,0,0,0-1.54-.06,3.25,3.25,0,0,0-.83.1c-.31.11-.53.36-.83.45Z" transform="translate(-351.03 -338.17)"/><path class="cls-17" d="M378.79,385.93c-.19.18-.88.79-.41,1.05.27.15,1-.55,1.28-.68a4.69,4.69,0,0,1,2.87-.26,3,3,0,0,0-2-.39,5.16,5.16,0,0,0-1.06.1c-.19,0-.36.1-.53.14s-.3.18-.29,0Z" transform="translate(-351.03 -338.17)"/><path class="cls-12" d="M371.49,381.35c0,.44.23.86.26,1.31a5.59,5.59,0,0,1-.35,1.61,7.94,7.94,0,0,0-.17,3.78A6.49,6.49,0,0,0,373,391a6.72,6.72,0,0,0,2.54,1.45,9.45,9.45,0,0,1-1.58-1.45,6.72,6.72,0,0,1-.95-1.69,22.9,22.9,0,0,1-.79-3.27,9.29,9.29,0,0,1,0-2.93c.1-.92-.57-1.28-.85-2.06Z" transform="translate(-351.03 -338.17)"/><path class="cls-12" d="M390.17,382.63c0,1,.46,1.94.41,3a8.08,8.08,0,0,1-.74,3,12.26,12.26,0,0,1-1.4,2.27,6.09,6.09,0,0,1-.65.69,8,8,0,0,0-.75.51h0c0,.61,1.77.69,2.16.45a6.1,6.1,0,0,0,2.67-4.06,7.26,7.26,0,0,0-.49-4,5,5,0,0,0-1.19-2h0Z" transform="translate(-351.03 -338.17)"/><path class="cls-17" d="M384.61,388.06c.42.48.29,1.55.21,2.14a3.84,3.84,0,0,1-.69,1.88c-.25.31-.91.61-1,1-.13.61.72.54,1.06.37,1-.48,1-2,1-3a4.36,4.36,0,0,0-.2-1.3c-.09-.32-.2-1.15-.54-1.27Z" transform="translate(-351.03 -338.17)"/><path class="cls-18" d="M378.86,385.87c-.36.1-.89.83-1.11,1.14a4.62,4.62,0,0,0-.73,1.86,3.35,3.35,0,0,0,.22,2.21,1,1,0,0,0,1.06.39c.44-.18.47-.79.49-1.19.06-1.56.2-3.33,2.06-3.68.33-.06,1.07-.2.89-.69s-.94-.38-1.29-.37a2.44,2.44,0,0,0-1.67.55.08.08,0,0,1-.07-.07Z" transform="translate(-351.03 -338.17)"/><path class="cls-3" d="M384.12,339.09c2.66,1.31,1.52,3.84,1.82,6.12.18,1.47,1.31,2.06,2,3.27a9.29,9.29,0,0,1,.64,3.89A20.53,20.53,0,0,1,382,367.89a27.44,27.44,0,0,1-10.27,6,21.31,21.31,0,0,1-3.92.8c-1,.09-2.12-.23-3,.34.88,1.27,3.43,2.23,4.7,3.24s2.46,1.8,2.89,3.31c1-2.58,3.38.37,4.12,1.43.4.58.94,1.72,1.64,2.05s1.88-.13,2.78,0,1.47.7,2.39.3a11.36,11.36,0,0,0,2.13-1.88c.5-.49,4.17-5.33,4.33-2.29,1.8-2.48,4.92-3.77,6.82-6.3.57-.75,1.5-3.49,2.47-3.67,1.73-.32.67,2.21,2.71.92,2.36-1.48,2.93-5.66,3-8.19a21.85,21.85,0,0,0-1.63-9.43c-1.95-4.91-4.36-8.38-8.72-11.33a31.44,31.44,0,0,0-5.78-3.16c-1.21-.49-4.4-.78-5-1.8Z" transform="translate(-351.03 -338.17)"/></g></g></svg>