<svg xmlns="http://www.w3.org/2000/svg" xmlns:xlink="http://www.w3.org/1999/xlink" viewBox="0 0 34 36.94"><defs><linearGradient id="ac8256b8-9546-4080-b388-603bbedea7d0" x1="19.48" y1="127.06" x2="12.67" y2="138.14" gradientTransform="translate(23.15 9.38) rotate(7.33)" gradientUnits="userSpaceOnUse"><stop offset="0" stop-color="#db1a1f"/><stop offset="0.55" stop-color="#df1f24"/><stop offset="0.58" stop-color="#df1f24"/><stop offset="0.69" stop-color="#d0181d"/><stop offset="0.88" stop-color="#bb0e13"/><stop offset="1" stop-color="#b30b10"/></linearGradient><linearGradient id="edff4520-58c0-4db7-8aa8-f1e3ef0afce4" x1="25.25" y1="138.63" x2="19.24" y2="146.52" gradientUnits="userSpaceOnUse"><stop offset="0" stop-color="#f0e8e5"/><stop offset="0.44" stop-color="#ede3df"/><stop offset="1" stop-color="#e3d5cf"/></linearGradient><linearGradient id="be97d3f3-3a72-40a1-9dde-e48400ce50b8" x1="-168.05" y1="151.17" x2="-174.86" y2="162.25" gradientTransform="matrix(-0.99, 0.13, 0.13, 0.99, -151.47, 9.38)" xlink:href="#ac8256b8-9546-4080-b388-603bbedea7d0"/><linearGradient id="a0f6bf1b-b210-4541-b79a-e07b3cb1ce23" x1="-163.81" y1="138.63" x2="-169.83" y2="146.52" gradientTransform="matrix(-1, 0, 0, 1, -128.32, 0)" xlink:href="#edff4520-58c0-4db7-8aa8-f1e3ef0afce4"/><linearGradient id="eab478b9-96d3-460e-8d92-bd54f2216081" x1="-16.52" y1="168.22" x2="-12.58" y2="168.22" gradientTransform="translate(-150.1 115.72) rotate(-90)" gradientUnits="userSpaceOnUse"><stop offset="0" stop-color="#db1a1f"/><stop offset="0.03" stop-color="#e01a1f"/><stop offset="0.06" stop-color="#ed1b1f"/><stop offset="0.07" stop-color="#f21b1f"/><stop offset="0.19" stop-color="#ed1c20"/><stop offset="0.33" stop-color="#df1f24"/><stop offset="0.5" stop-color="#d0181d"/><stop offset="0.8" stop-color="#bb0e13"/><stop offset="1" stop-color="#b30b10"/></linearGradient><linearGradient id="ac71ff99-1878-42a3-9ef8-22fa64384f59" x1="-16.52" y1="168.43" x2="-12.58" y2="168.43" gradientTransform="translate(-150.1 115.72) rotate(-90)" gradientUnits="userSpaceOnUse"><stop offset="0" stop-color="#db1a1f"/><stop offset="0.02" stop-color="#d61a1f"/><stop offset="0.04" stop-color="#c91a1f"/><stop offset="0.07" stop-color="#b31b1f"/><stop offset="0.07" stop-color="#af1b1f"/><stop offset="0.14" stop-color="#b41b20"/><stop offset="0.23" stop-color="#c31d21"/><stop offset="0.32" stop-color="#dc1f24"/><stop offset="0.33" stop-color="#df1f24"/><stop offset="0.5" stop-color="#d0181d"/><stop offset="0.8" stop-color="#bb0e13"/><stop offset="1" stop-color="#b30b10"/></linearGradient><linearGradient id="b86fb2fa-070b-4c61-b738-bc0bc33720a6" x1="4.76" y1="155.07" x2="8.71" y2="155.07" gradientTransform="translate(-130.88 84.9) rotate(-72)" xlink:href="#eab478b9-96d3-460e-8d92-bd54f2216081"/><linearGradient id="bf459e2b-0bcc-4aa2-a324-6e692fb1d841" x1="4.76" y1="155.29" x2="8.71" y2="155.29" gradientTransform="translate(-130.88 84.9) rotate(-72)" xlink:href="#ac71ff99-1878-42a3-9ef8-22fa64384f59"/><linearGradient id="eb17455b-7fe6-479a-bd25-3ca547950bd5" x1="22.23" y1="135.81" x2="26.17" y2="135.81" gradientTransform="translate(-103.66 62.67) rotate(-54)" xlink:href="#eab478b9-96d3-460e-8d92-bd54f2216081"/><linearGradient id="e63a8ecd-2afb-4036-8844-9be5a9215c86" x1="22.23" y1="136.02" x2="26.17" y2="136.02" gradientTransform="translate(-103.66 62.67) rotate(-54)" xlink:href="#ac71ff99-1878-42a3-9ef8-22fa64384f59"/><linearGradient id="b8733d18-b3d4-439e-9618-9b4471cb625d" x1="-125.96" y1="128.56" x2="-122.01" y2="128.56" gradientTransform="translate(13.29 317.05) rotate(144)" xlink:href="#eab478b9-96d3-460e-8d92-bd54f2216081"/><linearGradient id="f1284252-fccf-4ce0-abff-7f1360559d97" x1="-125.96" y1="128.77" x2="-122.01" y2="128.77" gradientTransform="translate(13.29 317.05) rotate(144)" xlink:href="#ac71ff99-1878-42a3-9ef8-22fa64384f59"/><linearGradient id="acd83834-ea9d-4e39-8c65-081d157003f7" x1="31.83" y1="112.75" x2="35.77" y2="112.75" gradientTransform="translate(-70.45 48.79) rotate(-36)" xlink:href="#eab478b9-96d3-460e-8d92-bd54f2216081"/><linearGradient id="acf3e67f-a2a3-4b48-99cd-7729317c6b81" x1="31.83" y1="112.97" x2="35.77" y2="112.97" gradientTransform="translate(-70.45 48.79) rotate(-36)" xlink:href="#ac71ff99-1878-42a3-9ef8-22fa64384f59"/><linearGradient id="f51ec73f-4c3d-4710-89a5-67ea47b2c3bc" x1="-128.1" y1="153.15" x2="-124.15" y2="153.15" gradientTransform="translate(-38.07 326.62) rotate(162)" xlink:href="#eab478b9-96d3-460e-8d92-bd54f2216081"/><linearGradient id="b461529f-ed2a-46d5-a733-59b0def0981b" x1="-128.1" y1="153.37" x2="-124.15" y2="153.37" gradientTransform="translate(-38.07 326.62) rotate(162)" xlink:href="#ac71ff99-1878-42a3-9ef8-22fa64384f59"/><linearGradient id="aaa5934c-7ac7-402f-a374-8277a20f310c" x1="34.15" y1="86.65" x2="38.1" y2="86.65" gradientTransform="translate(-34.51 47.08) rotate(-18)" xlink:href="#eab478b9-96d3-460e-8d92-bd54f2216081"/><linearGradient id="afc1da6e-dfe2-4556-860f-bfeb5fadefc2" x1="34.15" y1="86.87" x2="38.1" y2="86.87" gradientTransform="translate(-34.51 47.08) rotate(-18)" xlink:href="#ac71ff99-1878-42a3-9ef8-22fa64384f59"/><linearGradient id="b73b4a43-7e93-405d-8e4e-61840754483c" x1="-122.35" y1="178.48" x2="-118.41" y2="178.48" gradientTransform="translate(-89.66 321.11) rotate(180)" xlink:href="#eab478b9-96d3-460e-8d92-bd54f2216081"/><linearGradient id="a047c2a6-5342-46a6-b9f6-80f438c54349" x1="-122.35" y1="178.7" x2="-118.41" y2="178.7" gradientTransform="translate(-89.66 321.11) rotate(180)" xlink:href="#ac71ff99-1878-42a3-9ef8-22fa64384f59"/><linearGradient id="afb52aa2-0303-4da7-a790-b200f76a909d" x1="28.5" y1="62.39" x2="32.45" y2="62.39" gradientTransform="translate(0 55.29)" xlink:href="#eab478b9-96d3-460e-8d92-bd54f2216081"/><linearGradient id="bf255d6c-7c53-4893-9134-4ed423b5180f" x1="28.5" y1="62.61" x2="32.45" y2="62.61" gradientTransform="translate(0 55.29)" xlink:href="#ac71ff99-1878-42a3-9ef8-22fa64384f59"/><linearGradient id="bc1a06a1-7dc0-4ead-b24e-b98988f6edaf" x1="-109.8" y1="200.24" x2="-105.85" y2="200.24" gradientTransform="translate(-137.57 299.18) rotate(-162)" xlink:href="#eab478b9-96d3-460e-8d92-bd54f2216081"/><linearGradient id="b2576161-f51c-41b4-b361-2f2a78a31c9c" x1="-109.8" y1="200.46" x2="-105.85" y2="200.46" gradientTransform="translate(-137.57 299.18) rotate(-162)" xlink:href="#ac71ff99-1878-42a3-9ef8-22fa64384f59"/><linearGradient id="f099f1fc-53f3-4b1a-90d8-898823245718" x1="14.88" y1="40.51" x2="18.83" y2="40.51" gradientTransform="translate(30.82 74.51) rotate(18)" xlink:href="#eab478b9-96d3-460e-8d92-bd54f2216081"/><linearGradient id="a4bb993e-a1e3-4a5b-a609-884d75acc567" x1="14.88" y1="40.73" x2="18.83" y2="40.73" gradientTransform="translate(30.82 74.51) rotate(18)" xlink:href="#ac71ff99-1878-42a3-9ef8-22fa64384f59"/><linearGradient id="a42d9b0d-0395-4b9b-a822-541988edea0d" x1="-89.85" y1="216.88" x2="-85.91" y2="216.88" gradientTransform="translate(-175.22 264.11) rotate(-144)" xlink:href="#eab478b9-96d3-460e-8d92-bd54f2216081"/><linearGradient id="b01eeafc-96fb-4a0c-a9bb-2058afe6172f" x1="-89.85" y1="217.1" x2="-85.91" y2="217.1" gradientTransform="translate(-175.22 264.11) rotate(-144)" xlink:href="#ac71ff99-1878-42a3-9ef8-22fa64384f59"/><linearGradient id="f4313f68-bd41-49e1-af9c-95ffdbe3adc5" x1="-3.55" y1="23.72" x2="0.39" y2="23.72" gradientTransform="translate(53.05 101.73) rotate(36)" xlink:href="#eab478b9-96d3-460e-8d92-bd54f2216081"/><linearGradient id="b912c043-9b2c-4628-9284-e87513f927d6" x1="-3.55" y1="23.94" x2="0.39" y2="23.94" gradientTransform="translate(53.05 101.73) rotate(36)" xlink:href="#ac71ff99-1878-42a3-9ef8-22fa64384f59"/><linearGradient id="afa3c8de-3699-4ed7-9aa6-8750e0ce18a2" x1="-52.58" y1="11.13" x2="-48.64" y2="11.13" gradientTransform="translate(68.65 170.88) rotate(72)" xlink:href="#eab478b9-96d3-460e-8d92-bd54f2216081"/><linearGradient id="aab84d52-a106-48d0-a2c7-72fbe36a097e" x1="-52.58" y1="11.35" x2="-48.64" y2="11.35" gradientTransform="translate(68.65 170.88) rotate(72)" xlink:href="#ac71ff99-1878-42a3-9ef8-22fa64384f59"/><linearGradient id="be487e19-3f0f-4df4-99c9-7e85f53df5fa" x1="-66.8" y1="227.19" x2="-62.86" y2="227.19" gradientTransform="translate(-201.33 218.67) rotate(-126)" xlink:href="#eab478b9-96d3-460e-8d92-bd54f2216081"/><linearGradient id="b5a3ce2a-a3d8-40fc-a564-b7651a3bad86" x1="-66.8" y1="227.41" x2="-62.86" y2="227.41" gradientTransform="translate(-201.33 218.67) rotate(-126)" xlink:href="#ac71ff99-1878-42a3-9ef8-22fa64384f59"/><linearGradient id="e1489054-821f-4747-b926-4d66f7096cfe" x1="-77.33" y1="72.65" x2="-73.38" y2="72.65" gradientTransform="translate(115.72 205.39) rotate(90)" xlink:href="#eab478b9-96d3-460e-8d92-bd54f2216081"/><linearGradient id="f3b482b7-e731-4d3f-bd5f-7f501eac7a91" x1="-77.33" y1="72.87" x2="-73.38" y2="72.87" gradientTransform="translate(115.72 205.39) rotate(90)" xlink:href="#ac71ff99-1878-42a3-9ef8-22fa64384f59"/><linearGradient id="bc97055c-371d-47d1-889c-ecd44875d7b9" x1="-27.32" y1="14.12" x2="-23.38" y2="14.12" gradientTransform="translate(66.94 134.93) rotate(54)" xlink:href="#eab478b9-96d3-460e-8d92-bd54f2216081"/><linearGradient id="a9c58eeb-b0c6-49b1-90a9-eacad8f4cacc" x1="-27.32" y1="14.33" x2="-23.38" y2="14.33" gradientTransform="translate(66.94 134.93) rotate(54)" xlink:href="#ac71ff99-1878-42a3-9ef8-22fa64384f59"/><linearGradient id="bbb229df-2486-4d52-bcf2-ad54cce385f7" x1="-99.68" y1="85.68" x2="-95.73" y2="85.68" gradientTransform="translate(93.8 253.29) rotate(108)" xlink:href="#eab478b9-96d3-460e-8d92-bd54f2216081"/><linearGradient id="a6354493-5b15-4b67-afd1-a4b7725c748c" x1="-99.68" y1="85.9" x2="-95.73" y2="85.9" gradientTransform="translate(93.8 253.29) rotate(108)" xlink:href="#ac71ff99-1878-42a3-9ef8-22fa64384f59"/><linearGradient id="fefd68f6-0eae-4d5f-8aad-3014ee74696c" x1="-41.36" y1="228.67" x2="-37.42" y2="228.67" gradientTransform="translate(-210.89 167.32) rotate(-108)" xlink:href="#eab478b9-96d3-460e-8d92-bd54f2216081"/><linearGradient id="bae75c87-962d-4352-8dd7-2c3d8129dc30" x1="-41.36" y1="228.89" x2="-37.42" y2="228.89" gradientTransform="translate(-210.89 167.32) rotate(-108)" xlink:href="#ac71ff99-1878-42a3-9ef8-22fa64384f59"/><linearGradient id="aa1d8883-92c8-4e6d-9b3b-03dfd4317162" x1="-115.64" y1="104.79" x2="-111.69" y2="104.79" gradientTransform="translate(58.73 290.94) rotate(126)" xlink:href="#eab478b9-96d3-460e-8d92-bd54f2216081"/><linearGradient id="b6c211d3-4802-4aa9-947a-4eabcc0d0006" x1="-115.64" y1="105.01" x2="-111.69" y2="105.01" gradientTransform="translate(58.73 290.94) rotate(126)" xlink:href="#ac71ff99-1878-42a3-9ef8-22fa64384f59"/><clipPath id="ae54fc67-d80c-44f1-a454-af15c1463e85" transform="translate(-13.37 -115.08)"><circle cx="30.37" cy="130.32" r="11.05" style="fill:none"/></clipPath><radialGradient id="f4a9cb86-98e8-42a8-b1f7-d15d2e68bb82" cx="-66.63" cy="164.02" r="42.94" gradientTransform="translate(42.63 -59.08) scale(0.5)" gradientUnits="userSpaceOnUse"><stop offset="0.01" stop-color="#f6c054"/><stop offset="0.3" stop-color="#f2a942"/><stop offset="0.54" stop-color="#ffea72"/><stop offset="0.58" stop-color="#fff071"/><stop offset="0.59" stop-color="#fff171"/><stop offset="0.76" stop-color="#fada61"/><stop offset="0.96" stop-color="#f3b94a"/></radialGradient><radialGradient id="bd8b7584-2fc2-40ba-8abf-e8cdb96012ca" cx="-66.63" cy="164.02" r="42.94" gradientTransform="translate(56 56) scale(0.5)" gradientUnits="userSpaceOnUse"><stop offset="0" stop-color="#ffffc3"/><stop offset="0.95" stop-color="#ffea72"/></radialGradient><linearGradient id="b08f2208-335d-40f6-9432-7ad88c43af68" x1="37.11" y1="124.88" x2="23.62" y2="135.78" gradientTransform="translate(154.13 79.41) rotate(80.76)" gradientUnits="userSpaceOnUse"><stop offset="0.48" stop-color="#cc9434"/><stop offset="0.68" stop-color="#ffea72"/><stop offset="0.76" stop-color="#ffe76c"/><stop offset="0.87" stop-color="#ffde5c"/><stop offset="0.96" stop-color="#ffd44a"/></linearGradient><linearGradient id="a506129d-02fb-439e-b242-ec4fe3ef4279" x1="26.39" y1="122.32" x2="34.34" y2="138.29" xlink:href="#b08f2208-335d-40f6-9432-7ad88c43af68"/><linearGradient id="afcecedf-9509-45ba-9b1f-100b47bbc312" x1="22.55" y1="10.34" x2="10.74" y2="20.78" gradientUnits="userSpaceOnUse"><stop offset="0.01" stop-color="#f6c054"/><stop offset="0.54" stop-color="#ffea72"/><stop offset="0.58" stop-color="#fff071"/><stop offset="0.59" stop-color="#fff171"/><stop offset="0.82" stop-color="#ffe05a"/><stop offset="0.96" stop-color="#ffd44a"/></linearGradient><linearGradient id="ae31377c-2d39-44c8-a388-f86c6000bd50" x1="37.04" y1="131.09" x2="37.55" y2="131.09" gradientUnits="userSpaceOnUse"><stop offset="0" stop-color="#f3ce5e"/><stop offset="1" stop-color="#f2be4a"/></linearGradient><linearGradient id="bafee8fd-a72f-4c72-9795-db4f06296ff6" x1="36.85" y1="132.09" x2="37.36" y2="132.09" xlink:href="#ae31377c-2d39-44c8-a388-f86c6000bd50"/><linearGradient id="ac9ca589-205d-49ff-a62e-6fef3db33c1c" x1="36.53" y1="133.05" x2="37.04" y2="133.05" xlink:href="#ae31377c-2d39-44c8-a388-f86c6000bd50"/><linearGradient id="f2241f0a-19cb-4f61-9902-39322155e296" x1="36.06" y1="133.95" x2="36.57" y2="133.95" xlink:href="#ae31377c-2d39-44c8-a388-f86c6000bd50"/><linearGradient id="be98b26f-e5c0-4e27-bb12-e84cb3d1a287" x1="35.47" y1="134.78" x2="35.98" y2="134.78" xlink:href="#ae31377c-2d39-44c8-a388-f86c6000bd50"/><linearGradient id="b43f763b-e604-4d98-9049-af949ccc1866" x1="34.77" y1="135.51" x2="35.28" y2="135.51" xlink:href="#ae31377c-2d39-44c8-a388-f86c6000bd50"/><linearGradient id="b081e517-07c4-405e-9af3-64a0272daad7" x1="33.96" y1="136.13" x2="34.47" y2="136.13" xlink:href="#ae31377c-2d39-44c8-a388-f86c6000bd50"/><linearGradient id="aaf6265f-f300-4e61-bb85-c2aa6066ecef" x1="33.08" y1="136.63" x2="33.59" y2="136.63" xlink:href="#ae31377c-2d39-44c8-a388-f86c6000bd50"/><linearGradient id="b5bf9dc5-1caf-4f1b-b48e-980e13c57c6e" x1="32.13" y1="137" x2="32.64" y2="137" xlink:href="#ae31377c-2d39-44c8-a388-f86c6000bd50"/><linearGradient id="f8964d34-b227-41b2-a6ba-e15dd8267e91" x1="31.13" y1="137.21" x2="31.64" y2="137.21" xlink:href="#ae31377c-2d39-44c8-a388-f86c6000bd50"/><linearGradient id="a8288ffe-4ec0-48b5-8864-d1762bb05a9f" x1="30.12" y1="137.29" x2="30.63" y2="137.29" xlink:href="#ae31377c-2d39-44c8-a388-f86c6000bd50"/><linearGradient id="ba12ab2f-e958-413d-8dd8-9a0735b4daae" x1="29.11" y1="137.21" x2="29.61" y2="137.21" xlink:href="#ae31377c-2d39-44c8-a388-f86c6000bd50"/><linearGradient id="a6ee9308-0494-464e-8767-06e611150ab2" x1="28.11" y1="137" x2="28.62" y2="137" xlink:href="#ae31377c-2d39-44c8-a388-f86c6000bd50"/><linearGradient id="b794bf11-6dcf-4480-8eb2-d8f77f900ea3" x1="27.16" y1="136.63" x2="27.67" y2="136.63" xlink:href="#ae31377c-2d39-44c8-a388-f86c6000bd50"/><linearGradient id="a4d9f837-5b49-429b-8ef0-5eaa018e7562" x1="26.28" y1="136.13" x2="26.79" y2="136.13" xlink:href="#ae31377c-2d39-44c8-a388-f86c6000bd50"/><linearGradient id="ecff2f63-fb54-4fb1-bd7d-f975969e2b11" x1="25.47" y1="135.51" x2="25.98" y2="135.51" xlink:href="#ae31377c-2d39-44c8-a388-f86c6000bd50"/><linearGradient id="b4ef0568-aa4f-4d92-a007-30902c5550dd" x1="24.77" y1="134.78" x2="25.28" y2="134.78" xlink:href="#ae31377c-2d39-44c8-a388-f86c6000bd50"/><linearGradient id="b8f6be50-4b49-4fee-ae94-120f5a53d82a" x1="24.18" y1="133.95" x2="24.69" y2="133.95" xlink:href="#ae31377c-2d39-44c8-a388-f86c6000bd50"/><linearGradient id="ad09348e-9553-43a5-8d1e-712c3e96ce0f" x1="23.71" y1="133.05" x2="24.22" y2="133.05" xlink:href="#ae31377c-2d39-44c8-a388-f86c6000bd50"/><linearGradient id="fdbdb696-da93-4f3a-b6e7-0bc2959a4cf9" x1="23.39" y1="132.09" x2="23.89" y2="132.09" xlink:href="#ae31377c-2d39-44c8-a388-f86c6000bd50"/><linearGradient id="b09b654d-9577-47fd-ae2f-71c709cc0701" x1="23.2" y1="131.09" x2="23.71" y2="131.09" xlink:href="#ae31377c-2d39-44c8-a388-f86c6000bd50"/><linearGradient id="bceec8ed-ac6c-4d1c-8cd3-c337f94f430b" x1="23.16" y1="130.07" x2="23.67" y2="130.07" xlink:href="#ae31377c-2d39-44c8-a388-f86c6000bd50"/><linearGradient id="ec0e79a6-8051-4a71-97cc-9055fc9840fe" x1="23.27" y1="129.06" x2="23.78" y2="129.06" xlink:href="#ae31377c-2d39-44c8-a388-f86c6000bd50"/><linearGradient id="bea15c17-89f7-4062-991a-0cb085659173" x1="23.53" y1="128.08" x2="24.04" y2="128.08" xlink:href="#ae31377c-2d39-44c8-a388-f86c6000bd50"/><linearGradient id="fca82d11-8816-488d-857d-78458f11c46a" x1="23.93" y1="127.14" x2="24.43" y2="127.14" xlink:href="#ae31377c-2d39-44c8-a388-f86c6000bd50"/><linearGradient id="a0dbe472-009e-47eb-85be-31b1cde8b922" x1="24.45" y1="126.27" x2="24.97" y2="126.27" xlink:href="#ae31377c-2d39-44c8-a388-f86c6000bd50"/><linearGradient id="a7215395-ac10-47c3-af64-d15cba7ad3db" x1="25.11" y1="125.49" x2="25.61" y2="125.49" xlink:href="#ae31377c-2d39-44c8-a388-f86c6000bd50"/><linearGradient id="ac6bcbc7-5d9d-4770-a97e-011176c34e59" x1="25.86" y1="124.81" x2="26.37" y2="124.81" xlink:href="#ae31377c-2d39-44c8-a388-f86c6000bd50"/><linearGradient id="ba0b8446-3bde-4052-a5ce-804acab757f0" x1="26.71" y1="124.25" x2="27.22" y2="124.25" xlink:href="#ae31377c-2d39-44c8-a388-f86c6000bd50"/><linearGradient id="f4143086-4ac5-447f-9d03-1b84973d5fe3" x1="27.63" y1="123.82" x2="28.14" y2="123.82" xlink:href="#ae31377c-2d39-44c8-a388-f86c6000bd50"/><linearGradient id="b4b4194b-81e2-4337-9c0c-de60e3d7fdcb" x1="28.61" y1="123.53" x2="29.11" y2="123.53" xlink:href="#ae31377c-2d39-44c8-a388-f86c6000bd50"/><linearGradient id="b9148b77-62c4-4c94-8c41-43b52c2ac126" x1="29.61" y1="123.38" x2="30.12" y2="123.38" xlink:href="#ae31377c-2d39-44c8-a388-f86c6000bd50"/><linearGradient id="ecc01818-1620-482b-b547-81f55467710f" x1="30.63" y1="123.38" x2="31.14" y2="123.38" xlink:href="#ae31377c-2d39-44c8-a388-f86c6000bd50"/><linearGradient id="b00c9440-18cf-4448-8285-4ba22c433140" x1="31.63" y1="123.53" x2="32.14" y2="123.53" xlink:href="#ae31377c-2d39-44c8-a388-f86c6000bd50"/><linearGradient id="ec4b2793-38b3-4341-beb0-828d635056df" x1="32.61" y1="123.82" x2="33.12" y2="123.82" xlink:href="#ae31377c-2d39-44c8-a388-f86c6000bd50"/><linearGradient id="fbdcefe9-5c12-49b7-8a53-093c792a4817" x1="33.53" y1="124.25" x2="34.04" y2="124.25" xlink:href="#ae31377c-2d39-44c8-a388-f86c6000bd50"/><linearGradient id="b2df9105-2aee-4a05-8b2c-77c8635a5f47" x1="34.38" y1="124.81" x2="34.89" y2="124.81" xlink:href="#ae31377c-2d39-44c8-a388-f86c6000bd50"/><linearGradient id="a149be15-3f06-4e80-9383-a0514f60b492" x1="35.14" y1="125.49" x2="35.64" y2="125.49" xlink:href="#ae31377c-2d39-44c8-a388-f86c6000bd50"/><linearGradient id="f773b4ec-66bc-430f-a92a-ec1b2817ed23" x1="35.78" y1="126.27" x2="36.3" y2="126.27" xlink:href="#ae31377c-2d39-44c8-a388-f86c6000bd50"/><linearGradient id="b82fff16-6feb-4775-b8e1-e0539b94e843" x1="36.32" y1="127.14" x2="36.82" y2="127.14" xlink:href="#ae31377c-2d39-44c8-a388-f86c6000bd50"/><linearGradient id="ad43af2d-b7d7-460c-b943-3be704906d3f" x1="36.71" y1="128.08" x2="37.22" y2="128.08" xlink:href="#ae31377c-2d39-44c8-a388-f86c6000bd50"/><linearGradient id="b670e36b-116e-4dca-b5b0-1cd2b2c923aa" x1="36.97" y1="129.06" x2="37.48" y2="129.06" xlink:href="#ae31377c-2d39-44c8-a388-f86c6000bd50"/><linearGradient id="fddcbc12-7023-4744-b510-733718d77ee5" x1="37.07" y1="130.07" x2="37.58" y2="130.07" xlink:href="#ae31377c-2d39-44c8-a388-f86c6000bd50"/><linearGradient id="b275661f-e94c-4a38-abdf-a18dd1ea86b2" x1="36.13" y1="124.62" x2="24.95" y2="135.7" gradientUnits="userSpaceOnUse"><stop offset="0" stop-color="#aa7238"/><stop offset="0.25" stop-color="#c08443"/><stop offset="0.35" stop-color="#be8242"/><stop offset="0.39" stop-color="#b87b3d"/><stop offset="0.42" stop-color="#ad7036"/><stop offset="0.44" stop-color="#9d5f2b"/><stop offset="0.46" stop-color="#88491d"/><stop offset="0.47" stop-color="#7a3a14"/><stop offset="0.64" stop-color="#7c3c15"/><stop offset="0.72" stop-color="#83441a"/><stop offset="0.79" stop-color="#8e5123"/><stop offset="0.85" stop-color="#9e642f"/><stop offset="0.9" stop-color="#b37c3e"/><stop offset="0.95" stop-color="#cd9b52"/><stop offset="0.99" stop-color="#ebbe68"/><stop offset="1" stop-color="#f0c46c"/></linearGradient><linearGradient id="ff2ae6d9-08ba-4ac0-ac19-c58ad36aea6f" x1="27.89" y1="131.63" x2="33.04" y2="129.2" gradientUnits="userSpaceOnUse"><stop offset="0" stop-color="#f1c848"/><stop offset="0.19" stop-color="#f0c94f"/><stop offset="0.45" stop-color="#ebcc62"/><stop offset="0.48" stop-color="#ebcc64"/><stop offset="0.75" stop-color="#f5e579"/><stop offset="1" stop-color="#ffff8e"/></linearGradient><linearGradient id="feb6a77b-f0c5-48cb-9771-ead21de60df0" x1="30.44" y1="126.18" x2="30.44" y2="133.81" gradientUnits="userSpaceOnUse"><stop offset="0" stop-color="#ffee7b"/><stop offset="0.15" stop-color="#ffc757"/><stop offset="0.27" stop-color="#e1a11b"/><stop offset="0.28" stop-color="#e3a622"/><stop offset="0.31" stop-color="#edc044"/><stop offset="0.34" stop-color="#f4d35f"/><stop offset="0.37" stop-color="#fae272"/><stop offset="0.41" stop-color="#fdea7d"/><stop offset="0.44" stop-color="#feed81"/><stop offset="0.47" stop-color="#f8e37b"/><stop offset="0.51" stop-color="#e8c76b"/><stop offset="0.57" stop-color="#ce9b51"/><stop offset="0.63" stop-color="#ab5e2d"/><stop offset="0.65" stop-color="#a24f24"/><stop offset="0.76" stop-color="#e0b439"/><stop offset="0.86" stop-color="#f1c848"/><stop offset="1" stop-color="#ffff8e"/></linearGradient><radialGradient id="ba2cbd36-ab75-4ddf-bd36-81d269ea7257" cx="-51.25" cy="155.1" r="35.5" gradientTransform="translate(56 56) scale(0.5)" gradientUnits="userSpaceOnUse"><stop offset="0" stop-color="#ececbb"/><stop offset="1" stop-color="#784f58"/></radialGradient></defs><g style="isolation:isolate"><g id="f7286dfa-3b63-4040-ad3f-3c708360859a" data-name="Layer 1"><path d="M21.15,135.78s-6.72,5.2-7.78,11.66c0,0,5-.67,5.94-.66,0,0,1.47,3.66,3.14,5.24,0,0,4.09-9.26,7.7-11.69C30.15,140.33,21.52,135.48,21.15,135.78Z" transform="translate(-13.37 -115.08)" style="fill:url(#ac8256b8-9546-4080-b388-603bbedea7d0)"/><path d="M16,147.1c1.43-.17,2.8-.33,3.31-.32a27.47,27.47,0,0,0,1.46,3c.51-1.15,1.58-3.41,2.15-4.32a38.32,38.32,0,0,1,4.31-5.6c-1.14-.86-3.13-1.94-4.27-2.71a22.28,22.28,0,0,0-2.78,3A23.79,23.79,0,0,0,16,147.1Z" transform="translate(-13.37 -115.08)" style="fill:url(#edff4520-58c0-4db7-8aa8-f1e3ef0afce4)"/><path d="M39.6,135.78s6.72,5.2,7.78,11.66c0,0-5-.67-6-.66,0,0-1.46,3.66-3.13,5.24,0,0-4.09-9.26-7.7-11.69C30.6,140.33,39.23,135.48,39.6,135.78Z" transform="translate(-13.37 -115.08)" style="fill:url(#be97d3f3-3a72-40a1-9dde-e48400ce50b8)"/><path d="M44.75,147.1c-1.43-.17-2.8-.33-3.32-.32a26.3,26.3,0,0,1-1.45,3c-.51-1.15-1.58-3.41-2.15-4.32a38.32,38.32,0,0,0-4.31-5.6c1.14-.86,3.13-1.94,4.27-2.71a22.28,22.28,0,0,1,2.78,3A23.79,23.79,0,0,1,44.75,147.1Z" transform="translate(-13.37 -115.08)" style="fill:url(#a0f6bf1b-b210-4541-b79a-e07b3cb1ce23)"/><path d="M25.9,141.56l-.84-.39c-.26-.12-.28,0-.43.25L23.08,140a11.41,11.41,0,0,1-1.3-1.2h0c-.05,0-.31.21-.33.23l-1.33-2.36c-.46.41-.9.84-1.33,1.29h0a24.5,24.5,0,0,0-1.95,2.25c.24.59.7,1.51,1.45,1.11a18.73,18.73,0,0,0,2.23-1.53,3.93,3.93,0,0,0-.53,1.74h0a3.36,3.36,0,0,0,.39,1.64h0c.27.53,1.44,2.37,2.25,1.73a11.06,11.06,0,0,0,1.79-2.28,3.8,3.8,0,0,0,.08,1.95,2.68,2.68,0,0,0,.83,1.3l.22.2c.29-.49.59-1,.91-1.47s.65-1.06,1-1.57h0c.13-.2.26-.38.39-.57Z" transform="translate(-13.37 -115.08)" style="fill:#751b18;opacity:0.5;mix-blend-mode:multiply"/><path d="M34.86,141.56l.85-.39c.26-.12.28,0,.42.25L37.69,140a12.32,12.32,0,0,0,1.3-1.2h0s.3.21.33.23l1.33-2.36c.46.41.9.84,1.33,1.29h0a26.14,26.14,0,0,1,2,2.25c-.24.59-.7,1.51-1.45,1.11a18.73,18.73,0,0,1-2.23-1.53,3.93,3.93,0,0,1,.53,1.74h0a3.48,3.48,0,0,1-.39,1.64h0c-.27.53-1.44,2.37-2.25,1.73a10.73,10.73,0,0,1-1.79-2.28,3.91,3.91,0,0,1-.08,1.95,2.75,2.75,0,0,1-.83,1.3l-.22.2c-.29-.49-.59-1-.91-1.47s-.65-1.06-1-1.57h0c-.13-.2-.26-.38-.4-.57Z" transform="translate(-13.37 -115.08)" style="fill:#751b18;opacity:0.5;mix-blend-mode:multiply"/><path d="M20.72,128.48a5.87,5.87,0,0,0-1.35-.27,3.88,3.88,0,0,0-2.52.48,3.45,3.45,0,0,0-1.32,2.49.84.84,0,0,0,.3.83,27.33,27.33,0,0,0,3.93.1h.54Z" transform="translate(-13.37 -115.08)" style="fill:url(#eab478b9-96d3-460e-8d92-bd54f2216081)"/><path d="M16.85,128.69a2.78,2.78,0,0,0-.89,1,8.84,8.84,0,0,1,4.58.31c.09-.81.18-1.55.18-1.55a5.37,5.37,0,0,0-1.35-.28A3.88,3.88,0,0,0,16.85,128.69Z" transform="translate(-13.37 -115.08)" style="mix-blend-mode:multiply;fill:url(#ac71ff99-1878-42a3-9ef8-22fa64384f59)"/><path d="M21.72,125.51a6.75,6.75,0,0,0-1.2-.68,3.86,3.86,0,0,0-2.54-.31,3.39,3.39,0,0,0-2,2,.84.84,0,0,0,0,.88,28.1,28.1,0,0,0,3.7,1.3s.51.18.52.17Z" transform="translate(-13.37 -115.08)" style="fill:url(#b86fb2fa-070b-4c61-b738-bc0bc33720a6)"/><path d="M18,124.52a2.7,2.7,0,0,0-1.18.71,8.77,8.77,0,0,1,4.26,1.71c.34-.75.66-1.43.66-1.43a6.75,6.75,0,0,0-1.2-.68A3.86,3.86,0,0,0,18,124.52Z" transform="translate(-13.37 -115.08)" style="mix-blend-mode:multiply;fill:url(#bf459e2b-0bcc-4aa2-a324-6e692fb1d841)"/><path d="M23.58,123c.07-.07-.86-1-.92-1a3.86,3.86,0,0,0-2.33-1.08,3.38,3.38,0,0,0-2.53,1.23.84.84,0,0,0-.24.85,26.59,26.59,0,0,0,3.12,2.38l.43.32Z" transform="translate(-13.37 -115.08)" style="fill:url(#eb17455b-7fe6-479a-bd25-3ca547950bd5)"/><path d="M20.33,120.9a2.66,2.66,0,0,0-1.33.31,8.76,8.76,0,0,1,3.52,2.94L23.58,123c.07-.07-.86-1-.92-1A3.86,3.86,0,0,0,20.33,120.9Z" transform="translate(-13.37 -115.08)" style="mix-blend-mode:multiply;fill:url(#e63a8ecd-2afb-4036-8844-9be5a9215c86)"/><path d="M35.05,139.12a6.58,6.58,0,0,0,.57,1.26,3.88,3.88,0,0,0,1.87,1.75,3.44,3.44,0,0,0,2.79-.4.83.83,0,0,0,.5-.73,28.35,28.35,0,0,0-2.23-3.23s-.31-.44-.32-.44Z" transform="translate(-13.37 -115.08)" style="fill:url(#b8733d18-b3d4-439e-9618-9b4471cb625d)"/><path d="M37.49,142.13a2.78,2.78,0,0,0,1.37.11,8.75,8.75,0,0,1-2.44-3.89l-1.37.77a6.58,6.58,0,0,0,.57,1.26A3.88,3.88,0,0,0,37.49,142.13Z" transform="translate(-13.37 -115.08)" style="mix-blend-mode:multiply;fill:url(#f1284252-fccf-4ce0-abff-7f1360559d97)"/><path d="M26.14,121.18a6.51,6.51,0,0,0-.57-1.25,3.79,3.79,0,0,0-1.87-1.75,3.39,3.39,0,0,0-2.79.39.83.83,0,0,0-.5.73,27.5,27.5,0,0,0,2.23,3.23s.31.45.32.44Z" transform="translate(-13.37 -115.08)" style="fill:url(#acd83834-ea9d-4e39-8c65-081d157003f7)"/><path d="M23.7,118.18a2.67,2.67,0,0,0-1.37-.12A8.75,8.75,0,0,1,24.77,122l1.37-.77a6.51,6.51,0,0,0-.57-1.25A3.79,3.79,0,0,0,23.7,118.18Z" transform="translate(-13.37 -115.08)" style="mix-blend-mode:multiply;fill:url(#acf3e67f-a2a3-4b48-99cd-7729317c6b81)"/><path d="M32.06,140.06a6.17,6.17,0,0,0,.15,1.37,3.9,3.9,0,0,0,1.25,2.24,3.38,3.38,0,0,0,2.77.49.84.84,0,0,0,.7-.54,28.49,28.49,0,0,0-1.13-3.76s-.15-.52-.16-.52Z" transform="translate(-13.37 -115.08)" style="fill:url(#f51ec73f-4c3d-4710-89a5-67ea47b2c3bc)"/><path d="M33.46,143.67a2.57,2.57,0,0,0,1.26.53,8.74,8.74,0,0,1-1.12-4.45l-1.54.31a6.17,6.17,0,0,0,.15,1.37A3.9,3.9,0,0,0,33.46,143.67Z" transform="translate(-13.37 -115.08)" style="mix-blend-mode:multiply;fill:url(#b461529f-ed2a-46d5-a733-59b0def0981b)"/><path d="M29.13,120.24a6.23,6.23,0,0,0-.15-1.37,3.85,3.85,0,0,0-1.25-2.24,3.38,3.38,0,0,0-2.77-.48.8.8,0,0,0-.7.54,29.42,29.42,0,0,0,1.13,3.76s.15.51.16.51Z" transform="translate(-13.37 -115.08)" style="fill:url(#aaa5934c-7ac7-402f-a374-8277a20f310c)"/><path d="M27.73,116.63a2.66,2.66,0,0,0-1.26-.53,8.76,8.76,0,0,1,1.12,4.45l1.54-.31a6.23,6.23,0,0,0-.15-1.37A3.85,3.85,0,0,0,27.73,116.63Z" transform="translate(-13.37 -115.08)" style="mix-blend-mode:multiply;fill:url(#afc1da6e-dfe2-4556-860f-bfeb5fadefc2)"/><path d="M28.93,140a5.85,5.85,0,0,0-.28,1.35,3.79,3.79,0,0,0,.49,2.51,3.35,3.35,0,0,0,2.49,1.32.82.82,0,0,0,.82-.29,27.33,27.33,0,0,0,.1-3.93s0-.54,0-.54Z" transform="translate(-13.37 -115.08)" style="fill:url(#b73b4a43-7e93-405d-8e4e-61840754483c)"/><path d="M29.14,143.89a2.65,2.65,0,0,0,1,.9,8.83,8.83,0,0,1,.3-4.58L28.93,140a5.85,5.85,0,0,0-.28,1.35A3.79,3.79,0,0,0,29.14,143.89Z" transform="translate(-13.37 -115.08)" style="mix-blend-mode:multiply;fill:url(#a047c2a6-5342-46a6-b9f6-80f438c54349)"/><path d="M32.26,120.27a5.76,5.76,0,0,0,.28-1.34,3.81,3.81,0,0,0-.49-2.52,3.38,3.38,0,0,0-2.49-1.32.81.81,0,0,0-.82.3,27.18,27.18,0,0,0-.1,3.92s0,.54,0,.54Z" transform="translate(-13.37 -115.08)" style="fill:url(#afb52aa2-0303-4da7-a790-b200f76a909d)"/><path d="M32.05,116.41a2.59,2.59,0,0,0-1-.89,8.91,8.91,0,0,1-.31,4.57l1.55.18a5.76,5.76,0,0,0,.28-1.34A3.81,3.81,0,0,0,32.05,116.41Z" transform="translate(-13.37 -115.08)" style="mix-blend-mode:multiply;fill:url(#bf255d6c-7c53-4893-9134-4ed423b5180f)"/><path d="M26,139a5.71,5.71,0,0,0-.68,1.2,3.86,3.86,0,0,0-.32,2.54,3.44,3.44,0,0,0,2,2,.84.84,0,0,0,.88,0,29.17,29.17,0,0,0,1.31-3.71s.17-.51.16-.51Z" transform="translate(-13.37 -115.08)" style="fill:url(#bc1a06a1-7dc0-4ead-b24e-b98988f6edaf)"/><path d="M25,142.77a2.7,2.7,0,0,0,.71,1.17,8.85,8.85,0,0,1,1.71-4.26L26,139a5.71,5.71,0,0,0-.68,1.2A3.86,3.86,0,0,0,25,142.77Z" transform="translate(-13.37 -115.08)" style="mix-blend-mode:multiply;fill:url(#b2576161-f51c-41b4-b361-2f2a78a31c9c)"/><path d="M35.23,121.27a5.62,5.62,0,0,0,.68-1.19,3.89,3.89,0,0,0,.32-2.55,3.4,3.4,0,0,0-2-2,.8.8,0,0,0-.88,0,28.44,28.44,0,0,0-1.31,3.7s-.17.51-.16.51Z" transform="translate(-13.37 -115.08)" style="fill:url(#f099f1fc-53f3-4b1a-90d8-898823245718)"/><path d="M36.23,117.53a2.76,2.76,0,0,0-.71-1.17,8.81,8.81,0,0,1-1.71,4.26l1.42.65a5.62,5.62,0,0,0,.68-1.19A3.89,3.89,0,0,0,36.23,117.53Z" transform="translate(-13.37 -115.08)" style="mix-blend-mode:multiply;fill:url(#a4bb993e-a1e3-4a5b-a609-884d75acc567)"/><path d="M23.44,137.16c-.07-.06-1,.87-1,.93a3.86,3.86,0,0,0-1.08,2.32,3.4,3.4,0,0,0,1.24,2.53.81.81,0,0,0,.84.25,28.66,28.66,0,0,0,2.39-3.12s.32-.43.31-.44Z" transform="translate(-13.37 -115.08)" style="fill:url(#a42d9b0d-0395-4b9b-a822-541988edea0d)"/><path d="M21.34,140.41a2.67,2.67,0,0,0,.31,1.34,8.8,8.8,0,0,1,2.94-3.53l-1.15-1.06c-.07-.06-1,.87-1,.93A3.86,3.86,0,0,0,21.34,140.41Z" transform="translate(-13.37 -115.08)" style="mix-blend-mode:multiply;fill:url(#b01eeafc-96fb-4a0c-a9bb-2058afe6172f)"/><path d="M37.75,123.14c.07.06,1-.86,1-.93a3.86,3.86,0,0,0,1.08-2.32,3.4,3.4,0,0,0-1.24-2.53.83.83,0,0,0-.84-.25,28.66,28.66,0,0,0-2.39,3.12s-.32.44-.31.44Z" transform="translate(-13.37 -115.08)" style="fill:url(#f4313f68-bd41-49e1-af9c-95ffdbe3adc5)"/><path d="M39.85,119.89a2.64,2.64,0,0,0-.31-1.33,8.84,8.84,0,0,1-2.94,3.52l1.15,1.06c.07.06,1-.86,1-.93A3.86,3.86,0,0,0,39.85,119.89Z" transform="translate(-13.37 -115.08)" style="mix-blend-mode:multiply;fill:url(#b912c043-9b2c-4628-9284-e87513f927d6)"/><path d="M40.5,128.69a6.21,6.21,0,0,0,1.37-.16,3.81,3.81,0,0,0,2.24-1.24,3.39,3.39,0,0,0,.49-2.77.84.84,0,0,0-.54-.7,27.31,27.31,0,0,0-3.76,1.12s-.52.16-.52.17Z" transform="translate(-13.37 -115.08)" style="fill:url(#afa3c8de-3699-4ed7-9aa6-8750e0ce18a2)"/><path d="M44.11,127.29a2.72,2.72,0,0,0,.54-1.26,8.9,8.9,0,0,1-4.46,1.12c.17.8.31,1.53.31,1.54a6.21,6.21,0,0,0,1.37-.16A3.81,3.81,0,0,0,44.11,127.29Z" transform="translate(-13.37 -115.08)" style="mix-blend-mode:multiply;fill:url(#aab84d52-a106-48d0-a2c7-72fbe36a097e)"/><path d="M21.62,134.61a6,6,0,0,0-1.25.57,3.83,3.83,0,0,0-1.75,1.87,3.36,3.36,0,0,0,.4,2.79.8.8,0,0,0,.72.49A25.31,25.31,0,0,0,23,138.1s.44-.3.43-.31Z" transform="translate(-13.37 -115.08)" style="fill:url(#be487e19-3f0f-4df4-99c9-7e85f53df5fa)"/><path d="M18.62,137.05a2.67,2.67,0,0,0-.11,1.37A8.77,8.77,0,0,1,22.39,136l-.77-1.36a6,6,0,0,0-1.25.57A3.83,3.83,0,0,0,18.62,137.05Z" transform="translate(-13.37 -115.08)" style="mix-blend-mode:multiply;fill:url(#b5a3ce2a-a3d8-40fc-a564-b7651a3bad86)"/><path d="M40.47,131.82a6.43,6.43,0,0,0,1.35.28,3.88,3.88,0,0,0,2.52-.49,3.42,3.42,0,0,0,1.32-2.49.84.84,0,0,0-.3-.83,27.44,27.44,0,0,0-3.93-.09h-.54Z" transform="translate(-13.37 -115.08)" style="fill:url(#e1489054-821f-4747-b926-4d66f7096cfe)"/><path d="M44.34,131.61a2.78,2.78,0,0,0,.89-1,8.73,8.73,0,0,1-4.58-.31c-.09.82-.18,1.56-.18,1.56a6.43,6.43,0,0,0,1.35.28A3.88,3.88,0,0,0,44.34,131.61Z" transform="translate(-13.37 -115.08)" style="mix-blend-mode:multiply;fill:url(#f3b482b7-e731-4d3f-bd5f-7f501eac7a91)"/><path d="M39.57,125.7a6.51,6.51,0,0,0,1.25-.57,3.9,3.9,0,0,0,1.75-1.88,3.37,3.37,0,0,0-.4-2.79.8.8,0,0,0-.72-.49,27.55,27.55,0,0,0-3.24,2.23s-.44.31-.43.32Z" transform="translate(-13.37 -115.08)" style="fill:url(#bc97055c-371d-47d1-889c-ecd44875d7b9)"/><path d="M42.57,123.25a2.74,2.74,0,0,0,.11-1.36,8.75,8.75,0,0,1-3.88,2.44l.77,1.36a5.89,5.89,0,0,0,1.25-.56A3.9,3.9,0,0,0,42.57,123.25Z" transform="translate(-13.37 -115.08)" style="mix-blend-mode:multiply;fill:url(#a9c58eeb-b0c6-49b1-90a9-eacad8f4cacc)"/><path d="M39.47,134.79a5.71,5.71,0,0,0,1.2.68,3.8,3.8,0,0,0,2.54.31,3.36,3.36,0,0,0,2-2,.82.82,0,0,0,0-.87,26.66,26.66,0,0,0-3.7-1.31l-.52-.17Z" transform="translate(-13.37 -115.08)" style="fill:url(#bbb229df-2486-4d52-bcf2-ad54cce385f7)"/><path d="M43.21,135.78a2.61,2.61,0,0,0,1.18-.71,8.66,8.66,0,0,1-4.26-1.7l-.66,1.42a5.71,5.71,0,0,0,1.2.68A3.8,3.8,0,0,0,43.21,135.78Z" transform="translate(-13.37 -115.08)" style="mix-blend-mode:multiply;fill:url(#a6354493-5b15-4b67-afd1-a4b7725c748c)"/><path d="M20.69,131.62a6.17,6.17,0,0,0-1.37.15A3.81,3.81,0,0,0,17.08,133a3.37,3.37,0,0,0-.49,2.78.84.84,0,0,0,.54.69,27.31,27.31,0,0,0,3.76-1.12l.52-.17Z" transform="translate(-13.37 -115.08)" style="fill:url(#fefd68f6-0eae-4d5f-8aad-3014ee74696c)"/><path d="M17.08,133a2.76,2.76,0,0,0-.54,1.27A8.81,8.81,0,0,1,21,133.15c-.17-.8-.31-1.53-.31-1.53a6.17,6.17,0,0,0-1.37.15A3.81,3.81,0,0,0,17.08,133Z" transform="translate(-13.37 -115.08)" style="mix-blend-mode:multiply;fill:url(#bae75c87-962d-4352-8dd7-2c3d8129dc30)"/><path d="M37.61,137.31c-.07.07.86,1,.92,1a3.87,3.87,0,0,0,2.33,1.09,3.42,3.42,0,0,0,2.53-1.24.84.84,0,0,0,.24-.85,27.73,27.73,0,0,0-3.12-2.38l-.43-.32Z" transform="translate(-13.37 -115.08)" style="fill:url(#aa1d8883-92c8-4e6d-9b3b-03dfd4317162)"/><path d="M40.86,139.41a2.67,2.67,0,0,0,1.33-.32,8.7,8.7,0,0,1-3.52-2.94l-1.06,1.16c-.07.07.86,1,.92,1A3.87,3.87,0,0,0,40.86,139.41Z" transform="translate(-13.37 -115.08)" style="mix-blend-mode:multiply;fill:url(#b6c211d3-4802-4aa9-947a-4eabcc0d0006)"/><g style="opacity:0.55;mix-blend-mode:multiply"><path d="M42.47,127.2a12.49,12.49,0,1,0-5.18,13.52,12.6,12.6,0,0,0,5.18-13.52C42.36,126.81,42.72,128.2,42.47,127.2Z" transform="translate(-13.37 -115.08)" style="fill:#fff;opacity:0"/><path d="M42.46,127.21a12.48,12.48,0,1,0-5.17,13.5,12.59,12.59,0,0,0,5.17-13.5C42.36,126.81,42.72,128.2,42.46,127.21Z" transform="translate(-13.37 -115.08)" style="fill:#fefefe;opacity:0.004587"/><path d="M42.45,127.21a12.47,12.47,0,1,0-5.17,13.5,12.58,12.58,0,0,0,5.17-13.5C42.35,126.81,42.71,128.2,42.45,127.21Z" transform="translate(-13.37 -115.08)" style="fill:#fdfdfd;opacity:0.009174"/><path d="M42.45,127.21a12.47,12.47,0,1,0-5.17,13.49,12.58,12.58,0,0,0,5.17-13.49Z" transform="translate(-13.37 -115.08)" style="fill:#fbfbfb;opacity:0.013760999999999999"/><path d="M42.44,127.21a12.46,12.46,0,1,0-5.16,13.48,12.57,12.57,0,0,0,5.16-13.48C42.34,126.81,42.7,128.21,42.44,127.21Z" transform="translate(-13.37 -115.08)" style="fill:#fafafa;opacity:0.018349"/><path d="M42.44,127.21a12.46,12.46,0,1,0-5.17,13.48,12.58,12.58,0,0,0,5.17-13.48C42.33,126.82,42.69,128.21,42.44,127.21Z" transform="translate(-13.37 -115.08)" style="fill:#f9f9f9;opacity:0.022935999999999998"/><path d="M42.43,127.21a12.45,12.45,0,1,0-5.16,13.47,12.53,12.53,0,0,0,5.16-13.47C42.33,126.82,42.68,128.21,42.43,127.21Z" transform="translate(-13.37 -115.08)" style="fill:#f8f8f8;opacity:0.027523"/><path d="M42.42,127.22a12.44,12.44,0,1,0-5.15,13.46,12.55,12.55,0,0,0,5.15-13.46C42.32,126.82,42.68,128.21,42.42,127.22Z" transform="translate(-13.37 -115.08)" style="fill:#f7f7f7;opacity:0.03211"/><path d="M42.42,127.22a12.44,12.44,0,1,0-5.16,13.45,12.56,12.56,0,0,0,5.16-13.45C42.31,126.82,42.67,128.21,42.42,127.22Z" transform="translate(-13.37 -115.08)" style="fill:#f6f6f6;opacity:0.036697"/><path d="M42.41,127.22a12.43,12.43,0,1,0-5.15,13.45,12.52,12.52,0,0,0,5.15-13.45C42.31,126.82,42.67,128.21,42.41,127.22Z" transform="translate(-13.37 -115.08)" style="fill:#f4f4f4;opacity:0.041284"/><path d="M42.4,127.22a12.42,12.42,0,1,0-5.14,13.44,12.53,12.53,0,0,0,5.14-13.44C42.3,126.82,42.66,128.21,42.4,127.22Z" transform="translate(-13.37 -115.08)" style="fill:#f3f3f3;opacity:0.045871999999999996"/><path d="M42.4,127.22a12.42,12.42,0,1,0-5.15,13.44,12.53,12.53,0,0,0,5.15-13.44Z" transform="translate(-13.37 -115.08)" style="fill:#f2f2f2;opacity:0.050459"/><path d="M42.39,127.22a12.41,12.41,0,1,0-5.14,13.43,12.53,12.53,0,0,0,5.14-13.43Z" transform="translate(-13.37 -115.08)" style="fill:#f1f1f1;opacity:0.055046"/><path d="M42.38,127.23a12.4,12.4,0,1,0-5.13,13.42,12.49,12.49,0,0,0,5.13-13.42C42.28,126.83,42.64,128.22,42.38,127.23Z" transform="translate(-13.37 -115.08)" style="fill:#f0f0f0;opacity:0.059633"/><path d="M42.38,127.23a12.4,12.4,0,1,0-5.14,13.41,12.5,12.5,0,0,0,5.14-13.41Z" transform="translate(-13.37 -115.08)" style="fill:#efefef;opacity:0.06422"/><path d="M42.37,127.23a12.39,12.39,0,1,0-5.13,13.41,12.5,12.5,0,0,0,5.13-13.41C42.27,126.83,42.63,128.22,42.37,127.23Z" transform="translate(-13.37 -115.08)" style="fill:#ededed;opacity:0.068807"/><path d="M42.37,127.23a12.39,12.39,0,1,0-5.14,13.4,12.51,12.51,0,0,0,5.14-13.4C42.26,126.84,42.62,128.22,42.37,127.23Z" transform="translate(-13.37 -115.08)" style="fill:#ececec;opacity:0.073394"/><path d="M42.36,127.23a12.38,12.38,0,1,0-5.13,13.39,12.48,12.48,0,0,0,5.13-13.39Z" transform="translate(-13.37 -115.08)" style="fill:#ebebeb;opacity:0.077982"/><path d="M42.35,127.23a12.37,12.37,0,1,0-5.12,13.39,12.47,12.47,0,0,0,5.12-13.39Z" transform="translate(-13.37 -115.08)" style="fill:#eaeaea;opacity:0.08256899999999999"/><path d="M42.35,127.24a12.37,12.37,0,1,0-5.13,13.37,12.47,12.47,0,0,0,5.13-13.37C42.24,126.84,42.6,128.22,42.35,127.24Z" transform="translate(-13.37 -115.08)" style="fill:#e9e9e9;opacity:0.087156"/><path d="M42.34,127.24a12.36,12.36,0,1,0-5.12,13.37,12.45,12.45,0,0,0,5.12-13.37Z" transform="translate(-13.37 -115.08)" style="fill:#e8e8e8;opacity:0.09174299999999999"/><path d="M42.33,127.24a12.35,12.35,0,1,0-5.11,13.36,12.46,12.46,0,0,0,5.11-13.36C42.23,126.84,42.59,128.23,42.33,127.24Z" transform="translate(-13.37 -115.08)" style="fill:#e6e6e6;opacity:0.09633000000000001"/><path d="M42.33,127.24a12.35,12.35,0,1,0-5.12,13.36,12.45,12.45,0,0,0,5.12-13.36Z" transform="translate(-13.37 -115.08)" style="fill:#e5e5e5;opacity:0.10091699999999999"/><path d="M42.32,127.24a12.34,12.34,0,1,0-5.11,13.35,12.44,12.44,0,0,0,5.11-13.35Z" transform="translate(-13.37 -115.08)" style="fill:#e4e4e4;opacity:0.105505"/><path d="M42.31,127.24a12.33,12.33,0,1,0-5.1,13.35,12.43,12.43,0,0,0,5.1-13.35Z" transform="translate(-13.37 -115.08)" style="fill:#e3e3e3;opacity:0.110092"/><path d="M42.31,127.25a12.33,12.33,0,1,0-5.11,13.33,12.42,12.42,0,0,0,5.11-13.33Z" transform="translate(-13.37 -115.08)" style="fill:#e2e2e2;opacity:0.11467899999999999"/><path d="M42.3,127.25a12.31,12.31,0,1,0-5.1,13.33,12.42,12.42,0,0,0,5.1-13.33C42.2,126.85,42.56,128.23,42.3,127.25Z" transform="translate(-13.37 -115.08)" style="fill:#e1e1e1;opacity:0.119266"/><path d="M42.3,127.25a12.32,12.32,0,1,0-5.11,13.32,12.42,12.42,0,0,0,5.11-13.32C42.19,126.86,42.55,128.23,42.3,127.25Z" transform="translate(-13.37 -115.08)" style="fill:#dfdfdf;opacity:0.12385299999999999"/><path d="M42.29,127.25a12.31,12.31,0,1,0-5.1,13.31,12.42,12.42,0,0,0,5.1-13.31Z" transform="translate(-13.37 -115.08)" style="fill:#dedede;opacity:0.12844"/><path d="M42.28,127.25a12.3,12.3,0,1,0-5.09,13.31,12.4,12.4,0,0,0,5.09-13.31C42.18,126.86,42.54,128.23,42.28,127.25Z" transform="translate(-13.37 -115.08)" style="fill:#ddd;opacity:0.133028"/><path d="M42.28,127.25a12.3,12.3,0,1,0-5.1,13.3,12.41,12.41,0,0,0,5.1-13.3Z" transform="translate(-13.37 -115.08)" style="fill:#dcdcdc;opacity:0.137615"/><path d="M42.27,127.26a12.29,12.29,0,1,0-5.09,13.29,12.4,12.4,0,0,0,5.09-13.29Z" transform="translate(-13.37 -115.08)" style="fill:#dbdbdb;opacity:0.142202"/><path d="M42.26,127.26a12.28,12.28,0,1,0-5.08,13.28,12.37,12.37,0,0,0,5.08-13.28C42.16,126.86,42.52,128.24,42.26,127.26Z" transform="translate(-13.37 -115.08)" style="fill:#dadada;opacity:0.146789"/><path d="M42.26,127.26a12.27,12.27,0,1,0-5.09,13.28,12.39,12.39,0,0,0,5.09-13.28Z" transform="translate(-13.37 -115.08)" style="fill:#d8d8d8;opacity:0.15137599999999998"/><path d="M42.25,127.26a12.27,12.27,0,1,0-5.08,13.27,12.36,12.36,0,0,0,5.08-13.27Z" transform="translate(-13.37 -115.08)" style="fill:#d7d7d7;opacity:0.155963"/><path d="M42.25,127.26a12.26,12.26,0,1,0-5.08,13.27,12.39,12.39,0,0,0,5.08-13.27C42.14,126.87,42.5,128.24,42.25,127.26Z" transform="translate(-13.37 -115.08)" style="fill:#d6d6d6;opacity:0.16055000000000003"/><path d="M42.24,127.26a12.25,12.25,0,1,0-5.08,13.26,12.36,12.36,0,0,0,5.08-13.26Z" transform="translate(-13.37 -115.08)" style="fill:#d5d5d5;opacity:0.16513799999999998"/><path d="M42.23,127.26a12.25,12.25,0,1,0-5.07,13.26,12.34,12.34,0,0,0,5.07-13.26Z" transform="translate(-13.37 -115.08)" style="fill:#d4d4d4;opacity:0.169725"/><path d="M42.23,127.27a12.24,12.24,0,1,0-5.08,13.24,12.37,12.37,0,0,0,5.08-13.24Z" transform="translate(-13.37 -115.08)" style="fill:#d3d3d3;opacity:0.174312"/><path d="M42.22,127.27a12.24,12.24,0,1,0-5.07,13.23,12.33,12.33,0,0,0,5.07-13.23Z" transform="translate(-13.37 -115.08)" style="fill:#d1d1d1;opacity:0.178899"/><path d="M42.21,127.27a12.22,12.22,0,1,0-5.06,13.23,12.32,12.32,0,0,0,5.06-13.23Z" transform="translate(-13.37 -115.08)" style="fill:#d0d0d0;opacity:0.18348599999999998"/><path d="M42.21,127.27a12.23,12.23,0,1,0-5.07,13.22,12.33,12.33,0,0,0,5.07-13.22Z" transform="translate(-13.37 -115.08)" style="fill:#cfcfcf;opacity:0.188073"/><path d="M42.2,127.27a12.21,12.21,0,1,0-5.06,13.22,12.33,12.33,0,0,0,5.06-13.22Z" transform="translate(-13.37 -115.08)" style="fill:#cecece;opacity:0.192661"/><path d="M42.19,127.27a12.21,12.21,0,1,0-5,13.21,12.29,12.29,0,0,0,5-13.21C42.09,126.88,42.45,128.25,42.19,127.27Z" transform="translate(-13.37 -115.08)" style="fill:#cdcdcd;opacity:0.19724799999999998"/><path d="M42.19,127.28a12.2,12.2,0,1,0-5.06,13.2,12.31,12.31,0,0,0,5.06-13.2Z" transform="translate(-13.37 -115.08)" style="fill:#ccc;opacity:0.201835"/><path d="M42.18,127.28a12.19,12.19,0,1,0-5,13.19,12.29,12.29,0,0,0,5-13.19Z" transform="translate(-13.37 -115.08)" style="fill:#cacaca;opacity:0.206422"/><path d="M42.18,127.28a12.19,12.19,0,1,0-5,13.19,12.29,12.29,0,0,0,5-13.19Z" transform="translate(-13.37 -115.08)" style="fill:#c9c9c9;opacity:0.211009"/><path d="M42.17,127.28a12.18,12.18,0,1,0-5.05,13.18,12.3,12.3,0,0,0,5.05-13.18Z" transform="translate(-13.37 -115.08)" style="fill:#c8c8c8;opacity:0.21559599999999998"/><path d="M42.16,127.28a12.17,12.17,0,1,0-5,13.18,12.26,12.26,0,0,0,5-13.18Z" transform="translate(-13.37 -115.08)" style="fill:#c7c7c7;opacity:0.220183"/><path d="M42.16,127.28a12.17,12.17,0,1,0-5,13.17,12.28,12.28,0,0,0,5-13.17C42.06,126.9,42.41,128.26,42.16,127.28Z" transform="translate(-13.37 -115.08)" style="fill:#c6c6c6;opacity:0.224771"/><path d="M42.15,127.29a12.16,12.16,0,1,0-5,13.15,12.27,12.27,0,0,0,5-13.15Z" transform="translate(-13.37 -115.08)" style="fill:#c5c5c5;opacity:0.22935799999999998"/><path d="M42.14,127.29a12.15,12.15,0,1,0-5,13.15,12.23,12.23,0,0,0,5-13.15Z" transform="translate(-13.37 -115.08)" style="fill:#c3c3c3;opacity:0.233945"/><path d="M42.14,127.29a12.15,12.15,0,1,0-5,13.14,12.28,12.28,0,0,0,5-13.14Z" transform="translate(-13.37 -115.08)" style="fill:#c2c2c2;opacity:0.238532"/><path d="M42.13,127.29a12.14,12.14,0,1,0-5,13.14,12.24,12.24,0,0,0,5-13.14Z" transform="translate(-13.37 -115.08)" style="fill:#c1c1c1;opacity:0.243119"/><path d="M42.13,127.29a12.14,12.14,0,1,0-5,13.13,12.25,12.25,0,0,0,5-13.13C42,126.91,42.37,128.26,42.13,127.29Z" transform="translate(-13.37 -115.08)" style="fill:silver;opacity:0.24770599999999998"/><path d="M42.12,127.29a12.13,12.13,0,1,0-5,13.13,12.25,12.25,0,0,0,5-13.13Z" transform="translate(-13.37 -115.08)" style="fill:#bfbfbf;opacity:0.25229399999999996"/><path d="M42.11,127.3a12.12,12.12,0,1,0-5,13.11,12.21,12.21,0,0,0,5-13.11Z" transform="translate(-13.37 -115.08)" style="fill:#bdbdbd;opacity:0.25688099999999997"/><path d="M42.11,127.3a12.12,12.12,0,1,0-5,13.11,12.21,12.21,0,0,0,5-13.11C42,126.91,42.35,128.27,42.11,127.3Z" transform="translate(-13.37 -115.08)" style="fill:#bcbcbc;opacity:0.261468"/><path d="M42.1,127.3a12.11,12.11,0,1,0-5,13.1,12.23,12.23,0,0,0,5-13.1Z" transform="translate(-13.37 -115.08)" style="fill:#bbb;opacity:0.266055"/><path d="M42.09,127.3a12.1,12.1,0,1,0-5,13.1,12.2,12.2,0,0,0,5-13.1Z" transform="translate(-13.37 -115.08)" style="fill:#bababa;opacity:0.270642"/><path d="M42.09,127.3a12.1,12.1,0,1,0-5,13.09,12.19,12.19,0,0,0,5-13.09Z" transform="translate(-13.37 -115.08)" style="fill:#b9b9b9;opacity:0.275229"/><path d="M42.08,127.3a12.09,12.09,0,1,0-5,13.08,12.21,12.21,0,0,0,5-13.08Z" transform="translate(-13.37 -115.08)" style="fill:#b8b8b8;opacity:0.279817"/><path d="M42.07,127.31a12.08,12.08,0,1,0-5,13.07,12.17,12.17,0,0,0,5-13.07C42,126.92,42.32,128.27,42.07,127.31Z" transform="translate(-13.37 -115.08)" style="fill:#b6b6b6;opacity:0.284404"/><path d="M42.07,127.31a12.08,12.08,0,1,0-5,13.06,12.17,12.17,0,0,0,5-13.06Z" transform="translate(-13.37 -115.08)" style="fill:#b5b5b5;opacity:0.288991"/><path d="M42.06,127.31a12.07,12.07,0,1,0-5,13.06,12.17,12.17,0,0,0,5-13.06Z" transform="translate(-13.37 -115.08)" style="fill:#b4b4b4;opacity:0.293578"/><path d="M42.06,127.31a12.07,12.07,0,1,0-5,13.05,12.17,12.17,0,0,0,5-13.05C42,126.93,42.3,128.27,42.06,127.31Z" transform="translate(-13.37 -115.08)" style="fill:#b3b3b3;opacity:0.298165"/><path d="M42.05,127.31a12.06,12.06,0,1,0-5,13.05,12.15,12.15,0,0,0,5-13.05Z" transform="translate(-13.37 -115.08)" style="fill:#b2b2b2;opacity:0.30275199999999997"/><path d="M42,127.31a12.05,12.05,0,1,0-5,13,12.15,12.15,0,0,0,5-13Z" transform="translate(-13.37 -115.08)" style="fill:#b1b1b1;opacity:0.307339"/><path d="M42,127.32a12,12,0,1,0-5,13,12.16,12.16,0,0,0,5-13C41.94,126.93,42.28,128.28,42,127.32Z" transform="translate(-13.37 -115.08)" style="fill:#afafaf;opacity:0.311927"/><path d="M42,127.32a12,12,0,1,0-5,13,12.15,12.15,0,0,0,5-13Z" transform="translate(-13.37 -115.08)" style="fill:#aeaeae;opacity:0.31651399999999996"/><path d="M42,127.32a12,12,0,1,0-5,13,12.13,12.13,0,0,0,5-13Z" transform="translate(-13.37 -115.08)" style="fill:#adadad;opacity:0.32110099999999997"/><path d="M42,127.32a12,12,0,1,0-5,13,12.13,12.13,0,0,0,5-13C41.92,126.94,42.26,128.28,42,127.32Z" transform="translate(-13.37 -115.08)" style="fill:#acacac;opacity:0.325688"/><path d="M42,127.32a12,12,0,1,0-5,13,12.13,12.13,0,0,0,5-13Z" transform="translate(-13.37 -115.08)" style="fill:#ababab;opacity:0.330275"/><path d="M42,127.32a12,12,0,1,0-5,13,12.11,12.11,0,0,0,5-13C41.91,126.94,42.25,128.28,42,127.32Z" transform="translate(-13.37 -115.08)" style="fill:#aaa;opacity:0.334862"/><path d="M42,127.33a12,12,0,1,0-5,13,12.09,12.09,0,0,0,5-13Z" transform="translate(-13.37 -115.08)" style="fill:#a8a8a8;opacity:0.33945000000000003"/><path d="M42,127.33a12,12,0,1,0-5,13,12.11,12.11,0,0,0,5-13Z" transform="translate(-13.37 -115.08)" style="fill:#a7a7a7;opacity:0.344037"/><path d="M42,127.33a12,12,0,1,0-5,13,12.11,12.11,0,0,0,5-13C41.89,127,42.23,128.29,42,127.33Z" transform="translate(-13.37 -115.08)" style="fill:#a6a6a6;opacity:0.348624"/><path d="M42,127.33a12,12,0,1,0-5,13,12.07,12.07,0,0,0,5-13Z" transform="translate(-13.37 -115.08)" style="fill:#a5a5a5;opacity:0.353211"/><path d="M42,127.33a12,12,0,1,0-5,13,12.09,12.09,0,0,0,5-13Z" transform="translate(-13.37 -115.08)" style="fill:#a4a4a4;opacity:0.357798"/><path d="M42,127.33a12,12,0,1,0-5,13,12.08,12.08,0,0,0,5-13C41.87,127,42.21,128.29,42,127.33Z" transform="translate(-13.37 -115.08)" style="fill:#a3a3a3;opacity:0.36238499999999996"/><path d="M42,127.34a12,12,0,1,0-5,12.94,12.05,12.05,0,0,0,5-12.94C41.86,127,42.21,128.29,42,127.34Z" transform="translate(-13.37 -115.08)" style="fill:#a1a1a1;opacity:0.36697199999999996"/><path d="M42,127.34a12,12,0,1,0-5,12.94,12.07,12.07,0,0,0,5-12.94C41.86,127,42.2,128.29,42,127.34Z" transform="translate(-13.37 -115.08)" style="fill:#a0a0a0;opacity:0.37156000000000006"/><path d="M42,127.34a11.95,11.95,0,1,0-5,12.93,12.05,12.05,0,0,0,5-12.93C41.85,127,42.19,128.29,42,127.34Z" transform="translate(-13.37 -115.08)" style="fill:#9f9f9f;opacity:0.376147"/><path d="M41.94,127.34A11.95,11.95,0,1,0,37,140.26a12,12,0,0,0,4.95-12.92Z" transform="translate(-13.37 -115.08)" style="fill:#9e9e9e;opacity:0.38073399999999996"/><path d="M41.94,127.34A11.94,11.94,0,1,0,37,140.26a12.07,12.07,0,0,0,4.95-12.92C41.84,127,42.18,128.3,41.94,127.34Z" transform="translate(-13.37 -115.08)" style="fill:#9d9d9d;opacity:0.38532099999999997"/><path d="M41.93,127.34a11.94,11.94,0,1,0-5,12.91,12,12,0,0,0,5-12.91C41.83,127,42.17,128.3,41.93,127.34Z" transform="translate(-13.37 -115.08)" style="fill:#9c9c9c;opacity:0.389908"/><path d="M41.92,127.34A11.92,11.92,0,1,0,37,140.25a12,12,0,0,0,4.94-12.91Z" transform="translate(-13.37 -115.08)" style="fill:#9a9a9a;opacity:0.394495"/><path d="M41.92,127.35A11.92,11.92,0,1,0,37,140.24a12,12,0,0,0,4.94-12.89C41.82,127,42.16,128.3,41.92,127.35Z" transform="translate(-13.37 -115.08)" style="fill:#999;opacity:0.39908299999999997"/><path d="M41.91,127.35A11.91,11.91,0,1,0,37,140.24a12,12,0,0,0,4.94-12.89C41.81,127,42.15,128.3,41.91,127.35Z" transform="translate(-13.37 -115.08)" style="fill:#989898;opacity:0.40367000000000003"/><path d="M41.9,127.35A11.9,11.9,0,1,0,37,140.23a12,12,0,0,0,4.93-12.88C41.81,127,42.15,128.3,41.9,127.35Z" transform="translate(-13.37 -115.08)" style="fill:#979797;opacity:0.408257"/><path d="M41.9,127.35A11.9,11.9,0,1,0,37,140.23a12,12,0,0,0,4.93-12.88C41.8,127,42.14,128.3,41.9,127.35Z" transform="translate(-13.37 -115.08)" style="fill:#969696;opacity:0.412844"/><path d="M41.89,127.35A11.9,11.9,0,1,0,37,140.22a12,12,0,0,0,4.93-12.87Z" transform="translate(-13.37 -115.08)" style="fill:#959595;opacity:0.417431"/><path d="M41.88,127.35A11.88,11.88,0,1,0,37,140.22a12,12,0,0,0,4.92-12.87C41.79,127,42.13,128.3,41.88,127.35Z" transform="translate(-13.37 -115.08)" style="fill:#939393;opacity:0.422018"/><path d="M41.88,127.36A11.88,11.88,0,1,0,37,140.21a12,12,0,0,0,4.92-12.85C41.78,127,42.12,128.31,41.88,127.36Z" transform="translate(-13.37 -115.08)" style="fill:#929292;opacity:0.426606"/><path d="M41.87,127.36A11.87,11.87,0,1,0,37,140.2a12,12,0,0,0,4.92-12.84Z" transform="translate(-13.37 -115.08)" style="fill:#919191;opacity:0.431193"/><path d="M41.87,127.36A11.87,11.87,0,1,0,37,140.2a12,12,0,0,0,4.92-12.84C41.77,127,42.11,128.31,41.87,127.36Z" transform="translate(-13.37 -115.08)" style="fill:#909090;opacity:0.43578000000000006"/><path d="M41.86,127.36a11.86,11.86,0,1,0-4.92,12.83,12,12,0,0,0,4.92-12.83C41.76,127,42.1,128.31,41.86,127.36Z" transform="translate(-13.37 -115.08)" style="fill:#8f8f8f;opacity:0.44036699999999995"/><path d="M41.85,127.36a11.85,11.85,0,1,0-4.91,12.83,11.95,11.95,0,0,0,4.91-12.83C41.76,127,42.1,128.31,41.85,127.36Z" transform="translate(-13.37 -115.08)" style="fill:#8e8e8e;opacity:0.44495399999999996"/><path d="M41.85,127.36a11.85,11.85,0,1,0-4.91,12.82,12,12,0,0,0,4.91-12.82C41.75,127,42.09,128.31,41.85,127.36Z" transform="translate(-13.37 -115.08)" style="fill:#8c8c8c;opacity:0.44954099999999997"/><path d="M41.84,127.37a11.84,11.84,0,1,0-4.91,12.81,11.95,11.95,0,0,0,4.91-12.81C41.74,127,42.08,128.31,41.84,127.37Z" transform="translate(-13.37 -115.08)" style="fill:#8b8b8b;opacity:0.454128"/><path d="M41.83,127.37a11.83,11.83,0,1,0-4.9,12.8,11.91,11.91,0,0,0,4.9-12.8C41.74,127,42.08,128.31,41.83,127.37Z" transform="translate(-13.37 -115.08)" style="fill:#8a8a8a;opacity:0.45871599999999996"/><path d="M41.83,127.37a11.83,11.83,0,1,0-4.9,12.8,11.93,11.93,0,0,0,4.9-12.8C41.73,127,42.07,128.31,41.83,127.37Z" transform="translate(-13.37 -115.08)" style="fill:#898989;opacity:0.46330299999999996"/><path d="M41.82,127.37a11.82,11.82,0,1,0-4.9,12.79,11.93,11.93,0,0,0,4.9-12.79C41.72,127,42.06,128.32,41.82,127.37Z" transform="translate(-13.37 -115.08)" style="fill:#888;opacity:0.46789000000000003"/><path d="M41.81,127.37a11.81,11.81,0,1,0-4.89,12.79,11.88,11.88,0,0,0,4.89-12.79C41.72,127,42.06,128.32,41.81,127.37Z" transform="translate(-13.37 -115.08)" style="fill:#878787;opacity:0.472477"/><path d="M41.81,127.37a11.81,11.81,0,1,0-4.89,12.78,11.93,11.93,0,0,0,4.89-12.78C41.71,127,42.05,128.32,41.81,127.37Z" transform="translate(-13.37 -115.08)" style="fill:#858585;opacity:0.477064"/><path d="M41.8,127.38a11.8,11.8,0,1,0-4.89,12.76,11.9,11.9,0,0,0,4.89-12.76C41.7,127,42,128.32,41.8,127.38Z" transform="translate(-13.37 -115.08)" style="fill:#848484;opacity:0.481651"/><path d="M41.8,127.38a11.79,11.79,0,1,0-4.89,12.76,11.92,11.92,0,0,0,4.89-12.76C41.7,127,42,128.32,41.8,127.38Z" transform="translate(-13.37 -115.08)" style="fill:#838383;opacity:0.486239"/><path d="M41.79,127.38a11.79,11.79,0,1,0-4.89,12.75,11.91,11.91,0,0,0,4.89-12.75C41.69,127,42,128.32,41.79,127.38Z" transform="translate(-13.37 -115.08)" style="fill:#828282;opacity:0.490826"/><path d="M41.78,127.38a11.78,11.78,0,1,0-4.88,12.75,11.86,11.86,0,0,0,4.88-12.75C41.69,127,42,128.32,41.78,127.38Z" transform="translate(-13.37 -115.08)" style="fill:#818181;opacity:0.495413"/><path d="M41.78,127.38a11.78,11.78,0,1,0-4.88,12.74,11.9,11.9,0,0,0,4.88-12.74C41.68,127,42,128.32,41.78,127.38Z" transform="translate(-13.37 -115.08)" style="fill:gray;opacity:0.5"/><path d="M41.77,127.38a11.77,11.77,0,1,0-4.88,12.74,11.88,11.88,0,0,0,4.88-12.74C41.67,127,42,128.32,41.77,127.38Z" transform="translate(-13.37 -115.08)" style="fill:#7e7e7e;opacity:0.504587"/><path d="M41.76,127.39a11.76,11.76,0,1,0-4.87,12.72,11.85,11.85,0,0,0,4.87-12.72C41.67,127,42,128.32,41.76,127.39Z" transform="translate(-13.37 -115.08)" style="fill:#7d7d7d;opacity:0.509174"/><path d="M41.76,127.39a11.75,11.75,0,1,0-4.87,12.72,11.87,11.87,0,0,0,4.87-12.72C41.66,127,42,128.33,41.76,127.39Z" transform="translate(-13.37 -115.08)" style="fill:#7c7c7c;opacity:0.513761"/><path d="M41.75,127.39a11.75,11.75,0,1,0-4.87,12.71,11.84,11.84,0,0,0,4.87-12.71C41.65,127,42,128.33,41.75,127.39Z" transform="translate(-13.37 -115.08)" style="fill:#7b7b7b;opacity:0.518349"/><path d="M41.74,127.39a11.74,11.74,0,1,0-4.86,12.71,11.83,11.83,0,0,0,4.86-12.71C41.65,127,42,128.33,41.74,127.39Z" transform="translate(-13.37 -115.08)" style="fill:#7a7a7a;opacity:0.522936"/><path d="M41.74,127.39a11.74,11.74,0,1,0-4.86,12.7,11.84,11.84,0,0,0,4.86-12.7C41.64,127,42,128.33,41.74,127.39Z" transform="translate(-13.37 -115.08)" style="fill:#787878;opacity:0.527523"/><path d="M41.73,127.39a11.73,11.73,0,1,0-4.86,12.69,11.83,11.83,0,0,0,4.86-12.69C41.64,127,42,128.33,41.73,127.39Z" transform="translate(-13.37 -115.08)" style="fill:#777;opacity:0.5321100000000001"/><path d="M41.73,127.4a11.73,11.73,0,1,0-4.86,12.68,11.82,11.82,0,0,0,4.86-12.68Z" transform="translate(-13.37 -115.08)" style="fill:#767676;opacity:0.536697"/><path d="M41.72,127.4a11.72,11.72,0,1,0-4.86,12.67,11.83,11.83,0,0,0,4.86-12.67Z" transform="translate(-13.37 -115.08)" style="fill:#757575;opacity:0.541284"/><path d="M41.71,127.4a11.71,11.71,0,1,0-4.85,12.67,11.81,11.81,0,0,0,4.85-12.67C41.62,127,42,128.33,41.71,127.4Z" transform="translate(-13.37 -115.08)" style="fill:#747474;opacity:0.545872"/><path d="M41.71,127.4a11.7,11.7,0,1,0-4.85,12.66,11.8,11.8,0,0,0,4.85-12.66C41.61,127,42,128.33,41.71,127.4Z" transform="translate(-13.37 -115.08)" style="fill:#737373;opacity:0.5504589999999999"/><path d="M41.7,127.4a11.7,11.7,0,1,0-4.85,12.66A11.8,11.8,0,0,0,41.7,127.4C41.6,127,41.94,128.34,41.7,127.4Z" transform="translate(-13.37 -115.08)" style="fill:#717171;opacity:0.5550459999999999"/><path d="M41.69,127.4a11.69,11.69,0,1,0-4.84,12.65,11.78,11.78,0,0,0,4.84-12.65C41.6,127,41.93,128.34,41.69,127.4Z" transform="translate(-13.37 -115.08)" style="fill:#707070;opacity:0.5596329999999999"/><path d="M41.69,127.41a11.68,11.68,0,1,0-4.84,12.64,11.79,11.79,0,0,0,4.84-12.64Z" transform="translate(-13.37 -115.08)" style="fill:#6f6f6f;opacity:0.56422"/><path d="M41.68,127.41A11.68,11.68,0,1,0,36.84,140a11.76,11.76,0,0,0,4.84-12.63C41.59,127,41.92,128.34,41.68,127.41Z" transform="translate(-13.37 -115.08)" style="fill:#6e6e6e;opacity:0.568807"/><path d="M41.68,127.41A11.67,11.67,0,1,0,36.84,140a11.79,11.79,0,0,0,4.84-12.63C41.58,127,41.92,128.34,41.68,127.41Z" transform="translate(-13.37 -115.08)" style="fill:#6d6d6d;opacity:0.573394"/><path d="M41.67,127.41A11.66,11.66,0,1,0,36.84,140a11.77,11.77,0,0,0,4.83-12.62C41.57,127,41.91,128.34,41.67,127.41Z" transform="translate(-13.37 -115.08)" style="fill:#6c6c6c;opacity:0.577982"/><path d="M41.66,127.41A11.66,11.66,0,1,0,36.83,140a11.74,11.74,0,0,0,4.83-12.61C41.57,127,41.9,128.34,41.66,127.41Z" transform="translate(-13.37 -115.08)" style="fill:#6a6a6a;opacity:0.582569"/><path d="M41.66,127.41A11.65,11.65,0,1,0,36.83,140a11.77,11.77,0,0,0,4.83-12.61C41.56,127,41.9,128.34,41.66,127.41Z" transform="translate(-13.37 -115.08)" style="fill:#696969;opacity:0.587156"/><path d="M41.65,127.41A11.64,11.64,0,1,0,36.83,140a11.75,11.75,0,0,0,4.82-12.6C41.55,127,41.89,128.34,41.65,127.41Z" transform="translate(-13.37 -115.08)" style="fill:#686868;opacity:0.591743"/><path d="M41.64,127.42A11.63,11.63,0,1,0,36.82,140a11.73,11.73,0,0,0,4.82-12.59C41.55,127,41.88,128.35,41.64,127.42Z" transform="translate(-13.37 -115.08)" style="fill:#676767;opacity:0.59633"/><path d="M41.64,127.42A11.64,11.64,0,1,0,36.82,140a11.73,11.73,0,0,0,4.82-12.58C41.54,127.05,41.88,128.35,41.64,127.42Z" transform="translate(-13.37 -115.08)" style="fill:#666;opacity:0.6009169999999999"/><path d="M41.63,127.42A11.62,11.62,0,1,0,36.81,140a11.72,11.72,0,0,0,4.82-12.58C41.54,127.05,41.87,128.35,41.63,127.42Z" transform="translate(-13.37 -115.08)" style="fill:#656565;opacity:0.605505"/><path d="M41.62,127.42A11.62,11.62,0,1,0,36.81,140a11.7,11.7,0,0,0,4.81-12.57C41.53,127.05,41.86,128.35,41.62,127.42Z" transform="translate(-13.37 -115.08)" style="fill:#636363;opacity:0.610092"/><path d="M41.62,127.42A11.61,11.61,0,1,0,36.81,140a11.7,11.7,0,0,0,4.81-12.57C41.52,127.05,41.86,128.35,41.62,127.42Z" transform="translate(-13.37 -115.08)" style="fill:#626262;opacity:0.614679"/><path d="M41.61,127.42A11.61,11.61,0,1,0,36.8,140a11.72,11.72,0,0,0,4.81-12.56C41.52,127.05,41.85,128.35,41.61,127.42Z" transform="translate(-13.37 -115.08)" style="fill:#616161;opacity:0.619266"/><path d="M41.61,127.43A11.6,11.6,0,1,0,36.8,140a11.7,11.7,0,0,0,4.81-12.55C41.51,127.06,41.84,128.35,41.61,127.43Z" transform="translate(-13.37 -115.08)" style="fill:#606060;opacity:0.623853"/><path d="M41.6,127.43A11.59,11.59,0,1,0,36.8,140a11.69,11.69,0,0,0,4.8-12.54C41.5,127.06,41.84,128.35,41.6,127.43Z" transform="translate(-13.37 -115.08)" style="fill:#5f5f5f;opacity:0.62844"/><path d="M41.59,127.43A11.59,11.59,0,1,0,36.79,140a11.68,11.68,0,0,0,4.8-12.53C41.5,127.06,41.83,128.35,41.59,127.43Z" transform="translate(-13.37 -115.08)" style="fill:#5e5e5e;opacity:0.6330279999999999"/><path d="M41.59,127.43A11.58,11.58,0,1,0,36.79,140a11.68,11.68,0,0,0,4.8-12.53C41.49,127.06,41.82,128.36,41.59,127.43Z" transform="translate(-13.37 -115.08)" style="fill:#5c5c5c;opacity:0.6376149999999999"/><path d="M41.58,127.43A11.57,11.57,0,1,0,36.79,140a11.66,11.66,0,0,0,4.79-12.52C41.49,127.06,41.82,128.36,41.58,127.43Z" transform="translate(-13.37 -115.08)" style="fill:#5b5b5b;opacity:0.6422019999999999"/><path d="M41.57,127.43A11.56,11.56,0,1,0,36.78,140a11.66,11.66,0,0,0,4.79-12.52C41.48,127.06,41.81,128.36,41.57,127.43Z" transform="translate(-13.37 -115.08)" style="fill:#5a5a5a;opacity:0.646789"/><path d="M41.57,127.44a11.56,11.56,0,1,0-4.79,12.5,11.67,11.67,0,0,0,4.79-12.5C41.47,127.07,41.81,128.36,41.57,127.44Z" transform="translate(-13.37 -115.08)" style="fill:#595959;opacity:0.651376"/><path d="M41.56,127.44a11.55,11.55,0,1,0-4.79,12.5,11.66,11.66,0,0,0,4.79-12.5C41.47,127.07,41.8,128.36,41.56,127.44Z" transform="translate(-13.37 -115.08)" style="fill:#585858;opacity:0.655963"/><path d="M41.56,127.44a11.55,11.55,0,1,0-4.79,12.49,11.67,11.67,0,0,0,4.79-12.49C41.46,127.07,41.79,128.36,41.56,127.44Z" transform="translate(-13.37 -115.08)" style="fill:#575757;opacity:0.6605500000000001"/><path d="M41.55,127.44a11.54,11.54,0,1,0-4.78,12.49,11.64,11.64,0,0,0,4.78-12.49C41.45,127.07,41.79,128.36,41.55,127.44Z" transform="translate(-13.37 -115.08)" style="fill:#555;opacity:0.665138"/><path d="M41.54,127.44a11.53,11.53,0,1,0-4.78,12.48,11.64,11.64,0,0,0,4.78-12.48C41.45,127.07,41.78,128.36,41.54,127.44Z" transform="translate(-13.37 -115.08)" style="fill:#545454;opacity:0.669725"/><path d="M41.54,127.44a11.53,11.53,0,1,0-4.78,12.48,11.63,11.63,0,0,0,4.78-12.48C41.44,127.08,41.77,128.36,41.54,127.44Z" transform="translate(-13.37 -115.08)" style="fill:#535353;opacity:0.674312"/><path d="M41.53,127.45a11.52,11.52,0,1,0-4.77,12.46,11.61,11.61,0,0,0,4.77-12.46C41.44,127.08,41.77,128.37,41.53,127.45Z" transform="translate(-13.37 -115.08)" style="fill:#525252;opacity:0.6788989999999999"/><path d="M41.52,127.45a11.51,11.51,0,1,0-4.77,12.45,11.63,11.63,0,0,0,4.77-12.45C41.43,127.08,41.76,128.37,41.52,127.45Z" transform="translate(-13.37 -115.08)" style="fill:#515151;opacity:0.6834859999999999"/><path d="M41.52,127.45a11.51,11.51,0,1,0-4.77,12.45,11.6,11.6,0,0,0,4.77-12.45C41.42,127.08,41.75,128.37,41.52,127.45Z" transform="translate(-13.37 -115.08)" style="fill:#505050;opacity:0.6880729999999999"/><path d="M41.51,127.45a11.5,11.5,0,1,0-4.76,12.44,11.59,11.59,0,0,0,4.76-12.44C41.42,127.08,41.75,128.37,41.51,127.45Z" transform="translate(-13.37 -115.08)" style="fill:#4e4e4e;opacity:0.692661"/><path d="M41.5,127.45a11.49,11.49,0,1,0-4.76,12.44,11.6,11.6,0,0,0,4.76-12.44C41.41,127.09,41.74,128.37,41.5,127.45Z" transform="translate(-13.37 -115.08)" style="fill:#4d4d4d;opacity:0.697248"/><path d="M41.5,127.45a11.49,11.49,0,1,0-4.76,12.43,11.58,11.58,0,0,0,4.76-12.43C41.4,127.09,41.73,128.37,41.5,127.45Z" transform="translate(-13.37 -115.08)" style="fill:#4c4c4c;opacity:0.701835"/><path d="M41.49,127.46a11.48,11.48,0,1,0-4.76,12.42,11.57,11.57,0,0,0,4.76-12.42C41.4,127.09,41.73,128.37,41.49,127.46Z" transform="translate(-13.37 -115.08)" style="fill:#4b4b4b;opacity:0.706422"/><path d="M41.49,127.46a11.48,11.48,0,1,0-4.76,12.41,11.58,11.58,0,0,0,4.76-12.41C41.39,127.09,41.72,128.37,41.49,127.46Z" transform="translate(-13.37 -115.08)" style="fill:#4a4a4a;opacity:0.711009"/><path d="M41.48,127.46a11.46,11.46,0,1,0-4.75,12.41,11.58,11.58,0,0,0,4.75-12.41C41.38,127.09,41.71,128.37,41.48,127.46Z" transform="translate(-13.37 -115.08)" style="fill:#494949;opacity:0.715596"/><path d="M41.47,127.46a11.46,11.46,0,1,0-4.75,12.4,11.55,11.55,0,0,0,4.75-12.4C41.38,127.09,41.71,128.38,41.47,127.46Z" transform="translate(-13.37 -115.08)" style="fill:#474747;opacity:0.720183"/><path d="M41.47,127.46a11.45,11.45,0,1,0-4.75,12.4,11.56,11.56,0,0,0,4.75-12.4C41.37,127.1,41.7,128.38,41.47,127.46Z" transform="translate(-13.37 -115.08)" style="fill:#464646;opacity:0.7247709999999999"/><path d="M41.46,127.46a11.45,11.45,0,1,0-4.74,12.39,11.54,11.54,0,0,0,4.74-12.39C41.37,127.1,41.7,128.38,41.46,127.46Z" transform="translate(-13.37 -115.08)" style="fill:#454545;opacity:0.729358"/><path d="M41.45,127.47a11.44,11.44,0,1,0-4.74,12.37,11.51,11.51,0,0,0,4.74-12.37C41.36,127.1,41.69,128.38,41.45,127.47Z" transform="translate(-13.37 -115.08)" style="fill:#444;opacity:0.733945"/><path d="M41.45,127.47a11.44,11.44,0,1,0-4.74,12.37,11.54,11.54,0,0,0,4.74-12.37C41.35,127.1,41.68,128.38,41.45,127.47Z" transform="translate(-13.37 -115.08)" style="fill:#434343;opacity:0.738532"/><path d="M41.44,127.47a11.42,11.42,0,1,0-4.73,12.36,11.52,11.52,0,0,0,4.73-12.36C41.35,127.1,41.68,128.38,41.44,127.47Z" transform="translate(-13.37 -115.08)" style="fill:#424242;opacity:0.743119"/><path d="M41.43,127.47a11.42,11.42,0,1,0-4.73,12.36,11.52,11.52,0,0,0,4.73-12.36C41.34,127.11,41.67,128.38,41.43,127.47Z" transform="translate(-13.37 -115.08)" style="fill:#404040;opacity:0.747706"/><path d="M41.43,127.47a11.42,11.42,0,1,0-4.73,12.35,11.52,11.52,0,0,0,4.73-12.35C41.33,127.11,41.66,128.38,41.43,127.47Z" transform="translate(-13.37 -115.08)" style="fill:#3f3f3f;opacity:0.752294"/><path d="M41.42,127.47a11.41,11.41,0,1,0-4.73,12.35,11.5,11.5,0,0,0,4.73-12.35C41.33,127.11,41.66,128.38,41.42,127.47Z" transform="translate(-13.37 -115.08)" style="fill:#3e3e3e;opacity:0.7568809999999999"/><path d="M41.42,127.48a11.4,11.4,0,1,0-4.73,12.33,11.52,11.52,0,0,0,4.73-12.33C41.32,127.11,41.65,128.39,41.42,127.48Z" transform="translate(-13.37 -115.08)" style="fill:#3d3d3d;opacity:0.7614679999999999"/><path d="M41.41,127.48a11.39,11.39,0,1,0-4.72,12.33,11.5,11.5,0,0,0,4.72-12.33C41.32,127.11,41.64,128.39,41.41,127.48Z" transform="translate(-13.37 -115.08)" style="fill:#3c3c3c;opacity:0.7660549999999999"/><path d="M41.4,127.48a11.39,11.39,0,1,0-4.72,12.32,11.46,11.46,0,0,0,4.72-12.32C41.31,127.11,41.64,128.39,41.4,127.48Z" transform="translate(-13.37 -115.08)" style="fill:#3a3a3a;opacity:0.7706419999999999"/><path d="M41.4,127.48a11.38,11.38,0,1,0-4.72,12.32,11.5,11.5,0,0,0,4.72-12.32C41.3,127.12,41.63,128.39,41.4,127.48Z" transform="translate(-13.37 -115.08)" style="fill:#393939;opacity:0.775229"/><path d="M41.39,127.48a11.37,11.37,0,1,0-4.71,12.31,11.47,11.47,0,0,0,4.71-12.31Z" transform="translate(-13.37 -115.08)" style="fill:#383838;opacity:0.779817"/><path d="M41.38,127.48a11.37,11.37,0,1,0-4.71,12.3,11.44,11.44,0,0,0,4.71-12.3C41.29,127.12,41.62,128.39,41.38,127.48Z" transform="translate(-13.37 -115.08)" style="fill:#373737;opacity:0.784404"/><path d="M41.38,127.48a11.36,11.36,0,1,0-4.71,12.3,11.48,11.48,0,0,0,4.71-12.3C41.28,127.12,41.61,128.39,41.38,127.48Z" transform="translate(-13.37 -115.08)" style="fill:#363636;opacity:0.788991"/><path d="M41.37,127.49a11.36,11.36,0,1,0-4.7,12.28,11.46,11.46,0,0,0,4.7-12.28C41.28,127.12,41.6,128.39,41.37,127.49Z" transform="translate(-13.37 -115.08)" style="fill:#353535;opacity:0.793578"/><path d="M41.37,127.49a11.35,11.35,0,1,0-4.71,12.28,11.44,11.44,0,0,0,4.71-12.28C41.27,127.13,41.6,128.39,41.37,127.49Z" transform="translate(-13.37 -115.08)" style="fill:#333;opacity:0.798165"/><path d="M41.36,127.49a11.35,11.35,0,1,0-4.7,12.27,11.46,11.46,0,0,0,4.7-12.27Z" transform="translate(-13.37 -115.08)" style="fill:#323232;opacity:0.8027519999999999"/><path d="M41.35,127.49a11.33,11.33,0,1,0-4.7,12.27,11.42,11.42,0,0,0,4.7-12.27C41.26,127.13,41.59,128.4,41.35,127.49Z" transform="translate(-13.37 -115.08)" style="fill:#313131;opacity:0.8073389999999999"/><path d="M41.35,127.49a11.34,11.34,0,1,0-4.7,12.26,11.41,11.41,0,0,0,4.7-12.26C41.25,127.13,41.58,128.4,41.35,127.49Z" transform="translate(-13.37 -115.08)" style="fill:#303030;opacity:0.811927"/><path d="M41.34,127.49a11.32,11.32,0,1,0-4.69,12.26,11.44,11.44,0,0,0,4.69-12.26Z" transform="translate(-13.37 -115.08)" style="fill:#2f2f2f;opacity:0.816514"/><path d="M41.33,127.5a11.32,11.32,0,1,0-4.69,12.24,11.4,11.4,0,0,0,4.69-12.24C41.24,127.13,41.57,128.4,41.33,127.5Z" transform="translate(-13.37 -115.08)" style="fill:#2e2e2e;opacity:0.821101"/><path d="M41.33,127.5a11.31,11.31,0,1,0-4.69,12.24,11.41,11.41,0,0,0,4.69-12.24C41.23,127.14,41.56,128.4,41.33,127.5Z" transform="translate(-13.37 -115.08)" style="fill:#2c2c2c;opacity:0.825688"/><path d="M41.32,127.5a11.3,11.3,0,1,0-4.68,12.23,11.4,11.4,0,0,0,4.68-12.23Z" transform="translate(-13.37 -115.08)" style="fill:#2b2b2b;opacity:0.830275"/><path d="M41.31,127.5a11.3,11.3,0,1,0-4.68,12.22,11.38,11.38,0,0,0,4.68-12.22C41.22,127.14,41.55,128.4,41.31,127.5Z" transform="translate(-13.37 -115.08)" style="fill:#2a2a2a;opacity:0.834862"/><path d="M41.31,127.5a11.29,11.29,0,1,0-4.68,12.22,11.42,11.42,0,0,0,4.68-12.22Z" transform="translate(-13.37 -115.08)" style="fill:#292929;opacity:0.83945"/><path d="M41.3,127.5a11.28,11.28,0,1,0-4.67,12.21A11.37,11.37,0,0,0,41.3,127.5Z" transform="translate(-13.37 -115.08)" style="fill:#282828;opacity:0.8440369999999999"/><path d="M41.3,127.51a11.28,11.28,0,1,0-4.68,12.2,11.38,11.38,0,0,0,4.68-12.2C41.2,127.15,41.53,128.41,41.3,127.51Z" transform="translate(-13.37 -115.08)" style="fill:#272727;opacity:0.8486239999999999"/><path d="M41.29,127.51a11.27,11.27,0,1,0-4.67,12.19,11.38,11.38,0,0,0,4.67-12.19Z" transform="translate(-13.37 -115.08)" style="fill:#252525;opacity:0.8532109999999999"/><path d="M41.28,127.51a11.26,11.26,0,1,0-4.66,12.19,11.36,11.36,0,0,0,4.66-12.19Z" transform="translate(-13.37 -115.08)" style="fill:#242424;opacity:0.857798"/><path d="M41.28,127.51a11.26,11.26,0,1,0-4.67,12.18,11.36,11.36,0,0,0,4.67-12.18C41.18,127.15,41.51,128.41,41.28,127.51Z" transform="translate(-13.37 -115.08)" style="fill:#232323;opacity:0.862385"/><path d="M41.27,127.51a11.25,11.25,0,1,0-4.66,12.18,11.35,11.35,0,0,0,4.66-12.18Z" transform="translate(-13.37 -115.08)" style="fill:#222;opacity:0.866972"/><path d="M41.26,127.51a11.25,11.25,0,1,0-4.66,12.17,11.34,11.34,0,0,0,4.66-12.17Z" transform="translate(-13.37 -115.08)" style="fill:#212121;opacity:0.8715600000000001"/><path d="M41.26,127.52a11.24,11.24,0,1,0-4.66,12.16,11.33,11.33,0,0,0,4.66-12.16C41.17,127.16,41.49,128.41,41.26,127.52Z" transform="translate(-13.37 -115.08)" style="fill:#202020;opacity:0.876147"/><path d="M41.25,127.52a11.24,11.24,0,1,0-4.65,12.15,11.34,11.34,0,0,0,4.65-12.15C41.16,127.16,41.48,128.41,41.25,127.52Z" transform="translate(-13.37 -115.08)" style="fill:#1e1e1e;opacity:0.8807339999999999"/><path d="M41.24,127.52a11.22,11.22,0,1,0-4.65,12.14,11.3,11.3,0,0,0,4.65-12.14C41.15,127.16,41.48,128.42,41.24,127.52Z" transform="translate(-13.37 -115.08)" style="fill:#1d1d1d;opacity:0.8853209999999999"/><path d="M41.24,127.52a11.22,11.22,0,1,0-4.65,12.14,11.31,11.31,0,0,0,4.65-12.14Z" transform="translate(-13.37 -115.08)" style="fill:#1c1c1c;opacity:0.8899079999999999"/><path d="M41.23,127.52a11.21,11.21,0,1,0-4.64,12.13,11.32,11.32,0,0,0,4.64-12.13Z" transform="translate(-13.37 -115.08)" style="fill:#1b1b1b;opacity:0.8944949999999999"/><path d="M41.23,127.52a11.21,11.21,0,1,0-4.65,12.13,11.31,11.31,0,0,0,4.65-12.13C41.13,127.17,41.46,128.42,41.23,127.52Z" transform="translate(-13.37 -115.08)" style="fill:#1a1a1a;opacity:0.899083"/><path d="M41.22,127.53a11.2,11.2,0,1,0-4.64,12.11,11.28,11.28,0,0,0,4.64-12.11C41.13,127.17,41.45,128.42,41.22,127.53Z" transform="translate(-13.37 -115.08)" style="fill:#191919;opacity:0.9036700000000001"/><path d="M41.21,127.53a11.19,11.19,0,1,0-4.63,12.11,11.28,11.28,0,0,0,4.63-12.11C41.12,127.17,41.44,128.42,41.21,127.53Z" transform="translate(-13.37 -115.08)" style="fill:#171717;opacity:0.908257"/><path d="M41.21,127.53a11.19,11.19,0,1,0-4.64,12.1,11.3,11.3,0,0,0,4.64-12.1C41.11,127.17,41.44,128.42,41.21,127.53Z" transform="translate(-13.37 -115.08)" style="fill:#161616;opacity:0.912844"/><path d="M41.2,127.53a11.18,11.18,0,1,0-4.63,12.1,11.27,11.27,0,0,0,4.63-12.1C41.11,127.17,41.43,128.42,41.2,127.53Z" transform="translate(-13.37 -115.08)" style="fill:#151515;opacity:0.917431"/><path d="M41.19,127.53a11.17,11.17,0,1,0-4.63,12.09,11.26,11.26,0,0,0,4.63-12.09Z" transform="translate(-13.37 -115.08)" style="fill:#141414;opacity:0.922018"/><path d="M41.19,127.53a11.17,11.17,0,1,0-4.63,12.09,11.26,11.26,0,0,0,4.63-12.09Z" transform="translate(-13.37 -115.08)" style="fill:#131313;opacity:0.9266059999999999"/><path d="M41.18,127.54a11.16,11.16,0,1,0-4.62,12.07,11.25,11.25,0,0,0,4.62-12.07C41.09,127.18,41.41,128.43,41.18,127.54Z" transform="translate(-13.37 -115.08)" style="fill:#121212;opacity:0.9311929999999999"/><path d="M41.18,127.54a11.16,11.16,0,1,0-4.63,12.06,11.28,11.28,0,0,0,4.63-12.06C41.08,127.18,41.4,128.43,41.18,127.54Z" transform="translate(-13.37 -115.08)" style="fill:#101010;opacity:0.9357800000000001"/><path d="M41.17,127.54a11.15,11.15,0,1,0-4.62,12.06,11.23,11.23,0,0,0,4.62-12.06C41.08,127.18,41.4,128.43,41.17,127.54Z" transform="translate(-13.37 -115.08)" style="fill:#0f0f0f;opacity:0.940367"/><path d="M41.16,127.54a11.14,11.14,0,1,0-4.61,12,11.24,11.24,0,0,0,4.61-12C41.07,127.18,41.39,128.43,41.16,127.54Z" transform="translate(-13.37 -115.08)" style="fill:#0e0e0e;opacity:0.944954"/><path d="M41.16,127.54a11.14,11.14,0,1,0-4.62,12,11.25,11.25,0,0,0,4.62-12C41.06,127.19,41.38,128.43,41.16,127.54Z" transform="translate(-13.37 -115.08)" style="fill:#0d0d0d;opacity:0.949541"/><path d="M41.15,127.54a11.13,11.13,0,1,0-4.61,12,11.21,11.21,0,0,0,4.61-12Z" transform="translate(-13.37 -115.08)" style="fill:#0c0c0c;opacity:0.954128"/><path d="M41.14,127.55a11.11,11.11,0,1,0-4.6,12,11.22,11.22,0,0,0,4.6-12C41.05,127.19,41.37,128.43,41.14,127.55Z" transform="translate(-13.37 -115.08)" style="fill:#0b0b0b;opacity:0.9587159999999999"/><path d="M41.14,127.55a11.12,11.12,0,1,0-4.61,12,11.21,11.21,0,0,0,4.61-12C41.05,127.19,41.37,128.43,41.14,127.55Z" transform="translate(-13.37 -115.08)" style="fill:#090909;opacity:0.9633029999999999"/><path d="M41.13,127.55a11.11,11.11,0,1,0-4.6,12,11.2,11.2,0,0,0,4.6-12C41,127.19,41.36,128.44,41.13,127.55Z" transform="translate(-13.37 -115.08)" style="fill:#080808;opacity:0.96789"/><path d="M41.12,127.55a11.1,11.1,0,1,0-4.6,12,11.19,11.19,0,0,0,4.6-12Z" transform="translate(-13.37 -115.08)" style="fill:#070707;opacity:0.9724769999999999"/><path d="M41.12,127.55a11.1,11.1,0,1,0-4.6,12,11.2,11.2,0,0,0,4.6-12Z" transform="translate(-13.37 -115.08)" style="fill:#060606;opacity:0.9770639999999999"/><path d="M41.11,127.55a11.09,11.09,0,1,0-4.59,12,11.17,11.17,0,0,0,4.59-12Z" transform="translate(-13.37 -115.08)" style="fill:#050505;opacity:0.9816509999999999"/><path d="M41.11,127.55a11.09,11.09,0,1,0-4.6,12,11.18,11.18,0,0,0,4.6-12C41,127.2,41.33,128.44,41.11,127.55Z" transform="translate(-13.37 -115.08)" style="fill:#040404;opacity:0.986239"/><path d="M41.1,127.56a11.08,11.08,0,1,0-4.59,12,11.17,11.17,0,0,0,4.59-12C41,127.2,41.33,128.44,41.1,127.56Z" transform="translate(-13.37 -115.08)" style="fill:#020202;opacity:0.990826"/><path d="M41.09,127.56a11.07,11.07,0,1,0-4.58,12,11.14,11.14,0,0,0,4.58-12C41,127.2,41.32,128.44,41.09,127.56Z" transform="translate(-13.37 -115.08)" style="fill:#010101;opacity:0.995413"/><path d="M41.09,127.56a11.07,11.07,0,1,0-4.59,12,11.18,11.18,0,0,0,4.59-12C41,127.21,41.31,128.44,41.09,127.56Z" transform="translate(-13.37 -115.08)"/></g><g style="clip-path:url(#ae54fc67-d80c-44f1-a454-af15c1463e85)"><circle cx="17" cy="15.25" r="11.05" style="fill:url(#f4a9cb86-98e8-42a8-b1f7-d15d2e68bb82)"/><path d="M30.37,119.27a11.06,11.06,0,1,0,11.06,11A11.05,11.05,0,0,0,30.37,119.27Zm0,21.8a10.75,10.75,0,1,1,10.75-10.75A10.74,10.74,0,0,1,30.37,141.07Z" transform="translate(-13.37 -115.08)" style="opacity:0.75;mix-blend-mode:overlay;fill:url(#bd8b7584-2fc2-40ba-8abf-e8cdb96012ca)"/><circle cx="30.37" cy="130.32" r="8.73" transform="translate(-116.51 24.29) rotate(-80.76)" style="opacity:0.75;mix-blend-mode:screen;fill:url(#b08f2208-335d-40f6-9432-7ad88c43af68)"/><circle cx="30.37" cy="130.32" r="8.73" transform="translate(-116.51 24.29) rotate(-80.76)" style="opacity:0.32;mix-blend-mode:screen;fill:url(#a506129d-02fb-439e-b242-ec4fe3ef4279)"/><circle cx="17" cy="15.25" r="8.44" style="fill:url(#afcecedf-9509-45ba-9b1f-100b47bbc312)"/><g style="opacity:0.75"><g style="opacity:0.85;mix-blend-mode:multiply"><path d="M37.26,131.34a.25.25,0,0,1-.22-.28.27.27,0,0,1,.28-.23.26.26,0,1,1-.06.51Z" transform="translate(-13.37 -115.08)" style="fill:url(#ae31377c-2d39-44c8-a388-f86c6000bd50)"/><path d="M37.05,132.33a.27.27,0,0,1-.19-.31.26.26,0,0,1,.31-.18.24.24,0,0,1,.18.31A.24.24,0,0,1,37.05,132.33Z" transform="translate(-13.37 -115.08)" style="fill:url(#bafee8fd-a72f-4c72-9795-db4f06296ff6)"/><path d="M36.68,133.28a.25.25,0,0,1-.13-.33.26.26,0,0,1,.33-.14.25.25,0,0,1,.14.34A.26.26,0,0,1,36.68,133.28Z" transform="translate(-13.37 -115.08)" style="fill:url(#ac9ca589-205d-49ff-a62e-6fef3db33c1c)"/><path d="M36.18,134.17a.27.27,0,0,1-.08-.35.27.27,0,0,1,.35-.09.25.25,0,0,1,.08.35A.24.24,0,0,1,36.18,134.17Z" transform="translate(-13.37 -115.08)" style="fill:url(#f2241f0a-19cb-4f61-9902-39322155e296)"/><path d="M35.56,135a.25.25,0,0,1,.32-.39.25.25,0,0,1,0,.36A.25.25,0,0,1,35.56,135Z" transform="translate(-13.37 -115.08)" style="fill:url(#be98b26f-e5c0-4e27-bb12-e84cb3d1a287)"/><path d="M34.83,135.68a.25.25,0,0,1,.38-.34.25.25,0,1,1-.38.34Z" transform="translate(-13.37 -115.08)" style="fill:url(#b43f763b-e604-4d98-9049-af949ccc1866)"/><path d="M34,136.27a.26.26,0,0,1,.08-.35.25.25,0,0,1,.34.07.25.25,0,0,1-.06.36A.27.27,0,0,1,34,136.27Z" transform="translate(-13.37 -115.08)" style="fill:url(#b081e517-07c4-405e-9af3-64a0272daad7)"/><path d="M33.1,136.74a.27.27,0,0,1,.12-.34.26.26,0,0,1,.34.12.25.25,0,0,1-.12.34A.25.25,0,0,1,33.1,136.74Z" transform="translate(-13.37 -115.08)" style="fill:url(#aaf6265f-f300-4e61-bb85-c2aa6066ecef)"/><path d="M32.13,137.06a.26.26,0,0,1,.18-.31.25.25,0,0,1,.31.17.24.24,0,0,1-.17.32A.26.26,0,0,1,32.13,137.06Z" transform="translate(-13.37 -115.08)" style="fill:url(#b5bf9dc5-1caf-4f1b-b48e-980e13c57c6e)"/><path d="M31.14,137.25a.26.26,0,0,1,.21-.29.26.26,0,0,1,.29.21.24.24,0,0,1-.22.29A.23.23,0,0,1,31.14,137.25Z" transform="translate(-13.37 -115.08)" style="fill:url(#f8964d34-b227-41b2-a6ba-e15dd8267e91)"/><path d="M30.12,137.28a.24.24,0,0,1,.25-.24.25.25,0,0,1,.26.24.27.27,0,0,1-.26.27A.26.26,0,0,1,30.12,137.28Z" transform="translate(-13.37 -115.08)" style="fill:url(#a8288ffe-4ec0-48b5-8864-d1762bb05a9f)"/><path d="M29.11,137.17a.25.25,0,1,1,.5.08.24.24,0,0,1-.29.21A.24.24,0,0,1,29.11,137.17Z" transform="translate(-13.37 -115.08)" style="fill:url(#ba12ab2f-e958-413d-8dd8-9a0735b4daae)"/><path d="M28.13,136.92a.25.25,0,0,1,.31-.17.26.26,0,0,1-.15.49A.24.24,0,0,1,28.13,136.92Z" transform="translate(-13.37 -115.08)" style="fill:url(#a6ee9308-0494-464e-8767-06e611150ab2)"/><path d="M27.19,136.52a.26.26,0,0,1,.34-.12.27.27,0,0,1,.12.34.25.25,0,0,1-.34.12A.25.25,0,0,1,27.19,136.52Z" transform="translate(-13.37 -115.08)" style="fill:url(#b794bf11-6dcf-4480-8eb2-d8f77f900ea3)"/><path d="M26.32,136a.26.26,0,0,1,.35-.07.26.26,0,0,1,.08.35.27.27,0,0,1-.36.08A.26.26,0,0,1,26.32,136Z" transform="translate(-13.37 -115.08)" style="fill:url(#a4d9f837-5b49-429b-8ef0-5eaa018e7562)"/><path d="M25.54,135.34a.25.25,0,1,1,.38.34.25.25,0,1,1-.38-.34Z" transform="translate(-13.37 -115.08)" style="fill:url(#ecff2f63-fb54-4fb1-bd7d-f975969e2b11)"/><path d="M24.87,134.58a.25.25,0,0,1,.32.39.27.27,0,0,1-.37,0A.25.25,0,0,1,24.87,134.58Z" transform="translate(-13.37 -115.08)" style="fill:url(#b4ef0568-aa4f-4d92-a007-30902c5550dd)"/><path d="M24.3,133.73a.26.26,0,0,1,.27.44.24.24,0,0,1-.35-.09A.25.25,0,0,1,24.3,133.73Z" transform="translate(-13.37 -115.08)" style="fill:url(#b8f6be50-4b49-4fee-ae94-120f5a53d82a)"/><path d="M23.87,132.81a.26.26,0,0,1,.33.14.26.26,0,0,1-.47.2A.25.25,0,0,1,23.87,132.81Z" transform="translate(-13.37 -115.08)" style="fill:url(#ad09348e-9553-43a5-8d1e-712c3e96ce0f)"/><path d="M23.58,131.84a.25.25,0,1,1,.12.49.25.25,0,0,1-.31-.18A.26.26,0,0,1,23.58,131.84Z" transform="translate(-13.37 -115.08)" style="fill:url(#fdbdb696-da93-4f3a-b6e7-0bc2959a4cf9)"/><path d="M23.43,130.83a.25.25,0,0,1,.27.23.25.25,0,0,1-.21.28.26.26,0,0,1-.29-.23A.25.25,0,0,1,23.43,130.83Z" transform="translate(-13.37 -115.08)" style="fill:url(#b09b654d-9577-47fd-ae2f-71c709cc0701)"/><path d="M23.43,129.82a.25.25,0,0,1,.24.26.27.27,0,0,1-.26.25.25.25,0,0,1-.24-.27A.24.24,0,0,1,23.43,129.82Z" transform="translate(-13.37 -115.08)" style="fill:url(#bceec8ed-ac6c-4d1c-8cd3-c337f94f430b)"/><path d="M23.58,128.81a.28.28,0,0,1,.2.3.25.25,0,0,1-.29.2.25.25,0,0,1-.21-.3A.24.24,0,0,1,23.58,128.81Z" transform="translate(-13.37 -115.08)" style="fill:url(#ec0e79a6-8051-4a71-97cc-9055fc9840fe)"/><path d="M23.87,127.84a.26.26,0,0,1,.16.32.28.28,0,0,1-.33.16.25.25,0,0,1-.16-.32A.26.26,0,0,1,23.87,127.84Z" transform="translate(-13.37 -115.08)" style="fill:url(#bea15c17-89f7-4062-991a-0cb085659173)"/><path d="M24.3,126.92a.27.27,0,0,1,.11.34.26.26,0,0,1-.34.11A.24.24,0,0,1,24,127,.24.24,0,0,1,24.3,126.92Z" transform="translate(-13.37 -115.08)" style="fill:url(#fca82d11-8816-488d-857d-78458f11c46a)"/><path d="M24.87,126.07a.25.25,0,0,1-.3.41.23.23,0,0,1-.06-.35A.25.25,0,0,1,24.87,126.07Z" transform="translate(-13.37 -115.08)" style="fill:url(#a0dbe472-009e-47eb-85be-31b1cde8b922)"/><path d="M25.54,125.31a.27.27,0,0,1,0,.36.26.26,0,0,1-.36,0,.25.25,0,0,1,0-.36A.24.24,0,0,1,25.54,125.31Z" transform="translate(-13.37 -115.08)" style="fill:url(#a7215395-ac10-47c3-af64-d15cba7ad3db)"/><path d="M26.32,124.66a.26.26,0,0,1,0,.36.27.27,0,0,1-.36,0,.26.26,0,0,1,0-.36A.26.26,0,0,1,26.32,124.66Z" transform="translate(-13.37 -115.08)" style="fill:url(#ac6bcbc7-5d9d-4770-a97e-011176c34e59)"/><path d="M27.19,124.13a.26.26,0,0,1-.1.34.25.25,0,0,1-.34-.09.25.25,0,1,1,.44-.25Z" transform="translate(-13.37 -115.08)" style="fill:url(#ba0b8446-3bde-4052-a5ce-804acab757f0)"/><path d="M28.13,123.74a.25.25,0,0,1-.48.17.23.23,0,0,1,.15-.32A.24.24,0,0,1,28.13,123.74Z" transform="translate(-13.37 -115.08)" style="fill:url(#f4143086-4ac5-447f-9d03-1b84973d5fe3)"/><path d="M29.11,123.48a.28.28,0,0,1-.19.3.26.26,0,0,1-.12-.5A.25.25,0,0,1,29.11,123.48Z" transform="translate(-13.37 -115.08)" style="fill:url(#b4b4194b-81e2-4337-9c0c-de60e3d7fdcb)"/><path d="M30.12,123.37a.26.26,0,0,1-.24.27.28.28,0,0,1-.27-.24.26.26,0,0,1,.51,0Z" transform="translate(-13.37 -115.08)" style="fill:url(#b9148b77-62c4-4c94-8c41-43b52c2ac126)"/><path d="M31.14,123.4a.28.28,0,0,1-.28.24.26.26,0,0,1-.23-.27.25.25,0,0,1,.27-.24A.25.25,0,0,1,31.14,123.4Z" transform="translate(-13.37 -115.08)" style="fill:url(#ecc01818-1620-482b-b547-81f55467710f)"/><path d="M32.13,123.59a.25.25,0,0,1-.3.19.26.26,0,0,1-.19-.3.24.24,0,0,1,.3-.2A.25.25,0,0,1,32.13,123.59Z" transform="translate(-13.37 -115.08)" style="fill:url(#b00c9440-18cf-4448-8285-4ba22c433140)"/><path d="M33.1,123.91a.26.26,0,0,1-.33.15.25.25,0,0,1-.15-.32.24.24,0,0,1,.33-.15A.23.23,0,0,1,33.1,123.91Z" transform="translate(-13.37 -115.08)" style="fill:url(#ec4b2793-38b3-4341-beb0-828d635056df)"/><path d="M34,124.38a.25.25,0,0,1-.34.09.26.26,0,0,1-.1-.34.25.25,0,0,1,.35-.1A.26.26,0,0,1,34,124.38Z" transform="translate(-13.37 -115.08)" style="fill:url(#fbdcefe9-5c12-49b7-8a53-093c792a4817)"/><path d="M34.83,125a.27.27,0,0,1-.36,0,.26.26,0,0,1,0-.36.27.27,0,0,1,.36,0A.25.25,0,0,1,34.83,125Z" transform="translate(-13.37 -115.08)" style="fill:url(#b2df9105-2aee-4a05-8b2c-77c8635a5f47)"/><path d="M35.56,125.68a.26.26,0,0,1-.36,0,.27.27,0,0,1,0-.36.24.24,0,0,1,.36,0A.25.25,0,0,1,35.56,125.68Z" transform="translate(-13.37 -115.08)" style="fill:url(#a149be15-3f06-4e80-9383-a0514f60b492)"/><path d="M36.18,126.48a.25.25,0,0,1-.3-.41.25.25,0,0,1,.36.06A.24.24,0,0,1,36.18,126.48Z" transform="translate(-13.37 -115.08)" style="fill:url(#f773b4ec-66bc-430f-a92a-ec1b2817ed23)"/><path d="M36.68,127.37a.26.26,0,0,1-.34-.11.27.27,0,0,1,.11-.34.24.24,0,0,1,.34.11A.25.25,0,0,1,36.68,127.37Z" transform="translate(-13.37 -115.08)" style="fill:url(#b82fff16-6feb-4775-b8e1-e0539b94e843)"/><path d="M37.05,128.32a.28.28,0,0,1-.33-.16.26.26,0,0,1,.16-.32.25.25,0,0,1,.32.16A.24.24,0,0,1,37.05,128.32Z" transform="translate(-13.37 -115.08)" style="fill:url(#ad43af2d-b7d7-460c-b943-3be704906d3f)"/><path d="M37.26,129.31a.25.25,0,0,1-.29-.2.27.27,0,0,1,.2-.3.25.25,0,0,1,.3.2A.26.26,0,0,1,37.26,129.31Z" transform="translate(-13.37 -115.08)" style="fill:url(#b670e36b-116e-4dca-b5b0-1cd2b2c923aa)"/><path d="M37.34,130.33a.29.29,0,0,1-.27-.25.27.27,0,0,1,.25-.26.24.24,0,0,1,.26.24A.25.25,0,0,1,37.34,130.33Z" transform="translate(-13.37 -115.08)" style="fill:url(#fddcbc12-7023-4744-b510-733718d77ee5)"/></g><g style="opacity:0.85;mix-blend-mode:multiply"><path d="M37.26,131.34a.25.25,0,0,1-.22-.28.27.27,0,0,1,.28-.23.26.26,0,1,1-.06.51Z" transform="translate(-13.37 -115.08)" style="fill:url(#ae31377c-2d39-44c8-a388-f86c6000bd50)"/><path d="M37.05,132.33a.27.27,0,0,1-.19-.31.26.26,0,0,1,.31-.18.24.24,0,0,1,.18.31A.24.24,0,0,1,37.05,132.33Z" transform="translate(-13.37 -115.08)" style="fill:url(#bafee8fd-a72f-4c72-9795-db4f06296ff6)"/><path d="M36.68,133.28a.25.25,0,0,1-.13-.33.26.26,0,0,1,.33-.14.25.25,0,0,1,.14.34A.26.26,0,0,1,36.68,133.28Z" transform="translate(-13.37 -115.08)" style="fill:url(#ac9ca589-205d-49ff-a62e-6fef3db33c1c)"/><path d="M36.18,134.17a.27.27,0,0,1-.08-.35.27.27,0,0,1,.35-.09.25.25,0,0,1,.08.35A.24.24,0,0,1,36.18,134.17Z" transform="translate(-13.37 -115.08)" style="fill:url(#f2241f0a-19cb-4f61-9902-39322155e296)"/><path d="M35.56,135a.25.25,0,0,1,.32-.39.25.25,0,0,1,0,.36A.25.25,0,0,1,35.56,135Z" transform="translate(-13.37 -115.08)" style="fill:url(#be98b26f-e5c0-4e27-bb12-e84cb3d1a287)"/><path d="M34.83,135.68a.25.25,0,0,1,.38-.34.25.25,0,1,1-.38.34Z" transform="translate(-13.37 -115.08)" style="fill:url(#b43f763b-e604-4d98-9049-af949ccc1866)"/><path d="M34,136.27a.26.26,0,0,1,.08-.35.25.25,0,0,1,.34.07.25.25,0,0,1-.06.36A.27.27,0,0,1,34,136.27Z" transform="translate(-13.37 -115.08)" style="fill:url(#b081e517-07c4-405e-9af3-64a0272daad7)"/><path d="M33.1,136.74a.27.27,0,0,1,.12-.34.26.26,0,0,1,.34.12.25.25,0,0,1-.12.34A.25.25,0,0,1,33.1,136.74Z" transform="translate(-13.37 -115.08)" style="fill:url(#aaf6265f-f300-4e61-bb85-c2aa6066ecef)"/><path d="M32.13,137.06a.26.26,0,0,1,.18-.31.25.25,0,0,1,.31.17.24.24,0,0,1-.17.32A.26.26,0,0,1,32.13,137.06Z" transform="translate(-13.37 -115.08)" style="fill:url(#b5bf9dc5-1caf-4f1b-b48e-980e13c57c6e)"/><path d="M31.14,137.25a.26.26,0,0,1,.21-.29.26.26,0,0,1,.29.21.24.24,0,0,1-.22.29A.23.23,0,0,1,31.14,137.25Z" transform="translate(-13.37 -115.08)" style="fill:url(#f8964d34-b227-41b2-a6ba-e15dd8267e91)"/><path d="M30.12,137.28a.24.24,0,0,1,.25-.24.25.25,0,0,1,.26.24.27.27,0,0,1-.26.27A.26.26,0,0,1,30.12,137.28Z" transform="translate(-13.37 -115.08)" style="fill:url(#a8288ffe-4ec0-48b5-8864-d1762bb05a9f)"/><path d="M29.11,137.17a.25.25,0,1,1,.5.08.24.24,0,0,1-.29.21A.24.24,0,0,1,29.11,137.17Z" transform="translate(-13.37 -115.08)" style="fill:url(#ba12ab2f-e958-413d-8dd8-9a0735b4daae)"/><path d="M28.13,136.92a.25.25,0,0,1,.31-.17.26.26,0,0,1-.15.49A.24.24,0,0,1,28.13,136.92Z" transform="translate(-13.37 -115.08)" style="fill:url(#a6ee9308-0494-464e-8767-06e611150ab2)"/><path d="M27.19,136.52a.26.26,0,0,1,.34-.12.27.27,0,0,1,.12.34.25.25,0,0,1-.34.12A.25.25,0,0,1,27.19,136.52Z" transform="translate(-13.37 -115.08)" style="fill:url(#b794bf11-6dcf-4480-8eb2-d8f77f900ea3)"/><path d="M26.32,136a.26.26,0,0,1,.35-.07.26.26,0,0,1,.08.35.27.27,0,0,1-.36.08A.26.26,0,0,1,26.32,136Z" transform="translate(-13.37 -115.08)" style="fill:url(#a4d9f837-5b49-429b-8ef0-5eaa018e7562)"/><path d="M25.54,135.34a.25.25,0,1,1,.38.34.25.25,0,1,1-.38-.34Z" transform="translate(-13.37 -115.08)" style="fill:url(#ecff2f63-fb54-4fb1-bd7d-f975969e2b11)"/><path d="M24.87,134.58a.25.25,0,0,1,.32.39.27.27,0,0,1-.37,0A.25.25,0,0,1,24.87,134.58Z" transform="translate(-13.37 -115.08)" style="fill:url(#b4ef0568-aa4f-4d92-a007-30902c5550dd)"/><path d="M24.3,133.73a.26.26,0,0,1,.27.44.24.24,0,0,1-.35-.09A.25.25,0,0,1,24.3,133.73Z" transform="translate(-13.37 -115.08)" style="fill:url(#b8f6be50-4b49-4fee-ae94-120f5a53d82a)"/><path d="M23.87,132.81a.26.26,0,0,1,.33.14.26.26,0,0,1-.47.2A.25.25,0,0,1,23.87,132.81Z" transform="translate(-13.37 -115.08)" style="fill:url(#ad09348e-9553-43a5-8d1e-712c3e96ce0f)"/><path d="M23.58,131.84a.25.25,0,1,1,.12.49.25.25,0,0,1-.31-.18A.26.26,0,0,1,23.58,131.84Z" transform="translate(-13.37 -115.08)" style="fill:url(#fdbdb696-da93-4f3a-b6e7-0bc2959a4cf9)"/><path d="M23.43,130.83a.25.25,0,0,1,.27.23.25.25,0,0,1-.21.28.26.26,0,0,1-.29-.23A.25.25,0,0,1,23.43,130.83Z" transform="translate(-13.37 -115.08)" style="fill:url(#b09b654d-9577-47fd-ae2f-71c709cc0701)"/><path d="M23.43,129.82a.25.25,0,0,1,.24.26.27.27,0,0,1-.26.25.25.25,0,0,1-.24-.27A.24.24,0,0,1,23.43,129.82Z" transform="translate(-13.37 -115.08)" style="fill:url(#bceec8ed-ac6c-4d1c-8cd3-c337f94f430b)"/><path d="M23.58,128.81a.28.28,0,0,1,.2.3.25.25,0,0,1-.29.2.25.25,0,0,1-.21-.3A.24.24,0,0,1,23.58,128.81Z" transform="translate(-13.37 -115.08)" style="fill:url(#ec0e79a6-8051-4a71-97cc-9055fc9840fe)"/><path d="M23.87,127.84a.26.26,0,0,1,.16.32.28.28,0,0,1-.33.16.25.25,0,0,1-.16-.32A.26.26,0,0,1,23.87,127.84Z" transform="translate(-13.37 -115.08)" style="fill:url(#bea15c17-89f7-4062-991a-0cb085659173)"/><path d="M24.3,126.92a.27.27,0,0,1,.11.34.26.26,0,0,1-.34.11A.24.24,0,0,1,24,127,.24.24,0,0,1,24.3,126.92Z" transform="translate(-13.37 -115.08)" style="fill:url(#fca82d11-8816-488d-857d-78458f11c46a)"/><path d="M24.87,126.07a.25.25,0,0,1-.3.41.23.23,0,0,1-.06-.35A.25.25,0,0,1,24.87,126.07Z" transform="translate(-13.37 -115.08)" style="fill:url(#a0dbe472-009e-47eb-85be-31b1cde8b922)"/><path d="M25.54,125.31a.27.27,0,0,1,0,.36.26.26,0,0,1-.36,0,.25.25,0,0,1,0-.36A.24.24,0,0,1,25.54,125.31Z" transform="translate(-13.37 -115.08)" style="fill:url(#a7215395-ac10-47c3-af64-d15cba7ad3db)"/><path d="M26.32,124.66a.26.26,0,0,1,0,.36.27.27,0,0,1-.36,0,.26.26,0,0,1,0-.36A.26.26,0,0,1,26.32,124.66Z" transform="translate(-13.37 -115.08)" style="fill:url(#ac6bcbc7-5d9d-4770-a97e-011176c34e59)"/><path d="M27.19,124.13a.26.26,0,0,1-.1.34.25.25,0,0,1-.34-.09.25.25,0,1,1,.44-.25Z" transform="translate(-13.37 -115.08)" style="fill:url(#ba0b8446-3bde-4052-a5ce-804acab757f0)"/><path d="M28.13,123.74a.25.25,0,0,1-.48.17.23.23,0,0,1,.15-.32A.24.24,0,0,1,28.13,123.74Z" transform="translate(-13.37 -115.08)" style="fill:url(#f4143086-4ac5-447f-9d03-1b84973d5fe3)"/><path d="M29.11,123.48a.28.28,0,0,1-.19.3.26.26,0,0,1-.12-.5A.25.25,0,0,1,29.11,123.48Z" transform="translate(-13.37 -115.08)" style="fill:url(#b4b4194b-81e2-4337-9c0c-de60e3d7fdcb)"/><path d="M30.12,123.37a.26.26,0,0,1-.24.27.28.28,0,0,1-.27-.24.26.26,0,0,1,.51,0Z" transform="translate(-13.37 -115.08)" style="fill:url(#b9148b77-62c4-4c94-8c41-43b52c2ac126)"/><path d="M31.14,123.4a.28.28,0,0,1-.28.24.26.26,0,0,1-.23-.27.25.25,0,0,1,.27-.24A.25.25,0,0,1,31.14,123.4Z" transform="translate(-13.37 -115.08)" style="fill:url(#ecc01818-1620-482b-b547-81f55467710f)"/><path d="M32.13,123.59a.25.25,0,0,1-.3.19.26.26,0,0,1-.19-.3.24.24,0,0,1,.3-.2A.25.25,0,0,1,32.13,123.59Z" transform="translate(-13.37 -115.08)" style="fill:url(#b00c9440-18cf-4448-8285-4ba22c433140)"/><path d="M33.1,123.91a.26.26,0,0,1-.33.15.25.25,0,0,1-.15-.32.24.24,0,0,1,.33-.15A.23.23,0,0,1,33.1,123.91Z" transform="translate(-13.37 -115.08)" style="fill:url(#ec4b2793-38b3-4341-beb0-828d635056df)"/><path d="M34,124.38a.25.25,0,0,1-.34.09.26.26,0,0,1-.1-.34.25.25,0,0,1,.35-.1A.26.26,0,0,1,34,124.38Z" transform="translate(-13.37 -115.08)" style="fill:url(#fbdcefe9-5c12-49b7-8a53-093c792a4817)"/><path d="M34.83,125a.27.27,0,0,1-.36,0,.26.26,0,0,1,0-.36.27.27,0,0,1,.36,0A.25.25,0,0,1,34.83,125Z" transform="translate(-13.37 -115.08)" style="fill:url(#b2df9105-2aee-4a05-8b2c-77c8635a5f47)"/><path d="M35.56,125.68a.26.26,0,0,1-.36,0,.27.27,0,0,1,0-.36.24.24,0,0,1,.36,0A.25.25,0,0,1,35.56,125.68Z" transform="translate(-13.37 -115.08)" style="fill:url(#a149be15-3f06-4e80-9383-a0514f60b492)"/><path d="M36.18,126.48a.25.25,0,0,1-.3-.41.25.25,0,0,1,.36.06A.24.24,0,0,1,36.18,126.48Z" transform="translate(-13.37 -115.08)" style="fill:url(#f773b4ec-66bc-430f-a92a-ec1b2817ed23)"/><path d="M36.68,127.37a.26.26,0,0,1-.34-.11.27.27,0,0,1,.11-.34.24.24,0,0,1,.34.11A.25.25,0,0,1,36.68,127.37Z" transform="translate(-13.37 -115.08)" style="fill:url(#b82fff16-6feb-4775-b8e1-e0539b94e843)"/><path d="M37.05,128.32a.28.28,0,0,1-.33-.16.26.26,0,0,1,.16-.32.25.25,0,0,1,.32.16A.24.24,0,0,1,37.05,128.32Z" transform="translate(-13.37 -115.08)" style="fill:url(#ad43af2d-b7d7-460c-b943-3be704906d3f)"/><path d="M37.26,129.31a.25.25,0,0,1-.29-.2.27.27,0,0,1,.2-.3.25.25,0,0,1,.3.2A.26.26,0,0,1,37.26,129.31Z" transform="translate(-13.37 -115.08)" style="fill:url(#b670e36b-116e-4dca-b5b0-1cd2b2c923aa)"/><path d="M37.34,130.33a.29.29,0,0,1-.27-.25.27.27,0,0,1,.25-.26.24.24,0,0,1,.26.24A.25.25,0,0,1,37.34,130.33Z" transform="translate(-13.37 -115.08)" style="fill:url(#fddcbc12-7023-4744-b510-733718d77ee5)"/></g></g><path d="M30.37,121.88a8.45,8.45,0,1,0,8.44,8.44A8.44,8.44,0,0,0,30.37,121.88Zm0,16.34a7.9,7.9,0,1,1,7.9-7.9A7.9,7.9,0,0,1,30.37,138.22Z" transform="translate(-13.37 -115.08)" style="fill:url(#b275661f-e94c-4a38-abdf-a18dd1ea86b2)"/><path d="M33.46,131.8h-1.6a.13.13,0,0,1-.13-.13v-5.76a.13.13,0,0,0-.13-.13H31l-.06,0a14.67,14.67,0,0,1-1.81.84,6.12,6.12,0,0,1-1.68.35.12.12,0,0,0-.12.13v1.38a.13.13,0,0,0,.13.13h1.68a.13.13,0,0,1,.13.13v2.91a.13.13,0,0,1-.13.13H27.44a.13.13,0,0,0-.14.13v1.79a.13.13,0,0,0,.13.14h6a.14.14,0,0,0,.14-.14v-1.79A.13.13,0,0,0,33.46,131.8Z" transform="translate(-13.37 -115.08)" style="fill:url(#ff2ae6d9-08ba-4ac0-ac19-c58ad36aea6f)"/><path d="M31.73,132h1.52a.13.13,0,0,1,.13.13v1.48a.13.13,0,0,1-.13.13H27.64a.13.13,0,0,1-.14-.13v-1.48a.13.13,0,0,1,.14-.13h1.58a.13.13,0,0,0,.13-.13v-3.26a.13.13,0,0,0-.13-.13H27.64a.13.13,0,0,1-.14-.13v-1.07a.12.12,0,0,1,.12-.12,8.08,8.08,0,0,0,3.19-1.2l.07,0h.59a.13.13,0,0,1,.13.13v5.8A.13.13,0,0,0,31.73,132Z" transform="translate(-13.37 -115.08)" style="fill:url(#feb6a77b-f0c5-48cb-9771-ead21de60df0)"/></g><path d="M44.75,147.1h0l2.63.34a16.67,16.67,0,0,0-3.45-7.23h0c-.4-.52-.81-1-1.2-1.44a5.34,5.34,0,0,0,.66-.59.84.84,0,0,0,.24-.85,11.91,11.91,0,0,0-1.89-1.51,4.61,4.61,0,0,0,.5.07,2.86,2.86,0,0,0,1-.1h0a1.85,1.85,0,0,0,.33-.12l.22-.11.08-.05a2.61,2.61,0,0,0,.27-.19h0a2.68,2.68,0,0,0,.26-.23h0a4.53,4.53,0,0,0,.85-1.25.82.82,0,0,0,0-.87,11.9,11.9,0,0,0-2.26-.86,4.21,4.21,0,0,0,.49-.09,2.64,2.64,0,0,0,.61-.23,2.69,2.69,0,0,0,.29-.16l.28-.22.17-.18.07-.07a2.48,2.48,0,0,0,.19-.26h0c.06-.1.12-.2.17-.3h0a4.58,4.58,0,0,0,.43-1.45.84.84,0,0,0-.3-.83,11.48,11.48,0,0,0-2.42-.11,3.2,3.2,0,0,0,1.17-.89,1.21,1.21,0,0,0,.2-.3.91.91,0,0,0,.11-.22l0-.09a2.64,2.64,0,0,0,.1-.3v0a1.94,1.94,0,0,0,.07-.33h0a4.78,4.78,0,0,0,0-1.51.84.84,0,0,0-.54-.7,11.53,11.53,0,0,0-2.33.64,3.33,3.33,0,0,0,.71-.91,2.08,2.08,0,0,0,.13-.3h0c0-.11.07-.23.1-.34a1.9,1.9,0,0,0,0-.25s0-.06,0-.09v-.33h0c0-.12,0-.23,0-.34h0a4.3,4.3,0,0,0-.51-1.43.8.8,0,0,0-.72-.49,11.69,11.69,0,0,0-2,1.33,3.25,3.25,0,0,0,.43-1.41h0a2.17,2.17,0,0,0,0-.36c0-.08,0-.16,0-.24s0-.06,0-.1-.06-.2-.1-.31h0a4.21,4.21,0,0,0-1.07-1.51.83.83,0,0,0-.84-.25,11.49,11.49,0,0,0-1.51,1.9,3.93,3.93,0,0,0,.07-.83,2.84,2.84,0,0,0-.1-.65c0-.11-.08-.23-.12-.33L36,117l-.05-.09a2.4,2.4,0,0,0-.18-.26h0a2.85,2.85,0,0,0-.23-.26h0a4.61,4.61,0,0,0-1.25-.85.8.8,0,0,0-.88,0,11.61,11.61,0,0,0-.86,2.26,3.17,3.17,0,0,0-.48-1.39,3,3,0,0,0-.22-.28c0-.06-.12-.12-.18-.18l-.07-.06-.26-.2h0a4.1,4.1,0,0,0-1.75-.6.81.81,0,0,0-.82.3,11.19,11.19,0,0,0-.12,2.42c0-.06-.05-.11-.07-.17a3.32,3.32,0,0,0-.82-1l-.29-.2-.22-.11-.09,0-.31-.1h0l-.34-.07h0a4.26,4.26,0,0,0-1.51.05.8.8,0,0,0-.7.54A12.28,12.28,0,0,0,24.9,119a4,4,0,0,0-.36-.35,3.17,3.17,0,0,0-.54-.36l-.3-.13a2.3,2.3,0,0,0-.35-.1l-.24,0H23a1.71,1.71,0,0,0-.32,0h0l-.34,0h0a4.47,4.47,0,0,0-1.42.51.83.83,0,0,0-.5.73,11.75,11.75,0,0,0,1.33,2l-.16-.08-.29-.14a2.89,2.89,0,0,0-1-.2h0a2,2,0,0,0-.35,0l-.25,0-.09,0a2.8,2.8,0,0,0-.31.09h0l-.31.14h0a4.68,4.68,0,0,0-1.2.92.84.84,0,0,0-.24.85,11.91,11.91,0,0,0,1.89,1.51,4.61,4.61,0,0,0-.5-.07,2.86,2.86,0,0,0-1,.1,2,2,0,0,0-.34.12l-.22.12-.08,0a2.61,2.61,0,0,0-.27.19h0l-.26.23h0a4.68,4.68,0,0,0-.85,1.25.84.84,0,0,0,0,.88,11.42,11.42,0,0,0,2.26.85,3.3,3.3,0,0,0-1.39.48h0l-.27.21a1.54,1.54,0,0,0-.17.19l-.07.06a2.61,2.61,0,0,0-.19.27h0a4.11,4.11,0,0,0-.6,1.74.84.84,0,0,0,.3.83,11.48,11.48,0,0,0,2.42.11l-.28.15a4.55,4.55,0,0,0-.43.28l-.25.22c-.07.08-.15.16-.21.24a1.74,1.74,0,0,0-.2.3,1.13,1.13,0,0,0-.11.22l-.05.09a2.81,2.81,0,0,0-.1.31h0a1.94,1.94,0,0,0-.07.33h0a4.8,4.8,0,0,0,.05,1.51.84.84,0,0,0,.54.69,11.53,11.53,0,0,0,2.33-.64,3.6,3.6,0,0,0-.54.63,2.89,2.89,0,0,0-.3.58c0,.11-.07.23-.1.34l0,.25s0,.06,0,.1v.34a1.1,1.1,0,0,0,0,.18c-2,2.13-4.51,5.44-5.12,9.18L16,147.1h.12c1.19-.15,2.43-.28,3-.31h.18v0l0,0v0a17.91,17.91,0,0,0,3.1,5.16,64.84,64.84,0,0,1,3.09-6h0c.29-.49.59-1,.91-1.47l0,0c.14.08.29.17.44.24a.84.84,0,0,0,.88,0,11.8,11.8,0,0,0,.86-2.27,3.08,3.08,0,0,0,.48,1.39h0a3,3,0,0,0,.22.28c.05.06.12.11.18.17l.07.06a1.64,1.64,0,0,0,.26.2h0l.29.17h0a4.25,4.25,0,0,0,1.45.42.82.82,0,0,0,.82-.29,11.3,11.3,0,0,0,.12-2.42,3.24,3.24,0,0,0,.64.95l.25.22h0l.29.19.1,0A59,59,0,0,1,38.3,152a18.15,18.15,0,0,0,3.1-5.16v-.08h.19c.58,0,1.82.16,3,.31Z" transform="translate(-13.37 -115.08)" style="opacity:0.32;mix-blend-mode:overlay;fill:url(#ba2cbd36-ab75-4ddf-bd36-81d269ea7257)"/></g></g></svg>