<svg id="OBJECTS" xmlns="http://www.w3.org/2000/svg" viewBox="0 0 713.37 111.3"><title>backgroung_carotv_2</title><rect width="713.37" height="111.3" style="fill:#e6ac51"/><g style="opacity:0.7000000000000001"><path d="M757,146.17v18.74H483.66a59.25,59.25,0,0,1-11.81-4.6,32.64,32.64,0,0,1-3.45-2.14c-.31-.21-.6-.43-.89-.65l28.18,2.12,7.24.54,5.56.42a98.81,98.81,0,0,0,15.09.37c2.26-.18,4.5-.51,6.74-.9,4.35-.76,8.66-1.74,13.06-2.23,11.3-1.26,22.61.72,33.94,2.07,2.32.26,4.65.51,7,.7a153,153,0,0,0,30.78-.82,210.32,210.32,0,0,0,27.43-5.34c4.43-1.15,8.87-2.44,13.49-2.66,5.34-.25,10.6.92,15.9,1.45,24,2.45,47.49-8,71.7-8A105,105,0,0,1,757,146.17Z" transform="translate(-43.62 -53.61)" style="fill:#e5a049"/><path d="M272.1,107.33a365.63,365.63,0,0,1-87-13.46A337.71,337.71,0,0,1,144,79h0c-9-3.83-17.85-7.88-26.78-11.91h0c-3.34-1.5-6.67-3-10-4.5l-2.28-1Q96,57.58,87,53.61h30.62c5.79,3.07,12.27,5.3,18.63,7.47l129,43.94Z" transform="translate(-43.62 -53.61)" style="fill:#e5a049"/><path d="M678.21,53.61c-1,.77-2,1.51-3,2.22C667.57,61,657.67,64.36,647,67l-.7.17h0c-1.24.31-2.5.59-3.76.87-4.48,1-9,1.88-13.6,2.7-1.79.34-3.56.65-5.33,1l-35.94,6.4c-12.41,2.2-24.85,4.41-37.59,5.71-13.13,1.33-26.48,1.67-39.8,1.88-53.11.78-106.32-.81-159.06-4.73-38.39-2.86-79.58-8-106.75-24.22q-2.49-1.49-4.81-3.1Z" transform="translate(-43.62 -53.61)" style="fill:#e5a049"/><path d="M633.6,53.61a146.46,146.46,0,0,1-20.06,6.2c-13,2.7-27.55,3.9-41,5.79-23.58,3.34-43.7,3.83-67.45,3.2-9.55-.26-18.85,1.75-28.37,2.32-20.14,1.2-40.07-2.78-60.59-1.59-7.67.44-15.29,1.23-23,1.41-11.71.27-23.37-.88-34.94-2a295,295,0,0,1-29.67-4,195.56,195.56,0,0,1-27.18-8c-1.39-.51-7.25-1.93-12.05-3.36h18.2a154.89,154.89,0,0,1,16.52,5.69,45.91,45.91,0,0,0,10,3.35,73.87,73.87,0,0,0,8.34.63c8.28.44,16.26,2,24.41,3,16.57,2,33.64,1.65,50.54,1.27l33.88-.77,50-1.12,41.27-.93c13.66-.31,27.49-.63,40.62-2.94,5.49-1,10.8-2.27,16.36-3,8.71-1.21,18.12-1.17,25.89-3.83,1.12-.38,2.2-.82,3.24-1.29Z" transform="translate(-43.62 -53.61)" style="fill:#d49243"/><path d="M684.56,53.61a204.57,204.57,0,0,1-31.44,12.65h0c-4.39,1.4-8.87,2.68-13.42,3.89h0c-7,1.85-14.15,3.48-21.38,4.91-28.4,5.65-58.07,8.48-87.61,11.29-19.64,1.88-39.49,3.76-59.34,3-10.57-.42-21-1.6-31.56-2.25-13.89-.87-27.88-.82-41.85-.82-15.92,0-32.07-.1-48-.91h-.06c-5.51-.27-11-.63-16.43-1.11h0c-17.59-1.51-34.73-4.16-50.79-8.8a51.34,51.34,0,0,1-9.78-3.64c-2.66-1.43-4.78-3.21-7.51-4.58-9.24-4.66-25.35-5-29-11.94a64.14,64.14,0,0,1,8.15,1.45c8.48,2,16.16,5.44,24.06,8.32,45.89,16.72,102.55,16.81,156.07,16.41L483.45,81c12.62-.09,25.23-.19,37.82-.64,31.78-1.15,63.21-4.59,94.54-8,4.39-.49,8.8-1,13.14-1.6a114.4,114.4,0,0,0,13.6-2.7c1-.26,1.92-.54,2.86-.83C656.3,63.76,665.2,58,675,53.61Z" transform="translate(-43.62 -53.61)" style="fill:#d49243"/><path d="M726.32,53.61a16.86,16.86,0,0,0-2.23,1.19c-1.73,1.1-3.11,2.45-5.26,3.22-4.67,1.69-10.57,0-16,.1-8.8.16-15.14,4.92-22.34,8a72.51,72.51,0,0,1-18.36,4.73c-6.53.81-13.67-.19-19.78,1.83a38.4,38.4,0,0,0-7.86,4.12c-18.23,10.85-45,14-70.18,16.58-31.44,3.2-63.56,6.18-95.08,3.27a191.18,191.18,0,0,0-35.24.06c-11.37,1.22-20.91,5.84-32.85,5.55a106.67,106.67,0,0,1-25-3.52c-5.68-1.52-11-3.52-16.81-4.89-29.48-6.94-65.6,3.37-93.24-6C259.12,85.56,253,82,245.14,81.2c-5.75-.6-11.76.35-17.44-.46-7.37-1-12.68-4.79-18.32-7.86-9.22-5-20.32-8.55-31.3-12-8.05-2.56-16.27-5.14-24.72-7.24h10.41a79.31,79.31,0,0,1,8.07,2c4.29,1.36,6.83,3.24,11,4.75,8.36,3,19,2.3,27.22,5.7,6.27,2.6,9.75,7.19,16.11,9.72,8.86,3.54,20.56,2.18,31,3.43,10.62,1.27,19.95,5.32,30.62,6.44a117.22,117.22,0,0,0,16.45.16c9.81-.38,19.51-1.48,29.18-1.59h0a95.68,95.68,0,0,1,16.43,1.11h.06l.5.09c16.44,2.81,31.23,8.79,48.58,9.63,16.27.79,32.13-3.09,48.39-4,15.85-.84,31.68,1.18,47.56,1.71,28.06,1,55.92-2.72,83.36-6.36,17.61-2.35,36-4.78,51.58-10.56,4.55-1.7,7-3.85,9.78-5.72h0a20.71,20.71,0,0,1,6.63-3h0L647,67a32.59,32.59,0,0,1,6.08-.71h0c.21,0,.44,0,.67,0,7.93-.19,16.35.62,23.44-1.54,7.85-2.41,12.85-8.17,21.57-8.87,2.85-.23,5.75.14,8.63,0a35.69,35.69,0,0,0,10.65-2.23Z" transform="translate(-43.62 -53.61)" style="fill:#d49243"/><path d="M757,96.77v5.8l-21.18,5.5c-18.47,4.8-37,9.62-56.25,13.14-43.92,8-90.36,9.13-136.2,10.16L468.86,133c-49.85,1.12-100.58,2.18-148.74-5.69-25.09-4.11-50.42-10.66-76.09-8.2-6.74.65-13.37,1.92-20.19,1.91a103.77,103.77,0,0,1-17.24-2L147.34,109a103.56,103.56,0,0,0-15.12-1.82c-4.32-.1-8.64.32-13,.28a120.68,120.68,0,0,1-18.89-2.12L43.62,95.88v-4q16.71,2.85,33.5,5.5c7.08,1.12,14.94,1.79,21.75,3.41,5.68,1.35,9.65,3.56,16.39,3.19,3.92-.22,7.52-1.34,11.25-2.09s8.09-1.08,11.41.21c3.07,1.18,4.69,3.53,8,4.41,2.64.72,5.69.32,8.56.47,5,.26,9.38,2.16,14.32,2.55,5.6.45,10.34-.43,15.73,1,10.14,2.58,19.36,5.7,30.56,6.38,13.47.83,27-.91,40.42-1.32a56.38,56.38,0,0,1,9.11.27,69.63,69.63,0,0,1,10.1,2.48c14.65,4.17,30.31,3.18,45.41,5.85,5,.89,8.42,2.86,13.1,4.12,7.88,2.1,14.12.31,22.14-.55A49.18,49.18,0,0,1,375,129.58c1.76.55,3.44,1.22,5.3,1.64,3.91.87,8.22.58,12.35.28,16.91-1.22,32.53-.58,49.47-.93,9.35-.19,21.23.46,29.52-2.43,2.25-.79,4.43-1.82,7-1.95,4.43-.22,7.94,2.2,12.18,3,7.38,1.41,14.49-2.19,21.65-4,11.25-2.79,24-1,35.88.4,10.66,1.26,21.21,1,32,1.43,10.07.37,17.51-1.79,27.53-2.68,5.06-.46,10.21-.09,15.31-.07a104.87,104.87,0,0,0,28.09-3.64c4.06-1.12,8-2.5,12.36-3.08,4-.52,8.11-.35,12.16-.66a95.67,95.67,0,0,0,12.45-2.08c8.27-1.78,17.92-3,24.79-6.27,7.26-3.43,11.67-6.83,22.05-6.54a66,66,0,0,0,8.77.17C749,101.7,753,99.12,757,96.77Z" transform="translate(-43.62 -53.61)" style="fill:#d49243"/><path d="M757,73.66v4.06c-3.15.89-6.13,1.64-8.27,2.31a.42.42,0,0,0-.12,0q-15,4.67-30.66,8.45c-7.82,1.89-15.86,3.64-22.7,6.61-7.51,3.26-13.88,7.12-23,8.76-8.06,1.45-16-1.62-23.45-.27-4.74.85-6.66,4-10.83,5.28-4.66,1.49-9.3,1-14.47.8-12-.5-24.26-1.92-36,.21-4.11.75-7.89,2-11.84,3.09-16.62,4.41-34.82,1.63-51.08,5.28-10.21,2.29-16.54,5.72-28.26,3.47-4.3-.81-8.29-2.25-12.75-2.62a64.3,64.3,0,0,0-11.51.54c-14.7,1.41-28.91.94-43.35,0-13.71-.86-26.62,4.55-40.41,2.91-16.07-1.9-32.43-.15-48.53-3.38-8.79-1.76-17-4.54-25.86-6.1-9.9-1.73-20.32-1.87-30.59-2.32-54.58-2.42-107.95-14.32-152.14-33.93-7-3.11-13.8-6.42-20.58-9.72-9.5-4.62-17.7-9-26.72-13.55h3.5c3.7,1.65,7.27,3.43,12,4.16,7.45,1.15,12.8,5,17.3,8.82.18.16.35.3.54.45h0c7.43,6,15.68,8.62,26.78,11.91h0l1.55.46c6.87,2,15.25,3.74,21.16,6.63,6.1,3,9.11,6.13,17.9,6.54,2.43.11,4.9,0,7.29.27,5.46.64,9.66,3.19,14.49,4.87,7.17,2.49,9.88,2.77,17.67,2.36,4.31-.21,7.47,2.28,11.24,3.57,6.71,2.27,15,.58,22.73.73a59.25,59.25,0,0,1,7.3.63c7.14,1,14.14,2.71,21.4,2.37,4.14-.2,8.21-1.07,12.35-.85a54.57,54.57,0,0,1,10.33,2c7.66,1.89,15.83,1.95,23.35,3.92,6.72,1.76,13.32,5.56,21.19,4.71,4.43-.47,8.76-2.47,13-1.56,1.46.32,2.69,1,4.14,1.31a22.06,22.06,0,0,0,4.26.4c12,.33,23.93-.13,35.65,1.12,1.16,1.51.95-1.13,3.34-2,10.51-3.74,23.68-1.81,35.83-1.2,8.14.41,19.4,2.37,26.94.42,4.16-1.08,8.44-2.49,12.91-2.08,3.87.36,7,2,10.6,3,11.32,3.06,21.61-1.76,32.81-2.17,11.5-.43,22.21.53,33.56-1.7,9.9-2,18.61-6.34,29-7.25s21.9,2.8,31.85.58c6.46-1.44,10.41-5.68,16.91-7,7.4-1.54,14.4,1.46,21.58.68,6-.65,12.3-4.12,17.83-5.89a394.83,394.83,0,0,1,47-11.77c6-1.11,12-2.12,17.32-4.1A68.64,68.64,0,0,0,757,73.66Z" transform="translate(-43.62 -53.61)" style="fill:#d49243"/><path d="M757,122.29v3.79c-3.83.57-7.64,1.13-11.38,1.74-9.27,1.53-18.65,3.06-28.24,3.14a43.75,43.75,0,0,0-7.54.39c-2.77.51-5.09,1.66-7.81,2.27-3.72.84-7.81.58-11.77.51-21.52-.33-41.86,5.48-63,7.92-29.9,3.47-60.92.13-91,2.72-28.2,2.44-56.55,10-84.13,5.7-8.36-1.32-16.19-3.68-24.49-5.14-12.62-2.23-25.56-.09-38.51-.4q-22.32-.51-44.64-1.1-45.56-1.2-91.07-2.65c-14.06-.45-28.15-.91-42-2.41-24.76-2.67-48.58-8.59-73.66-9.57-13.83-.55-27.86.43-41.44-1.24-8.34-1-16.27-3-24.5-4.31-9.18-1.46-19.08-2.15-28.12-3.81v-5.28c27.41,6.2,55.59,11.83,84.71,11.56,13.67-.13,27.51-1.56,40.9.09,9.59,1.19,18.49,3.9,27.92,5.48a236.1,236.1,0,0,0,26.38,2.4q27,1.4,54.11,2.48c23.19.91,46.46,1.64,69.68,1,20.4-.58,40.91-2.22,61.15-.57,21.49,1.75,42,7.17,63.59,8.06,26.8,1.09,52.92-4.81,79.62-6.61,20.82-1.39,41.87-.28,62.82-.73,28.2,0,56.77-4.11,84.16-7.72,14.48-1.92,28.93-3.91,43.49-5.59C745.89,124,751.41,122.94,757,122.29Z" transform="translate(-43.62 -53.61)" style="fill:#d49243"/><path d="M484.21,160.26l-12.36.05-37.12.15-46.34.19-80.28.32c-12.49.05-25,.09-37.49,0q-39.31-.35-78.57-2.76A227.5,227.5,0,0,1,160.88,154c-10-2-19.91,2.6-30.06,1.12-5-.74-9.94-2.45-15-2.23-6.62.29-12.74,3.81-19.36,3.54-9.32-.37-16.68-8.08-26-8.09-3.59,0-7,1.14-10.44,2.06A79.29,79.29,0,0,1,43.62,153v-3.63c5.56.73,11.39,1.4,15.62.28,3.86-1,7.26-3.27,11.26-3.71,7.67-.84,14.18,5.18,21.87,5.86s14.94-4.15,22.72-3.91c4,.13,7.74,1.6,11.64,2.36,15.4,3,30.15-4.46,45.38,0,15.71,4.58,31.7,3.21,47.85,4.76,16.82,1.62,33.78.7,50.79-.83,5.15-.46,10.73-.93,15.18,1.37.87-3.05,4.75-4.85,8.4-5s7.2.95,10.7,1.84a93.52,93.52,0,0,0,40.88,1c3.46-.69,6.95-1.58,10.48-1.38a39.72,39.72,0,0,1,8.14,1.72,189.49,189.49,0,0,0,57.67,6c16.07-.86,30.72-2.59,46.2-1.53a118.64,118.64,0,0,1,13.75,1.71Z" transform="translate(-43.62 -53.61)" style="fill:#d49243"/><path d="M484.21,160.26l9.67,0a17.47,17.47,0,0,1-1.8.42A23.47,23.47,0,0,1,484.21,160.26Z" transform="translate(-43.62 -53.61)" style="fill:#d49243"/><path d="M757,143.47v6.8A170.06,170.06,0,0,0,707.49,153c-8,1.63-15.83,3.85-24,4-10.88.15-21.69-3.43-32.46-2.1-5.47.66-10.62,2.57-16,3.63-6.51,1.29-13.26,1.32-20,1.34h-.21q-18.76,0-37.54.12-23.51.06-47,.16l-25.51.1h-1.88l-9.05,0c.62-.18,1.21-.37,1.81-.58,1.1-.38,2.19-.8,3.33-1.12,8.59-2.42,18,.68,27-.64,4-.6,7.74-2.07,11.6-3.13,15.81-4.32,31.16-.18,46.92-.7,11-.35,22.83-2.48,33.81-1.94,10.16.51,18.1,2.5,28.14-1.49,3.43-1.36,6.74-3.19,10.5-3.5,5.87-.49,11.24,2.77,17.07,3.53a40.68,40.68,0,0,0,10.21-.4L699,148.43c13.5-1.67,27-2.12,40.4-3.59C743.69,144.36,750.28,143.62,757,143.47Z" transform="translate(-43.62 -53.61)" style="fill:#d49243"/></g><rect width="713.37" height="2.16" style="fill:#fdc465"/></svg>