<svg id="Layer_1" data-name="Layer 1" xmlns="http://www.w3.org/2000/svg" viewBox="0 0 295.63 278"><title>check_false</title><path d="M247.07,1026.5a4.62,4.62,0,0,1-1.23-.17,4.5,4.5,0,0,1-2.17-1.38l-2.76-3.17-2.3.4a4.22,4.22,0,0,1-.79.07,4.67,4.67,0,0,1-1.44-.23l-48.29,4.46-.41,0H104a4.49,4.49,0,0,1-4.5-4.5V987.58l3.54-85-3.27-9.07A4.44,4.44,0,0,1,99.5,892V780.69a4.28,4.28,0,0,1,.09-.87l3.69-18.69a4.51,4.51,0,0,1,4.42-3.63H377.93a4.51,4.51,0,0,1,4.42,3.63L386,779.82a4.28,4.28,0,0,1,.09.87v54.42l-1.83,56.52,1.74,8.84a4.31,4.31,0,0,1,.09.88V1022a4.49,4.49,0,0,1-4.5,4.5Z" transform="translate(-95 -753)" style="fill:#4c301c"/><path d="M377.93,762l3.7,18.69V835l-1.48,45.73L379.78,892l1.85,9.35V1022H247.07l-4.43-5.08h-.13l-4.69.82.45-.43L187.68,1022H104V987.77l3.16-76h0l.41-9.88L104,892V780.69L107.7,762H377.93m0-9H107.7a9,9,0,0,0-8.83,7.25L95.17,779a9.25,9.25,0,0,0-.17,1.74V892a9.06,9.06,0,0,0,.53,3l3,8.24-.33,8.08v0l-3.16,76c0,.13,0,.25,0,.38V1022a9,9,0,0,0,9,9h83.68a7.5,7.5,0,0,0,.82,0l47.52-4.39a9,9,0,0,0,1.8.18,8.89,8.89,0,0,0,1.36-.1l1.1,1.26a9,9,0,0,0,6.79,3.09H381.63a9,9,0,0,0,9-9V901.35a9.35,9.35,0,0,0-.17-1.75l-1.65-8.34.33-10.28,1.49-45.72V780.69a9.25,9.25,0,0,0-.17-1.74l-3.7-18.7a9,9,0,0,0-8.83-7.25Z" transform="translate(-95 -753)" style="fill:#4c301c"/><polygon points="287 27.69 283.3 9 13.07 9 9.37 27.69 11.22 27.69 9.37 37.04 287 37.04 285.15 27.69 287 27.69" style="fill:#af7b58"/><polygon points="287 269 186.35 269 152.44 269 148.19 263.9 93.05 269 9.37 269 9.37 234.77 12.94 148.9 9.37 139 9.37 84.93 9.37 27.69 51.14 27.69 130.31 31.94 135.07 24.29 218.61 27.69 287 27.69 287 81.97 285.15 139 287 148.35 287 197.88 287 269" style="fill:#996844"/><polygon points="132.47 59.13 135.06 24.29 130.25 31.94 132.47 59.13" style="opacity:0.1"/><polygon points="159.83 248.61 152.44 269 148 263.9 159.83 248.61" style="opacity:0.1"/><polygon points="273.32 144.95 285.15 139 287 148.35 273.32 144.95" style="opacity:0.1"/><path d="M238.19,1017.75l16.64-16.14s-11.72,15.29-11.78,15.29Z" transform="translate(-95 -753)" style="fill:#fff;opacity:0.1"/><polygon points="24.53 144.1 9.37 139 13.07 149.2 24.53 144.1" style="opacity:0.1"/><polygon points="12.53 158.78 24.53 144.1 13.07 149.2 12.53 158.78" style="fill:#fff;opacity:0.1"/><polygon points="124.99 31.66 132.41 58.4 130.25 31.94 124.99 31.66" style="fill:#fff;opacity:0.1"/><polygon points="285.15 139 273.32 144.95 285.52 127.69 285.15 139" style="fill:#fff;opacity:0.1"/><ellipse cx="52.25" cy="85.47" rx="11.46" ry="14.44" style="fill:#fff;opacity:0.1"/><ellipse cx="217.68" cy="202.3" rx="9.06" ry="20.82" style="fill:#fff;opacity:0.1"/><ellipse cx="260.57" cy="55.31" rx="12.75" ry="10.62" style="fill:#fff;opacity:0.1"/><ellipse cx="174.43" cy="47.66" rx="4.25" ry="9.77" style="fill:#fff;opacity:0.1"/><ellipse cx="23.97" cy="229.92" rx="2.4" ry="14.44" style="fill:#fff;opacity:0.1"/><path d="M106.27,942.06s81.83-9.83,112.15,0c-32,6.24-112.2,6-112.77,6C105.85,948.08,106.27,942.06,106.27,942.06Z" transform="translate(-95 -753)" style="opacity:0.1"/><path d="M381.08,857.88s-48.69,9.83-66.73,0c19-6.24,66.76-6,67.1-6C381.33,851.86,381.08,857.88,381.08,857.88Z" transform="translate(-95 -753)" style="opacity:0.1"/><path d="M165.74,943" transform="translate(-95 -753)"/></svg>