<svg id="Layer_1" data-name="Layer 1" xmlns="http://www.w3.org/2000/svg" viewBox="0 0 648 648"><defs><style>.cls-1{fill:#996844;}.cls-2{fill:#fff;}.cls-2,.cls-3,.cls-4{opacity:0.1;}</style></defs><title>matching_background</title><rect class="cls-1" width="648" height="648"/><ellipse class="cls-2" cx="63.9" cy="60.3" rx="31.9" ry="20.82"/><ellipse class="cls-2" cx="518.9" cy="118.3" rx="31.9" ry="20.82"/><ellipse class="cls-2" cx="106" cy="569.3" rx="21" ry="20.82"/><ellipse class="cls-2" cx="77" cy="353.74" rx="8" ry="29.26"/><ellipse class="cls-2" cx="398" cy="450.74" rx="8" ry="29.26"/><path class="cls-3" d="M56,661.06s288.18-9.83,394.94,0c-112.61,6.24-395.12,6-397.12,6C54.51,667.08,56,661.06,56,661.06Z" transform="translate(-53 -380)"/><path class="cls-3" d="M700.06,912.69s-113.87,9.84-156.06,0c44.5-6.23,156.14-6,156.93-6C700.65,906.68,700.06,912.69,700.06,912.69Z" transform="translate(-53 -380)"/><path class="cls-3" d="M698.75,562.69s-288.18,9.84-394.94,0c112.61-6.23,395.12-6,397.12-6C700.23,556.68,698.75,562.69,698.75,562.69Z" transform="translate(-53 -380)"/><g class="cls-4"><path d="M68.82,847.41c3.8-5.29,10.08-7,16.15-8.3,7.39-1.54,14.89-2.7,22.37-3.74a417.49,417.49,0,0,1,45.79-3.76q10.62-.3,21.25,0c7.74.18,16.63-.4,23.82,2.94,10.87,5,15.57,17.94,19.08,28.52,1.74,5.25,3.78,11.59,1.88,17.07-2.78,8-12.43,7.85-19.42,8.1s-14.15.26-21.21,0c-7.28-.28-16.48.28-23.07-3.36-5.82-3.21-10.35-9.88-14.78-14.75l-7.62-8.38c-2.22-2.45-6.93-6-7.53-9.31-1.28-7.11,11.69-9.29,16.34-10.43,7.73-1.89,15.78-3.13,23.74-2.21A34.93,34.93,0,0,1,185.9,849a25.91,25.91,0,0,1,5.49,7.59c1.16,2.5,3,7.2-.82,9.16-1.65.84-4.94.25-6.68.12-8.43-.64-17.44-3-24.75-7.28a11.09,11.09,0,0,1-2.86-2c-3.3-4.1,1.34-8.6,5.25-8.91,4.84-.39,8.94,3.59,12,6.8,1.33,1.41,3.44-.71,2.12-2.12-4.28-4.52-10.74-9.67-17.36-7-4.6,1.89-8.09,7.77-4.92,12.31,2,2.91,6,4.4,9.09,5.76a65.24,65.24,0,0,0,14,4.36c4.89.93,14.81,3.39,18.56-1.4s-1.54-13.28-4.58-17a35.61,35.61,0,0,0-18.6-11.57c-8.84-2.3-18.19-1.5-27,.36-6.61,1.39-16.12,2.78-20.6,8.56-4.67,6,1.61,11.36,5.51,15.64,6.86,7.54,13.38,16.36,21.24,22.88,6.35,5.26,15,5.23,22.8,5.66a235.53,235.53,0,0,0,32-.06c6.33-.52,13-2.32,15.8-8.6s.74-13.86-1.32-20.06c-4.59-13.78-11.24-29.38-27.09-32.44-11-2.12-23-1.46-34.16-1.31q-18.36.24-36.64,2.1-17,1.71-33.87,4.81c-8.3,1.53-17,3.24-22.19,10.5-1.12,1.57,1.48,3.07,2.59,1.51Z" transform="translate(-53 -380)"/></g><g class="cls-4"><path d="M682.05,722.54a753.76,753.76,0,0,1-160.43,5,748.58,748.58,0,0,1-79.5-10.34c-24.86-4.6-49.24-11.46-74.11-15.93-25.77-4.63-52.46-5.9-77,4.55-1.77.75-.24,3.34,1.52,2.59,23.73-10.1,49.83-8.71,74.7-4.25s49.25,11.33,74.11,15.93a755.25,755.25,0,0,0,155.1,12.41,762.41,762.41,0,0,0,86.43-7c1.9-.27,1.09-3.16-.8-2.9Z" transform="translate(-53 -380)"/></g><g class="cls-4"><path d="M445.94,724c-9.24,12-23.13,18.59-37.3,23a360.29,360.29,0,0,1-47.09,11.12c-17.69,3-36.2,3.93-53.48-1.71-11.92-3.89-26.76-11.69-37.48-.83-1.36,1.38.76,3.5,2.12,2.13,7.08-7.18,17.3-4.73,25.67-1.67,7.91,2.89,15.56,5.52,23.94,6.62,16.42,2.18,33.07-.07,49.18-3.38,26.63-5.47,59.42-10.85,77-33.8,1.18-1.53-1.43-3-2.59-1.51Z" transform="translate(-53 -380)"/></g><g class="cls-4"><path d="M456.2,726c-6.64,18.09,4.22,35.46,14.65,49.54,11.09,15,25.8,35.44,14,54.24-1,1.64,1.57,3.15,2.59,1.51,9.65-15.42,2.46-33.8-6.9-47.43-11.34-16.54-29.5-35.22-21.49-57.06.67-1.82-2.23-2.6-2.89-.8Z" transform="translate(-53 -380)"/></g><path class="cls-1" d="M218.36,481.08c1,11.24,3.6,23.06,11.66,31.47a33.81,33.81,0,0,0,27.8,10c22.12-2.57,35.07-26.7,25.76-46.63-.82-1.75-3.41-.23-2.6,1.51,8.77,18.76-4.72,41.43-25.54,42.3a30.84,30.84,0,0,1-24.28-10.35c-6.74-7.76-8.91-18.33-9.8-28.27-.17-1.91-3.17-1.93-3,0Z" transform="translate(-53 -380)"/><g class="cls-4"><path d="M378.06,486.41c-14.74-18.9-42.27-25.87-65.34-25.22-11.05.31-22.64,3.4-30.08,12.07-6.11,7.11-9.36,17.52-5.34,26.43,4.39,9.76,15.53,14.26,25.42,16,10.51,1.82,22.57.84,30.63-6.9,7.12-6.84,10-17.95,4.21-26.53-5.18-7.7-17.34-13.84-26.57-13.58-12.49.34-13.78,14.61-7.44,22.65,2.91,3.7,8.35,8.95,13.6,7.76a5.71,5.71,0,0,0,3.91-8.34c-.94-1.68-3.53-.17-2.59,1.52l-5.7,3.14-1.45-.87a16.46,16.46,0,0,1-3.35-2.78,19.68,19.68,0,0,1-4.14-5.61c-2.65-5.6-1.09-13.24,5.91-14.3,7.6-1.15,18.06,4.18,23.25,9.55,6.82,7.09,5.59,17.33-.8,24.28-6.11,6.65-15.63,8.39-24.28,7.68-8.35-.68-17.77-3.22-23.9-9.26-6.45-6.35-6.78-15.58-2.81-23.36,8.37-16.39,28.53-17.73,44.7-15.83,18.64,2.19,38.09,8.33,50,23.65,1.19,1.52,3.29-.61,2.12-2.12Z" transform="translate(-53 -380)"/></g></svg>